<svg xmlns="http://www.w3.org/2000/svg" width="36.618" height="27.893" viewBox="0 0 36.618 27.893">
  <g id="mail" opacity="0.9">
    <g id="Group_4" data-name="Group 4" transform="translate(1.84 0)">
      <g id="Group_3" data-name="Group 3" transform="translate(0 0)">
        <path id="Path_27" data-name="Path 27" d="M57.281,61H27.1a3.181,3.181,0,0,0-1.379.323l16.4,16.4,3.675-3.532h0L58.661,61.323A3.181,3.181,0,0,0,57.281,61Z" transform="translate(-25.721 -61)" fill="#707070"/>
      </g>
    </g>
    <g id="Group_6" data-name="Group 6" transform="translate(24.189 1.84)">
      <g id="Group_5" data-name="Group 5" transform="translate(0 0)">
        <path id="Path_28" data-name="Path 28" d="M350.32,86.728,338.213,98.835l12.107,12.107a3.18,3.18,0,0,0,.323-1.379V88.106A3.181,3.181,0,0,0,350.32,86.728Z" transform="translate(-338.213 -86.728)" fill="#707070"/>
      </g>
    </g>
    <g id="Group_8" data-name="Group 8" transform="translate(0 1.84)">
      <g id="Group_7" data-name="Group 7">
        <path id="Path_29" data-name="Path 29" d="M.323,86.721A3.181,3.181,0,0,0,0,88.1v21.456a3.182,3.182,0,0,0,.322,1.378L12.429,98.828Z" transform="translate(0 -86.721)" fill="#707070"/>
      </g>
    </g>
    <g id="Group_10" data-name="Group 10" transform="translate(1.839 15.463)">
      <g id="Group_9" data-name="Group 9">
        <path id="Path_30" data-name="Path 30" d="M46.547,277.211l-3.676,3.533a1.072,1.072,0,0,1-1.517,0l-3.533-3.533L25.714,289.318a3.182,3.182,0,0,0,1.379.323H57.275a3.181,3.181,0,0,0,1.379-.323Z" transform="translate(-25.714 -277.211)" fill="#707070"/>
      </g>
    </g>
  </g>
</svg>
