<svg xmlns="http://www.w3.org/2000/svg" width="129" height="129" viewBox="0 0 129 129">
  <g id="Group_1293" data-name="Group 1293" transform="translate(-1604 -2479)">
    <circle id="Ellipse_212" data-name="Ellipse 212" cx="64.5" cy="64.5" r="64.5" transform="translate(1604 2479)" fill="#effaf2"/>
    <g id="Group_982" data-name="Group 982" transform="translate(1636 2511)">
      <path id="Path_1474" data-name="Path 1474" d="M55.88,9.587A32.72,32.72,0,0,0,.023,32.731,32.879,32.879,0,0,0,3.012,46.415,11.345,11.345,0,0,0,19.033,62.458a32.847,32.847,0,0,0,13.71,3A32.734,32.734,0,0,0,55.88,9.587Zm-44.53,52.04a7.517,7.517,0,1,1,7.514-7.517A7.524,7.524,0,0,1,11.349,61.627Zm41.818-8.463a28.914,28.914,0,0,1-31.739,6.164,11.348,11.348,0,0,0-15.283-15.3,28.9,28.9,0,0,1,26.6-40.187A28.9,28.9,0,0,1,53.167,53.164Zm0,0" transform="translate(0)" fill="#59d083"/>
      <path id="Path_1475" data-name="Path 1475" d="M55.542,384.594H54v-1.544a1.918,1.918,0,0,0-3.836,0v1.544H48.621a1.918,1.918,0,1,0,0,3.836h1.542v1.544a1.918,1.918,0,0,0,3.836,0V388.43h1.542a1.918,1.918,0,0,0,0-3.836Zm0,0" transform="translate(-40.732 -332.402)" fill="#59d083"/>
      <path id="Path_1476" data-name="Path 1476" d="M183.613,167.38a7.721,7.721,0,1,0-11.14,0,11.455,11.455,0,0,0-5.871,10,1.918,1.918,0,0,0,1.918,1.918h19.048a1.918,1.918,0,0,0,1.918-1.918,11.455,11.455,0,0,0-5.872-10Zm-5.57-9.231a3.888,3.888,0,1,1-3.886,3.888A3.891,3.891,0,0,1,178.043,158.148Zm-7.361,17.309a7.606,7.606,0,0,1,14.723,0Zm0,0" transform="translate(-145.3 -134.583)" fill="#59d083"/>
    </g>
  </g>
</svg>
