<svg xmlns="http://www.w3.org/2000/svg" width="795.524" height="555.294" viewBox="0 0 795.524 555.294">
  <g id="Group_1109" data-name="Group 1109" transform="translate(13.768)">
    <path id="Path_280" data-name="Path 280" d="M498.37,144.411c-51-1.77-99.568-18.238-145.952-36.25S260.094,70.19,210.31,60.648c-32.011-6.143-68.628-7.01-94.426,10.156C91.059,87.321,83.04,115.834,78.724,142.3c-3.244,19.909-5.148,40.855,3.738,59.5,6.171,12.934,17.131,23.809,24.684,36.2,26.369,43.126,7.758,96.3-20.847,138.406C72.9,396.144,57.341,414.988,47,436.012s-15.107,45.115-6.016,66.6c8.971,21.256,30.326,37.223,53.507,48.458,47,22.773,102.424,29.3,156.467,33,119.639,8.181,239.92,4.641,359.876,1.093,44.389-1.319,88.982-2.645,132.651-9.514,24.254-3.808,49.29-9.874,66.9-24.465,22.349-18.541,27.893-49.939,12.913-73.191-25.121-39-94.581-48.662-112.135-90.54-9.669-23.034.261-48.7,14.31-70.06,30.128-45.841,80.632-86.041,83.29-138.434,1.834-35.968-22.448-72.02-59.989-89.045-39.353-17.843-93.911-15.6-122.947,13.943C595.935,134.27,543.4,145.97,498.37,144.411Z" transform="translate(-49.936 -52.125)" fill="#f4f7fc"/>
    <path id="Path_1562" data-name="Path 1562" d="M321.941,621.478s250.552-209.107,394.855,0" transform="translate(-194.97 -191.46)" fill="#f2f2f2"/>
    <ellipse id="Ellipse_220" data-name="Ellipse 220" cx="116.045" cy="18.085" rx="116.045" ry="18.085" transform="translate(422.071 519.124)" fill="#f2f2f2"/>
    <ellipse id="Ellipse_221" data-name="Ellipse 221" cx="116.045" cy="18.085" rx="116.045" ry="18.085" transform="translate(440.909 512.342)" fill="none" stroke="#3f3d56" stroke-miterlimit="10" stroke-width="1"/>
    <path id="Path_1563" data-name="Path 1563" d="M955.526,529.4a11.7,11.7,0,1,0,1.558-22.442l.293,6.023-2.849-5.162a11.657,11.657,0,0,0-6.007,6.591,11.472,11.472,0,0,0-.673,3.165A11.7,11.7,0,0,0,955.526,529.4Z" transform="translate(-349.223 -186.077)" fill="#57b894"/>
    <path id="Path_1564" data-name="Path 1564" d="M976.037,595.966c-1.006-5.122,3.353-9.663,7.658-12.615s9.336-5.852,10.8-10.861c2.111-7.2-4.177-13.792-9.072-19.477a70.446,70.446,0,0,1-9.29-13.807,19.007,19.007,0,0,1-2.222-6.278c-.386-3.191.639-6.366,1.672-9.41q5.161-15.209,11.036-30.164" transform="translate(-355.635 -182.788)" fill="none" stroke="#3f3d56" stroke-miterlimit="10" stroke-width="1"/>
    <path id="Path_1565" data-name="Path 1565" d="M956.165,527.343a11.7,11.7,0,1,0,1.558-22.442l.293,6.023-2.849-5.162a11.658,11.658,0,0,0-6.007,6.591,11.474,11.474,0,0,0-.673,3.165A11.7,11.7,0,0,0,956.165,527.343Z" transform="translate(-349.381 -185.57)" fill="none" stroke="#3f3d56" stroke-miterlimit="10" stroke-width="1"/>
    <path id="Path_1566" data-name="Path 1566" d="M974.63,488.073a11.688,11.688,0,0,1,8.422-7.42l.963,5.726,1.786-6.014a11.7,11.7,0,1,1-11.172,7.708Z" transform="translate(-355.658 -179.587)" fill="#57b894"/>
    <path id="Path_1567" data-name="Path 1567" d="M975.483,485.329a11.688,11.688,0,0,1,8.422-7.42l.963,5.726,1.786-6.013a11.7,11.7,0,1,1-11.172,7.708Z" transform="translate(-355.868 -178.91)" fill="none" stroke="#3f3d56" stroke-miterlimit="10" stroke-width="1"/>
    <path id="Path_1568" data-name="Path 1568" d="M983.972,565.254a11.7,11.7,0,0,0,10.356-20.816l-1.373,4.621-.973-5.793-.03-.011a11.7,11.7,0,0,0-7.98,22Z" transform="translate(-356.232 -194.913)" fill="#57b894"/>
    <path id="Path_1569" data-name="Path 1569" d="M984.71,562.475a11.7,11.7,0,0,0,10.356-20.816l-1.373,4.621-.973-5.793-.03-.011a11.7,11.7,0,0,0-7.98,22Z" transform="translate(-356.414 -194.228)" fill="none" stroke="#3f3d56" stroke-miterlimit="10" stroke-width="1"/>
    <path id="Path_1570" data-name="Path 1570" d="M970.269,593.981a11.7,11.7,0,1,0,2.255-9.163l5.213,7.847-7.123-4.165a11.592,11.592,0,0,0-.345,5.481Z" transform="translate(-354.712 -204.207)" fill="#57b894"/>
    <path id="Path_1571" data-name="Path 1571" d="M970.909,591.922a11.7,11.7,0,1,0,2.255-9.163l5.213,7.847-7.124-4.165A11.593,11.593,0,0,0,970.909,591.922Z" transform="translate(-354.87 -203.699)" fill="none" stroke="#3f3d56" stroke-miterlimit="10" stroke-width="1"/>
    <path id="Path_1572" data-name="Path 1572" d="M955.2,635.69s10.326-4.047,13.438-6.263,15.884-4.862,16.656-1.308,15.518,17.676,3.86,17.77-27.087,1.913-30.193.021S955.2,635.69,955.2,635.69Z" transform="translate(-351.042 -215.574)" fill="#656380"/>
    <path id="Path_1573" data-name="Path 1573" d="M989.357,647.691c-11.658.094-27.087,1.913-30.193.021-2.365-1.441-3.308-6.611-3.623-9l-.345.013s.654,8.328,3.76,10.22,18.536.073,30.193-.021c3.365-.027,4.528-1.224,4.464-3C993.147,647,991.866,647.671,989.357,647.691Z" transform="translate(-351.041 -218.614)" opacity="0.2"/>
    <rect id="Rectangle_799" data-name="Rectangle 799" width="45.212" height="119.059" rx="11.851" transform="translate(119.813 311.336)" fill="#59d083"/>
    <rect id="Rectangle_800" data-name="Rectangle 800" width="45.212" height="190.646" rx="11.851" transform="translate(205.717 239.749)" fill="#59d083"/>
    <rect id="Rectangle_801" data-name="Rectangle 801" width="45.212" height="240.379" rx="11.851" transform="translate(291.62 190.015)" fill="#59d083"/>
    <rect id="Rectangle_802" data-name="Rectangle 802" width="45.212" height="287.853" rx="11.851" transform="translate(377.524 142.542)" fill="#59d083"/>
    <rect id="Rectangle_803" data-name="Rectangle 803" width="45.212" height="370.742" rx="11.851" transform="translate(463.428 59.653)" fill="#59d083"/>
    <rect id="Rectangle_804" data-name="Rectangle 804" width="45.212" height="119.059" rx="11.851" transform="translate(125.841 305.307)" fill="none" stroke="#3f3d56" stroke-miterlimit="10" stroke-width="1"/>
    <rect id="Rectangle_805" data-name="Rectangle 805" width="45.212" height="190.646" rx="11.851" transform="translate(211.745 233.721)" fill="none" stroke="#3f3d56" stroke-miterlimit="10" stroke-width="1"/>
    <rect id="Rectangle_806" data-name="Rectangle 806" width="45.212" height="240.379" rx="11.851" transform="translate(297.649 183.987)" fill="none" stroke="#3f3d56" stroke-miterlimit="10" stroke-width="1"/>
    <rect id="Rectangle_807" data-name="Rectangle 807" width="45.212" height="287.853" rx="11.851" transform="translate(383.552 136.514)" fill="none" stroke="#3f3d56" stroke-miterlimit="10" stroke-width="1"/>
    <rect id="Rectangle_808" data-name="Rectangle 808" width="45.212" height="370.742" rx="11.851" transform="translate(469.456 53.625)" fill="none" stroke="#3f3d56" stroke-miterlimit="10" stroke-width="1"/>
    <line id="Line_11" data-name="Line 11" x1="649" transform="translate(0 430.5)" fill="none" stroke="#3f3d56" stroke-miterlimit="10" stroke-width="1"/>
    <path id="Path_1574" data-name="Path 1574" d="M957.377,556.951s7.092,25.529-1.891,29.311S949.34,557.9,949.34,557.9Z" transform="translate(-349.493 -198.462)" fill="#a0616a"/>
    <path id="Path_1575" data-name="Path 1575" d="M867.9,773.959s-6.619-.473-8.983.945a5.7,5.7,0,0,1-4.728.473s-10.4-.946-6.619,4.255,7.564,7.092,7.564,9.455,15.6,2.364,16.074,0,.945-14.656,0-15.128S867.9,773.959,867.9,773.959Z" transform="translate(-324.312 -251.894)" fill="#575a89"/>
    <path id="Path_1576" data-name="Path 1576" d="M896.772,773.959s6.619-.473,8.983.945a5.7,5.7,0,0,0,4.728.473s10.4-.946,6.619,4.255-7.564,7.091-7.564,9.455-15.6,2.364-16.074,0-.945-14.656,0-15.128S896.772,773.959,896.772,773.959Z" transform="translate(-335.692 -251.894)" fill="#575a89"/>
    <path id="Path_1577" data-name="Path 1577" d="M848.442,548.263s-3.309,74.7-1.418,78.479,8.51,67.605,7.564,71.387-5.673,19.383,0,21.747,17.965,0,17.965,0,3.309-18.911,1.891-28.839-1.891-51.531-1.891-51.531l9.455-43.494,3.309,41.13s.945,56.259-5.673,67.605,2.364,16.074,2.364,16.074,17.965,2.364,19.856,1.891-1.418-18.911,0-26.948,4.728-52.95,7.564-63.823,18.911-71.387,7.091-83.679S848.442,548.263,848.442,548.263Z" transform="translate(-324.237 -194.974)" fill="#3f3d56"/>
    <circle id="Ellipse_222" data-name="Ellipse 222" cx="16.547" cy="16.547" r="16.547" transform="translate(542.17 169.384)" fill="#a0616a"/>
    <path id="Path_1578" data-name="Path 1578" d="M878.584,337.528s2.837,22.693,1.418,23.165,25.057,0,25.057,0-5.2-13.71,0-24.584Z" transform="translate(-332.16 -144.034)" fill="#a0616a"/>
    <path id="Path_1579" data-name="Path 1579" d="M878.584,360.811s11.523-11.346,25.145,0l.882,3.382-7.116-.073H878.584Z" transform="translate(-332.16 -148.878)" fill="#f2f2f2"/>
    <path id="Path_1580" data-name="Path 1580" d="M923.555,507.063c-1.092.217-3.768.662-7.257,1.191-11.616,1.754-32.2,4.411-32.928,2.591-.945-2.364-4.255-10.874-6.619-7.091s-.945,7.091-10.874,7.564c-6.756.321-16.575-.671-22.012-2.232-2.553-.733-4.141-1.588-3.99-2.5.473-2.837,5.673-56.732,5.673-61.932S847.44,414.4,847.44,414.4l-13.587-26.735-1.068-2.1s1.418-5.2,5.673-6.146,24.584-12.765,24.584-12.765,4.255-6.619,12.292-6.146,9.928-2.837,20.8,6.146c0,0,13.237,5.673,17.965,8.51s9.928,2.837,10.4,7.564a14.476,14.476,0,0,1-1.3,5.092c-3.238,8.472-11.422,23.463-12.7,25.8l-.175.312s-.246,8.5.014,18.452v.024c.255,9.545.974,20.423,2.822,26.437C916.936,471.133,928.283,506.117,923.555,507.063Z" transform="translate(-320.872 -149.992)" fill="#575a89"/>
    <path id="Path_1581" data-name="Path 1581" d="M909.21,311.995a11.272,11.272,0,0,0-1.87-4.179,22.58,22.58,0,0,0-3.371-9.724,10.2,10.2,0,0,0-3.02-3.485,8.915,8.915,0,0,0-4.751-1.184c-.3-.005-.844.086-1.333.109-.312-.1-.628-.183-.944-.264-.185-.411-.55-1.607-.652-1.526l-1.379,1.1c-.583-.1-1.169-.18-1.757-.243l-.642-1.832a12.556,12.556,0,0,0-.911,1.712q-.878-.043-1.757-.03l-1.172-1.126a1.653,1.653,0,0,1-1.293,1.266c-.539.055-1.076.128-1.611.214h-.13c-2.886-.072-5.991-.2-8.4,1.383a8.281,8.281,0,0,0-2.675,3.036c-.3.2-.592.4-.879.613a9.607,9.607,0,0,0-2.475,2.454,10.405,10.405,0,0,0-1.1,2.654,25.441,25.441,0,0,0-1.261,8.691A12.9,12.9,0,0,0,869,319.676c1.238,1.33,2.811,2.312,4.05,3.64,2.552,2.735,3.03,6.549,5.213,9.442,2.308,3.061,6.522,5.074,10.222,5.652a17.075,17.075,0,0,0,12.72-3.172,7.869,7.869,0,0,0,2.166-2.271c1.284-2.221.74-5.014,1.217-7.535C905.48,320.707,909.99,316.741,909.21,311.995Z" transform="translate(-329.013 -132.857)" fill="#3f3d56"/>
    <path id="Path_1582" data-name="Path 1582" d="M836.918,558.833s7.091,25.529-1.891,29.311-6.146-28.366-6.146-28.366Z" transform="translate(-319.805 -198.926)" fill="#a0616a"/>
    <path id="Path_1583" data-name="Path 1583" d="M846.839,460.234s-3.1,46.028-2.624,57.119c-2.553-.733-4.141-1.588-3.99-2.5.473-2.837,5.673-56.732,5.673-61.932s1.891-30.257,1.891-30.257L834.2,395.934c.217-1.324.35-2.1.35-2.1l6.855,14.419,9.692,2.6Z" transform="translate(-321.221 -158.259)" opacity="0.1"/>
    <path id="Path_1584" data-name="Path 1584" d="M833.238,390.065l-3.309,2.837s-4.255,25.056-3.782,31.2-9.928,99.28-1.891,99.28,17.02-1.418,15.6-4.728,2.361-59.351,2.361-59.351l4.258-49.385Z" transform="translate(-318.016 -157.331)" fill="#575a89"/>
    <path id="Path_1585" data-name="Path 1585" d="M948.611,394.693c-3.238,8.472-11.422,23.463-12.7,25.8.038-6.047.061-10.325.061-10.325l9.928-20.329,2.128-1.655S948.253,390.684,948.611,394.693Z" transform="translate(-346.288 -156.867)" opacity="0.1"/>
    <path id="Path_1586" data-name="Path 1586" d="M948.79,530.65c-1.092.217-3.768.662-7.257,1.191-1.811-13.389-6.652-51.891-6.344-55.517.151-1.787.279-10.618.378-20.334.255,9.545.974,20.423,2.822,26.437C942.172,494.72,953.518,529.7,948.79,530.65Z" transform="translate(-346.107 -173.579)" opacity="0.1"/>
    <path id="Path_1587" data-name="Path 1587" d="M942.613,385.673l7.091,1.891s4.728,52.477,5.2,61.459,6.146,64.3,5.2,66.66-15.6,5.673-16.074,3.309-7.345-55.7-6.982-60-2-48.736-2-48.736Z" transform="translate(-346.076 -156.249)" fill="#575a89"/>
    <path id="Path_1588" data-name="Path 1588" d="M196.5,262.429l85.9-71.586,86.657-48.98,85.9-47.473,85.9-82.889" transform="translate(-48.429 -2.711)" fill="none" stroke="#3f3d56" stroke-miterlimit="10" stroke-width="1"/>
    <circle id="Ellipse_223" data-name="Ellipse 223" cx="8.289" cy="8.289" r="8.289" transform="translate(137.521 255.197)" fill="#f2f2f2"/>
    <circle id="Ellipse_224" data-name="Ellipse 224" cx="8.289" cy="8.289" r="8.289" transform="translate(223.425 183.61)" fill="#f2f2f2"/>
    <circle id="Ellipse_225" data-name="Ellipse 225" cx="8.289" cy="8.289" r="8.289" transform="translate(310.082 134.63)" fill="#f2f2f2"/>
    <circle id="Ellipse_226" data-name="Ellipse 226" cx="8.289" cy="8.289" r="8.289" transform="translate(395.986 87.157)" fill="#f2f2f2"/>
    <circle id="Ellipse_227" data-name="Ellipse 227" cx="8.289" cy="8.289" r="8.289" transform="translate(481.889 4.268)" fill="#f2f2f2"/>
    <circle id="Ellipse_228" data-name="Ellipse 228" cx="8.289" cy="8.289" r="8.289" transform="translate(139.782 251.429)" fill="none" stroke="#3f3d56" stroke-miterlimit="10" stroke-width="1"/>
    <circle id="Ellipse_229" data-name="Ellipse 229" cx="8.289" cy="8.289" r="8.289" transform="translate(225.685 179.843)" fill="none" stroke="#3f3d56" stroke-miterlimit="10" stroke-width="1"/>
    <circle id="Ellipse_230" data-name="Ellipse 230" cx="8.289" cy="8.289" r="8.289" transform="translate(312.343 130.863)" fill="none" stroke="#3f3d56" stroke-miterlimit="10" stroke-width="1"/>
    <circle id="Ellipse_231" data-name="Ellipse 231" cx="8.289" cy="8.289" r="8.289" transform="translate(398.246 83.389)" fill="none" stroke="#3f3d56" stroke-miterlimit="10" stroke-width="1"/>
    <circle id="Ellipse_232" data-name="Ellipse 232" cx="8.289" cy="8.289" r="8.289" transform="translate(484.15 0.5)" fill="none" stroke="#3f3d56" stroke-miterlimit="10" stroke-width="1"/>
  </g>
</svg>
