<svg xmlns="http://www.w3.org/2000/svg" width="129" height="129" viewBox="0 0 129 129">
  <g id="Group_1299" data-name="Group 1299" transform="translate(-1604 -2868)">
    <circle id="Ellipse_212" data-name="Ellipse 212" cx="64.5" cy="64.5" r="64.5" transform="translate(1604 2868)" fill="#effaf2"/>
    <g id="Group_983" data-name="Group 983" transform="translate(-0.394 -2.394)">
      <path id="Path_1487" data-name="Path 1487" d="M38.519,62.738H1.449A1.426,1.426,0,0,1,.023,61.312V18.539A1.425,1.425,0,0,1,.439,17.53L17.548.42A1.426,1.426,0,0,1,18.558,0H49.925A1.426,1.426,0,0,1,51.35,1.43V35.648a1.426,1.426,0,1,1-2.852,0V2.856H19.148L2.875,19.129V59.886H38.519a1.426,1.426,0,0,1,0,2.852Z" transform="translate(1638.996 2903)" fill="#59d083"/>
      <path id="Path_1488" data-name="Path 1488" d="M18.558,19.965H1.449a1.426,1.426,0,0,1,0-2.852H17.132V1.43a1.426,1.426,0,1,1,2.852,0V18.539A1.426,1.426,0,0,1,18.558,19.965Z" transform="translate(1638.996 2903)" fill="#59d083"/>
      <path id="Path_1485" data-name="Path 1485" d="M310.1,321.484A11.406,11.406,0,1,1,321.5,310.078,11.406,11.406,0,0,1,310.1,321.484Zm0-19.961a8.555,8.555,0,1,0,8.555,8.555A8.555,8.555,0,0,0,310.1,301.523Z" transform="translate(1380.252 2644.254)" fill="#59d083"/>
      <path id="Path_1486" data-name="Path 1486" d="M436.774,438.2a1.425,1.425,0,0,1-1.009-.416l-8.555-8.555a1.426,1.426,0,0,1,2.016-2.016l8.555,8.555a1.426,1.426,0,0,1-1.006,2.432Z" transform="translate(1269.255 2533.242)" fill="#59d083"/>
    </g>
  </g>
</svg>
