<svg xmlns="http://www.w3.org/2000/svg" width="129" height="129" viewBox="0 0 129 129">
  <g id="Group_1288" data-name="Group 1288" transform="translate(-1604 -2090)">
    <circle id="Ellipse_212" data-name="Ellipse 212" cx="64.5" cy="64.5" r="64.5" transform="translate(1604 2090)" fill="#effaf2"/>
    <g id="right" transform="translate(1637 2123.085)">
      <g id="Group_934" data-name="Group 934">
        <g id="Group_933" data-name="Group 933">
          <path id="Path_1451" data-name="Path 1451" d="M53.746,9.221A31.484,31.484,0,0,0,9.221,53.746,31.484,31.484,0,1,0,53.746,9.221ZM31.484,59.278A27.794,27.794,0,1,1,59.278,31.484,27.826,27.826,0,0,1,31.484,59.278Z" fill="#59d083"/>
        </g>
      </g>
      <g id="Group_936" data-name="Group 936" transform="translate(15.902 20.842)">
        <g id="Group_935" data-name="Group 935">
          <path id="Path_1452" data-name="Path 1452" d="M159.924,170.007a1.845,1.845,0,0,0-2.609,0l-16.29,16.29-8.575-8.575a1.845,1.845,0,0,0-2.609,2.609l9.88,9.88a1.845,1.845,0,0,0,2.609,0l17.595-17.595A1.845,1.845,0,0,0,159.924,170.007Z" transform="translate(-129.3 -169.467)" fill="#59d083"/>
        </g>
      </g>
    </g>
  </g>
</svg>
