<svg id="_483328" data-name="483328" xmlns="http://www.w3.org/2000/svg" width="59.925" height="59.925" viewBox="0 0 59.925 59.925">
  <g id="Group_1274" data-name="Group 1274">
    <path id="Path_1869" data-name="Path 1869" d="M29.962,0A29.962,29.962,0,1,0,59.925,29.962,30,30,0,0,0,29.962,0ZM42.081,38.55a1.248,1.248,0,0,1,0,1.766l-1.765,1.765a1.249,1.249,0,0,1-1.766,0l-8.588-8.588-8.588,8.588a1.249,1.249,0,0,1-1.766,0l-1.765-1.765a1.248,1.248,0,0,1,0-1.766l8.588-8.588-8.588-8.588a1.248,1.248,0,0,1,0-1.766l1.765-1.765a1.249,1.249,0,0,1,1.766,0l8.588,8.588,8.588-8.588a1.249,1.249,0,0,1,1.766,0l1.765,1.765a1.248,1.248,0,0,1,0,1.766l-8.588,8.588Z" fill="#d2d2d2"/>
  </g>
</svg>
