<svg id="Group_1273" data-name="Group 1273" xmlns="http://www.w3.org/2000/svg" xmlns:xlink="http://www.w3.org/1999/xlink" width="486.895" height="392.743" viewBox="0 0 486.895 392.743">
  <defs>
    <linearGradient id="linear-gradient" y1="0.5" x2="1" y2="0.5" gradientUnits="objectBoundingBox">
      <stop offset="0" stop-color="gray" stop-opacity="0.251"/>
      <stop offset="0.54" stop-color="gray" stop-opacity="0.122"/>
      <stop offset="1" stop-color="gray" stop-opacity="0.102"/>
    </linearGradient>
    <linearGradient id="linear-gradient-2" x1="12.106" y1="0.5" x2="13.106" y2="0.5" xlink:href="#linear-gradient"/>
  </defs>
  <ellipse id="Ellipse_298" data-name="Ellipse 298" cx="220.031" cy="196.371" rx="220.031" ry="196.371" transform="translate(30.428 0)" fill="#ff9292" opacity="0.1"/>
  <ellipse id="Ellipse_299" data-name="Ellipse 299" cx="81.13" cy="12.575" rx="81.13" ry="12.575" transform="translate(0 284.246)" fill="#ff9292" opacity="0.1"/>
  <ellipse id="Ellipse_300" data-name="Ellipse 300" cx="31.556" cy="6.519" rx="31.556" ry="6.519" transform="translate(88.568 356.267)" fill="#ff9292" opacity="0.1"/>
  <ellipse id="Ellipse_301" data-name="Ellipse 301" cx="31.556" cy="6.519" rx="31.556" ry="6.519" transform="translate(304.189 331.188)" fill="#ff9292" opacity="0.1"/>
  <ellipse id="Ellipse_302" data-name="Ellipse 302" cx="51.314" cy="8.693" rx="51.314" ry="8.693" transform="translate(177.353 321.367)" fill="#ff9292" opacity="0.1"/>
  <ellipse id="Ellipse_303" data-name="Ellipse 303" cx="107.03" cy="16.764" rx="107.03" ry="16.764" transform="translate(272.836 270.265)" fill="#ff9292" opacity="0.1"/>
  <path id="Path_1787" data-name="Path 1787" d="M127.22,526.4a29.782,29.782,0,0,0,1.552,29.9,7.4,7.4,0,0,0,2.5,2.7c3.325,1.307,9.986,4.519,9.986,4.519l16.037-6.3s2.6-13.773,5.066-25.6h0c1.679-8.066,3.3-15.221,3.967-16.476,1.66-3.09,0-36.725,0-36.725s-16.037-1.075-20.447,11.287l-1.929,3.773Z" transform="translate(-105.037 -268.633)" fill="#a8a8a8"/>
  <path id="Path_1788" data-name="Path 1788" d="M169.89,530.125c9.75,11.174,13.863,1.509,13.863,1.509h0c1.679-8.066,3.3-15.221,3.967-16.476,1.66-3.089,0-36.725,0-36.725s-16.037-1.075-20.447,11.287l-1.929,3.773C164.107,503.386,162.886,522.083,169.89,530.125Z" transform="translate(-126.415 -268.638)" fill="#fff" opacity="0.1"/>
  <path id="Path_1789" data-name="Path 1789" d="M180.59,518.549l56.6-6.538,10.1-66.451L239.654,428.3a69.932,69.932,0,0,0-13.207-19.924c-3.844-4.052-8.49-7.948-13.377-9.905a20.07,20.07,0,0,0-2.042-.7,5.287,5.287,0,0,0-4.717.835c-6.981,4.948-9.476,25.985-10.283,36.112a113.013,113.013,0,0,1-1.684,12.4Z" transform="translate(-134.973 -225.916)" fill="#a8a8a8"/>
  <path id="Path_1790" data-name="Path 1790" d="M247.05,444.838l-11.792,29.009c6.179-4.519,15.334-29.126,15.334-29.126l8.2,28.056-6.538-29.57a92.483,92.483,0,0,0,.83-19.405c-.519-7.424-7.486-19.339-11.269-25.339a20.077,20.077,0,0,0-2.042-.7,5.288,5.288,0,0,0-4.717.835c2.972,5.967,10.4,20.886,12.665,25.32C250.6,429.5,247.05,444.838,247.05,444.838Z" transform="translate(-163.751 -225.911)" fill="#fff" opacity="0.1"/>
  <path id="Path_1791" data-name="Path 1791" d="M280.89,571.935H311.6a9.316,9.316,0,0,0,9.306-9.787c-.679-13.169-2.4-36.65-6.5-51.555-2.212-8.042-4.783-12.264-7.141-14.344a6.967,6.967,0,0,0-4.061-1.91,5.33,5.33,0,0,0-3.3.8c-5.7,5.467-12.363,34.235-12.363,34.235Z" transform="translate(-187.964 -277.043)" fill="#a8a8a8"/>
  <path id="Path_1792" data-name="Path 1792" d="M315.023,591.371a15.078,15.078,0,0,1,0,11.485l-6.844,3.382s-18.4-7.8-16.16-23.778c0,0,.6-3.3,6.938-3.047A17.957,17.957,0,0,1,315.023,591.371Z" transform="translate(-193.744 -321.993)" fill="#fff" opacity="0.1"/>
  <path id="Path_1793" data-name="Path 1793" d="M315.784,504.435c-.212-5.6,2.83-7.547,5.344-8.165a6.967,6.967,0,0,0-4.061-1.91,10.783,10.783,0,0,0-3.542,5.66l-6.415,31.268S316.143,513.826,315.784,504.435Z" transform="translate(-201.816 -277.065)" fill="#fff" opacity="0.1"/>
  <path id="Path_1794" data-name="Path 1794" d="M209.322,568.14l15.207,20.8,2.637,17.169-9.773,4.825L203.3,614.049a13.539,13.539,0,0,1-4.137.269l-38.447-3.382,5.231-12.127,18.065-25.362Z" transform="translate(-124.476 -316.044)" fill="#a8a8a8"/>
  <path id="Path_1795" data-name="Path 1795" d="M209.274,552.991s10.377.712,6.481,18.542-43.984,19.259-43.984,19.259,8.519-15.094,21.622-25.91c1.472-1.212,2.891-2.476,4.245-3.825C200.651,558.042,206.415,552.745,209.274,552.991Z" transform="translate(-130.314 -308.036)" fill="#fff" opacity="0.1"/>
  <path id="Path_1796" data-name="Path 1796" d="M271.07,581.5s14.061,12.8,12.735,32.49" transform="translate(-182.776 -323.102)" opacity="0.1"/>
  <path id="Path_1797" data-name="Path 1797" d="M302.84,496.06s-14.754,19.622-16.41,49.815" transform="translate(-190.89 -277.963)" opacity="0.1"/>
  <path id="Path_1798" data-name="Path 1798" d="M201.888,478.43S209.03,510.858,191.2,535.3" transform="translate(-140.579 -268.649)" opacity="0.1"/>
  <path id="Path_1799" data-name="Path 1799" d="M484.786,643.366h76.951a4.311,4.311,0,0,0,3.773-6.354l-38.456-71.451a4.306,4.306,0,0,0-7.585,0l-38.475,71.451a4.311,4.311,0,0,0,3.792,6.354Zm43.371-13.056h-9.792v-9.787h9.792Zm0-16.316h-9.792v-19.58h9.792Z" transform="translate(-293.41 -313.485)" fill="#464353"/>
  <path id="Path_1800" data-name="Path 1800" d="M484.786,643.366h76.951a4.311,4.311,0,0,0,3.773-6.354l-38.456-71.451a4.306,4.306,0,0,0-7.585,0l-38.475,71.451a4.311,4.311,0,0,0,3.792,6.354Zm43.371-13.056h-9.792v-9.787h9.792Zm0-16.316h-9.792v-19.58h9.792Z" transform="translate(-293.41 -313.485)" opacity="0.1"/>
  <path id="Path_1801" data-name="Path 1801" d="M484.786,648.366h76.95a4.311,4.311,0,0,0,3.773-6.354l-38.456-71.451a4.306,4.306,0,0,0-7.585,0l-38.475,71.451a4.311,4.311,0,0,0,3.792,6.354Zm43.371-13.056h-9.792v-9.787h9.792Zm0-16.316h-9.792v-19.58h9.792Z" transform="translate(-293.41 -316.126)" fill="#464353"/>
  <path id="Path_1802" data-name="Path 1802" d="M234.6,431.2a5.285,5.285,0,0,0-1.09-.528c-1.264-.472-2.613-.594-3.877-1.047a5.552,5.552,0,0,1-1.948-1.151c-.094-.094-.184-.189-.269-.288.472-.3.9-.594,1.368-.873a16.207,16.207,0,0,0-5.688-5.66c.759-1.118,2.472-1.028,3.472-1.929a3.3,3.3,0,0,0,.943-1.854,12.812,12.812,0,0,0-.552-5.6,69.019,69.019,0,0,0-3.255-10.542,41.537,41.537,0,0,1-1.764-4.273c-1.222-4.066-.368-8.49-1.292-12.646-.3-1.335-.778-2.712-.443-4.033.514-2.047,2.8-3.259,3.3-5.306,1.811-7.288,2.137-14.849,3.165-22.287a28.69,28.69,0,0,0,.382-4.278c0-1.5-.269-3-.377-4.5-.292-4.212.552-8.42.915-12.627a13.207,13.207,0,0,1,1.712,4.222,17.041,17.041,0,0,1,.1,4.189,19.675,19.675,0,0,1-.3,2.788c-.231,1.094-.637,2.141-.906,3.236a10,10,0,0,0,.448,6.49c.641,1.415,2.052,2.726,3.519,2.3a3.8,3.8,0,0,0,2.08-2.259c1.415-3,2.2-6.476,1.25-9.665-.627-2.123-2-4.042-2.132-6.259a16.178,16.178,0,0,1,.208-2.646c.59-5.122-.684-10.269-.967-15.419a30.082,30.082,0,0,0-.259-4.5c-.038-.175-.08-.349-.132-.514a1.1,1.1,0,0,1,.34.156,3.075,3.075,0,0,0-.066-2.637,6.706,6.706,0,0,1-.443-.83c-.179-.472-.146-1.019-.368-1.472a6.276,6.276,0,0,0-.472-.684,5.49,5.49,0,0,1-.656-3.094q-.109-8.377-.472-16.735a27.406,27.406,0,0,0-1.278-8.382,12.565,12.565,0,0,0-4.434-5.882,10.334,10.334,0,0,0-1-.623,3.453,3.453,0,0,0,.283-1.274,3.053,3.053,0,0,0,0-.415l-.028-.236h0a9.952,9.952,0,0,0-.943-2.83,7.953,7.953,0,0,1-.9-3.094,4.809,4.809,0,0,1,.033-.585h0c.16-1.358.868-2.632,1.118-3.99a6.846,6.846,0,0,0,.1-1.278c0-.146,0-.3,0-.448a12.857,12.857,0,0,0-1.514-4.764c-.236-.472-.472-.943-.736-1.415-.123-.882-.259-1.764-.4-2.641-.075-.509-.156-1.019-.264-1.524q-.08-.377-.184-.736c.731-.689.307-1.7-.16-2.632-.9-1.774-.712-3.891-1.094-5.844a17.658,17.658,0,0,0-1.387-3.924,8.745,8.745,0,0,0-1.5-2.472,9.226,9.226,0,0,0-1.948-1.415,6.2,6.2,0,0,0-1.934-.873c-.429-.085-.868-.08-1.292-.179a4.094,4.094,0,0,1-.792-.288,5.391,5.391,0,0,0-1.693-.618,3.774,3.774,0,0,0-1.632.311,6,6,0,0,1-1.755.472h-.665a1.476,1.476,0,0,0-.9.217,3.41,3.41,0,0,0-.387.4,5.221,5.221,0,0,1-1.137.778,11.2,11.2,0,0,0-5.5,9.575,4.746,4.746,0,0,1-.137,1.552c-.137.4-.406.741-.519,1.146a3.216,3.216,0,0,0-.052,1.075c.038.552.094,1.1.156,1.651h0a3.472,3.472,0,0,0-.689,1.524h0a2.081,2.081,0,0,0-.042.292v.038h0a8.542,8.542,0,0,0,.717,2.83,10.057,10.057,0,0,1-.142,5.552,21.864,21.864,0,0,0-.943,3.773h0v.085a4.561,4.561,0,0,0,.217,1.887c.156.429.387.83.528,1.264.5,1.538-.226,3.151-1.189,4.5h0c-.151.212-.307.415-.472.613h.024l-.024.024.981.693c-.288.151-.575.316-.868.472a8.925,8.925,0,0,0-3.2,1.184,13,13,0,0,0-2.594,1.726,11,11,0,0,0-2.047,2.83,35.57,35.57,0,0,0-1.736,3.66,11.463,11.463,0,0,0-.887,3.174c-.406.863-.741,1.792-1.113,2.627-.189.429-.373.858-.557,1.288l-16.235-39.753-2.519,1.047.2.472-.524.222.712,1.736c-.1.071-.208.142-.307.217l-.132.1-.264.208-.132.108-.269.226-.1.085-.335.307h0c-.358.325-.7.67-1.038,1.014l-.863.891-.165.175-.288.292-.16.165-.41.41-.028.028-.255.245-.16.151c-.066.066-.137.127-.208.189l-.2.184-.321.274-.094.085-.439.349a12.3,12.3,0,0,1-1.887,1.212c-2.58,1.335-5.311,2.453-7.83,3.882a22.547,22.547,0,0,0-3.877,2.717c-1.665,1.476-3.075,3.3-5,4.373l-.212.113c-3.415,1.755-7.438.7-11.32.627-.58,0-1.151,0-1.717.038a21.684,21.684,0,0,0-8.82,3.08c-1.962,1.1-3.877,2.335-5.8,3.453-1.217.7-2.439,1.467-3.665,2.25a82.828,82.828,0,0,1-9.523,5.547,20.015,20.015,0,0,1-9.434,2.1h-.042a7.873,7.873,0,0,1-.943-.08c-.307,2.476,1.674,4.472,3,6.651a6.74,6.74,0,0,1,1.118,3.151,5.66,5.66,0,0,1-.094,1.264c-.264,1.528-.972,3.028-.778,4.566a5.288,5.288,0,0,0,1,2.481c.84,1.2,2,2.264,2.8,3.514,1.2,1.887,1.509,4.184,1.976,6.405a13.476,13.476,0,0,0,1.552,4.439,18.962,18.962,0,0,0,4.038,4.089c.269.231.533.472.788.708.189.17.373.349.547.533,1.712,1.75,2.986,4.448,1.953,6.637-.033.075-.071.142-.108.212a1.887,1.887,0,0,0,.259.156c1.316.641,2.967-.387,4.047-1.476.533-.533,1.038-1.1,1.528-1.674,1.316-1.462,2.524-3.047,3.773-4.566.34-.41.679-.811,1.028-1.208a17.452,17.452,0,0,1,4.66-3.773,17.118,17.118,0,0,1,2.858-1.16c1.462-.472,2.972-.821,4.439-1.283a36.468,36.468,0,0,0,5.844-2.453,89.884,89.884,0,0,0,9.434-5.849l.472-.307a16.171,16.171,0,0,0,2.807-2.241c.151-.165.3-.335.434-.509.736-.943,1.212-2.061,1.887-3.042a9.787,9.787,0,0,1,2.646-2.552c2.91-1.957,6.773-2.7,10.231-3.773h.038a39.764,39.764,0,0,0,16.117-9.57l2.585,6.33q-.4,1.123-.759,2.269a18.446,18.446,0,0,1-2.174,5.424,4.048,4.048,0,0,0-.821,1.457,4.718,4.718,0,0,1-.193,1.17c-.16.321-.5.533-.632.863-.2.472.061,1.08-.2,1.524a2.4,2.4,0,0,1-.448.472,3.131,3.131,0,0,0-.854,2.4,8.41,8.41,0,0,1-.212,2.6,6.2,6.2,0,0,1,.608-.316,2.831,2.831,0,0,0-.052.472,5.256,5.256,0,0,0,.165,1.325,10.467,10.467,0,0,0,1.377,2.755,19.574,19.574,0,0,0,1.476,2.123,19.341,19.341,0,0,0,3.123,2.792l4.755,3.67-.472,1.986a55.5,55.5,0,0,0-2.137,12.665,54.574,54.574,0,0,0,.382,6.08l.41,4.141c.33,3.335.66,6.67,1.024,10a25.62,25.62,0,0,0,1.217,6.236c1.123,3.023-.118,6.439.358,9.637.377,2.5,1.123,5.094.373,7.514-.3.943-.83,1.849-1.217,2.783a20.883,20.883,0,0,0-1.146,7.415,31.51,31.51,0,0,0,.241,6.6c.406,2.255,1.3,4.467,1.127,6.755-.245,3.25-2.623,6.028-2.91,9.278-.231,2.59.9,5.094,2.108,7.391.891,1.693-.354,3.882-.825,5.745-.943,3.656.623,7.476,2.533,10.717a.528.528,0,0,0,.241.255c.217.08.42-.137.561-.321a3.854,3.854,0,0,1,.283-.335c0,.146.028.292.038.434,0,.307.024.613.024.943a9.48,9.48,0,0,0,.641,3.491,6.175,6.175,0,0,0,.264.632,2.915,2.915,0,0,0,.472.759,2.882,2.882,0,0,0,1.887.792,24.433,24.433,0,0,0,4.717-.292c1.66-.141,3.325-.08,4.99-.118a.721.721,0,0,0,.373-.08.637.637,0,0,0,.212-.34,3.774,3.774,0,0,0,.08-1.858,13.173,13.173,0,0,0-.354-1.476c-.222-.778-.424-1.561-.618-2.358-.038-.146-.071-.292-.1-.439l.075.033q1.524-3.424,3.052-6.849a6.167,6.167,0,0,0,.783-3.646,10.719,10.719,0,0,0-1.151-2.448,14.37,14.37,0,0,1-1-6.292l-.057-12.132a26.575,26.575,0,0,0,4.717-10.3,33.305,33.305,0,0,1,.278,16.037,14.943,14.943,0,0,0-.448,2.443c-.184,3.363,2.434,6.212,3.132,9.5a2.142,2.142,0,0,1,.052.774,2.9,2.9,0,0,1-.387.9c-1.255,2.3-1.118,5.071-.943,7.684l.552.09a1.463,1.463,0,0,0,.585.575h0a2.886,2.886,0,0,0,.731.3,18.011,18.011,0,0,0,2.75.42c1.33.132,2.665.264,4,.349.528.033,1.057.061,1.585.075a15.829,15.829,0,0,1,2.22.156,16.041,16.041,0,0,1,2.356.684c3.439,1.151,7.288,1.807,10.618.373a4.782,4.782,0,0,0,1.939-1.373,2.283,2.283,0,0,0-.571-3.547ZM188.98,296.741c.5,1,1,1.986,1.415,3.019a10.41,10.41,0,0,1,.792,6.33c-.151.613-1.137,1.085-1.132,1.717a1.412,1.412,0,0,0-.075.146l-3.08-7.547A26.925,26.925,0,0,1,188.98,296.741ZM185.6,312.779a13.052,13.052,0,0,1-1.67-2.882c-.057-.127-.118-.25-.175-.377a1.132,1.132,0,0,0,.448-.335c.472-.594.217-1.462.288-2.226a4.811,4.811,0,0,1,.75-1.887l2.891,7.075q-.439,1.151-.821,2.325A16.51,16.51,0,0,1,185.6,312.779Z" transform="translate(-85.493 -137.444)" fill="url(#linear-gradient)"/>
  <path id="Path_1803" data-name="Path 1803" d="M316.227,263.06a8.444,8.444,0,0,0,.726,2.83,10.014,10.014,0,0,1-.137,5.538c-.528,1.887-1.415,3.882-.741,5.726.156.434.391.83.533,1.264.585,1.792-.5,3.679-1.689,5.146l4.665,3.269a5.363,5.363,0,0,0,2.358,1.127,1.846,1.846,0,0,0,2.066-1.222c.061-.292,0-.6.057-.9a2.434,2.434,0,0,1,1.307-1.811,4.273,4.273,0,0,1,2.259-.42c2.863.156,5.3,2.038,7.9,3.245a31.781,31.781,0,0,0,5.316,1.764,4.27,4.27,0,0,0,3.113,0,2.952,2.952,0,0,0,1.292-2.788,9.117,9.117,0,0,0-.991-3.071,7.811,7.811,0,0,1-.91-3.09c0-1.585.868-3.028,1.16-4.585.41-2.212-.424-4.462-1.443-6.471a27.419,27.419,0,0,1-2.75-6.132,8.962,8.962,0,0,0-.514-1.939,4.414,4.414,0,0,0-.943-1.264,10.56,10.56,0,0,0-6.688-2.731,30.309,30.309,0,0,0-7.335.642,15.334,15.334,0,0,0-2.722.646,17.288,17.288,0,0,0-3.58,1.939A4.662,4.662,0,0,0,316.227,263.06Z" transform="translate(-205.942 -151.403)" fill="#464353"/>
  <g id="Group_1270" data-name="Group 1270" transform="translate(108.964 111.346)" opacity="0.1">
    <path id="Path_1804" data-name="Path 1804" d="M375.17,297.611a2.071,2.071,0,0,0,.028.42c.146-1.382.873-2.679,1.132-4.061a6.706,6.706,0,0,0,.09-1.679,4.6,4.6,0,0,1-.09.736C376.033,294.582,375.151,296.026,375.17,297.611Z" transform="translate(-346.737 -281.654)"/>
    <path id="Path_1805" data-name="Path 1805" d="M318.728,274.768a8.448,8.448,0,0,0-.316-2.83,16.412,16.412,0,0,1-.684-2.2c0,.1-.038.193-.042.292a8.445,8.445,0,0,0,.726,2.83A7.965,7.965,0,0,1,318.728,274.768Z" transform="translate(-316.365 -269.74)"/>
    <path id="Path_1806" data-name="Path 1806" d="M345.2,314.83a2.7,2.7,0,0,1-1.264,2.08,4.271,4.271,0,0,1-3.113,0,31.376,31.376,0,0,1-5.316-1.769c-2.6-1.2-5.038-3.085-7.9-3.24a4.273,4.273,0,0,0-2.259.42,2.434,2.434,0,0,0-1.307,1.811c-.033.3,0,.6-.057.9a1.849,1.849,0,0,1-2.066,1.222,5.362,5.362,0,0,1-2.358-1.127l-4.193-2.943c-.156.212-.311.42-.472.613l4.665,3.273a5.363,5.363,0,0,0,2.358,1.127,1.846,1.846,0,0,0,2.066-1.222c.061-.292,0-.6.057-.9a2.434,2.434,0,0,1,1.307-1.811,4.273,4.273,0,0,1,2.259-.42c2.863.156,5.3,2.038,7.9,3.24a31.38,31.38,0,0,0,5.316,1.769,4.271,4.271,0,0,0,3.113,0,2.952,2.952,0,0,0,1.292-2.788C345.219,314.986,345.205,314.911,345.2,314.83Z" transform="translate(-314.89 -292.006)"/>
    <path id="Path_1807" data-name="Path 1807" d="M317.632,299.344a3.653,3.653,0,0,1,.127.58,3.42,3.42,0,0,0-.127-1.524c-.142-.434-.377-.83-.533-1.264a3.944,3.944,0,0,1-.217-.976,4.434,4.434,0,0,0,.217,1.92C317.254,298.514,317.49,298.915,317.632,299.344Z" transform="translate(-315.929 -283.698)"/>
  </g>
  <path id="Path_1808" data-name="Path 1808" d="M314.695,671.548a.618.618,0,0,1-.217.34.723.723,0,0,1-.373.08c-1.679.038-3.358,0-5.033.118a24.064,24.064,0,0,1-4.755.292,2.439,2.439,0,0,1-2.358-1.552,6.167,6.167,0,0,1-.264-.632,9.391,9.391,0,0,1-.646-3.49v-.943a7.15,7.15,0,0,0-.137-1.028,1.561,1.561,0,0,1,.047-1.193c.67-1.222,2.288-1.467,3.533-1.561a29.174,29.174,0,0,1,8.608.632c.222,1.085.472,2.16.736,3.236q.292,1.184.623,2.358a13.209,13.209,0,0,1,.359,1.476A3.774,3.774,0,0,1,314.695,671.548Z" transform="translate(-198.491 -365.576)" fill="#464353"/>
  <path id="Path_1809" data-name="Path 1809" d="M315.68,680.276a.618.618,0,0,1-.217.34.722.722,0,0,1-.373.08c-1.679.038-3.358,0-5.033.118a24.059,24.059,0,0,1-4.755.292,2.439,2.439,0,0,1-2.358-1.552,6.178,6.178,0,0,1-.264-.632h.6c1.986,0,3.976-.071,5.962-.071a15.244,15.244,0,0,0,1.8-.1c.594-.071,1.08-.17,1.623-.236a22.229,22.229,0,0,1,2.443-.1h.67A3.773,3.773,0,0,1,315.68,680.276Z" transform="translate(-199.476 -374.304)" opacity="0.06"/>
  <path id="Path_1810" data-name="Path 1810" d="M373.538,655.4a4.825,4.825,0,0,1-1.953,1.373c-3.358,1.415-7.24.778-10.707-.373a16.315,16.315,0,0,0-2.382-.684,16.03,16.03,0,0,0-2.231-.156c-.533,0-1.066-.042-1.6-.075-1.349-.085-2.693-.217-4.033-.349a18.216,18.216,0,0,1-2.773-.42,2.947,2.947,0,0,1-.741-.3h0a1.137,1.137,0,0,1-.679-1.014c.038-.6.66-.943,1.208-1.2,4.854-2.1,10.127-3.009,15.363-3.74a6.155,6.155,0,0,0,1.542-.472c.59-.236.651.151.943.585a3.636,3.636,0,0,0,.472.557,5.613,5.613,0,0,0,1.962,1.151c1.274.472,2.637.6,3.91,1.047a5.356,5.356,0,0,1,1.1.528,2.274,2.274,0,0,1,.575,3.547Z" transform="translate(-222.595 -358.192)" fill="#464353"/>
  <path id="Path_1811" data-name="Path 1811" d="M382.752,659.817a4.825,4.825,0,0,1-1.953,1.373c-3.358,1.415-7.24.778-10.707-.373a16.329,16.329,0,0,0-2.382-.684,16.05,16.05,0,0,0-2.231-.156c-.533,0-1.066-.042-1.6-.075.434-.41.877-.811,1.33-1.2a3.962,3.962,0,0,1,1.118-.736,3.236,3.236,0,0,1,1.59-.108c2.7.373,5.122,2.264,7.844,2.1a9.652,9.652,0,0,0,3.608-1.165,6.3,6.3,0,0,0,2.358-1.679,2.722,2.722,0,0,0,.439-.844,2.274,2.274,0,0,1,.575,3.547Z" transform="translate(-231.809 -362.605)" opacity="0.06"/>
  <path id="Path_1812" data-name="Path 1812" d="M389.617,444.9a3.905,3.905,0,0,1-2.094,2.259c-1.481.424-2.906-.906-3.552-2.3a9.943,9.943,0,0,1-.472-6.49c.269-1.09.679-2.137.91-3.231a19.675,19.675,0,0,0,.3-2.788,17.043,17.043,0,0,0-.1-4.189c-.759-4.052-4.245-7.075-5.405-11.056a20.633,20.633,0,0,1-.524-6.17,6.344,6.344,0,0,1,.16-1.557,2.43,2.43,0,0,1,.142-.406c.778-1.726,3.085-1.962,4.689-2.967.887-.552,2.9-2.33,3.646-.708a5.335,5.335,0,0,1,.358,1.127,29.98,29.98,0,0,1,.259,4.5c.288,5.151,1.571,10.292.976,15.415a16.077,16.077,0,0,0-.208,2.641c.127,2.217,1.514,4.137,2.151,6.259C391.839,438.429,391.051,441.9,389.617,444.9Z" transform="translate(-239.622 -229.657)" fill="#fbbebe"/>
  <path id="Path_1813" data-name="Path 1813" d="M387.925,406.419a1.589,1.589,0,0,0-1.085,0l-3.193.943a19.775,19.775,0,0,0-3.259,1.184,7.647,7.647,0,0,0-1.3.807,2.428,2.428,0,0,1,.142-.406c.778-1.726,3.085-1.962,4.689-2.967.887-.552,2.9-2.33,3.646-.708a5.335,5.335,0,0,1,.358,1.146Z" transform="translate(-239.844 -229.646)" opacity="0.1"/>
  <path id="Path_1814" data-name="Path 1814" d="M381.053,361.069a1.443,1.443,0,0,0-1.292-.1l-3.193.943a19.772,19.772,0,0,0-3.259,1.184,7.489,7.489,0,0,0-1.552,1.009c-1.491-2.59-1.887-5.66-2.16-8.632-.151-1.731-.264-3.467-.33-5.189a23.275,23.275,0,0,1,.075-3.717c.179-1.415.59-2.8.844-4.2a19.182,19.182,0,0,0,.292-2.49,24.353,24.353,0,0,0-.25-5.467,33.883,33.883,0,0,0-1.311-5.66c-.3-.844-.665-1.66-1-2.491l-.113-.292a34.382,34.382,0,0,1-1.458-4.674c-.151-.651-.16-1.335-.66-1.778a8.876,8.876,0,0,1,1.415-.057h.283a10.58,10.58,0,0,1,5.4,1.887,12.608,12.608,0,0,1,4.472,5.915,27.219,27.219,0,0,1,1.288,8.377q.382,8.358.472,16.726a5.34,5.34,0,0,0,.66,3.094,6.317,6.317,0,0,1,.472.684c.222.472.189,1,.368,1.472a7.445,7.445,0,0,0,.448.83,3.042,3.042,0,0,1,.09,2.632Z" transform="translate(-232.765 -184.654)" fill="#464353"/>
  <path id="Path_1815" data-name="Path 1815" d="M330.115,289.782c-.472-.156-.943-.321-1.415-.472l.981.075A1.981,1.981,0,0,1,330.115,289.782Z" transform="translate(-213.222 -168.734)" fill="#fbbebe"/>
  <path id="Path_1816" data-name="Path 1816" d="M346.809,307.344c-.094.321-.189.641-.292.943a18.024,18.024,0,0,1-.873,2.269,10.557,10.557,0,0,1-2.231,3.236,2.962,2.962,0,0,1-1.113.736,3.537,3.537,0,0,1-1.094.1q-1.887,0-3.773-.057a13.406,13.406,0,0,1-2.915-.288,10.41,10.41,0,0,1-2.972-1.34,17.641,17.641,0,0,1-7.66-9.434,1.563,1.563,0,0,1,.08-1.491,1.825,1.825,0,0,1,1.2-.41h.057a7.6,7.6,0,0,0,2.873-.986,2.953,2.953,0,0,0,1.311-1.34,3.613,3.613,0,0,0-.042-2.085l-1.047-4.755a4.924,4.924,0,0,0-.835-2.118c.307.108.613.208.943.292,2.915.788,6.1.311,8.962,1.344a3.819,3.819,0,0,1,2.519,2.245c.552,1.887-1.292,3.844-.764,5.731.354,1.283,1.66,2.024,2.83,2.623l.788.4,2.184,1.108.3.151.047.024a2.963,2.963,0,0,1,1.656,1.524A2.83,2.83,0,0,1,346.809,307.344Z" transform="translate(-210.6 -169.272)" fill="#fbbebe"/>
  <path id="Path_1817" data-name="Path 1817" d="M352.563,330.456a10.183,10.183,0,0,1-.868,3.49,14.259,14.259,0,0,0-1.486,6.132c-.363,6.368-2.783,13.948.684,19.3.085.132.17.264.25.4a7.491,7.491,0,0,0-1.552,1.009c-1.491-2.59-1.887-5.66-2.16-8.632-.151-1.731-.264-3.467-.33-5.189a23.272,23.272,0,0,1,.075-3.717c.179-1.415.59-2.8.844-4.2a19.182,19.182,0,0,0,.292-2.49,24.355,24.355,0,0,0-.25-5.467,33.886,33.886,0,0,0-1.311-5.66c-.3-.844-.665-1.66-1-2.49l-.113-.292a10.557,10.557,0,0,1-2.231,3.236,2.962,2.962,0,0,1-1.113.736,3.536,3.536,0,0,1-1.094.1q-1.887,0-3.773-.057a13.406,13.406,0,0,1-2.915-.288,10.41,10.41,0,0,1-2.972-1.34,17.641,17.641,0,0,1-7.66-9.434,1.563,1.563,0,0,1,.08-1.491,1.826,1.826,0,0,1,1.2-.41h.057l4.245,5.25a8.489,8.489,0,0,1,1.226,1.835,1.094,1.094,0,0,0,.377.561.967.967,0,0,0,.472.085h13.283a3.449,3.449,0,0,0-.585-1.986c-.123.028-.288.038-.033-.038a13.367,13.367,0,0,0-1.462-4.372,3.029,3.029,0,0,0-.146-.274,5.029,5.029,0,0,1-.7-1.528,1.937,1.937,0,0,1,2.684,1.458c.217.472.434.976.627,1.472,0,.052.047.109.066.16a10.68,10.68,0,0,1,.783,3.061c.028.387.123.877.443,1a.421.421,0,0,0,.16.038,1.783,1.783,0,0,1,1.929.472,4.246,4.246,0,0,1,.943,1.858,10.168,10.168,0,0,0,.67,2c.608,1.16-.321,1.679.778,2.391a3.83,3.83,0,0,1,1.292,1.16,3.622,3.622,0,0,1,.283,2.146Z" transform="translate(-210.601 -181.31)" opacity="0.1"/>
  <path id="Path_1818" data-name="Path 1818" d="M313.01,662.65c.222,1.085.472,2.16.736,3.236l-.028.066A21.9,21.9,0,0,0,307,663.815a7.442,7.442,0,0,0-6.042,1.986,7.156,7.156,0,0,0-.137-1.028,1.561,1.561,0,0,1,.047-1.193c.67-1.222,2.288-1.467,3.533-1.561A29.174,29.174,0,0,1,313.01,662.65Z" transform="translate(-198.443 -365.598)" opacity="0.1"/>
  <path id="Path_1819" data-name="Path 1819" d="M366.014,328.37c.222,0,.142,0,.033.038S365.76,328.445,366.014,328.37Z" transform="translate(-232.867 -189.37)" opacity="0.1"/>
  <path id="Path_1820" data-name="Path 1820" d="M365.991,649.131a40.97,40.97,0,0,0-5.905,4.571,6.184,6.184,0,0,1-1.863,1.363,5.443,5.443,0,0,1-2.245.231,76.405,76.405,0,0,1-8.858-.877h0a1.137,1.137,0,0,1-.679-1.014c.038-.6.66-.943,1.208-1.2,4.854-2.1,10.127-3.009,15.363-3.74a6.155,6.155,0,0,0,1.542-.472c.59-.236.651.151.943.585a3.641,3.641,0,0,0,.5.557Z" transform="translate(-222.595 -358.192)" opacity="0.1"/>
  <path id="Path_1821" data-name="Path 1821" d="M301.891,314.907c.693.618,1.486,1.118,2.189,1.717a19.8,19.8,0,0,1,4.245,6.014,3.934,3.934,0,0,1-2.165.146,15.529,15.529,0,0,0,.184,6.306,5.849,5.849,0,0,0-2.108,2.618,17.5,17.5,0,0,0-.689,3.3q-1.019,7.363-2.047,14.726a2.283,2.283,0,0,1-.472,1.325,2.541,2.541,0,0,0-.358.354,1.958,1.958,0,0,0-.165,1.014c-.028.344-.255.755-.6.708a.745.745,0,0,1-.42-.274,9.634,9.634,0,0,1-.943-1.17c-2.783,5.339-4.122,11.094-5.594,16.933a41.018,41.018,0,0,0-1.774,18.735l.415,4.141c.335,3.33.67,6.665,1.033,9.995a25.159,25.159,0,0,0,1.231,6.236c1.132,3.023-.123,6.434.359,9.632.377,2.5,1.127,5.094.373,7.509-.3.967-.83,1.849-1.226,2.783a20.889,20.889,0,0,0-1.156,7.415,31.131,31.131,0,0,0,.245,6.6c.406,2.259,1.316,4.472,1.137,6.754-.25,3.25-2.646,6.028-2.939,9.273-.231,2.59.906,5.089,2.127,7.387.9,1.693-.354,3.882-.83,5.745-.943,3.651.627,7.471,2.552,10.712a.514.514,0,0,0,.245.255c.222.08.42-.137.566-.321a7.259,7.259,0,0,1,6.368-2.358,21.314,21.314,0,0,1,6.717,2.137l3.061-6.816a6.1,6.1,0,0,0,.788-3.646,10.561,10.561,0,0,0-1.16-2.448,14.293,14.293,0,0,1-1-6.292l-.057-12.122a26.508,26.508,0,0,0,4.764-10.292,33.018,33.018,0,0,1,.283,16.037,14.549,14.549,0,0,0-.472,2.443c-.184,3.363,2.453,6.207,3.156,9.5a2.042,2.042,0,0,1,.057.774,2.915,2.915,0,0,1-.391.9c-1.264,2.292-1.127,5.071-.943,7.684a76.562,76.562,0,0,0,10,1.071,5.622,5.622,0,0,0,2.245-.231,6.2,6.2,0,0,0,1.863-1.368,41.137,41.137,0,0,1,7.014-5.307,16.33,16.33,0,0,0-5.731-5.66c.759-1.118,2.49-1.028,3.5-1.924a3.3,3.3,0,0,0,.943-1.858,12.628,12.628,0,0,0-.557-5.589,66.492,66.492,0,0,0-3.3-10.542,40.5,40.5,0,0,1-1.774-4.269c-1.236-4.066-.373-8.49-1.307-12.646-.3-1.33-.788-2.7-.448-4.028.519-2.042,2.83-3.255,3.34-5.3,1.825-7.288,2.151-14.839,3.189-22.278a28.626,28.626,0,0,0,.373-4.3c0-1.5-.269-3-.377-4.5-.425-6,1.5-11.995,1-17.995a22.641,22.641,0,0,0-3.547-10.377c-3.467-5.354-1.047-12.929-.684-19.3a14.188,14.188,0,0,1,1.481-6.132,10.062,10.062,0,0,0,.873-3.49,3.608,3.608,0,0,0-.264-2.2,3.722,3.722,0,0,0-1.288-1.16c-1.1-.717-.17-1.236-.778-2.4a10.069,10.069,0,0,1-.67-2,4.207,4.207,0,0,0-.943-1.854,1.783,1.783,0,0,0-1.929-.472c-.448,0-.571-.594-.608-1.042a14.7,14.7,0,0,0-1.472-4.693,2.562,2.562,0,0,0-1.137-1.458,2.6,2.6,0,0,0-1.552,0,5.014,5.014,0,0,0,.7,1.533,13.32,13.32,0,0,1,1.6,4.641c-.472.141.472,0,0,0a3.3,3.3,0,0,1,.618,2.023H313.584a.944.944,0,0,1-.472-.085,1.132,1.132,0,0,1-.382-.561,8.174,8.174,0,0,0-1.226-1.83l-4.67-5.759a1.18,1.18,0,0,0-.4-.363,1.085,1.085,0,0,0-.59,0A10.608,10.608,0,0,0,301.891,314.907Z" transform="translate(-193.102 -181.378)" fill="#ff9292"/>
  <path id="Path_1822" data-name="Path 1822" d="M345.6,482.21a4.5,4.5,0,0,1,2.3.594,2.316,2.316,0,0,1,1.142,1.991,5.277,5.277,0,0,1-1.231,2.358,6.323,6.323,0,0,0-.726,1.491.6.6,0,0,0-.038.382c.057.179.25.269.415.349a3.542,3.542,0,0,1,2.08,3.094c-.042,1.84-1.84,3.33-1.74,5.189a10.671,10.671,0,0,0,.2,1.151,8.792,8.792,0,0,1-.637,4.665c-.571,1.481-1.349,2.873-1.962,4.339a30.783,30.783,0,0,0-1.887,12.735c.1,2.943-.943,5.745-1.887,8.547a122.856,122.856,0,0,0,.425-16.981c-.066-1.538-.259-2.99-.189-4.533.113-2.448,1.481-4.674,1.83-7.075a34.854,34.854,0,0,0,.1-4.156c.066-2.83.835-5.622.887-8.462C344.738,485.884,344.554,483.818,345.6,482.21Z" transform="translate(-220.048 -270.645)" opacity="0.1"/>
  <path id="Path_1823" data-name="Path 1823" d="M300.08,317.5a12.932,12.932,0,0,0-2.613,1.726,11.131,11.131,0,0,0-2.066,2.83,36.139,36.139,0,0,0-1.75,3.66,8.155,8.155,0,0,0-.759,5.113c.415,1.533,1.59,2.726,2.4,4.09a34.812,34.812,0,0,1,1.91,4.457c.83,2,1.967,3.854,2.788,5.854a10.368,10.368,0,0,1,.8,6.325c-.151.613-1.146,1.09-1.146,1.717,0,1.038,1.5,2.165,2.5,2.467a3.734,3.734,0,0,0,3.335-.943,12.266,12.266,0,0,0,3.542-5.462,55.888,55.888,0,0,0,2.509-10.287c.434-2.557.84-5.118,1.071-7.693a19.582,19.582,0,0,0-.335-6.943,11.792,11.792,0,0,0-3.222-5.358c-1.226-1.179-3.236-2.764-5.019-2.807A8.27,8.27,0,0,0,300.08,317.5Z" transform="translate(-194.216 -182.966)" fill="#464353"/>
  <path id="Path_1824" data-name="Path 1824" d="M303.223,415.473a2.255,2.255,0,0,1-1.052,1.571,6.2,6.2,0,0,1-1.8.736,7.464,7.464,0,0,1-3.882.382,7.792,7.792,0,0,1-2.726-1.552l-14.283-10.934a19.288,19.288,0,0,1-3.146-2.792,20.1,20.1,0,0,1-1.491-2.118,10.376,10.376,0,0,1-1.387-2.755,5.041,5.041,0,0,1-.17-1.325,2.5,2.5,0,0,1,.3-1.212c.344-.575,1.08-.693,1.684-.854a17.669,17.669,0,0,1,6.212-.472.844.844,0,0,1,.84.571c.316.58.59,1.184.873,1.788a12.924,12.924,0,0,0,1.684,2.882,24.311,24.311,0,0,0,2.1,2.023c1.509,1.415,2.745,3.113,4.354,4.415a36.354,36.354,0,0,0,6.25,3.514c2.123,1.108,4.217,2.547,5.283,4.693A2.75,2.75,0,0,1,303.223,415.473Z" transform="translate(-183.948 -224.073)" fill="#fbbebe"/>
  <path id="Path_1825" data-name="Path 1825" d="M345.637,264.659a11.679,11.679,0,1,1-.325-2.736A11.679,11.679,0,0,1,345.637,264.659Z" transform="translate(-209.83 -149.54)" opacity="0.1"/>
  <path id="Path_1826" data-name="Path 1826" d="M345.637,263.659a11.679,11.679,0,1,1-.325-2.736A11.679,11.679,0,0,1,345.637,263.659Z" transform="translate(-209.83 -149.012)" fill="#fbbebe"/>
  <path id="Path_1827" data-name="Path 1827" d="M283.2,396.488a2.76,2.76,0,0,1-2,.08c-2.623-.585-5.519-1-7.91.118a2.5,2.5,0,0,1,.3-1.212c.344-.575,1.08-.693,1.684-.854a17.668,17.668,0,0,1,6.212-.472.844.844,0,0,1,.84.571C282.643,395.28,282.917,395.884,283.2,396.488Z" transform="translate(-183.948 -224.073)" opacity="0.1"/>
  <path id="Path_1828" data-name="Path 1828" d="M277.642,351.74a18.408,18.408,0,0,1-2.193,5.424,4.009,4.009,0,0,0-.83,1.453,4.528,4.528,0,0,1-.193,1.17c-.16.321-.5.533-.637.863-.2.472.061,1.08-.208,1.524a2.265,2.265,0,0,1-.448.472,3.3,3.3,0,0,0-.816,2.42,8.239,8.239,0,0,1-.217,2.6c2.49-1.486,5.66-1.042,8.49-.41.788.175,1.764.307,2.274-.325s.217-1.462.288-2.222a8.824,8.824,0,0,1,1.193-2.712,32.3,32.3,0,0,0,1-3.2c.75-2.222,2.358-4.033,3.391-6.132a5.892,5.892,0,0,0,.67-2.33,6.952,6.952,0,0,0-.807-3.023,41.355,41.355,0,0,0-3.49-6.231c-.6-.882-1.632-2.514-2.561-1.1a26.439,26.439,0,0,0-1.783,3.83,70.1,70.1,0,0,0-3.118,7.938Z" transform="translate(-183.32 -195.207)" fill="#464353"/>
  <path id="Path_1829" data-name="Path 1829" d="M344.235,289.075a9.533,9.533,0,0,1-7.632-3.014,1.17,1.17,0,0,1-.34-.552,1.108,1.108,0,0,1,.217-.774c.566-.873,1.542-1.448,2-2.387a7.577,7.577,0,0,0,.34-3.047c.075-1.844.8-3.67.863-5.486a5.732,5.732,0,0,0-.1-1.387,8.7,8.7,0,0,1-.4-2.09c.061-1.382,1.307-2.457,1.514-3.821.269-1.736-1.17-3.245-2.618-4.245a15.6,15.6,0,0,0-3.566-1.844,11.606,11.606,0,0,0-2.4-.58,9.339,9.339,0,0,0-4.514.5,7.375,7.375,0,0,0-1.679.9,2.273,2.273,0,0,0-.75.778,2.532,2.532,0,0,0-.2,1.127c-.028,1.929.189,3.981-.731,5.66-.472.9-1.274,1.632-1.665,2.585a4.3,4.3,0,0,0-.3,1.241,12.5,12.5,0,0,0-.071,1.33c-.028,2.486,0,5.108,1.264,7.264a18.934,18.934,0,0,1,1.212,2.033,2.316,2.316,0,0,1-.118,2.259,2.571,2.571,0,0,1-.943.707,7.547,7.547,0,0,1-6.033.217,7.646,7.646,0,0,0,1.783-8.528,5.033,5.033,0,0,1-.651-1.887,4.787,4.787,0,0,1,.472-1.726,9.434,9.434,0,0,0,.288-5.528,20.165,20.165,0,0,1-.877-3.363,10.173,10.173,0,0,1,.113-2.613,8.49,8.49,0,0,1,5.816-6.693c.241-.08.472-.156.736-.222a15.69,15.69,0,0,1,3.486-.373,26.461,26.461,0,0,1,7.8.524,10.462,10.462,0,0,1,4.038,2.075,7.288,7.288,0,0,1,1.953,2.58,8.961,8.961,0,0,1,.552,1.783c.109.5.189,1.014.269,1.524.571,3.627,1.141,7.325.533,10.948-.241,1.415-.66,2.83-.849,4.273C342.589,282.552,343.415,285.858,344.235,289.075Z" transform="translate(-207.353 -150.853)" fill="#464353"/>
  <circle id="Ellipse_304" data-name="Ellipse 304" cx="0.877" cy="0.877" r="0.877" transform="translate(119.246 141.128)" fill="#fff"/>
  <circle id="Ellipse_305" data-name="Ellipse 305" cx="0.877" cy="0.877" r="0.877" transform="translate(134.053 140.713)" fill="#fff"/>
  <path id="Path_1830" data-name="Path 1830" d="M336.437,236.058,334.55,232.5a3.45,3.45,0,0,1,.391-.4,1.5,1.5,0,0,1,.91-.217Z" transform="translate(-216.313 -138.392)" opacity="0.1"/>
  <path id="Path_1831" data-name="Path 1831" d="M345.824,230.846l-2.137,3.16-1.217-3.467a3.859,3.859,0,0,1,1.646-.311A5.471,5.471,0,0,1,345.824,230.846Z" transform="translate(-220.497 -137.518)" opacity="0.1"/>
  <g id="Group_1271" data-name="Group 1271" transform="translate(110.237 107.964)" opacity="0.1">
    <path id="Path_1832" data-name="Path 1832" d="M324.566,316.449a2.571,2.571,0,0,1-.943.708,7.58,7.58,0,0,1-5.363.448,7.336,7.336,0,0,1-.67.712,7.547,7.547,0,0,0,6.033-.217,2.571,2.571,0,0,0,.943-.708,2.033,2.033,0,0,0,.3-1.632A1.675,1.675,0,0,1,324.566,316.449Z" transform="translate(-317.59 -290.672)"/>
    <path id="Path_1833" data-name="Path 1833" d="M320.507,278.41a9.292,9.292,0,0,1,.269,1.887,9.4,9.4,0,0,0-.269-2.83,20.167,20.167,0,0,1-.877-3.363,2.827,2.827,0,0,0-.024-.443,10.526,10.526,0,0,0,.024,1.387A20.17,20.17,0,0,0,320.507,278.41Z" transform="translate(-318.648 -268.43)"/>
    <path id="Path_1834" data-name="Path 1834" d="M372.209,292.583a20.633,20.633,0,0,0,.255-3.773,19.663,19.663,0,0,1-.255,2.83c-.241,1.415-.66,2.83-.849,4.273a14.889,14.889,0,0,0-.108,2.335,13.918,13.918,0,0,1,.109-1.391C371.549,295.414,371.968,294.013,372.209,292.583Z" transform="translate(-345.936 -276.434)"/>
    <path id="Path_1835" data-name="Path 1835" d="M320.6,299.468a7.755,7.755,0,0,1-.594-1.458,2.134,2.134,0,0,0-.057.519,5.034,5.034,0,0,0,.651,1.887,7.126,7.126,0,0,1,.59,2.5A7.311,7.311,0,0,0,320.6,299.468Z" transform="translate(-318.837 -281.294)"/>
    <path id="Path_1836" data-name="Path 1836" d="M363.74,288.669a6.166,6.166,0,0,1,.09.651v-.208a5.731,5.731,0,0,0-.1-1.387c-.1-.5-.274-.986-.354-1.486a2.091,2.091,0,0,0-.042.34A8.693,8.693,0,0,0,363.74,288.669Z" transform="translate(-341.755 -275.076)"/>
    <path id="Path_1837" data-name="Path 1837" d="M357.511,318.021a2.484,2.484,0,0,1-.2-.241.976.976,0,0,0-.137.632,1.17,1.17,0,0,0,.34.552,9.533,9.533,0,0,0,7.632,3.014c-.08-.311-.16-.618-.236-.943A9.519,9.519,0,0,1,357.511,318.021Z" transform="translate(-338.498 -291.739)"/>
    <path id="Path_1838" data-name="Path 1838" d="M348.937,269.377a.2.2,0,0,1,0-.052c.269-1.736-1.17-3.245-2.618-4.245a15.6,15.6,0,0,0-3.566-1.844,11.607,11.607,0,0,0-2.4-.58,9.339,9.339,0,0,0-4.514.5,7.373,7.373,0,0,0-1.679.9,2.274,2.274,0,0,0-.75.778,2.533,2.533,0,0,0-.2,1.127c0,.325,0,.651,0,.981v-.038a2.533,2.533,0,0,1,.2-1.127,2.274,2.274,0,0,1,.75-.778,7.372,7.372,0,0,1,1.679-.9,9.339,9.339,0,0,1,4.514-.5,11.607,11.607,0,0,1,2.4.58,15.6,15.6,0,0,1,3.566,1.844A5.634,5.634,0,0,1,348.937,269.377Z" transform="translate(-325.843 -262.572)"/>
    <path id="Path_1839" data-name="Path 1839" d="M329.413,277.627c-.472.9-1.274,1.632-1.665,2.585a4.3,4.3,0,0,0-.3,1.241,12.5,12.5,0,0,0-.071,1.33v.943a12.5,12.5,0,0,1,.071-1.332,4.3,4.3,0,0,1,.3-1.238,29.677,29.677,0,0,1,1.665-2.585,9.47,9.47,0,0,0,.731-4.66,7.868,7.868,0,0,1-.731,3.717Z" transform="translate(-322.762 -268.562)"/>
  </g>
  <path id="Path_1840" data-name="Path 1840" d="M344.287,260.677a1.373,1.373,0,0,1-.226.25,2.161,2.161,0,0,1-.552.33c-1.373.594-1.316-1.344-2.033-2.009a2.439,2.439,0,0,0-1.594-.472q-2.071-.1-4.146-.184c-2.307-.085-4.608-.127-6.91-.075q-1.656.028-3.3.137a8.993,8.993,0,0,0-3.726.854,3.949,3.949,0,0,0-1,.778c-.259.283-.533.641-.891.708a8.49,8.49,0,0,1,5.816-6.693,11.674,11.674,0,0,1,16.037,2,7.287,7.287,0,0,1,1.953,2.58,8.963,8.963,0,0,1,.571,1.792Z" transform="translate(-208.578 -149.016)" opacity="0.1"/>
  <path id="Path_1841" data-name="Path 1841" d="M342.966,248.806c-1.373.594-1.316-1.344-2.033-2.009a2.439,2.439,0,0,0-1.594-.472,125.717,125.717,0,0,0-14.358-.123c-1.7.113-3.571.368-4.717,1.632-.292.321-.6.736-1.038.722-.146-.943-.25-1.924-.321-2.891a3.217,3.217,0,0,1,.057-1.085c.118-.406.387-.75.524-1.146a4.6,4.6,0,0,0,.142-1.547,11.179,11.179,0,0,1,5.5-9.509,5,5,0,0,0,1.146-.774,3.446,3.446,0,0,1,.391-.4,1.5,1.5,0,0,1,.91-.217h.67a6.09,6.09,0,0,0,1.769-.472,3.859,3.859,0,0,1,1.646-.311,5.472,5.472,0,0,1,1.708.618,4.136,4.136,0,0,0,.8.288c.429.1.873.094,1.3.179a6.353,6.353,0,0,1,1.953.868,9.317,9.317,0,0,1,1.962,1.415,8.683,8.683,0,0,1,1.519,2.472,17.7,17.7,0,0,1,1.415,3.924c.382,1.953.193,4.066,1.1,5.839C343.966,246.924,344.47,248.16,342.966,248.806Z" transform="translate(-208.036 -137.508)" fill="#fed253"/>
  <path id="Path_1842" data-name="Path 1842" d="M319.25,261.521s9.778-8.9,24.339-1.519C343.589,260,327.151,256.262,319.25,261.521Z" transform="translate(-208.23 -151.704)" opacity="0.1"/>
  <path id="Path_1843" data-name="Path 1843" d="M89.952,312.321c-1.33-2.179-3.33-4.174-3.019-6.646a19.437,19.437,0,0,0,10.486-2.024,86.658,86.658,0,0,0,9.608-5.542c1.236-.778,2.467-1.542,3.693-2.25,1.943-1.113,3.873-2.358,5.849-3.448a22.073,22.073,0,0,1,8.9-3.075,16.228,16.228,0,0,1,1.731-.042c3.915.076,7.971,1.127,11.415-.627l.212-.113c1.953-1.071,3.373-2.891,5.047-4.368a22.543,22.543,0,0,1,3.91-2.717c2.542-1.415,5.3-2.547,7.9-3.882a11.976,11.976,0,0,0,1.887-1.208l.443-.354.1-.085c.108-.09.217-.179.321-.274l.2-.179.208-.189.16-.151.259-.245.028-.033.41-.406.165-.165.288-.3.17-.17c.288-.3.575-.6.868-.892s.689-.689,1.042-1.014h0l.34-.3.1-.085.274-.226.127-.109.269-.208.132-.1c.132-.1.269-.193.406-.288a2.952,2.952,0,0,1,.4-.231l-.882-2.137,2.538-1.047,35,84.927-2.542,1.047L178.365,304.58l-.142.142a40.188,40.188,0,0,1-16.551,9.849h-.038c-3.486,1.052-7.387,1.8-10.32,3.75a9.9,9.9,0,0,0-2.665,2.552c-.689.981-1.17,2.1-1.887,3.042-.137.174-.288.344-.439.5a16.4,16.4,0,0,1-2.83,2.245l-.448.307a91.722,91.722,0,0,1-9.481,5.844,37.4,37.4,0,0,1-5.891,2.453c-1.476.472-3,.816-4.476,1.283a17.529,17.529,0,0,0-2.882,1.16,21.09,21.09,0,0,0-6.236,5.538c-1.59,1.915-3.1,3.943-4.844,5.689-1.094,1.085-2.759,2.113-4.08,1.476l-.269-.156c.042-.071.075-.142.113-.217,1.042-2.184-.241-4.882-1.967-6.632-.179-.184-.363-.363-.552-.533s-.528-.472-.8-.708a19.2,19.2,0,0,1-4.071-4.085,13.325,13.325,0,0,1-1.566-4.439c-.472-2.222-.788-4.509-2-6.4-.792-1.25-1.972-2.316-2.83-3.514a5.354,5.354,0,0,1-1.038-2.424c-.193-1.533.519-3.033.788-4.561a5.693,5.693,0,0,0,.1-1.264,6.693,6.693,0,0,0-1.118-3.16Z" transform="translate(-85.476 -157.047)" fill="url(#linear-gradient-2)"/>
  <rect id="Rectangle_951" data-name="Rectangle 951" width="2.703" height="90.313" transform="translate(114.516 194.357) rotate(157.6)" fill="#d6d8e1"/>
  <path id="Path_1844" data-name="Path 1844" d="M95.99,331.048c1.184,1.863,1.5,4.108,1.957,6.292a13.254,13.254,0,0,0,1.542,4.368,18.98,18.98,0,0,0,4,4.014c.264.231.528.472.783.7.184.165.368.344.542.519,1.7,1.722,2.957,4.377,1.934,6.523a1.8,1.8,0,0,1-.108.212,2.147,2.147,0,0,0,.259.151c1.3.632,2.939-.377,4.014-1.448,1.717-1.717,3.2-3.707,4.764-5.589a20.652,20.652,0,0,1,6.132-5.448,16.98,16.98,0,0,1,2.83-1.142c1.448-.472,2.948-.807,4.4-1.259a37.035,37.035,0,0,0,5.792-2.41,90.808,90.808,0,0,0,9.339-5.75l.443-.3a16.2,16.2,0,0,0,2.783-2.2c.151-.16.3-.325.434-.5.726-.943,1.2-2.024,1.887-2.99a9.745,9.745,0,0,1,2.623-2.509c2.887-1.92,6.717-2.656,10.146-3.689h.038A39.594,39.594,0,0,0,178.8,308.9a2.651,2.651,0,0,0,.816-1.2,2.766,2.766,0,0,0-.557-1.91c-.4-.689-.792-1.377-1.179-2.075a92.684,92.684,0,0,1-4.651-9.778c-.3-.736-.585-1.467-.863-2.207q-1.071-2.83-1.953-5.74c-.193-.641-.382-1.288-.561-1.934-.033-.123-.071-.255-.1-.4-.783-3.146-1.83-10.509-5.056-8.306a18.666,18.666,0,0,0-2.665,2.316c-.627.637-1.241,1.292-1.887,1.924a19.072,19.072,0,0,1-1.665,1.457,12.228,12.228,0,0,1-1.887,1.189c-2.561,1.311-5.269,2.41-7.764,3.816a22.07,22.07,0,0,0-3.849,2.67c-1.646,1.453-3.042,3.245-4.962,4.3l-.208.113c-3.387,1.722-7.372.689-11.226.613a16.93,16.93,0,0,0-1.7.042,21.5,21.5,0,0,0-8.75,3.023c-1.943,1.075-3.84,2.292-5.75,3.391-1.208.693-2.415,1.443-3.632,2.212a83.081,83.081,0,0,1-9.434,5.453A19.385,19.385,0,0,1,89,309.86c-.307,2.429,1.656,4.391,2.967,6.533a6.485,6.485,0,0,1,1.108,3.1,5.476,5.476,0,0,1-.09,1.241c-.264,1.5-.943,2.976-.774,4.49A5.212,5.212,0,0,0,93.23,327.6C94.051,328.77,95.207,329.822,95.99,331.048Z" transform="translate(-86.57 -161.148)" fill="#f86d70"/>
  <path id="Path_1845" data-name="Path 1845" d="M307.018,414.71a41.114,41.114,0,0,0,8.32,5.523c4.189,1.92,1.415,8.806,1.415,8.806a7.6,7.6,0,0,1-7.547-3.3C306.1,421.417,307.018,414.71,307.018,414.71Z" transform="translate(-201.7 -234.984)" fill="#fbbebe"/>
  <path id="Path_1846" data-name="Path 1846" d="M743.76,544.667s-10.943,14.4-20.023,14.518-14.41,6.066-10.1,9.783,51.291-2.123,51.291-2.123.443-17.7-3.627-20.282S743.76,544.667,743.76,544.667Z" transform="translate(-415.789 -303.599)" fill="#444176"/>
  <path id="Path_1847" data-name="Path 1847" d="M1023.482,577.511s1.675,11.405-3.5,19.183,9.349,10.778,9.349,10.778,10.552,2.939,11.32-7.486.519-18.4-.472-19.245-1.816-6.712-1.816-6.712Z" transform="translate(-577.849 -319.156)" fill="#444176"/>
  <path id="Path_1848" data-name="Path 1848" d="M677.45,490.838s-.382-36.89,36.122-51.885l8.476-16.127,4.066-9.905a24.1,24.1,0,0,1,17.023-14.367l6.575-1.476,2.033-8.566a24.093,24.093,0,0,1,19.249-18.179,67.411,67.411,0,0,1,12.122-1.132,10.433,10.433,0,0,1,8.863,5.189h0s34.584-.382,36.117,18.448c0,0,3.462,17.287,8.457,20.363,0,0,8.453-1.92,16.905,10.377l9.221,31.508s24.207,22.669,16.905,43.395c0,0-9.99,14.217-60.71,4.608,0,0-54.178,16.509-83.016-6.132C735.854,496.984,687.827,506.205,677.45,490.838Z" transform="translate(-397.473 -210.941)" fill="#a8a8a8"/>
  <path id="Path_1849" data-name="Path 1849" d="M728.77,564.612s7.688-10.759,7.3-18.448,1.811-26.414,1.811-26.414" transform="translate(-424.586 -290.479)" fill="none" stroke="#000" stroke-miterlimit="10" stroke-width="1" opacity="0.1"/>
  <path id="Path_1850" data-name="Path 1850" d="M788.24,514.088s7.684-14.217,6.915-21.9c0,0,8.07-14.622,14.217-13.452" transform="translate(-456.005 -268.775)" fill="none" stroke="#000" stroke-miterlimit="10" stroke-width="1" opacity="0.1"/>
  <path id="Path_1851" data-name="Path 1851" d="M877.85,452.73s21.131-7.684,22.287-13.83" transform="translate(-503.347 -247.764)" fill="none" stroke="#000" stroke-miterlimit="10" stroke-width="1" opacity="0.1"/>
  <path id="Path_1852" data-name="Path 1852" d="M894.14,491.494s22.287-9.99,22.287-12.684h11.136s16.141,21.136,14.221,30.358" transform="translate(-511.954 -268.849)" fill="none" stroke="#000" stroke-miterlimit="10" stroke-width="1" opacity="0.1"/>
  <path id="Path_1853" data-name="Path 1853" d="M871.2,538.089s-21.518-1.538-29.207,4.613-21.518,9.221-21.518,9.221-8.07,17.292-11.146,20.363-8.07,13.834-8.07,13.834" transform="translate(-462.884 -300.077)" fill="none" stroke="#000" stroke-miterlimit="10" stroke-width="1" opacity="0.1"/>
  <path id="Path_1854" data-name="Path 1854" d="M949.54,581.46s2.3,8.066,5.377,12.679S962.6,615.27,962.6,615.27" transform="translate(-541.222 -323.081)" fill="none" stroke="#000" stroke-miterlimit="10" stroke-width="1" opacity="0.1"/>
  <path id="Path_1855" data-name="Path 1855" d="M1026.11,631.15s4.877,13.57,9.165,13.7" transform="translate(-581.675 -349.333)" fill="none" stroke="#000" stroke-miterlimit="10" stroke-width="1" opacity="0.1"/>
  <path id="Path_1856" data-name="Path 1856" d="M958.38,507.66s12.669,3.424,17.966,11.721,21.476,15.82,21.476,15.82" transform="translate(-545.893 -284.091)" fill="none" stroke="#000" stroke-miterlimit="10" stroke-width="1" opacity="0.1"/>
  <path id="Path_1857" data-name="Path 1857" d="M969.9,421s0,17.674,5,17.674,16.141,1.92,16.141,1.92" transform="translate(-551.979 -238.307)" fill="none" stroke="#000" stroke-miterlimit="10" stroke-width="1" opacity="0.1"/>
  <path id="Path_1858" data-name="Path 1858" d="M909.251,376.5s-1.278,30.532-7.811,38.438" transform="translate(-515.81 -214.797)" fill="none" stroke="#000" stroke-miterlimit="10" stroke-width="1" opacity="0.1"/>
  <g id="Group_1272" data-name="Group 1272" transform="translate(304.543 157.891)" opacity="0.05">
    <path id="Path_1859" data-name="Path 1859" d="M973.764,454.3,964.542,422.8c-8.453-12.3-16.905-10.377-16.905-10.377-5-3.075-8.453-20.367-8.453-20.367-1.538-18.83-36.122-18.443-36.122-18.443h0a10.434,10.434,0,0,0-8.882-5.189c-1.632,0-3.3.052-4.972.189q1.415.141,2.712.4l2.689,4.613s34.579-.387,36.117,18.443c0,0,3.462,17.292,8.457,20.367,0,0,8.453-1.924,16.905,10.377l9.221,31.508s24.207,22.669,16.905,43.395c0,0-4.929,7.014-25.433,7.863,27.645,1.014,33.886-7.863,33.886-7.863C997.971,476.973,973.764,454.3,973.764,454.3Z" transform="translate(-813.892 -368.42)"/>
    <path id="Path_1860" data-name="Path 1860" d="M754.147,639.29a179.413,179.413,0,0,1-24.617,2.693,156.971,156.971,0,0,0,26.094-1.561C755.124,640.04,754.633,639.672,754.147,639.29Z" transform="translate(-729.53 -511.525)"/>
    <path id="Path_1861" data-name="Path 1861" d="M917.042,652.33a157.809,157.809,0,0,1-36.282,5.736c17.712.641,34.49-3.052,41.4-4.825C920.495,652.962,918.8,652.646,917.042,652.33Z" transform="translate(-809.427 -518.414)"/>
  </g>
  <path id="Path_1862" data-name="Path 1862" d="M306.73,772.992s10.57-.325,13.754-2.594,16.254-4.976,17.047-1.34,15.882,18.089,3.948,18.188-27.721-1.858-30.9-3.8S306.73,772.992,306.73,772.992Z" transform="translate(-201.615 -421.253)" fill="#a8a8a8"/>
  <path id="Path_1863" data-name="Path 1863" d="M341.7,792.381c-11.934.1-27.726-1.858-30.9-3.773-2.42-1.476-3.387-6.769-3.707-9.207h-.354s.67,8.523,3.849,10.457,18.971,3.891,30.9,3.8c3.448-.028,4.637-1.255,4.571-3.071C345.573,791.678,344.257,792.362,341.7,792.381Z" transform="translate(-201.615 -427.656)" opacity="0.2"/>
  <path id="Path_1864" data-name="Path 1864" d="M798.341,709.5s-12.448-2.491-15.764-5.811-18.254-9.122-19.914-4.976-22.4,18.254-8.3,20.754,33.188,3.3,37.339,1.66S798.341,709.5,798.341,709.5Z" transform="translate(-435.527 -384.265)" fill="#a8a8a8"/>
  <path id="Path_1865" data-name="Path 1865" d="M754.37,731.474c14.108,2.486,33.188,3.3,37.339,1.656,3.156-1.264,5.354-7.335,6.221-10.16l.415.09s-2.49,9.953-6.637,11.613-23.23.83-37.339-1.66c-4.071-.717-5.236-2.406-4.8-4.538C749.922,729.88,751.341,730.951,754.37,731.474Z" transform="translate(-435.53 -397.843)" opacity="0.2"/>
  <path id="Path_1866" data-name="Path 1866" d="M566.531,143.881h-2.962a2.075,2.075,0,1,0,0-4.151h-24a2.075,2.075,0,1,0,0,4.151h2.962a2.075,2.075,0,0,0,0,4.146h-4.146a2.075,2.075,0,1,0,0,4.151h24a2.075,2.075,0,1,0,0-4.151h4.146a2.075,2.075,0,1,0,0-4.146Z" transform="translate(-322.906 -89.708)" fill="#ff9292" opacity="0.1"/>
  <path id="Path_1867" data-name="Path 1867" d="M764.124,298.693h-2.962a2.075,2.075,0,0,0,0-4.146H737.139a2.075,2.075,0,1,0,0,4.146H740.1a2.075,2.075,0,0,0,0,4.146h-4.146a2.075,2.075,0,1,0,0,4.151H759.95a2.075,2.075,0,1,0,0-4.151h4.174a2.075,2.075,0,1,0,0-4.146Z" transform="translate(-427.286 -171.499)" fill="#ff9292" opacity="0.1"/>
  <path id="Path_1868" data-name="Path 1868" d="M471.31,270.053h-2.962a2.075,2.075,0,1,0,0-4.146h-24a2.075,2.075,0,1,0,0,4.146h2.962a2.075,2.075,0,1,0,0,4.146h-4.151a2.075,2.075,0,0,0,0,4.151h24a2.075,2.075,0,0,0,0-4.151H471.3a2.075,2.075,0,1,0,0-4.146Z" transform="translate(-272.595 -156.368)" fill="#ff9292" opacity="0.1"/>
</svg>
