<svg xmlns="http://www.w3.org/2000/svg" width="129" height="129" viewBox="0 0 129 129">
  <g id="Group_1289" data-name="Group 1289" transform="translate(-188 -2479)">
    <circle id="Ellipse_212" data-name="Ellipse 212" cx="64.5" cy="64.5" r="64.5" transform="translate(188 2479)" fill="#effaf2"/>
    <g id="_880594" data-name="880594" transform="translate(216 2457.858)">
      <g id="Group_938" data-name="Group 938" transform="translate(8.936 57.142)">
        <g id="Group_937" data-name="Group 937">
          <path id="Path_1453" data-name="Path 1453" d="M75.37,57.142c-7.443,0-13.5,6.42-13.5,14.311s6.055,14.311,13.5,14.311,13.5-6.42,13.5-14.311S82.813,57.142,75.37,57.142Z" transform="translate(-61.873 -57.142)" fill="#59d083"/>
        </g>
      </g>
      <g id="Group_940" data-name="Group 940" transform="translate(41.543 59.19)">
        <g id="Group_939" data-name="Group 939" transform="translate(0 0)">
          <path id="Path_1454" data-name="Path 1454" d="M299.214,71.321h-.092a11.2,11.2,0,0,0-8.215,3.714,12.782,12.782,0,0,0,.142,17.234,11.2,11.2,0,0,0,8.182,3.578h.093a11.2,11.2,0,0,0,8.215-3.714,12.566,12.566,0,0,0,3.27-8.645C310.755,76.759,305.562,71.321,299.214,71.321Z" transform="translate(-287.637 -71.321)" fill="#59d083"/>
        </g>
      </g>
      <g id="Group_942" data-name="Group 942" transform="translate(38.99 86.059)">
        <g id="Group_941" data-name="Group 941">
          <path id="Path_1455" data-name="Path 1455" d="M284.66,257.358h-1.121a20.184,20.184,0,0,0-13.579,5.237,26.059,26.059,0,0,1,10.175,19.333h24.783v-4.314A20.28,20.28,0,0,0,284.66,257.358Z" transform="translate(-269.96 -257.358)" fill="#59d083"/>
        </g>
      </g>
      <g id="Group_944" data-name="Group 944" transform="translate(0 90.242)">
        <g id="Group_943" data-name="Group 943" transform="translate(0 0)">
          <path id="Path_1456" data-name="Path 1456" d="M44.823,306.706a21.755,21.755,0,0,0-21.715-20.388H21.76A21.759,21.759,0,0,0,0,308.078v2.582H44.867v-2.582Q44.867,307.387,44.823,306.706Z" transform="translate(0 -286.318)" fill="#59d083"/>
        </g>
      </g>
    </g>
  </g>
</svg>
