<svg xmlns="http://www.w3.org/2000/svg" xmlns:xlink="http://www.w3.org/1999/xlink" width="260.187" height="202.315" viewBox="0 0 260.187 202.315">
  <defs>
    <linearGradient id="linear-gradient" x1="0.5" y1="1" x2="0.5" gradientUnits="objectBoundingBox">
      <stop offset="0" stop-color="gray" stop-opacity="0.251"/>
      <stop offset="0.54" stop-color="gray" stop-opacity="0.122"/>
      <stop offset="1" stop-color="gray" stop-opacity="0.102"/>
    </linearGradient>
  </defs>
  <g id="Group_604" data-name="Group 604" transform="translate(0.05 0)">
    <path id="Path_691" data-name="Path 691" d="M402.253,104.39a63.434,63.434,0,0,0-10.32-16.443L248.756,86.536,366.639,69.979a66.956,66.956,0,0,0-23.919-4.746,67.039,67.039,0,0,0-80.079-2.71A66.748,66.748,0,0,0,232,55.139c-31.813,0-58.322,22.032-64.269,51.252Z" transform="translate(-147.151 -50.56)" fill="#59d083" opacity="0.1"/>
    <path id="Path_692" data-name="Path 692" d="M346.457,291.686a61.889,61.889,0,0,0-4.462-23.126L93.85,294.606a62.119,62.119,0,0,0-5.825,14.688l76.842,11.457-78.6,8.357c2.365,33.076,30.721,59.2,65.36,59.2a66.313,66.313,0,0,0,45.019-17.413,66.579,66.579,0,0,0,104.626-18.657c21.088-6.691,37.468-23.5,43.074-44.518l-97.165-15.083h99.272C346.452,292.317,346.457,292,346.457,291.686Z" transform="translate(-86.32 -213.353)" fill="#59d083" opacity="0.1"/>
    <ellipse id="Ellipse_64" data-name="Ellipse 64" cx="57.487" cy="9.423" rx="57.487" ry="9.423" transform="translate(15.076 183.469)" fill="#59d083"/>
    <path id="Path_693" data-name="Path 693" d="M360.914,255.185a8.816,8.816,0,0,1-5.24-.613s-2.264-2.621-4.173-2.976-2.649,2.748-3.784,3.545c-.785.56-6.448.16-9.877-.139l-.59-.053c-.058-.043-.116-.089-.18-.129,0,0-3.292-1.013-3.979-1.909s-5.273-2.555-6.7-2.459-5.63.324-5.63.324-1.649-1.877-2.393-1.682a18.18,18.18,0,0,1-3.333-.015s-.712-1.828-1.423-4.45a4.647,4.647,0,0,0-2.517-2.646c.972-3.292-.76-12.683-6.139-14.519-1.173-.4-1.773-1.73-2.77-2.459a4.4,4.4,0,0,1-1.641-4.959,102.626,102.626,0,0,1,3.525-10l1.871-3.738a5.218,5.218,0,0,1-.593.742c.253-.324.507-.643.724-.912a15.734,15.734,0,0,0,5.992,1.651,19.6,19.6,0,0,0,5.042,1.578c1.877-.066,6.663,2.33,6.663,2.33s11.515,3.292,13.908,3.558,3.558-2.846,3.558-2.846,1.243-6.136-.965-7.762-3.492,5.825-3.492,5.825l-15.066-5.43-.929-.489a8.446,8.446,0,0,0,1.689-2.629,2.683,2.683,0,0,1,1-1.532,1.413,1.413,0,0,1,.476-.139,3.212,3.212,0,0,1,.413,0c2.613.16,4.86,2.216,7.478,2.226h.289a2.517,2.517,0,0,0,1.4-.431,2.2,2.2,0,0,0,.805-1.555,2.67,2.67,0,0,1-.127.238,3.123,3.123,0,0,0,0-1.127,9.144,9.144,0,0,0-1.041-2.489,1.266,1.266,0,0,1-.193-.623.859.859,0,0,1,.327-.59.72.72,0,0,0,.015.071,3.309,3.309,0,0,1,.653-.479,5.587,5.587,0,0,0,2.441-3.72c-.063.187-.139.372-.22.555a5.5,5.5,0,0,0-.266-3.89,2.2,2.2,0,0,0-.674-.884c-.945-.664-2.213.043-3.366.119a5.863,5.863,0,0,1-2.91-.846,19.976,19.976,0,0,1-4.412-2.786,58.314,58.314,0,0,1-3.905-4.48,7.943,7.943,0,0,0-5.024-2.92c-3.6-.279-7,3.292-10.429,2.127-1.671-.565-2.771-2.11-3.933-3.437s-2.76-2.6-4.5-2.315c-1.211.2-2.259,1.142-3.485,1.107a6.726,6.726,0,0,1-1.844-.507c-1.471-.494-3.487-.253-4.011,1.211a2.158,2.158,0,0,0,.19,1.816,2.734,2.734,0,0,0-.208.342,1.17,1.17,0,0,0-.124.76,7.825,7.825,0,0,0,3.09,13.351c.048.185.1.37.142.557.491,2.069.747,4.4.02,5.969-.046.1-.094.19-.147.281l-.063.028.028.028h0l-.028-.028h0l-.091-.094h0l-.552-.577c-.03-.6-.37-2.218-2.73-5.217-3.107-3.948-3.69-10.482-3.69-10.482s-.775-3.363,0-4.333,2.072-11.649,2.072-11.649l2.142-6.012s10.416-10.611,6.078-11.9c-2.945-.879-6.458,3.649-8.408,6.643a11.845,11.845,0,0,0-1.813,4.872L277.457,175.3a12.64,12.64,0,0,0,0,5.305c.582,3.363,1.877,9.317,1.877,9.317l3.292,8.344s1.213,3.6,1.107,5.169a12.184,12.184,0,0,0-1.089,2.008l-.322.506-.023.205c-.215.458-.365.788-.365.788s-1.833,5.412-.3,8.732a14.946,14.946,0,0,1,1.593,4.86l1.142,4.918.476,4.305,4.108,10.158,3.784,5.4s-.355,3.978-1.132,4.528-.42,3.4-.42,3.4l-.486,7.471a11.7,11.7,0,0,0-1.616,5.855c-.1,3.621-.648,4.66-.648,4.66s-.253,3.039.453,4.432-1.132,2.846-1.132,2.846l1.578,5.417-.615,6.858s.286.078.76.2l-.1.491-2.573,12.991a34.687,34.687,0,0,0-1.454,4.4l-4.5,8.122s-3.753,3.72-1.973,4.075,6.957-2.846,6.957-2.846,4.27-4.594,5.951-5.012,3.545-1.621,3.009-3.366-1.773-4.4-.582-7.215c.76-1.773,2.375-6.584,3.485-9.942.061-.185.119-.362.177-.534a4.5,4.5,0,0,0,.866-.165,6.6,6.6,0,0,1,4.141-.253l4.852-19.634,1.066-9.851L315.6,267.9a8.167,8.167,0,0,0,4.761,1.882,46.413,46.413,0,0,1,9.877,1.479l1.266-5.273s3.621.132,4.4-1.1a15.283,15.283,0,0,1,.884-1.266l.588-.091,16.028-2.479c2.976,0,7.053-2.008,7.053-2.008l2.492-.484s3.718-.745,4.052-1.36S363.5,254.542,360.914,255.185Z" transform="translate(-228.896 -122.996)" fill="url(#linear-gradient)"/>
    <path id="Path_694" data-name="Path 694" d="M320.226,254.96c.507-1.428,2.487-1.669,3.928-1.185a6.82,6.82,0,0,0,1.8.506c1.2.035,2.226-.886,3.411-1.081,1.7-.284,3.267.962,4.4,2.261s2.216,2.811,3.852,3.366c3.35,1.129,6.678-2.355,10.2-2.084a7.8,7.8,0,0,1,4.91,2.859,57.4,57.4,0,0,0,3.822,4.384,19.148,19.148,0,0,0,4.318,2.735,5.7,5.7,0,0,0,2.846.826c1.129-.073,2.37-.76,3.292-.117a2.15,2.15,0,0,1,.658.866,5.567,5.567,0,0,1-2,6.891c-.387.241-.858.507-.881.97a1.221,1.221,0,0,0,.187.61,8.775,8.775,0,0,1,1.013,2.436,2.456,2.456,0,0,1-.76,2.4,2.578,2.578,0,0,1-1.563.428c-2.563-.013-4.761-2.026-7.319-2.18a1.848,1.848,0,0,0-.96.147,2.59,2.59,0,0,0-.98,1.5,9.639,9.639,0,0,1-7.268,5.584,14.4,14.4,0,0,1-9.231-1.74,2.18,2.18,0,0,1-.56-.385,2.393,2.393,0,0,1-.484-.98c-.861-2.722-2.026-5.571-4.412-7.144-1.547-1.013-3.647-1.583-4.348-3.292-.441-1.081-.165-2.31-.276-3.475a5.341,5.341,0,0,0-3.528-4.452,2.746,2.746,0,0,1-1.175-.555,2.188,2.188,0,0,1-.456-1.076c-.377-1.715-.628-3.525-1.155-5.2C321.118,257.467,319.687,256.462,320.226,254.96Z" transform="translate(-260.938 -201.852)" fill="#663d5b"/>
    <g id="Group_603" data-name="Group 603" transform="translate(59.258 52.908)" opacity="0.1">
      <path id="Path_695" data-name="Path 695" d="M365.8,285.531a2.588,2.588,0,0,1-1.563.418c-2.56,0-4.758-2.026-7.316-2.178a1.846,1.846,0,0,0-.96.144,2.578,2.578,0,0,0-.98,1.5A9.64,9.64,0,0,1,347.706,291a14.394,14.394,0,0,1-9.228-1.74,2.2,2.2,0,0,1-.56-.385,2.409,2.409,0,0,1-.484-.98c-.861-2.725-2.026-5.571-4.411-7.147-1.55-1.026-3.649-1.58-4.348-3.292-.443-1.084-.167-2.312-.276-3.475a5.336,5.336,0,0,0-3.53-4.452,2.776,2.776,0,0,1-1.175-.555,2.171,2.171,0,0,1-.453-1.079c-.38-1.712-.628-3.525-1.155-5.2-.355-1.119-1.471-2.026-1.416-3.221a1.684,1.684,0,0,0-.086.2c-.542,1.5.891,2.507,1.3,3.8.527,1.671.775,3.485,1.155,5.2a2.17,2.17,0,0,0,.453,1.079,2.775,2.775,0,0,0,1.175.555,5.336,5.336,0,0,1,3.53,4.455c.109,1.162-.167,2.391.276,3.475.7,1.72,2.8,2.279,4.348,3.292,2.38,1.578,3.545,4.422,4.411,7.147a2.409,2.409,0,0,0,.484.98,2.2,2.2,0,0,0,.56.385,14.334,14.334,0,0,0,9.228,1.74,9.631,9.631,0,0,0,7.271-5.587,2.626,2.626,0,0,1,.98-1.5,1.846,1.846,0,0,1,.96-.144c2.558.154,4.756,2.168,7.316,2.178a2.588,2.588,0,0,0,1.563-.425,2.148,2.148,0,0,0,.79-1.519A1.882,1.882,0,0,1,365.8,285.531Z" transform="translate(-320.463 -259.48)"/>
      <path id="Path_696" data-name="Path 696" d="M498.6,328.554c-.387.253-.861.506-.884.97a.772.772,0,0,0,.043.273,3.189,3.189,0,0,1,.638-.469,5.457,5.457,0,0,0,2.388-3.639A5.336,5.336,0,0,1,498.6,328.554Z" transform="translate(-452.83 -308.923)"/>
    </g>
    <path id="Path_697" data-name="Path 697" d="M301.121,715.258c-1.173,2.755.033,5.349.57,7.06s-1.3,2.879-2.943,3.292-5.825,4.905-5.825,4.905-5.065,3.133-6.807,2.786,1.93-3.989,1.93-3.989l4.4-7.947a34.143,34.143,0,0,1,1.423-4.305l2.517-12.713.334-1.689,8.924-.539s-.469,1.449-1.114,3.406C303.446,708.818,301.856,713.539,301.121,715.258Z" transform="translate(-235.206 -537.116)" fill="#cc818c"/>
    <path id="Path_698" data-name="Path 698" d="M536.336,562.333c-.317.6-3.956,1.33-3.956,1.33l-2.439.474s-3.989,1.965-6.9,1.965l-15.686,2.429-2.1.327v-8.9s1.059.111,2.558.253c3.35.294,8.894.684,9.661.137,1.109-.79,1.836-3.829,3.7-3.48s4.085,2.912,4.085,2.912a8.637,8.637,0,0,0,5.128.6C532.917,559.747,536.652,561.73,536.336,562.333Z" transform="translate(-399.195 -428.627)" fill="#cc818c"/>
    <path id="Path_699" data-name="Path 699" d="M507.909,577.034s-.225.253-.555.686l-2.1.327v-8.9s1.059.111,2.558.253C510.325,571.391,507.909,577.034,507.909,577.034Z" transform="translate(-399.195 -437.82)" opacity="0.1"/>
    <path id="Path_700" data-name="Path 700" d="M396.13,535.534l8.425,7.03a8,8,0,0,0,4.66,1.841,45.507,45.507,0,0,1,9.674,1.449l1.236-5.161s3.545.127,4.305-1.076a17.456,17.456,0,0,1,1.487-2.026s2.565-5.982-.347-7.818c0,0-3.229-.983-3.895-1.869s-5.159-2.5-6.551-2.406-5.508.317-5.508.317-1.616-1.836-2.343-1.646a18.188,18.188,0,0,1-3.262,0s-.7-1.79-1.393-4.356-4.842-3.482-4.842-3.482Z" transform="translate(-317.709 -398.376)" fill="#565987"/>
    <path id="Path_701" data-name="Path 701" d="M396.13,535.534l8.425,7.03a8,8,0,0,0,4.66,1.841,45.507,45.507,0,0,1,9.674,1.449l1.236-5.161s3.545.127,4.305-1.076a17.456,17.456,0,0,1,1.487-2.026s2.565-5.982-.347-7.818c0,0-3.229-.983-3.895-1.869s-5.159-2.5-6.551-2.406-5.508.317-5.508.317-1.616-1.836-2.343-1.646a18.188,18.188,0,0,1-3.262,0s-.7-1.79-1.393-4.356-4.842-3.482-4.842-3.482Z" transform="translate(-317.709 -398.376)" opacity="0.1"/>
    <path id="Path_702" data-name="Path 702" d="M320.016,313.2l-.932.175h-.058l-.137.025-1.6.3-.491.582-.02.02-1.578,1.869-1.33,1.3-.013.015-1.124,1.094-1.9,1.892-.319.788-.694,1.745-.18.443-1.9,2.026-1.213,2.6-2.836,1.646-3.052-1.583-1.393-2.026.317-2.9.063-.58.929-1.492.843-1.357,1.646-2.342,3.166-2.153.567-.149.636-.167a2.343,2.343,0,0,0,.134-.215,2.589,2.589,0,0,0,.144-.276c.712-1.535.461-3.816-.02-5.84a29.377,29.377,0,0,0-1.461-4.432l8.357-1.2s-.081,1.621-.081,4.148h0c0,.633,0,1.319.018,2.054.041,2.279,2.158,3.267,3.756,3.687a10.525,10.525,0,0,0,1.251.253C319.824,313.191,320.016,313.2,320.016,313.2Z" transform="translate(-245.364 -239.071)" fill="#cc818c"/>
    <path id="Path_703" data-name="Path 703" d="M293.219,203.742s.38-1.519-2.659-5.381-3.609-10.256-3.609-10.256-.76-3.292,0-4.242,2.026-11.4,2.026-11.4l2.089-5.888s10.193-10.383,5.951-11.649c-2.882-.861-6.331,3.573-8.228,6.5a11.585,11.585,0,0,0-1.773,4.769h0l-5.764,15.765a12.369,12.369,0,0,0,0,5.192c.57,3.292,1.836,9.117,1.836,9.117l3.229,8.175s1.7,5.09.818,5.711l1.968-2.91Z" transform="translate(-231.736 -128.416)" fill="#cc818c"/>
    <path id="Path_704" data-name="Path 704" d="M387.953,359.487s-1.14,3.039-3.482,2.786-13.612-3.482-13.612-3.482-4.685-2.343-6.521-2.279-10.256-3.862-10.256-3.862-.593.78-1.254,1.6a9.8,9.8,0,0,1-1.722,1.882c-.38.063-6.268.886-6.268.886l-3.989-1.836-.38-1.654-.18-.76.884-.985,1.162-1.294,2.18-2.487.013-.015,2.91-3.163.02-.02,1.864-.76.36-.147h.058a3.5,3.5,0,0,1,2.226.532,6.382,6.382,0,0,0,2.6.805,8.134,8.134,0,0,1,4.9,2.1l9.37,4.931,14.751,5.318s1.266-7.281,3.419-5.7S387.953,359.487,387.953,359.487Z" transform="translate(-276.011 -269.593)" fill="#cc818c"/>
    <path id="Path_705" data-name="Path 705" d="M322.181,351.664a9.8,9.8,0,0,1-1.722,1.882c-.38.063-6.268.886-6.268.886L310.2,352.6l-.38-1.654-.18.443-1.9,2.026-1.213,2.6-2.836,1.646-3.052-1.583-1.393-2.026.317-2.9c.16-.344.6-1.281.993-2.072a6.333,6.333,0,0,1,.7-1.231,6.79,6.79,0,0,0,.519-1.963c1.15-3.315,5-3.824,5-3.824l.615.577.268.279c-.109-.018.02-.253-.119-.215-.223.063-.322.4-.608.585a31.081,31.081,0,0,0-4.953,4.5q-.35.406-.719.8a4.533,4.533,0,0,0-1.135,3.421c-.347,1.52,2.722,2.659,2.722,2.659.856-1.423,6.648-5.349,6.648-5.349l3.9-4.368a11.58,11.58,0,0,1,4.857-4.1c.58-.284.96-.425.96-.425l1.459.623a1.945,1.945,0,0,0-1.167.051,3.99,3.99,0,0,0-.626.253c-.076.038-.152.078-.223.122a6.979,6.979,0,0,0-1.119.808l-3.277,3.578a4.3,4.3,0,0,0,3.087,7.215h.033A5.089,5.089,0,0,0,322.181,351.664Z" transform="translate(-245.364 -267.007)" opacity="0.1"/>
    <path id="Path_706" data-name="Path 706" d="M337.319,702.15s-.469,1.449-1.114,3.406c-2.477.185-6.567-.772-8.144-1.178l.334-1.689Z" transform="translate(-266.878 -537.138)" opacity="0.1"/>
    <path id="Path_707" data-name="Path 707" d="M305.039,343.686l-.81-.831a7.093,7.093,0,0,0-4.741,3.525,14.634,14.634,0,0,1-1.109,2.51,31.85,31.85,0,0,0-1.76,3.442s-1.793,5.3-.3,8.547a14.838,14.838,0,0,1,1.563,4.748L299,370.439l.463,4.219,4.022,9.94,3.7,5.275s-.347,3.892-1.107,4.432-.413,3.323-.413,3.323l-.474,7.314a11.419,11.419,0,0,0-1.583,5.728c-.094,3.545-.633,4.558-.633,4.558s-.253,2.976.443,4.338-1.109,2.786-1.109,2.786l1.552,5.285-.6,6.711s7.154,2,9.813,1.173a6.49,6.49,0,0,1,4.052-.253l4.748-19.224,1.646-15.1s.1-10.7,1.519-13.961c1.221-2.786-.38-12.71-5.878-14.584-1.147-.39-1.73-1.692-2.71-2.406a4.3,4.3,0,0,1-1.606-4.852,97.78,97.78,0,0,1,3.452-9.78l1.828-3.642a5.454,5.454,0,0,1-5.627,2.393h-.033a4.305,4.305,0,0,1-3.087-7.215l3.277-3.581s1.806-1.664,3.135-1.243l-1.456-.623s-4.1,1.52-5.825,4.526l-3.9,4.368s-5.787,3.908-6.643,5.341c0,0-3.069-1.14-2.722-2.659a4.55,4.55,0,0,1,1.135-3.424c.253-.253.486-.522.719-.793C300.354,347.351,303.805,343.481,305.039,343.686Z" transform="translate(-242.732 -267.783)" fill="#565987"/>
    <path id="Path_708" data-name="Path 708" d="M332.954,453.28s-.919,6.681-.223,8.041Z" transform="translate(-270.171 -351.293)" opacity="0.1"/>
    <path id="Path_709" data-name="Path 709" d="M336.75,463.53l.983,3.832A5.254,5.254,0,0,0,336.75,463.53Z" transform="translate(-273.367 -358.947)" opacity="0.1"/>
    <path id="Path_710" data-name="Path 710" d="M313.75,460s1.963,9.75,4.115,12.7" transform="translate(-256.192 -356.311)" opacity="0.1"/>
    <path id="Path_711" data-name="Path 711" d="M354.655,506.182s-3.356,3.166-4.655,2.935c0,0,5.161.223,6.774-2.5A2.773,2.773,0,0,0,354.655,506.182Z" transform="translate(-283.262 -390.741)" opacity="0.1"/>
    <path id="Path_712" data-name="Path 712" d="M371.539,505.41a54.241,54.241,0,0,1-5.159,3.419S371.032,507.5,371.539,505.41Z" transform="translate(-295.493 -390.221)" opacity="0.1"/>
    <path id="Path_713" data-name="Path 713" d="M319.729,413.53s-2.153,2.755-3.229,2.439A3.235,3.235,0,0,0,319.729,413.53Z" transform="translate(-258.245 -321.61)" opacity="0.1"/>
    <path id="Path_714" data-name="Path 714" d="M338.88,409.5s4.685-6.362,6.9-6.108C345.781,403.388,340.463,408.01,338.88,409.5Z" transform="translate(-274.958 -314.031)" opacity="0.1"/>
    <path id="Path_715" data-name="Path 715" d="M356.59,418.39s-2.976,1.492-2.659,1.927S356.59,418.39,356.59,418.39Z" transform="translate(-286.179 -325.239)" opacity="0.1"/>
    <path id="Path_716" data-name="Path 716" d="M340.987,611.28s-9.94,5.794-10.857,6.078a3.871,3.871,0,0,0,3.323.666C335.066,617.391,340.987,611.28,340.987,611.28Z" transform="translate(-268.424 -469.28)" opacity="0.1"/>
    <path id="Path_717" data-name="Path 717" d="M328.818,658.726s-3.989-.413-3.832.886S328.818,658.726,328.818,658.726Z" transform="translate(-264.579 -504.665)" opacity="0.1"/>
    <path id="Path_718" data-name="Path 718" d="M335.107,303s-.081,1.621-.081,4.148h0a7.668,7.668,0,0,1-6.815,1.484,29.381,29.381,0,0,0-1.461-4.432Z" transform="translate(-265.9 -239.071)" opacity="0.1"/>
    <circle id="Ellipse_65" data-name="Ellipse 65" cx="7.661" cy="7.661" r="7.661" transform="translate(56.609 54)" fill="#cc818c"/>
    <path id="Path_719" data-name="Path 719" d="M327.106,274.222c.215,3.133.874,6.716,3.594,8.291,1.965,1.137,4.442.838,6.617.19s4.305-1.616,6.569-1.725a47.192,47.192,0,0,1,5.194.453,6.309,6.309,0,0,0,4.872-1.383c1.773-1.737,1.449-4.9-.23-6.721a8.815,8.815,0,0,0-6.792-2.421c-3.039.084-6.432,1.013-8.836-.831-1.613-1.241-2.224-3.393-3.581-4.91-2.267-2.532-12.29-6.189-14.412-2.061-1,1.932,3.528,3.312,4.576,4.71A10.036,10.036,0,0,1,327.106,274.222Z" transform="translate(-260.828 -207.887)" opacity="0.1"/>
    <path id="Path_720" data-name="Path 720" d="M328.036,273.157c.218,3.135.874,6.719,3.594,8.291,1.965,1.137,4.442.838,6.617.192s4.305-1.616,6.572-1.725a46.687,46.687,0,0,1,5.194.453,6.29,6.29,0,0,0,4.87-1.383c1.773-1.74,1.449-4.9-.23-6.721a8.813,8.813,0,0,0-6.789-2.421c-3.039.081-6.435,1.013-8.838-.833-1.613-1.241-2.224-3.391-3.581-4.91-2.267-2.532-12.29-6.187-14.412-2.059-1,1.93,3.528,3.31,4.579,4.71A10.031,10.031,0,0,1,328.036,273.157Z" transform="translate(-261.523 -207.093)" fill="#663d5b"/>
    <path id="Path_721" data-name="Path 721" d="M312.73,381.9a7.076,7.076,0,0,1,3.011-5" transform="translate(-255.43 -294.256)" opacity="0.1"/>
    <path id="Path_722" data-name="Path 722" d="M422.1,550.254a2.5,2.5,0,0,1-.18.722,23.033,23.033,0,0,1-1.2,2.9,1.976,1.976,0,0,0,1.519-1.2,5.824,5.824,0,0,0,.408-1.978,3.587,3.587,0,0,0,.018-.638c-.018-.2-.144-.952-.471-.818C421.93,549.355,422.1,550.054,422.1,550.254Z" transform="translate(-336.072 -422.942)" opacity="0.1"/>
    <path id="Path_723" data-name="Path 723" d="M355.338,282.146a6.3,6.3,0,0,1-4.872,1.383,46.23,46.23,0,0,0-5.194-.451c-2.279.109-4.391,1.076-6.569,1.725s-4.652.947-6.62-.19c-2.717-1.575-3.376-5.159-3.591-8.291a10.051,10.051,0,0,0-2.429-6.407c-1-1.335-5.154-2.651-4.677-4.444a2.824,2.824,0,0,0-.355.527c-1,1.93,3.528,3.31,4.579,4.71a10.041,10.041,0,0,1,2.426,6.4c.218,3.135.874,6.719,3.594,8.291,1.965,1.137,4.442.838,6.617.192s4.305-1.616,6.572-1.725a46.68,46.68,0,0,1,5.194.453,6.29,6.29,0,0,0,4.87-1.383,3.778,3.778,0,0,0,.823-1.221A3.642,3.642,0,0,1,355.338,282.146Z" transform="translate(-261.523 -211.045)" opacity="0.1"/>
    <path id="Path_724" data-name="Path 724" d="M221.5,371.69l-.929,2.026,2.955-.59Z" transform="translate(-164.749 -277.561)" fill="#cc818c"/>
    <path id="Path_725" data-name="Path 725" d="M221.5,371.69l-.765,2.026h-.165Z" transform="translate(-164.749 -277.561)" opacity="0.1"/>
    <ellipse id="Ellipse_66" data-name="Ellipse 66" cx="10.383" cy="1.426" rx="10.383" ry="1.426" transform="translate(119.499 183.233)" fill="#59d083" opacity="0.1"/>
    <ellipse id="Ellipse_67" data-name="Ellipse 67" cx="10.383" cy="1.426" rx="10.383" ry="1.426" transform="translate(159.272 187.265)" fill="#59d083" opacity="0.1"/>
    <ellipse id="Ellipse_68" data-name="Ellipse 68" cx="10.383" cy="1.426" rx="10.383" ry="1.426" transform="translate(206.119 181.807)" fill="#59d083" opacity="0.1"/>
    <ellipse id="Ellipse_69" data-name="Ellipse 69" cx="7.38" cy="1.013" rx="7.38" ry="1.013" transform="translate(146.356 199.16)" fill="#59d083" opacity="0.1"/>
    <ellipse id="Ellipse_70" data-name="Ellipse 70" cx="7.38" cy="1.013" rx="7.38" ry="1.013" transform="translate(187.635 198.147)" fill="#59d083" opacity="0.1"/>
    <path id="Path_726" data-name="Path 726" d="M740.042,561.915s-14.562-47.737,2.279-66.857c12.6-14.3,26.9-12.591,33.3-10.824a11.829,11.829,0,0,1,7.638,6.349c2.239,4.832,1.836,12.662-13.969,21.822-26.464,15.321-28.11,36.341-28.11,36.341Z" transform="translate(-570.162 -373.544)" fill="#59d083"/>
    <path id="Path_727" data-name="Path 727" d="M786.436,514.39s-42.925,13.422-33.3,70.909" transform="translate(-583.254 -396.927)" fill="none" stroke="#565987" stroke-miterlimit="10" stroke-width="1"/>
    <path id="Path_728" data-name="Path 728" d="M789.78,533.39s5.908,3.984,4.032,9.968" transform="translate(-611.669 -411.116)" fill="none" stroke="#565987" stroke-miterlimit="10" stroke-width="1"/>
    <path id="Path_729" data-name="Path 729" d="M848.153,540.729s-3.614-3.677-8.013-1.649" transform="translate(-649.276 -414.909)" fill="none" stroke="#565987" stroke-miterlimit="10" stroke-width="1"/>
    <path id="Path_730" data-name="Path 730" d="M781.227,616.8s-6.346-3.221-7.987.813" transform="translate(-599.318 -472.491)" fill="none" stroke="#565987" stroke-miterlimit="10" stroke-width="1"/>
    <path id="Path_731" data-name="Path 731" d="M742.78,646.82s4.764-.38,4.85,1.9" transform="translate(-576.572 -495.802)" fill="none" stroke="#565987" stroke-miterlimit="10" stroke-width="1"/>
    <path id="Path_732" data-name="Path 732" d="M755,695.789s17.054-34.695,21.739-33.935c2.226.36,3.252,2.55,3.715,4.748a13.954,13.954,0,0,1-.942,8.448C777.093,680.6,770.592,691.142,755,695.789Z" transform="translate(-585.697 -507.037)" fill="#59d083"/>
    <path id="Path_733" data-name="Path 733" d="M777.309,687.89s-17.9,25.958-21.359,27.1" transform="translate(-586.407 -526.489)" fill="none" stroke="#565987" stroke-miterlimit="10" stroke-width="1"/>
    <line id="Line_3" data-name="Line 3" x1="4.179" transform="translate(188.37 165.453)" fill="none" stroke="#565987" stroke-miterlimit="10" stroke-width="1"/>
    <line id="Line_4" data-name="Line 4" x1="6.549" y2="0.281" transform="translate(180.995 174.949)" fill="none" stroke="#565987" stroke-miterlimit="10" stroke-width="1"/>
    <line id="Line_5" data-name="Line 5" x2="0.712" y2="3.411" transform="translate(183.558 167.352)" fill="none" stroke="#565987" stroke-miterlimit="10" stroke-width="1"/>
    <line id="Line_6" data-name="Line 6" x2="0.127" y2="3.1" transform="translate(176.594 177.735)" fill="none" stroke="#565987" stroke-miterlimit="10" stroke-width="1"/>
    <path id="Path_734" data-name="Path 734" d="M681.113,695.789s-17.054-34.695-21.739-33.935c-2.226.36-3.252,2.55-3.715,4.748a13.953,13.953,0,0,0,.917,8.448C658.994,680.6,665.495,691.142,681.113,695.789Z" transform="translate(-511.303 -507.037)" fill="#59d083"/>
    <path id="Path_735" data-name="Path 735" d="M671.61,687.89s17.9,25.958,21.359,27.1" transform="translate(-523.425 -526.489)" fill="none" stroke="#565987" stroke-miterlimit="10" stroke-width="1"/>
    <line id="Line_7" data-name="Line 7" x2="4.179" transform="translate(146.536 165.453)" fill="none" stroke="#565987" stroke-miterlimit="10" stroke-width="1"/>
    <line id="Line_8" data-name="Line 8" x2="6.549" y2="0.281" transform="translate(151.543 174.949)" fill="none" stroke="#565987" stroke-miterlimit="10" stroke-width="1"/>
    <line id="Line_9" data-name="Line 9" x1="0.709" y2="3.411" transform="translate(154.817 167.352)" fill="none" stroke="#565987" stroke-miterlimit="10" stroke-width="1"/>
    <line id="Line_10" data-name="Line 10" x1="0.127" y2="3.1" transform="translate(162.364 177.735)" fill="none" stroke="#565987" stroke-miterlimit="10" stroke-width="1"/>
    <path id="Path_736" data-name="Path 736" d="M844.805,814.043a2.945,2.945,0,0,0,.972-1.464,1.305,1.305,0,0,0-.679-1.492,1.906,1.906,0,0,0-1.793.628,2.4,2.4,0,0,1-1.745.841,2.652,2.652,0,0,0,.818-2.484,1.013,1.013,0,0,0-.228-.507c-.344-.37-.972-.21-1.388.081-1.317.927-1.684,2.715-1.689,4.325a7.981,7.981,0,0,1-.025-1.773,1.826,1.826,0,0,0-.669-1.575,2.026,2.026,0,0,0-1.013-.253,2.119,2.119,0,0,0-1.656.471,1.629,1.629,0,0,0,.066,2.026,6.622,6.622,0,0,0,1.712,1.372,3.754,3.754,0,0,1,1.226,1.167,1.118,1.118,0,0,1,.091.208h3.71A10.322,10.322,0,0,0,844.805,814.043Z" transform="translate(-645.726 -617.19)" fill="#59d083"/>
    <path id="Path_737" data-name="Path 737" d="M588.209,758.847a2.947,2.947,0,0,0,.97-1.466,1.306,1.306,0,0,0-.679-1.492,1.9,1.9,0,0,0-1.793.631,2.4,2.4,0,0,1-1.742.841,2.659,2.659,0,0,0,.813-2.492,1.032,1.032,0,0,0-.228-.506c-.347-.37-.972-.213-1.388.078-1.317.927-1.684,2.715-1.692,4.325a8.131,8.131,0,0,1-.023-1.773,1.826,1.826,0,0,0-.671-1.578,2,2,0,0,0-1.013-.238,2.1,2.1,0,0,0-1.654.469,1.632,1.632,0,0,0,.063,2.026,6.549,6.549,0,0,0,1.714,1.373,3.8,3.8,0,0,1,1.223,1.167,1.06,1.06,0,0,1,.091.21h3.713A10.405,10.405,0,0,0,588.209,758.847Z" transform="translate(-454.108 -575.966)" fill="#59d083"/>
    <path id="Path_738" data-name="Path 738" d="M673.723,814.043a2.945,2.945,0,0,0,.972-1.464,1.305,1.305,0,0,0-.679-1.492,1.906,1.906,0,0,0-1.793.628,2.394,2.394,0,0,1-1.745.841,2.651,2.651,0,0,0,.821-2.484,1.013,1.013,0,0,0-.228-.507c-.344-.37-.972-.21-1.388.081-1.317.927-1.684,2.715-1.689,4.325a7.978,7.978,0,0,1-.025-1.773,1.826,1.826,0,0,0-.669-1.575,2.026,2.026,0,0,0-1.013-.253,2.119,2.119,0,0,0-1.656.471,1.629,1.629,0,0,0,.066,2.026,6.622,6.622,0,0,0,1.712,1.373,3.754,3.754,0,0,1,1.226,1.167,1.113,1.113,0,0,1,.091.208h3.71A10.325,10.325,0,0,0,673.723,814.043Z" transform="translate(-517.971 -617.19)" fill="#59d083"/>
    <path id="Path_739" data-name="Path 739" d="M932.706,716.35s1.393,1.818-.641,4.558-3.71,5.065-3.039,6.777c0,0,3.069-5.1,5.571-5.171S935.464,719.417,932.706,716.35Z" transform="translate(-715.54 -547.742)" fill="#59d083"/>
    <path id="Path_740" data-name="Path 740" d="M932.948,716.35a2.183,2.183,0,0,1,.284.57c2.439,2.862,3.735,5.533,1.393,5.6-2.18.061-4.8,3.963-5.425,4.948a2.316,2.316,0,0,0,.073.223s3.069-5.1,5.571-5.171S935.706,719.417,932.948,716.35Z" transform="translate(-715.782 -547.742)" opacity="0.1"/>
    <path id="Path_741" data-name="Path 741" d="M953.317,724.3c0,.641-.071,1.16-.16,1.16s-.157-.527-.157-1.16.089-.337.177-.337S953.317,723.669,953.317,724.3Z" transform="translate(-733.555 -553.377)" fill="#ffd037"/>
    <path id="Path_742" data-name="Path 742" d="M954.526,727.229c-.562.306-1.053.491-1.094.415s.377-.39.94-.7.342-.084.382,0S955.093,726.923,954.526,727.229Z" transform="translate(-733.875 -555.539)" fill="#ffd037"/>
    <path id="Path_743" data-name="Path 743" d="M905.786,716.35s-1.393,1.818.641,4.558,3.71,5.065,3.039,6.777c0,0-3.067-5.1-5.571-5.171S903.046,719.417,905.786,716.35Z" transform="translate(-695.964 -547.742)" fill="#59d083"/>
    <path id="Path_744" data-name="Path 744" d="M905.77,716.35a2.231,2.231,0,0,0-.286.57c-2.436,2.862-3.733,5.533-1.393,5.6,2.183.061,4.812,3.963,5.427,4.948a1.779,1.779,0,0,1-.076.223s-3.067-5.1-5.571-5.171S903.03,719.417,905.77,716.35Z" transform="translate(-695.948 -547.742)" opacity="0.1"/>
    <path id="Path_745" data-name="Path 745" d="M904.81,724.294c0,.641.073,1.16.162,1.16s.16-.519.16-1.16-.089-.337-.177-.337S904.81,723.661,904.81,724.294Z" transform="translate(-697.569 -553.369)" fill="#ffd037"/>
    <path id="Path_746" data-name="Path 746" d="M900.3,727.229c.562.306,1.051.491,1.094.415s-.377-.39-.94-.7-.342-.084-.385,0S899.737,726.923,900.3,727.229Z" transform="translate(-693.944 -555.539)" fill="#ffd037"/>
    <path id="Path_747" data-name="Path 747" d="M906.56,754s3.89-.119,5.065-.955,5.984-1.831,6.275-.491,5.845,6.658,1.454,6.693-10.2-.684-11.373-1.4S906.56,754,906.56,754Z" transform="translate(-698.875 -574.29)" fill="#a8a8a8"/>
    <path id="Path_748" data-name="Path 748" d="M919.43,764.966c-4.391.035-10.206-.684-11.376-1.4-.889-.542-1.246-2.489-1.362-3.388h-.132s.253,3.138,1.418,3.849,6.982,1.433,11.373,1.4c1.266,0,1.7-.461,1.682-1.13C920.853,764.706,920.372,764.959,919.43,764.966Z" transform="translate(-698.875 -580.472)" opacity="0.2"/>
  </g>
</svg>
