<svg xmlns="http://www.w3.org/2000/svg" width="129" height="129" viewBox="0 0 129 129">
  <g id="Group_1298" data-name="Group 1298" transform="translate(-1250 -2868)">
    <circle id="Ellipse_212" data-name="Ellipse 212" cx="64.5" cy="64.5" r="64.5" transform="translate(1250 2868)" fill="#effaf2"/>
    <g id="_1103446" data-name="1103446" transform="translate(1285 2907.5)">
      <path id="Path_1483" data-name="Path 1483" d="M168.1,228.208H145.854a1.854,1.854,0,1,1,0-3.708H168.1a1.854,1.854,0,1,1,0,3.708Zm0,0" transform="translate(-127.314 -198.044)" fill="#59d083"/>
      <path id="Path_1484" data-name="Path 1484" d="M53.767,48.7H5.562A5.562,5.562,0,0,1,0,43.143V6.062A5.562,5.562,0,0,1,5.562.5H21.507a3.681,3.681,0,0,1,2.566,1.035l6.333,6.072a1.869,1.869,0,0,1,.25.31H53.767a5.562,5.562,0,0,1,5.562,5.562V43.143A5.562,5.562,0,0,1,53.767,48.7Zm-48.2-44.5A1.854,1.854,0,0,0,3.708,6.062V43.143A1.854,1.854,0,0,0,5.562,45h48.2a1.854,1.854,0,0,0,1.854-1.854V13.478a1.854,1.854,0,0,0-1.854-1.854H30.656a3.707,3.707,0,0,1-2.948-1.459l-6.2-5.957Zm0,0" fill="#59d083"/>
    </g>
  </g>
</svg>
