<svg xmlns="http://www.w3.org/2000/svg" xmlns:xlink="http://www.w3.org/1999/xlink" width="448.486" height="331.212" viewBox="0 0 448.486 331.212">
  <defs>
    <linearGradient id="linear-gradient" x1="0.5" y1="1" x2="0.5" gradientUnits="objectBoundingBox">
      <stop offset="0" stop-color="gray" stop-opacity="0.251"/>
      <stop offset="0.54" stop-color="gray" stop-opacity="0.122"/>
      <stop offset="1" stop-color="gray" stop-opacity="0.102"/>
    </linearGradient>
    <linearGradient id="linear-gradient-2" x1="0.5" y1="1" x2="0.5" y2="0" xlink:href="#linear-gradient"/>
  </defs>
  <g id="Group_598" data-name="Group 598" transform="translate(-0.005 -0.003)">
    <path id="Path_569" data-name="Path 569" d="M91.076,356.76h38.953v53.1H93.924c-.092.549-.184,1.094-.288,1.643h36.393v42.815a.548.548,0,0,1-.18-.069q-1.535-.61-3.071-1.294c-.219-.1-.434-.2-.656-.3q-1.535-.726-3.071-1.535c-.357-.188-.714-.384-1.063-.583a63.885,63.885,0,0,1-15.316-11.922c-.134-.127-.257-.265-.384-.384-.622-.676-1.232-1.359-1.823-2.057-.223-.257-.438-.518-.656-.768-.7-.852-1.374-1.735-2.027-2.622-.1-.134-.192-.265-.288-.384a56.7,56.7,0,0,1-6.6-11.938c-.054-.127-.1-.265-.154-.384-.53-1.343-1.01-2.706-1.424-4.1-.177-.58-.349-1.152-.5-1.754-.054-.173-.1-.349-.142-.522-2.157-8.5-2.407-17.339-2.407-26.133V384.5q.046-5.385.127-10.759.031-1.382.058-2.775.081-3.528.23-7.071c.023-.653.054-1.309.088-1.958q.023-.564.058-1.129Q90.934,358.771,91.076,356.76Z" transform="translate(-61.44 -226.94)" fill="#59d083" opacity="0.1"/>
    <path id="Path_570" data-name="Path 570" d="M159.549,159.4H138.18a162.656,162.656,0,0,1,11.366-15.638c3.178-3.9,6.525-7.7,10-11.362Z" transform="translate(-90.96 -88.7)" fill="#59d083" opacity="0.1"/>
    <path id="Path_571" data-name="Path 571" d="M131.52,207v55.843H92.69c0-.161.023-.326.038-.488.035-.441.069-.879.107-1.32.038-.514.088-1.029.138-1.535s.1-1.121.161-1.677.111-1.121.173-1.677.123-1.113.192-1.666.131-1.113.207-1.666c.058-.457.115-.917.18-1.378.088-.649.18-1.3.276-1.942a1.848,1.848,0,0,1,.046-.292,133.939,133.939,0,0,1,2.856-14.018,103.794,103.794,0,0,1,4.817-14.2A106.661,106.661,0,0,1,109.13,207Z" transform="translate(-62.931 -134.665)" fill="#59d083" opacity="0.1"/>
    <path id="Path_572" data-name="Path 572" d="M218.09,148.38v53.1h83.2v-53.1Zm0,54.741v45.6c.476.1.944.192,1.416.273.633.123,1.271.234,1.919.33l.384.054c.253.042.511.077.768.107.641.092,1.282.161,1.919.223.3.031.61.054.914.081l.741.054h0c.4.031.8.054,1.2.069.246,0,.491.019.741.027s.384,0,.583,0h2.134c.33,0,.66,0,.987-.031h.019a5.871,5.871,0,0,0,.687-.027,1.689,1.689,0,0,0,.2,0,4.622,4.622,0,0,0,.568-.023.807.807,0,0,1,.13,0c.426-.027.856-.061,1.29-.1s.844-.084,1.278-.131l.871-.107a76.438,76.438,0,0,0,10.537-2.242c7.765-2.165,15.354-5.194,23.115-7.408,10.026-2.86,21.112-4.268,30.8-.787V203.121Zm83.2-113.862V18.57a106.914,106.914,0,0,0-27.031,3.167c-21.07,5.293-39.99,16.774-56.173,31.437V89.256h4.188v1.639H218.09v55.843h83.2V90.895H239.409V89.252ZM408.188,65.38A34.445,34.445,0,0,1,393.1,61c-8.959-4.871-16.122-12.4-24.121-18.751a110.752,110.752,0,0,0-58.38-23.2V89.26H429.369l.3-.311Zm10.821-1.919,11.473,12.594V60.148a45.933,45.933,0,0,0-11.473,3.3Zm11.473,196.585V203.121H406.016c-.061-.242-.131-.487-.207-.733.073.246.138.491.2.733H310.6v41.164c.906.672,1.8,1.382,2.687,2.1h0q1.436,1.175,2.852,2.376l.952.787c.457.384.921.768,1.382,1.132q1.386,1.117,2.791,2.211.7.553,1.413,1.086a192.725,192.725,0,0,0,23.661,15.473c1.85,1.033,3.719,2.027,5.6,3q1.877.967,3.781,1.9,2.856,1.393,5.758,2.687h0a211.348,211.348,0,0,0,56.042,16.321q6.441.948,12.94,1.5V260.039h.384ZM310.6,90.895v55.843h119.88V90.895Zm0,57.478v53.106h119.88v-53.1Zm129.185-88.3V77.844l14.64-16.072Q447.149,60.571,439.787,60.072Zm0,88.309v53.1H556.382v-53.1ZM555.971,264.257l.411-61.136H439.787v92.343a210.083,210.083,0,0,0,22.532-.273h.131q5.374-.345,10.7-.983h.081a196.719,196.719,0,0,0,54.979-14.686M578.875,157.1q-.664-1.535-1.363-3.071c-.867-1.919-1.781-3.785-2.725-5.646h-9.1v53.094h23c-.019-15.039-3.827-30.393-9.811-44.377Zm-13.185,46.02v52.588a75.253,75.253,0,0,0,15.891-21.434,73.775,73.775,0,0,0,7.09-31.157Zm0-70.214v13.819h8.245a150.159,150.159,0,0,0-8.245-13.819ZM486.617,70.493c-.607-.234-1.217-.468-1.827-.691A165.883,165.883,0,0,0,465.1,63.883L442.689,88.473h0l-.438.472.288.311H522.3a170.394,170.394,0,0,0-35.679-18.763Zm38.02,20.4H441.422l-1.635,1.493v54.349H556.382V120.405a166.013,166.013,0,0,0-31.745-29.51Z" transform="translate(-140.196 -18.56)" fill="#59d083" opacity="0.1"/>
    <path id="Path_573" data-name="Path 573" d="M131.52,280.39v27.672H92.69c0-.161.023-.326.038-.487.035-.441.069-.879.107-1.32.038-.514.088-1.029.138-1.535s.1-1.121.161-1.677.111-1.121.173-1.677.123-1.113.192-1.666.131-1.113.207-1.666c.058-.457.115-.917.18-1.378.088-.649.18-1.3.276-1.942a1.848,1.848,0,0,1,.046-.292A133.94,133.94,0,0,1,97.066,280.4Z" transform="translate(-62.931 -179.884)" fill="#59d083" opacity="0.1"/>
    <path id="Path_574" data-name="Path 574" d="M91.076,356.76h38.953v53.1H93.924c-.092.549-.184,1.094-.288,1.643h36.393v42.815a.548.548,0,0,1-.18-.069q-1.535-.61-3.071-1.294c-.219-.1-.434-.2-.656-.3q-1.535-.726-3.071-1.535c-.357-.188-.714-.384-1.063-.583a63.885,63.885,0,0,1-15.316-11.922c-.134-.127-.257-.265-.384-.384-.622-.676-1.232-1.359-1.823-2.057-.223-.257-.438-.518-.656-.768-.7-.852-1.374-1.735-2.027-2.622-.1-.134-.192-.265-.288-.384a56.7,56.7,0,0,1-6.6-11.938c-.054-.127-.1-.265-.154-.384-.53-1.343-1.01-2.706-1.424-4.1-.177-.58-.349-1.152-.5-1.754-.054-.173-.1-.349-.142-.522-2.157-8.5-2.407-17.339-2.407-26.133V384.5q.046-5.385.127-10.759.031-1.382.058-2.775.081-3.528.23-7.071c.023-.653.054-1.309.088-1.958q.023-.564.058-1.129Q90.934,358.771,91.076,356.76Z" transform="translate(-61.44 -226.94)" fill="#59d083" opacity="0.1"/>
    <path id="Path_575" data-name="Path 575" d="M231.422,183.279v47.843H202.13V183.279h4.176v-16.2h17.143v16.2Z" transform="translate(-124.24 -102.944)" fill="#59d083" opacity="0.1"/>
    <rect id="Rectangle_503" data-name="Rectangle 503" width="29.288" height="53.098" transform="translate(77.89 129.816)" fill="#59d083" opacity="0.1"/>
    <path id="Path_576" data-name="Path 576" d="M218.09,499.37h29.288v44.143a75.871,75.871,0,0,1-10.537,2.238c-.292.042-.58.077-.871.107-.43.05-.856.1-1.282.134l-1.286.1h-.131l-.568.031h-.2c-.23,0-.457.027-.687.031H231.8c-.33,0-.656.023-.986.031H228.1a6.042,6.042,0,0,1-.745-.031q-.591-.023-1.2-.069h0l-.741-.054c-.307-.023-.614-.054-.917-.084q-.967-.085-1.919-.219l-.768-.107-.384-.054c-.641-.1-1.278-.2-1.919-.326-.476-.084-.944-.18-1.416-.28Z" transform="translate(-140.196 -314.809)" fill="#59d083" opacity="0.1"/>
    <rect id="Rectangle_504" data-name="Rectangle 504" width="24.152" height="53.49" transform="translate(266.13 74.684)" fill="#59d083" opacity="0.1"/>
    <path id="Path_577" data-name="Path 577" d="M563.031,338.19v53.1H443.15v-22.9H507V381.9h31.871V338.19Z" transform="translate(-272.745 -208.374)" fill="#59d083" opacity="0.1"/>
    <path id="Path_578" data-name="Path 578" d="M579.361,555.13a2.166,2.166,0,0,1-.384-.023v34.834q-6.491-.534-12.936-1.493a211.624,211.624,0,0,1-56.065-16.314q-7.727-3.485-15.139-7.6a193.428,193.428,0,0,1-23.657-15.473q-2.833-2.165-5.581-4.426c-1.271-1.052-2.53-2.127-3.812-3.167-.883-.718-1.777-1.428-2.687-2.1V498.193h95.41c-.069-.246-.13-.487-.2-.733.073.246.142.487.2.733h24.467V555.1C579.107,555.107,579.234,555.118,579.361,555.13Z" transform="translate(-288.695 -313.632)" fill="#59d083" opacity="0.1"/>
    <path id="Path_579" data-name="Path 579" d="M910.248,171.507H894.51v-4.89h7.051V152.05q.917.338,1.827.691v13.876h6.856Z" transform="translate(-556.972 -100.808)" fill="#59d083" opacity="0.1"/>
    <path id="Path_580" data-name="Path 580" d="M887.256,262.843H809.987a.051.051,0,0,0,.023,0H795.65v-53.49h4.061V248.89h18.555V225.475H833.6V207h15.738v18.486h15.327V248.9H887.26Z" transform="translate(-496.06 -134.665)" fill="#59d083" opacity="0.1"/>
    <path id="Path_581" data-name="Path 581" d="M795.65,356.76v53.1h91.61v-53.1Zm116.464,115.6.13-42.032H887.26V411.516H795.65v92.328a210.091,210.091,0,0,0,22.532-.273h.131q5.374-.345,10.7-.983h.081A196.721,196.721,0,0,0,884.07,487.9" transform="translate(-496.06 -226.94)" fill="#59d083" opacity="0.1"/>
    <path id="Path_582" data-name="Path 582" d="M1125.262,499.37h21.369a73.813,73.813,0,0,1-7.09,31.153,75.212,75.212,0,0,1-15.891,21.438V518.182h1.612Z" transform="translate(-698.156 -314.809)" fill="#59d083" opacity="0.1"/>
    <path id="Path_583" data-name="Path 583" d="M1149.234,423.857H1127.85V379.48h11.573C1145.407,393.464,1149.215,408.818,1149.234,423.857Z" transform="translate(-700.744 -240.939)" fill="#59d083" opacity="0.1"/>
    <rect id="Rectangle_505" data-name="Rectangle 505" width="12.94" height="16.77" transform="translate(277.346 89.554)" fill="#59d083" opacity="0.1"/>
    <rect id="Rectangle_506" data-name="Rectangle 506" width="12.94" height="3.862" transform="translate(277.346 124.316)" fill="#59d083" opacity="0.1"/>
    <rect id="Rectangle_507" data-name="Rectangle 507" width="12.94" height="11.266" transform="translate(277.346 129.816)" fill="#59d083" opacity="0.1"/>
    <rect id="Rectangle_508" data-name="Rectangle 508" width="12.94" height="16.77" transform="translate(277.346 159.077)" fill="#59d083" opacity="0.1"/>
    <rect id="Rectangle_509" data-name="Rectangle 509" width="12.94" height="16.77" transform="translate(277.346 193.839)" fill="#59d083" opacity="0.1"/>
    <path id="Path_584" data-name="Path 584" d="M750.64,626.971a1.866,1.866,0,0,1,.384.027,2.173,2.173,0,0,1-.384-.023v3.9H737.7V614.1h12.94Z" transform="translate(-460.354 -385.499)" fill="#59d083" opacity="0.1"/>
    <path id="Path_585" data-name="Path 585" d="M750.64,704.65V717.6q-6.495-.534-12.94-1.493V704.65Z" transform="translate(-460.354 -441.292)" fill="#59d083" opacity="0.1"/>
    <rect id="Rectangle_510" data-name="Rectangle 510" width="55.455" height="1.232" transform="translate(170.405 181.686)" fill="#59d083" opacity="0.1"/>
    <rect id="Rectangle_511" data-name="Rectangle 511" width="55.455" height="4.721" transform="translate(170.405 184.557)" fill="#59d083" opacity="0.1"/>
    <rect id="Rectangle_512" data-name="Rectangle 512" width="55.455" height="7.593" transform="translate(170.405 204.756)" fill="#59d083" opacity="0.1"/>
    <path id="Path_586" data-name="Path 586" d="M518.868,612.08v7.593H475.493q-2.833-2.157-5.581-4.43c-1.274-1.048-2.533-2.123-3.812-3.163Z" transform="translate(-293.008 -384.255)" fill="#59d083" opacity="0.1"/>
    <path id="Path_587" data-name="Path 587" d="M571.918,672.17v7.612h-4.579q-7.727-3.485-15.139-7.6Z" transform="translate(-346.058 -421.279)" fill="#59d083" opacity="0.1"/>
    <rect id="Rectangle_513" data-name="Rectangle 513" width="10.917" height="10.917" transform="translate(322.123 134.964)" fill="#59d083" opacity="0.1"/>
    <rect id="Rectangle_514" data-name="Rectangle 514" width="10.917" height="10.917" transform="translate(85.755 84.1)" fill="#59d083" opacity="0.1"/>
    <rect id="Rectangle_515" data-name="Rectangle 515" width="10.917" height="10.917" transform="translate(85.755 109.457)" fill="#59d083" opacity="0.1"/>
    <rect id="Rectangle_516" data-name="Rectangle 516" width="10.917" height="10.917" transform="translate(85.755 134.814)" fill="#59d083" opacity="0.1"/>
    <rect id="Rectangle_517" data-name="Rectangle 517" width="10.917" height="10.917" transform="translate(85.755 160.168)" fill="#59d083" opacity="0.1"/>
    <rect id="Rectangle_518" data-name="Rectangle 518" width="10.917" height="10.917" transform="translate(85.755 185.525)" fill="#59d083" opacity="0.1"/>
    <rect id="Rectangle_519" data-name="Rectangle 519" width="10.917" height="10.917" transform="translate(85.755 210.882)" fill="#59d083" opacity="0.1"/>
    <rect id="Rectangle_520" data-name="Rectangle 520" width="10.917" height="10.917" transform="translate(363.797 134.964)" fill="#59d083" opacity="0.1"/>
    <rect id="Rectangle_521" data-name="Rectangle 521" width="10.917" height="10.917" transform="translate(322.123 161.891)" fill="#59d083" opacity="0.1"/>
    <rect id="Rectangle_522" data-name="Rectangle 522" width="10.917" height="10.917" transform="translate(363.797 161.891)" fill="#59d083" opacity="0.1"/>
    <rect id="Rectangle_523" data-name="Rectangle 523" width="10.917" height="10.917" transform="translate(322.123 188.814)" fill="#59d083" opacity="0.1"/>
    <rect id="Rectangle_524" data-name="Rectangle 524" width="10.917" height="10.917" transform="translate(363.797 188.814)" fill="#59d083" opacity="0.1"/>
    <rect id="Rectangle_525" data-name="Rectangle 525" width="10.917" height="10.917" transform="translate(322.123 215.742)" fill="#59d083" opacity="0.1"/>
    <rect id="Rectangle_526" data-name="Rectangle 526" width="10.917" height="10.917" transform="translate(363.797 215.742)" fill="#59d083" opacity="0.1"/>
    <rect id="Rectangle_527" data-name="Rectangle 527" width="10.917" height="10.917" transform="translate(322.123 242.669)" fill="#59d083" opacity="0.1"/>
    <rect id="Rectangle_528" data-name="Rectangle 528" width="10.917" height="10.917" transform="translate(363.797 242.669)" fill="#59d083" opacity="0.1"/>
    <path id="Path_588" data-name="Path 588" d="M838.4,709.37v-7.04h10.913v6.038Z" transform="translate(-516.277 -432.738)" fill="#59d083" opacity="0.1"/>
    <path id="Path_589" data-name="Path 589" d="M96.53,316.91v6.245h37.356V316.91Zm3.72,5.854H97.179v-5.458h3.071Zm3.72,0H100.9v-5.458h3.071Zm3.712,0H104.61v-5.458h3.071Zm3.72,0H108.33v-5.458H111.4Zm3.716,0h-3.071v-5.458h3.071Zm3.72,0h-3.071v-5.458h3.071Zm3.72,0h-3.071v-5.458h3.071Zm3.716,0H123.2v-5.458h3.071Zm3.716,0h-3.071v-5.458h3.071Zm3.72,0h-3.071v-5.458h3.071Z" transform="translate(-65.297 -202.386)" fill="#59d083" opacity="0.1"/>
    <path id="Path_590" data-name="Path 590" d="M96.53,364.27v6.245h37.356V364.27Zm3.72,5.854H97.179v-5.458h3.071Zm3.72,0H100.9v-5.458h3.071Zm3.712,0H104.61v-5.458h3.071Zm3.72,0H108.33v-5.458H111.4Zm3.716,0h-3.071v-5.458h3.071Zm3.72,0h-3.071v-5.458h3.071Zm3.72,0h-3.071v-5.458h3.071Zm3.716,0H123.2v-5.458h3.071Zm3.716,0h-3.071v-5.458h3.071Zm3.72,0h-3.071v-5.458h3.071Z" transform="translate(-65.297 -231.567)" fill="#59d083" opacity="0.1"/>
    <path id="Path_591" data-name="Path 591" d="M96.53,411.64v6.241h37.356V411.64Zm3.72,5.846H97.179v-5.458h3.071Zm3.72,0H100.9v-5.458h3.071Zm3.712,0H104.61v-5.458h3.071Zm3.72,0H108.33v-5.458H111.4Zm3.716,0h-3.071v-5.458h3.071Zm3.72,0h-3.071v-5.458h3.071Zm3.72,0h-3.071v-5.458h3.071Zm3.716,0H123.2v-5.458h3.071Zm3.716,0h-3.071v-5.458h3.071Zm3.72,0h-3.071v-5.458h3.071Z" transform="translate(-65.297 -260.754)" fill="#59d083" opacity="0.1"/>
    <path id="Path_592" data-name="Path 592" d="M96.53,459v6.241h37.356V459Zm3.72,5.85H97.179v-5.466h3.071Zm3.72,0H100.9v-5.466h3.071Zm3.712,0H104.61v-5.466h3.071Zm3.72,0H108.33v-5.466H111.4Zm3.716,0h-3.071v-5.466h3.071Zm3.72,0h-3.071v-5.466h3.071Zm3.72,0h-3.071v-5.466h3.071Zm3.716,0H123.2v-5.466h3.071Zm3.716,0h-3.071v-5.466h3.071Zm3.72,0h-3.071v-5.466h3.071Z" transform="translate(-65.297 -289.935)" fill="#59d083" opacity="0.1"/>
    <path id="Path_593" data-name="Path 593" d="M97,506.34c.146.591.319,1.175.5,1.754v-1.359h3.071v5.455H98.919c.046.13.1.265.15.384h35.122V506.34Zm7.293,5.85h-3.071v-5.455h3.071Zm3.712,0h-3.071v-5.455h3.071Zm3.72,0h-3.071v-5.455h3.071Zm3.716,0h-3.071v-5.455h3.071Zm3.72,0h-3.071v-5.455h3.071Zm3.72,0h-3.071v-5.455h3.071Zm3.716,0h-3.071v-5.455h3.071Zm3.716,0H127.24v-5.455h3.071Zm3.72,0h-3.071v-5.455h3.071Z" transform="translate(-65.587 -319.103)" fill="#59d083" opacity="0.1"/>
    <path id="Path_594" data-name="Path 594" d="M119.54,553.7c.1.123.192.261.288.384h2.031v2.622l.656.768v-3.4h3.071v5.5h-1.263c.123.127.242.261.384.384h23.35V553.7Zm9.773,5.873h-3.071v-5.481h3.071Zm3.719,0h-3.071v-5.481h3.071Zm3.72,0h-3.071v-5.481h3.071Zm3.716,0H137.4v-5.481h3.071Zm3.716,0h-3.071v-5.481h3.071Zm3.72,0h-3.071v-5.481H147.9Z" transform="translate(-79.475 -348.284)" fill="#59d083" opacity="0.1"/>
    <path id="Path_595" data-name="Path 595" d="M172.93,601.06c.353.2.71.384,1.067.58v-.192h3.071v1.731c.223.1.434.2.653.3v-2.031h3.071v3.324a1.254,1.254,0,0,0,.18.065V601.06Z" transform="translate(-112.371 -377.465)" fill="#59d083" opacity="0.1"/>
    <path id="Path_596" data-name="Path 596" d="M460.846,260.206ZM437.2,373.5Zm-24.67-57.643c.073.246.138.491.2.733h0C412.677,316.348,412.607,316.1,412.531,315.856Zm48.315-55.651ZM229,202.728v1.635h17.147V202.72ZM437.2,373.5Zm-24.674-57.643c.073.246.138.491.2.733h0C412.677,316.348,412.607,316.1,412.531,315.856Zm48.315-55.651ZM437.2,373.5Zm-24.67-57.643c.073.246.138.491.2.733h0C412.677,316.348,412.607,316.1,412.531,315.856Z" transform="translate(-146.919 -132.028)" fill="#59d083" opacity="0.1"/>
    <ellipse id="Ellipse_24" data-name="Ellipse 24" cx="37.402" cy="6.007" rx="37.402" ry="6.007" transform="translate(300.47 319.201)" fill="#59d083" opacity="0.1"/>
    <ellipse id="Ellipse_25" data-name="Ellipse 25" cx="37.402" cy="6.007" rx="37.402" ry="6.007" transform="translate(131.782 313.194)" fill="#59d083" opacity="0.1"/>
    <path id="Path_597" data-name="Path 597" d="M461.044,337.8a.2.2,0,0,0-.058-.1c-.572-.564-7.865-10.878-7.865-10.878s-.384-1.152-1.006-2.649a2.633,2.633,0,0,0,.441-.864,2.97,2.97,0,0,0,.073-.4c0-.042.031-.077.042-.119a2.914,2.914,0,0,0-.038-1.581,2.733,2.733,0,0,1-.157.384,6.418,6.418,0,0,0-.576-1.282c-.967-1.666-2.349-3.071-3.366-4.694a12.7,12.7,0,0,1-1.731-8.429c0,.15,0,.3,0,.453a13.144,13.144,0,0,1,.23-1.727,11.983,11.983,0,0,1,.641-1.9c.914-2.092,2.391-3.915,3.29-6.015a11.4,11.4,0,0,0,.683-2.2,12.321,12.321,0,0,0,.342-3.858,6.143,6.143,0,0,1-.1.917,12.494,12.494,0,0,0-3.528-8.318c-3.136-3.151-7.639-4.376-11.945-5.021a10.944,10.944,0,0,1-5.028-1.919,8.741,8.741,0,0,0-5.727-1.094,9.447,9.447,0,0,0-5.831,2.883c-2.046,2.249-2.933,5.435-5.32,7.332a23.617,23.617,0,0,1-4.967,2.472c-1.685.783-3.278,1.919-3.819,3.6v.061l-.023.061c-.56,1.988.522,4.011,1.086,6a24.3,24.3,0,0,1,.656,6.345c.042,2.595.081,5.194.038,7.792-.019,1.021-.054,2.054-.131,3.071a16.091,16.091,0,0,0-2.637,1.059,52.228,52.228,0,0,0-4.076,4.034l-6.291,24.037.084.1-.084.326.319-.073a32.387,32.387,0,0,0,6.422,5.4l.269,4.714a8.379,8.379,0,0,0,4.671,6.683c.1,1.639.411,8.3-1.029,10.932a12.283,12.283,0,0,0-1.359,6.249s.5,4-.069,6.1a9.981,9.981,0,0,0-.073,4.284h0v1.263c0,4.257.05,17.9,0,19.442-.073,1.823,0,28.789,0,28.789s-.357,13.477-1.5,17.127-.856,15.738-.856,15.738-.718,14.4,1.819,17.239c0,.127-.023.257-.027.384v.18c-.031,1.094.18,2.257,1.121,2.614a16.06,16.06,0,0,1,4.936,3.581c.48.633,3.27,2.211,6.909,1.789a52.014,52.014,0,0,1,6.867-.315h0s1.436-.261.971-2.046h0a15.984,15.984,0,0,0-2.219-3.95c.146.038.288.069.422.1l.138.027h.107a1.469,1.469,0,0,0,.177,0h.077a1.316,1.316,0,0,0,.215,0h0c.964-.092,4.556,1.581,5.2,2.687s2.9,1.946,4.606,2.157a32.719,32.719,0,0,0,5.716-.361,21.038,21.038,0,0,0,3.2-.583c.507-.192.614-.806.468-1.5h0a3.9,3.9,0,0,0-1.328-2.242,10.779,10.779,0,0,1-2.05-2.556l-.161-.257c1.071-1.021,3.006-4.361,3.593-5.051.714-.841-1.152-31.583-1.152-31.583V437.217l2.86-14.586,2-7.719,1.716-11.654s3-13.611,2.077-14.947h0c0-.027-.768-14.041-1.574-17.408a38.167,38.167,0,0,1-.054-8.165,1.612,1.612,0,0,0,.384-1.681,3.491,3.491,0,0,0-.223-.572v-.177a26.433,26.433,0,0,1,5.171-1.758c2.86-.56,2.146-2.034,2.146-2.034s.645-1.263,1.071-2.034.073-7.581,0-8.141c-.027-.227-.2-1.478-.407-2.9.917-.653,2.111-1.462,3.412-2.23C461.8,339.745,461.248,338.2,461.044,337.8Zm-37.31,97.318s-2.146,5.474-1.286,6.875-.142,6.6-.142,6.6l-.718,7.719s-2,14.318-1.286,17.684c.56,2.641.768,10.529.833,13.819h0a.973.973,0,0,0-.142.069l-.1.05c.33-1.294.192-3.911-1.447-9.178L419.312,457s-.253-25.127,1.731-27.937,2.687-7.581,2.687-7.581-.43,6.882-.71,8.706A14.35,14.35,0,0,0,423.734,435.113Zm-4,54.069c-.019.046-.042.092-.058.134l-.107-.138a1.129,1.129,0,0,0,.165,0Z" transform="translate(-248.799 -177.44)" fill="url(#linear-gradient)"/>
    <path id="Path_598" data-name="Path 598" d="M482.814,839.573a38.115,38.115,0,0,1-8.806.948c-1.681-.2-3.908-1.056-4.541-2.169s-4.184-2.794-5.136-2.687a3.451,3.451,0,0,1-1.152-.161,14.185,14.185,0,0,1-1.919-.737,3.562,3.562,0,0,1,.042-1.459,2.338,2.338,0,0,1,.084-.284,2.537,2.537,0,0,1,1.29-1.436l.138-.065a3.911,3.911,0,0,1,.829-.253c3.017-.58,15.465.583,15.465.583s.349.626.829,1.4a10.712,10.712,0,0,0,2.027,2.572,3.935,3.935,0,0,1,1.309,2.257C483.42,838.763,483.313,839.385,482.814,839.573Z" transform="translate(-289.991 -519.209)" fill="#fff"/>
    <path id="Path_599" data-name="Path 599" d="M482.821,841.3a38.074,38.074,0,0,1-8.8.948c-1.681-.2-3.908-1.059-4.545-2.169s-4.18-2.794-5.132-2.687a8.892,8.892,0,0,1-3.071-.9,3.182,3.182,0,0,1,.63-2.583l1.919,1.363s5.136,1.593,6.088,3.071,2.687,2.3,5.194,2.453a48.6,48.6,0,0,0,8.191-.971C483.428,840.489,483.324,841.111,482.821,841.3Z" transform="translate(-289.999 -520.935)" opacity="0.1"/>
    <path id="Path_600" data-name="Path 600" d="M438.168,841.753a51.111,51.111,0,0,0-6.779.319c-3.6.422-6.357-1.152-6.836-1.8a16.017,16.017,0,0,0-4.871-3.608c-.933-.361-1.152-1.535-1.109-2.633v-.18a10.747,10.747,0,0,1,.307-2.061l14.936-.319,1.294,1.754.2.269.787,1.071s.357.468.825,1.152a16.387,16.387,0,0,1,2.192,3.977h0C439.584,841.492,438.168,841.753,438.168,841.753Z" transform="translate(-263.72 -519.432)" fill="#fff"/>
    <path id="Path_601" data-name="Path 601" d="M438.168,845.876a51.1,51.1,0,0,0-6.779.319c-3.6.422-6.357-1.152-6.833-1.8a15.568,15.568,0,0,0-4.875-3.6c-.933-.361-1.152-1.535-1.109-2.633,1.067.25,3.309.887,4.188,2,1.152,1.482,3.213,3.973,6.142,4.13,2.365.127,8.122-.3,10.233-.465C439.588,845.615,438.168,845.876,438.168,845.876Z" transform="translate(-263.72 -523.554)" opacity="0.1"/>
    <path id="Path_602" data-name="Path 602" d="M436.368,831.784c-.173,1.282-.706,1.628-1.09,1.7a.741.741,0,0,1-.284,0,.94.94,0,0,1-.15-.023s-13.412,2.963-16.122.564a1.883,1.883,0,0,1-.192-.2,10.754,10.754,0,0,1,.307-2.061l14.936-.319,1.294,1.754a2.537,2.537,0,0,1,1.29-1.436Z" transform="translate(-263.697 -519.419)" opacity="0.1"/>
    <path id="Path_603" data-name="Path 603" d="M482.5,833.184c-.3.33-.549.518-.706.453-.706-.284-6.495-1.271-8.333-.422s-8.061.138-8.061.138,0-.737-.035-1.919a3.906,3.906,0,0,1,.829-.253c3.017-.58,15.465.583,15.465.583S482.019,832.408,482.5,833.184Z" transform="translate(-292.552 -519.153)" opacity="0.1"/>
    <path id="Path_604" data-name="Path 604" d="M459.444,578.7l-1.7,11.723-1.973,7.769-2.825,14.686v15.546s1.835,30.931,1.128,31.775-3.389,5.654-4.1,5.374-6.495-1.271-8.333-.426-8.061.142-8.061.142-.142-12-.848-15.392,1.271-17.8,1.271-17.8l.706-7.765s.99-5.228.142-6.641,1.271-6.909,1.271-6.909a14.459,14.459,0,0,1-.7-4.948c.284-1.835.7-8.756.7-8.756s-.7,4.806-2.664,7.627-1.712,28.106-1.712,28.106l.138,21.88c3.535,11.585,0,10.452,0,10.452s-13.412,2.967-16.122.564-1.935-17.527-1.935-17.527-.28-12.145.848-15.815,1.486-17.231,1.486-17.231-.073-27.119,0-28.95c.054-1.535,0-15.281,0-19.576v-1.271l1.62-4.023,19.193-2.4h9.182s13.819,3.247,15.247,4.648a.319.319,0,0,1,.077.084C462.411,565.008,459.444,578.7,459.444,578.7Z" transform="translate(-260.741 -351.5)" fill="#59d083"/>
    <path id="Path_605" data-name="Path 605" d="M472.11,770.88s4.222,10.168,6.215,10.875S472.11,770.88,472.11,770.88Z" transform="translate(-296.711 -482.099)" opacity="0.1"/>
    <path id="Path_606" data-name="Path 606" d="M476.18,809.88s14.256.706,14.114,2.261S476.18,809.88,476.18,809.88Z" transform="translate(-299.218 -506.129)" opacity="0.1"/>
    <path id="Path_607" data-name="Path 607" d="M426.49,799.29c.564.534,10.875,1.535,10.026,2.51s-9.178,2.871-9.178,2.871Z" transform="translate(-268.602 -499.604)" opacity="0.1"/>
    <path id="Path_608" data-name="Path 608" d="M422.08,753.59c0,.422,2.119,13.558,2.687,14.122s5.224,1.129,5.224,1.129Z" transform="translate(-265.885 -471.446)" opacity="0.1"/>
    <path id="Path_609" data-name="Path 609" d="M438.4,281.049c-2.023,2.261-2.9,5.466-5.255,7.378a23.3,23.3,0,0,1-4.909,2.484c-1.666.783-3.316,1.977-3.812,3.75-.553,2,.514,4.034,1.075,6.03a24.964,24.964,0,0,1,.649,6.383c.038,2.614.081,5.228.035,7.842-.069,4.073-.407,8.333-2.568,11.784,7.8,2.484,16.1,2.821,24.286,3.14a24.5,24.5,0,0,0,4.718-.119,40.5,40.5,0,0,0,4.019-1.017,30.815,30.815,0,0,1,8.007-1.025,13.444,13.444,0,0,0,3.516-.234,3.469,3.469,0,0,0,2.537-2.23,4.143,4.143,0,0,0-.649-3.025c-.952-1.674-2.3-3.071-3.324-4.721a12.974,12.974,0,0,1-.833-11.665c.906-2.107,2.365-3.942,3.255-6.053a12.767,12.767,0,0,0-2.572-13.542c-3.1-3.171-7.543-4.4-11.8-5.051a10.714,10.714,0,0,1-4.967-1.919,8.5,8.5,0,0,0-5.658-1.1,9.236,9.236,0,0,0-5.754,2.91Z" transform="translate(-266.827 -178.448)" fill="#3f3d56"/>
    <g id="Group_595" data-name="Group 595" transform="translate(156.936 115.215)" opacity="0.1">
      <path id="Path_610" data-name="Path 610" d="M532.44,328.636a12.772,12.772,0,0,0-.979,5.861,12.552,12.552,0,0,1,.979-4.161c.9-2.107,2.361-3.942,3.251-6.053a12.248,12.248,0,0,0,.894-5.573,11.939,11.939,0,0,1-.894,3.877C534.8,324.7,533.342,326.529,532.44,328.636Z" transform="translate(-490.197 -318.71)"/>
      <path id="Path_611" data-name="Path 611" d="M427.506,332.949c.023,1.5.046,3.013.05,4.518q0-3.109-.05-6.211a24.912,24.912,0,0,0-.649-6.387,31.635,31.635,0,0,1-1.152-3.969c-.342,1.881.63,3.789,1.152,5.666A24.8,24.8,0,0,1,427.506,332.949Z" transform="translate(-425.011 -320.059)"/>
      <path id="Path_612" data-name="Path 612" d="M468.533,397.562a12.979,12.979,0,0,1-3.512.234,30.8,30.8,0,0,0-8,1.006A40.764,40.764,0,0,1,453,399.815a24.252,24.252,0,0,1-4.721.123c-7.907-.311-15.926-.645-23.5-2.906a13.024,13.024,0,0,1-.768,1.459c7.8,2.48,16.1,2.821,24.282,3.14a24.247,24.247,0,0,0,4.721-.123,39.7,39.7,0,0,0,4-1.01,30.792,30.792,0,0,1,7.988-1.017,13.253,13.253,0,0,0,3.512-.238,3.472,3.472,0,0,0,2.537-2.226,3.048,3.048,0,0,0-.038-1.6A3.584,3.584,0,0,1,468.533,397.562Z" transform="translate(-424.01 -365.975)"/>
    </g>
    <path id="Path_613" data-name="Path 613" d="M468.209,352.9c-.284.637-1.482,6.142-1.766,6.706s-1.835,9.6-1.977,10.1-10.222-2.119-10.222-2.119l-6.069-5.086-6.238-6.207s-.184-5.6,4.41-7.4a7.013,7.013,0,0,1,.96-.3c5.573-1.34,5.013-18.287,5.013-18.287l11.439,4.94s-2.119,9.888-2.046,11.8c.019.641.522,1.04,1.178,1.282a9.316,9.316,0,0,0,3.125.338S468.493,352.262,468.209,352.9Z" transform="translate(-278.12 -210.643)" fill="#fbbebe"/>
    <path id="Path_614" data-name="Path 614" d="M539.472,436.175l1.624.426s1.2,1.827-1.624,3.528a48.947,48.947,0,0,0-5.155,3.6l-8.349,2.541-1.608-5.048,7.769-5.9Z" transform="translate(-328.904 -275.351)" fill="#59d083"/>
    <path id="Path_615" data-name="Path 615" d="M539.472,436.175l1.624.426s1.2,1.827-1.624,3.528a48.947,48.947,0,0,0-5.155,3.6l-8.349,2.541-1.608-5.048,7.769-5.9Z" transform="translate(-328.904 -275.351)" opacity="0.1"/>
    <path id="Path_616" data-name="Path 616" d="M399.787,448.757l-3.247,3.178s5.858,6.779,10.364,7.2,7.412-5.155,7.412-5.155l-3.9-6.142Z" transform="translate(-250.148 -283.059)" fill="#59d083"/>
    <path id="Path_617" data-name="Path 617" d="M399.787,448.757l-3.247,3.178s5.858,6.779,10.364,7.2,7.412-5.155,7.412-5.155l-3.9-6.142Z" transform="translate(-250.148 -283.059)" opacity="0.1"/>
    <circle id="Ellipse_26" data-name="Ellipse 26" cx="11.297" cy="11.297" r="11.297" transform="translate(169.189 108.148)" opacity="0.1"/>
    <circle id="Ellipse_27" data-name="Ellipse 27" cx="11.297" cy="11.297" r="11.297" transform="translate(169.189 107.3)" fill="#fbbebe"/>
    <path id="Path_618" data-name="Path 618" d="M465.4,564.953a36.466,36.466,0,0,0-7.558,1.693c-4.222,1.4-37.31.023-37.771,0v-1.271l1.62-4.023,19.193-2.4h9.182s13.819,3.247,15.247,4.648C465.368,564.443,465.4,564.953,465.4,564.953Z" transform="translate(-264.646 -351.519)" opacity="0.1"/>
    <path id="Path_619" data-name="Path 619" d="M468.209,381.818c-.284.637-1.482,6.142-1.766,6.706s-1.835,9.6-1.977,10.1-10.222-2.119-10.222-2.119l-6.069-5.086-6.238-6.207s-.184-5.6,4.41-7.4l11.408,13.116,5.136-13.684a9.316,9.316,0,0,0,3.125.338S468.493,381.185,468.209,381.818Z" transform="translate(-278.12 -239.565)" opacity="0.1"/>
    <path id="Path_620" data-name="Path 620" d="M439.736,390.414l-11.677-13.435a4.894,4.894,0,0,0-4.633-.342c-2.614,1.132-5.861,2.05-6.71,2.614a52.348,52.348,0,0,0-4.027,4.057l9.466,24.762-4.169,16.31s.637,8.333-.986,11.37a12.479,12.479,0,0,0-1.343,6.284s.5,4.027-.069,6.142a10.23,10.23,0,0,0-.073,4.307s33.545,1.413,37.779,0a36.151,36.151,0,0,1,7.558-1.693s-.768-14.126-1.535-17.515.637-16.31.637-16.31l-.917-13.842,5.5-14.2s-2.983-9.1-6.092-10.022a60.369,60.369,0,0,1-6.848-1.977,24.008,24.008,0,0,0-4.733-1.2l-1.854.622Z" transform="translate(-260.099 -238.622)" fill="#59d083"/>
    <rect id="Rectangle_529" data-name="Rectangle 529" width="26.885" height="41.141" rx="2.94" transform="translate(170.232 162.287) rotate(3.89)" opacity="0.1"/>
    <rect id="Rectangle_530" data-name="Rectangle 530" width="26.885" height="41.141" rx="2.94" transform="translate(171.078 161.444) rotate(3.89)" fill="#3f3d56"/>
    <rect id="Rectangle_531" data-name="Rectangle 531" width="23.423" height="35.399" transform="translate(172.596 164.644) rotate(3.89)" fill="#fff"/>
    <rect id="Rectangle_532" data-name="Rectangle 532" width="19.136" height="5.333" transform="translate(174.78 173.911) rotate(4.004)" opacity="0.1"/>
    <rect id="Rectangle_533" data-name="Rectangle 533" width="3.036" height="2.779" transform="translate(190.149 196.184) rotate(3.89)" opacity="0.1"/>
    <rect id="Rectangle_534" data-name="Rectangle 534" width="15.542" height="2.779" transform="translate(174.684 188.643) rotate(3.89)" opacity="0.1"/>
    <rect id="Rectangle_535" data-name="Rectangle 535" width="16.183" height="4.272" transform="translate(176.927 163.814) rotate(3.89)" fill="#3f3d56"/>
    <rect id="Rectangle_536" data-name="Rectangle 536" width="16.183" height="4.272" transform="translate(176.927 163.814) rotate(3.89)" opacity="0.1"/>
    <path id="Path_621" data-name="Path 621" d="M477.76,572.56s-.142,20.9-5.65,32.908c0,0,6.641-15.818,6.641-16.452s3.67-7.274,2.687-9.251S477.76,572.56,477.76,572.56Z" transform="translate(-296.711 -359.905)" opacity="0.1"/>
    <path id="Path_622" data-name="Path 622" d="M465.8,301.089a7.857,7.857,0,0,1,1.278-5.263,6.483,6.483,0,0,0,5.013,6.833.848.848,0,0,1-.242-.929,28.43,28.43,0,0,0,2.28,2.729,3.031,3.031,0,0,0,3.274.695c1.424-.768,1.439-2.791,1.071-4.364a20.5,20.5,0,0,0-4.718-9.009,6.241,6.241,0,0,0-4.952-2.518,12.181,12.181,0,0,0-6.4,1,17,17,0,0,0-3.071,2.146l-5.374,4.384a5.1,5.1,0,0,0-1.305,1.374,3.761,3.761,0,0,0-.407,1.439,7.758,7.758,0,0,0,3.616,7.32,5.723,5.723,0,0,1,3.428-5.374,1.489,1.489,0,0,1,.534,1.109l1.132-2.019a2.223,2.223,0,0,1,.768-.91,2,2,0,0,1,2.165.61,3.864,3.864,0,0,0,1.973,1.3l.031-3.006" transform="translate(-284.454 -185.317)" opacity="0.1"/>
    <path id="Path_623" data-name="Path 623" d="M465.828,299.988a7.862,7.862,0,0,1,1.278-5.266,6.487,6.487,0,0,0,5.017,6.833.841.841,0,0,1-.242-.925,28.9,28.9,0,0,0,2.28,2.729,3.015,3.015,0,0,0,3.274.691c1.424-.768,1.439-2.791,1.071-4.361a20.5,20.5,0,0,0-4.718-9.009,7.55,7.55,0,0,0-2.637-2.05,7.677,7.677,0,0,0-2.3-.468,12.179,12.179,0,0,0-6.4,1,17.216,17.216,0,0,0-3.071,2.15l-5.374,4.384a5.048,5.048,0,0,0-1.305,1.374,3.743,3.743,0,0,0-.407,1.439,7.754,7.754,0,0,0,3.616,7.316,5.731,5.731,0,0,1,3.428-5.374,1.5,1.5,0,0,1,.534,1.109L461,299.546a2.2,2.2,0,0,1,.768-.91,2,2,0,0,1,2.165.61,3.889,3.889,0,0,0,1.973,1.3l.031-3.009" transform="translate(-284.479 -184.639)" fill="#3f3d56"/>
    <path id="Path_624" data-name="Path 624" d="M446.811,469.643c-.986-.5-17.3,2.046-17.3,2.046a93.369,93.369,0,0,0-9.182-1.835c-6.495-1.067-6.909-7.416-6.909-7.416l-.71-12.709,2.192-1.919,9.389,6.142a30.344,30.344,0,0,1,0,3.666,5.17,5.17,0,0,0-.315,1.152.384.384,0,0,0,.315.345c.637.161,9.32,1.566,9.32,1.566s20.125-1.378,25.142,5.4a5.1,5.1,0,0,1,.887,1.674C460.883,472.388,447.706,470.085,446.811,469.643Z" transform="translate(-260.111 -283.04)" fill="#fbbebe"/>
    <path id="Path_625" data-name="Path 625" d="M477.256,485.416c-.768.342-1.244.587-1.244.587s-7.2-.211-11.247-1.677a26.418,26.418,0,0,0-8.963-1.205s-16.859-2.9-14.245-6.69a.384.384,0,0,0,.315.345c.637.161,9.32,1.566,9.32,1.566s20.125-1.378,25.142,5.4a5.1,5.1,0,0,1,.921,1.674Z" transform="translate(-277.716 -300.674)" opacity="0.1"/>
    <path id="Path_626" data-name="Path 626" d="M484.278,441.58s.99,6.99,1.059,7.558.426,7.412,0,8.191-1.059,2.046-1.059,2.046.706,1.482-2.119,2.05a29,29,0,0,0-6.142,2.257s-7.2-.211-11.228-1.693a25.91,25.91,0,0,0-8.967-1.2s-21.4-3.673-12.218-8.157a14.13,14.13,0,0,1,15.676,1.589l10.237-.633s3.815-2.334,4.875-2.119a3.92,3.92,0,0,0,2.188-.353l.073-7.416Z" transform="translate(-277.737 -279.201)" fill="#fbbebe"/>
    <path id="Path_627" data-name="Path 627" d="M404.741,396.708l-2.05-.107-6.211,24.183s6.706-1.7,9.6,0,8.191,2.046,8.191,2.046l-1.977-19.277Z" transform="translate(-250.111 -251.487)" opacity="0.1"/>
    <path id="Path_628" data-name="Path 628" d="M404.741,395.6l-2.05-.107-6.211,24.183s6.706-1.7,9.6,0,8.191,2.046,8.191,2.046l-1.977-19.277Z" transform="translate(-250.111 -250.803)" fill="#59d083"/>
    <path id="Path_629" data-name="Path 629" d="M533.1,409.57l2.821.637s7.2,10.364,7.769,10.944-2.687,2.687-4.027,2.687-7.907.768-9.815,2.541-1.113-7.151-1.113-7.355,2.368-5.835,2.368-5.835Z" transform="translate(-331.5 -259.479)" opacity="0.1"/>
    <path id="Path_630" data-name="Path 630" d="M533.1,408.47l2.821.633s7.2,10.383,7.769,10.947-2.687,2.687-4.027,2.687-7.907.768-9.815,2.541-1.113-7.151-1.113-7.355,2.384-5.854,2.384-5.854Z" transform="translate(-331.5 -258.801)" fill="#59d083"/>
    <g id="Group_596" data-name="Group 596" transform="translate(167.778 109.234)" opacity="0.1">
      <path id="Path_631" data-name="Path 631" d="M467.086,304.013a5.663,5.663,0,0,1,.019-.883,7.857,7.857,0,0,0-1.182,2.9V307.1c0,.622,0,1.247-.019,1.869h-.054v.288a1.532,1.532,0,0,0-.019-.3,4.083,4.083,0,0,1-1.889-1.282c-.572-.514-1.466-1.006-2.165-.61a2.2,2.2,0,0,0-.768.91l-1.14,2.011a1.486,1.486,0,0,0-.534-1.106,5.723,5.723,0,0,0-3.428,5.374,7.8,7.8,0,0,1-3.643-6.115,7.762,7.762,0,0,0,3.643,6.959,5.731,5.731,0,0,1,3.428-5.374,1.5,1.5,0,0,1,.534,1.109L461,308.826a2.2,2.2,0,0,1,.768-.91,2,2,0,0,1,2.165.61,3.889,3.889,0,0,0,1.973,1.3q0-1.474.031-2.94A7.821,7.821,0,0,1,467.086,304.013Z" transform="translate(-452.256 -303.13)"/>
      <path id="Path_632" data-name="Path 632" d="M487.5,312.567c.019-.261.05-.522.088-.768l.042-1.059A7.769,7.769,0,0,0,487.5,312.567Z" transform="translate(-473.964 -307.819)"/>
      <path id="Path_633" data-name="Path 633" d="M508.853,321.94a3.022,3.022,0,0,1-3.274-.691,28.423,28.423,0,0,1-2.28-2.729.848.848,0,0,0,.242.929.9.9,0,0,1-.223-.058,25.366,25.366,0,0,0,2.261,2.687,3.048,3.048,0,0,0,3.274.691,3.137,3.137,0,0,0,1.255-3.151A2.665,2.665,0,0,1,508.853,321.94Z" transform="translate(-483.675 -312.613)"/>
      <path id="Path_634" data-name="Path 634" d="M495.669,311.614a6.526,6.526,0,0,1-4.783-5.7,6.483,6.483,0,0,0,5.028,6.614A.844.844,0,0,1,495.669,311.614Z" transform="translate(-476.049 -304.843)"/>
    </g>
    <path id="Path_635" data-name="Path 635" d="M852.3,348.623s-1.512-.211-1.512-2.411a34.583,34.583,0,0,0-1.083-6.318h0s-.937-7.167-2.23-8.3-2.956-7.808-2.956-7.808-.284-3.62-.864-4.4a37.377,37.377,0,0,1-2.518-5.408c-1.155-2.722-5.961-4.587-5.961-4.587s-8.71-5.051-11.178-6.7h0a3.815,3.815,0,0,1-.63-.476c-.43-.56-2.3-.572-2.3-.572a37.935,37.935,0,0,1-.445-3.946v-.415a13.281,13.281,0,0,0,5.838-7.224c.046-.146.084-.3.127-.445a1.248,1.248,0,0,0,.768-.676,13.541,13.541,0,0,1,.5-1.535,5.693,5.693,0,0,1,1.42-1.244,5.383,5.383,0,0,0,1.478-4.372c-.038-1.29-.246-2.587-.165-3.865a1.518,1.518,0,0,1,.023-.322c.023-.188.05-.384.084-.568.188-.952.6-1.85.829-2.794a3.6,3.6,0,0,0-.284-2.821c-.787-1.194-2.426-1.432-3.865-1.535-1.631-.138-3.071.038-4.134-1.317a14.467,14.467,0,0,0-1.643-1.981c-.215-.2-2.3-1.478-2.3-1.558a9.331,9.331,0,0,0-6.525-.5c-1.086.315-2.1.829-3.205,1.086-2.365.56-5.09-.046-7.1,1.309a8.382,8.382,0,0,0-2.422,3.178q-.768,1.466-1.558,2.936a18.891,18.891,0,0,0-2.069,5.025,8.5,8.5,0,0,0-.142,1.178h0v.61a2.1,2.1,0,0,0,.023.384,2.2,2.2,0,0,0,.027.238c.027.081.035.261.058.384s.069.342.115.507a.78.78,0,0,0,.069.215c.023.073.084.257.134.384s.054.134.084.2a3.591,3.591,0,0,0,.2.384c.031.05.054.1.084.15a4.343,4.343,0,0,0,.353.514c.818,1.025,2.031,1.677,2.925,2.637v.43a13.139,13.139,0,0,0,6.019,10.709c0,.146.019.3.027.445a21.916,21.916,0,0,1-.042,3.416,1.62,1.62,0,0,0-1.274-.568,1.826,1.826,0,0,0-.491.042l-.035-.027h0v.035c-.844.207-1.885,1.086-2.879,3.585,0,0-3.025,3.409-5.328,3.267s-8.134,3.551-8.134,3.551-5.689,3.689-6.909,7.451a52.059,52.059,0,0,1-2.453,6.249L771.793,338.9h0L770.5,350.419a53.248,53.248,0,0,1,.576,5.892c-.142.783,2.952,7.808,2.952,7.808s10.222,17.957,14.4,18.878l.3-.207a2.611,2.611,0,0,0,.564.207l.86-.6a8.984,8.984,0,0,1-.069,2.023c-.572,1.777.219,13.346,1.225,15.615s.649,32.017.649,32.017l-.142,2.622a1.113,1.113,0,0,0,.035.23l-.035.622.1.054a7.416,7.416,0,0,1-.1,2.5,27.755,27.755,0,0,0-.507,4.4s-2.879,18.379-1.512,22.071,2.522,7.738,2.522,7.738,1.439,4.606.069,5.374-5.251,2.13-4.46,4.046c.729,1.773,3.5,6.525,3.908,7.22l-.035.384-.564,6.115a7.677,7.677,0,0,0,.649,2.334,4.013,4.013,0,0,0,4.1,2.564c.384-.027.825-.069,1.259-.127a54.548,54.548,0,0,0,9.324-2.43,3.675,3.675,0,0,1-.725-.6h0a2.107,2.107,0,0,1-.641-1.535c.061-1.117-2.023-6.418-2.545-7.727l-.119-.292s4.752-4.971,3.961-9.37c0,0-5.259-3.071-3.528-4.76a53.936,53.936,0,0,0,4.825-6.525s.142-18.1,0-20.8a22.413,22.413,0,0,1,.265-5.62c.058-.276.127-.549.2-.821a49.042,49.042,0,0,0,7.239.549q1.328,0,2.687-.054,0,.384.035.829c.2,4.483.572,12.349.875,15.27.43,4.184,2.806,15.473,2.806,15.473s-4.533,2.906.791,10.08c0,0,0,2.595-.353,2.975h0a32.489,32.489,0,0,0-.91,3.75,6.59,6.59,0,0,0,.046,3.424c.864,1.7,6.046,1.558,6.046,1.558h0a.82.82,0,0,1,.127-.019,7.4,7.4,0,0,1,5.485,1.651c1.969,1.581,9.439.891,13.489.384,1.585-.2,2.645-.384,2.645-.384a1.554,1.554,0,0,0,.054-.553h0c-.042-.994-.821-3.174-6.1-5.121,0,0-4.967-3.34-4.9-6.249h-.683c.361-.011.614-.011.614-.011s-1.946-7.1-1.152-7.677-1.585-8.445-1.585-8.445-1.363-13.2-1.439-14.126a8.116,8.116,0,0,1,.361-2.341l-.361-7.243s-.069-2.407,0-3.19a15.007,15.007,0,0,0-.161-2.031c-.035-.269-.069-.549-.107-.825,1.862-.472,3.071-.906,3.071-.906l-.215-25.2c1.581-3.071,1.873-9.811,1.865-14.586,0-3.071-.138-5.343-.138-5.343l2.161-3.528s.5-4.222-.292-5.147a.886.886,0,0,1,.1-1.209,4.015,4.015,0,0,1,.48-.338.6.6,0,0,1-.05-.084,3.812,3.812,0,0,1,.48-.342s-.768-1.19-.081-1.693c.645.438,1.221.787,1.658,1.036-.031.28-.061.441-.061.441l.184-.384.679.384s3.385-6.744,3.313-7.735,2.3-5.182,2.3-5.182a5.192,5.192,0,0,1,1.585-3.125c1.3-.921,1.006-7.6,1.006-7.6s.361-3.478,1.224-4.894S852.3,348.623,852.3,348.623Zm-64.779-2.96.065,1.608c-.384-.618-.66-1.059-.66-1.059Z" transform="translate(-480.563 -169.881)" fill="url(#linear-gradient-2)"/>
    <path id="Path_636" data-name="Path 636" d="M947.235,543.433l-.829,3.531s-6.641-3.4-7.834-7.7,2-5.938,2-5.938l6.191,2.618Z" transform="translate(-583.956 -335.733)" fill="#fff"/>
    <path id="Path_637" data-name="Path 637" d="M947.235,543.433l-.829,3.531s-6.641-3.4-7.834-7.7,2-5.938,2-5.938l6.191,2.618Z" transform="translate(-583.956 -335.733)" opacity="0.1"/>
    <path id="Path_638" data-name="Path 638" d="M840.358,850.345s-6.142,2.257-10.364,2.541a3.943,3.943,0,0,1-4.026-2.549,7.789,7.789,0,0,1-.637-2.3l.557-6.084.292-3.236,8.971-2.334,1.271,3.888.119.292c.507,1.3,2.556,6.575,2.495,7.677a2.107,2.107,0,0,0,.626,1.535,3.564,3.564,0,0,0,.7.572Z" transform="translate(-514.347 -522.457)" fill="#fff"/>
    <path id="Path_639" data-name="Path 639" d="M929.49,846.573a1.534,1.534,0,0,1-.054.553s-13.135,2.188-15.822,0A7.113,7.113,0,0,0,908.1,845.5s-5.082.138-5.931-1.535a6.65,6.65,0,0,1-.042-3.4,32.668,32.668,0,0,1,.891-3.731l.2-.161,1.209-.971,14.156-.418h.107c-.069,2.894,4.8,6.214,4.8,6.214C928.684,843.414,929.448,845.583,929.49,846.573Z" transform="translate(-561.547 -521.779)" fill="#fff"/>
    <path id="Path_640" data-name="Path 640" d="M929.49,855.045a1.585,1.585,0,0,1-.058.553s-13.135,2.188-15.819,0a7.112,7.112,0,0,0-5.516-1.624s-5.086.138-5.934-1.535a6.705,6.705,0,0,1-.042-3.409c1.958.2,5.048.683,6.261,1.85,1.835,1.766,4.944,3.531,6.848,3.673C916.735,854.646,925.682,854.93,929.49,855.045Z" transform="translate(-561.543 -530.251)" opacity="0.1"/>
    <path id="Path_641" data-name="Path 641" d="M841.381,871.817s-6.142,2.257-10.364,2.541a3.943,3.943,0,0,1-4.027-2.549c1.566.526,3.735,1.075,4.875.572,1.351-.6,6.142-.987,8.829-1.151A3.488,3.488,0,0,0,841.381,871.817Z" transform="translate(-515.37 -543.93)" opacity="0.1"/>
    <path id="Path_642" data-name="Path 642" d="M871.829,361.895c-5.067-1.969-11.585-8.475-9.957-11.516a6.883,6.883,0,0,0,.633-2.441,22.288,22.288,0,0,0,.046-3.455,47.456,47.456,0,0,0-.679-5.623s15.818.357,14.9,2.687a8.643,8.643,0,0,0-.238,3.2c.077,1.324.265,2.833.464,4.1.273,1.739.553,3.071.553,3.071s-.971,1.355-1.535,1.428S879.1,364.716,871.829,361.895Z" transform="translate(-536.705 -215.911)" fill="#cf6f80"/>
    <path id="Path_643" data-name="Path 643" d="M837.392,840.51l-.119.13c-4.729-5.719-10.448,1.413-10.448,1.413l-.084-.154.292-3.236L836,836.33l1.271,3.888Z" transform="translate(-515.216 -522.426)" opacity="0.1"/>
    <path id="Path_644" data-name="Path 644" d="M920.462,835.658s-3.455-.069-5.3,1.558-10.748.349-10.364,0a1.328,1.328,0,0,0,.2-.587l1.209-.971,14.156-.418C920.42,835.509,920.462,835.658,920.462,835.658Z" transform="translate(-563.305 -521.755)" opacity="0.1"/>
    <path id="Path_645" data-name="Path 645" d="M837,707.151a10.771,10.771,0,0,0-.583,1.969,22.534,22.534,0,0,0-.265,5.589c.142,2.687,0,20.693,0,20.693a54.79,54.79,0,0,1-4.733,6.495c-1.7,1.693,3.455,4.733,3.455,4.733.768,4.38-3.885,9.324-3.885,9.324-4.729-5.719-10.448,1.409-10.448,1.409s-3.109-5.374-3.885-7.293,3.036-3.244,4.376-4.027-.069-5.374-.069-5.374-1.128-4.026-2.472-7.7,1.482-21.956,1.482-21.956a28.379,28.379,0,0,1,.5-4.384,7.422,7.422,0,0,0,.1-2.487c-.023-.28-.05-.511-.069-.672s-.034-.23-.034-.23l.054-.092,1.919-3.578S837.92,704.9,837,707.151Z" transform="translate(-508.938 -438.162)" fill="#59d083"/>
    <path id="Path_646" data-name="Path 646" d="M913.8,757.7s-3.455-.073-5.3,1.535-10.748.353-10.364,0,.349-2.963.349-2.963c-5.224-7.136-.768-10.03-.768-10.03s-2.33-11.228-2.752-15.392c-.3-2.906-.66-10.748-.856-15.189-.084-1.919-.134-3.244-.134-3.244l4.23-.841.549-.107,10.295-2.069s.284,1.919.476,3.489a15.329,15.329,0,0,1,.157,2.023c-.065.768,0,3.174,0,3.174l.353,7.2a8.305,8.305,0,0,0-.353,2.33c.073.921,1.413,14.053,1.413,14.053s2.33,7.838,1.535,8.4S913.8,757.7,913.8,757.7Z" transform="translate(-556.645 -444.218)" fill="#59d083"/>
    <path id="Path_647" data-name="Path 647" d="M877.177,341.577a8.642,8.642,0,0,0-.238,3.2,13.147,13.147,0,0,1-13.98-.261,47.454,47.454,0,0,0-.679-5.623S878.1,339.247,877.177,341.577Z" transform="translate(-537.114 -215.929)" opacity="0.1"/>
    <path id="Path_648" data-name="Path 648" d="M874.843,302.725a13.132,13.132,0,1,1-26.263.315c0-.108,0-.207,0-.315a13.135,13.135,0,1,1,26.271,0Z" transform="translate(-528.672 -185.553)" fill="#cf6f80"/>
    <path id="Path_649" data-name="Path 649" d="M871.829,376.467c-5.067-1.969-11.585-8.475-9.957-11.516a6.883,6.883,0,0,0,.633-2.441l6.936,5.7,4.291,3.52,3.263-8.3c.273,1.739.553,3.071.553,3.071s-.971,1.355-1.535,1.428S879.1,379.288,871.829,376.467Z" transform="translate(-536.705 -230.483)" opacity="0.1"/>
    <path id="Path_650" data-name="Path 650" d="M866.171,382.159l-5.792,97.306-7.554.5L833.26,423.538l3.209-66.986.679-14.153,8.7,7.143,4.291,3.52,3.359-8.548,6.245,5.443Z" transform="translate(-513.11 -210.968)" fill="#59d083"/>
    <path id="Path_651" data-name="Path 651" d="M843.27,707.2a10.774,10.774,0,0,0-.583,1.969,55.659,55.659,0,0,1-15.853-4.948l-.1-.054.034-.618v-.322l1.919-3.578S844.191,704.947,843.27,707.2Z" transform="translate(-515.209 -438.211)" opacity="0.1"/>
    <path id="Path_652" data-name="Path 652" d="M898.3,718.686a38.885,38.885,0,0,1-4.245.487c-.084-1.919-.134-3.243-.134-3.243l4.253-.86Z" transform="translate(-556.609 -447.712)" opacity="0.1"/>
    <path id="Path_653" data-name="Path 653" d="M917.241,712.889a29.8,29.8,0,0,1-10.717,1.01l-.054-2.43,10.295-2.069S917.037,711.3,917.241,712.889Z" transform="translate(-564.341 -444.218)" opacity="0.1"/>
    <path id="Path_654" data-name="Path 654" d="M826.522,499.608c-15.738,2.687-30.151-5.017-30.151-5.017l.138-2.61s.357-29.591-.633-31.86-1.762-13.757-1.2-15.511-2.046-28.24-2.046-28.24l-.422-10.748-15.465-6.284,6.909-14.406a52.074,52.074,0,0,0,2.4-6.218c1.2-3.743,6.779-7.416,6.779-7.416s5.719-3.67,7.98-3.531,5.224-3.247,5.224-3.247c2.188-5.577,4.169-3.071,4.169-3.071a4.934,4.934,0,0,1-.107.825c-.768,6.122,12.414,25.469,12.6,25.814h0l1.271,30.578,1.271,38.7Z" transform="translate(-484.408 -229.482)" opacity="0.1"/>
    <path id="Path_655" data-name="Path 655" d="M825.4,499.608c-15.738,2.687-30.155-5.017-30.155-5.017l.142-2.61s.353-29.591-.637-31.86-1.762-13.769-1.2-15.538-2.057-28.228-2.057-28.228l-.426-10.748-15.462-6.284,6.909-14.406a52.878,52.878,0,0,0,2.4-6.215c1.2-3.731,6.8-7.408,6.8-7.408s5.719-3.67,7.976-3.531,5.236-3.244,5.236-3.244c2.192-5.577,4.606-3.071,4.606-3.071,0,.269-.23.384-.107.825,1.689,5.938,11.991,25.469,12.18,25.814h0l1.271,30.578,1.244,38.715Z" transform="translate(-483.712 -229.482)" fill="#fff"/>
    <path id="Path_656" data-name="Path 656" d="M871.008,390.358c-1.693-.706-10.66-10.944-10.66-10.944v-2.33c-.326-.768-2.269-.3-3.839.238l.676-14.153.768.637C859.631,369.742,870.824,390.017,871.008,390.358Z" transform="translate(-533.558 -230.889)" opacity="0.1"/>
    <path id="Path_657" data-name="Path 657" d="M872.112,388.177c-1.7-.71-10.663-10.944-10.663-10.944V374.9c-.326-.768-2.265-.3-3.839.238L858.274,361l.768.633C860.735,367.56,871.924,387.831,872.112,388.177Z" transform="translate(-534.236 -229.552)" fill="#fff"/>
    <path id="Path_658" data-name="Path 658" d="M826.494,562.989c.211,0,10.944-1.128,10.944-1.128s6.5,12.782,6.073,15.888-1.2,5.861-3.812,5.374-14.068.384-14.068.384Z" transform="translate(-514.532 -353.312)" opacity="0.1"/>
    <path id="Path_659" data-name="Path 659" d="M825.384,560.779c.215,0,10.947-1.128,10.947-1.128s6.495,12.8,6.073,15.872-1.2,5.861-3.812,5.374-14.072.384-14.072.384Z" transform="translate(-513.848 -351.95)" fill="#fff"/>
    <path id="Path_660" data-name="Path 660" d="M838.419,547s9.85,5.3,10.061,6.909-5.013-.706-6.142-.99a14.639,14.639,0,0,0-2.261-.353l-7.527.2Z" transform="translate(-518.795 -344.156)" fill="#cf6f80"/>
    <circle id="Ellipse_28" data-name="Ellipse 28" cx="1.036" cy="1.036" r="1.036" transform="translate(333.661 158.056)" opacity="0.1"/>
    <circle id="Ellipse_29" data-name="Ellipse 29" cx="1.036" cy="1.036" r="1.036" transform="translate(333.661 157.634)" fill="#3f3d56"/>
    <circle id="Ellipse_30" data-name="Ellipse 30" cx="1.036" cy="1.036" r="1.036" transform="translate(335.569 202.921)" opacity="0.1"/>
    <circle id="Ellipse_31" data-name="Ellipse 31" cx="1.036" cy="1.036" r="1.036" transform="translate(335.569 202.495)" fill="#3f3d56"/>
    <circle id="Ellipse_32" data-name="Ellipse 32" cx="1.036" cy="1.036" r="1.036" transform="translate(334.698 180.489)" opacity="0.1"/>
    <circle id="Ellipse_33" data-name="Ellipse 33" cx="1.036" cy="1.036" r="1.036" transform="translate(334.698 180.066)" fill="#3f3d56"/>
    <path id="Path_661" data-name="Path 661" d="M921,440.083s.706,1.059,0,1.535.069,1.7.069,1.7-1.762,1.029-.987,1.961.284,5.121.284,5.121l-2.119,3.528s.127,2.261.134,5.316c0,4.767-.28,11.469-1.831,14.525l.207,25.069s-7.42,2.714-13.63,1.885l-.921-40.228s1.343-22.812,1.839-27.188a45.544,45.544,0,0,0,.353-6.852,76.467,76.467,0,0,0-.921-10.022s-.768-13.773-.845-17.584c-.034-1.823.061-7.143.169-12.2.119-5.531.253-10.748.253-10.748l-1.4-11.089s1.4-.138,1.823.422a4.044,4.044,0,0,0,.614.472h0c2.422,1.635,10.967,6.664,10.967,6.664s4.729,1.881,5.862,4.576a39.885,39.885,0,0,0,2.468,5.374c.549.768.848,4.376.848,4.376s1.628,6.641,2.9,7.765,2.184,8.264,2.184,8.264l-11.228,8.829s-.987,14.686-1.2,15.254S921,440.083,921,440.083Z" transform="translate(-561.371 -231.888)" fill="#fff"/>
    <path id="Path_662" data-name="Path 662" d="M921.4,439.867s.7,1.059,0,1.535.065,1.7.065,1.7-1.762,1.029-.987,1.961.284,5.121.284,5.121l-2.111,3.528s.127,2.261.138,5.316c0,4.767-.28,11.469-1.831,14.525l.211,25.069s-7.42,2.714-13.631,1.885l-.917-40.228s1.34-22.812,1.839-27.188a45.136,45.136,0,0,0,.349-6.852,76.942,76.942,0,0,0-.917-10.022s-.768-13.773-.848-17.584c-.035-1.823.061-7.143.169-12.2.119-5.531.253-10.748.253-10.748l-1.85-11.239s1.85,0,2.276.572a3.638,3.638,0,0,0,.614.472h0c2.418,1.635,10.963,6.664,10.963,6.664s4.718,1.881,5.869,4.576a42.548,42.548,0,0,0,2.468,5.374c.549.768.848,4.376.848,4.376s1.628,6.641,2.9,7.765,2.188,8.264,2.188,8.264l-11.228,8.829s-.987,14.686-1.2,15.254S921.4,439.867,921.4,439.867Z" transform="translate(-561.353 -231.672)" fill="#fff"/>
    <path id="Path_663" data-name="Path 663" d="M908.629,380.294l1.017,2.956-5.339,5.374c.119-5.531.253-10.748.253-10.748l-1.85-11.235s1.85,0,2.276.572a3.644,3.644,0,0,0,.614.472h0l4.537,13.086Z" transform="translate(-562.025 -233.027)" opacity="0.1"/>
    <path id="Path_664" data-name="Path 664" d="M907.5,378.071l1.017,2.952-5.336,5.374c.115-5.531.253-10.748.253-10.748L901.58,364.41s1.854,0,2.276.572a3.839,3.839,0,0,0,.614.472h0l4.564,13.1Z" transform="translate(-561.328 -231.653)" fill="#fff"/>
    <path id="Path_665" data-name="Path 665" d="M874.843,302.725a13.09,13.09,0,0,1-.645,4.073.545.545,0,0,1-.415-.1c-.1-3.455-1.8-6.7-3.892-9.462a10.023,10.023,0,0,0-2.111-2.188,4.134,4.134,0,0,0-2.864-.81c-1.152.157-2.169.94-3.332,1.04-1.535.127-2.91-.937-4.434-.987a4.345,4.345,0,0,0-3.259,1.512,8.891,8.891,0,0,0-1.747,3.236,18.952,18.952,0,0,0-.975,5.589c-.019,1.075-.123,2.422-1.121,2.814a5.719,5.719,0,0,0-1.447-4.376l-.023-.027v-.315a13.135,13.135,0,1,1,26.271,0Z" transform="translate(-528.672 -185.553)" opacity="0.1"/>
    <path id="Path_666" data-name="Path 666" d="M860.751,268.1a9.044,9.044,0,0,0-6.38-.5c-1.063.315-2.065.825-3.144,1.082-2.3.557-4.99-.046-6.967,1.3a8.315,8.315,0,0,0-2.372,3.163l-1.535,2.921a18.979,18.979,0,0,0-2.031,4.99,6.383,6.383,0,0,0,.979,5.155c.81,1.029,2.015,1.677,2.9,2.649a5.758,5.758,0,0,1,1.443,4.387c1-.384,1.1-1.739,1.121-2.814a18.98,18.98,0,0,1,.975-5.589,8.89,8.89,0,0,1,1.747-3.236,4.349,4.349,0,0,1,3.259-1.516c1.535.054,2.913,1.117,4.433.987,1.152-.1,2.173-.879,3.332-1.036a4.115,4.115,0,0,1,2.864.81,9.834,9.834,0,0,1,2.107,2.188c2.1,2.764,3.8,6,3.9,9.462.434.315,1.059-.1,1.274-.591a14.067,14.067,0,0,1,.5-1.535,5.677,5.677,0,0,1,1.39-1.24,5.433,5.433,0,0,0,1.451-4.349,21.674,21.674,0,0,1-.054-4.729c.18-.948.587-1.842.81-2.783a3.639,3.639,0,0,0-.276-2.806c-.768-1.186-2.384-1.424-3.792-1.535-1.6-.138-3.033.038-4.053-1.309a15.01,15.01,0,0,0-1.612-1.973C862.8,269.45,860.751,268.184,860.751,268.1Z" transform="translate(-522.257 -171.781)" fill="#512e4e"/>
    <path id="Path_667" data-name="Path 667" d="M779.808,468.462,775.8,461.05l-1.271,11.439a53.037,53.037,0,0,1,.564,5.861c-.142.779,2.894,7.765,2.894,7.765s10.03,17.868,14.126,18.786l13.819-9.888-3.67-4.66s-1.271-.5-1.589,0c0,0-6.817-11.723-7.52-12.567a4.271,4.271,0,0,1-.568-2.545s-1.059-1.129-.706-2.188-2.027-4.729-2.027-4.729l2.188-2.046Z" transform="translate(-483.046 -291.198)" opacity="0.1"/>
    <path id="Path_668" data-name="Path 668" d="M774.65,458.84l-1.059.848-1.271,11.439a53.037,53.037,0,0,1,.564,5.861c-.142.779,2.9,7.765,2.9,7.765s10.026,17.868,14.122,18.786l13.842-9.888-3.674-4.66s-1.271-.5-1.589,0c0,0-6.813-11.723-7.52-12.567a4.227,4.227,0,0,1-.564-2.545s-1.059-1.129-.706-2.188-2.05-4.729-2.05-4.729l2.188-2.046Z" transform="translate(-481.685 -289.836)" fill="#fff"/>
    <path id="Path_669" data-name="Path 669" d="M936.8,564.653c.768.933.284,5.124.284,5.124l-2.119,3.5s.127,2.265.134,5.32l-3.562,1.113a2.119,2.119,0,0,1-2.748-2.088l.618-19.807,8.31,3.174c-.706.491.069,1.7.069,1.7S936.024,563.72,936.8,564.653Z" transform="translate(-578.092 -350.823)" opacity="0.1"/>
    <path id="Path_670" data-name="Path 670" d="M937.912,563.546c.768.929.284,5.121.284,5.121l-2.111,3.508s.127,2.261.138,5.316l-3.627,1.132a2.069,2.069,0,0,1-2.687-2.038l.618-19.876,8.307,3.182c-.71.491.065,1.7.065,1.7S937.136,562.614,937.912,563.546Z" transform="translate(-578.782 -350.139)" fill="#fff"/>
    <path id="Path_671" data-name="Path 671" d="M947.266,544.939s-.564,3.6-1.977,3.816-2.046,5.831-3.455,5.635-.476-5.228-.426-6.2-1.535-5.013-.353-5.931,4.944,0,4.944,0Z" transform="translate(-585.38 -340.981)" fill="#cf6f80"/>
    <path id="Path_672" data-name="Path 672" d="M947.879,468.974l2.66-5.374a34.776,34.776,0,0,1,1.063,6.284c0,2.188,1.482,2.4,1.482,2.4s1.624,1.919.768,3.32-1.2,4.871-1.2,4.871.28,6.637-.99,7.554a5.211,5.211,0,0,0-1.555,3.109s-2.33,4.165-2.257,5.155-3.247,7.7-3.247,7.7,1.624-8.333-7.838-11.934c0,0-.073-2.825.633-3.6s1.808-1.152,1.117-5.051a45.779,45.779,0,0,1-.2-9.543c0-.94,2.119-6.8,2.119-6.8Z" transform="translate(-583.007 -292.769)" opacity="0.1"/>
    <path id="Path_673" data-name="Path 673" d="M950.448,461.6l2.326.768a34.773,34.773,0,0,1,1.063,6.284c0,2.188,1.482,2.4,1.482,2.4s1.624,1.919.768,3.32-1.2,4.871-1.2,4.871.284,6.637-.987,7.554a5.141,5.141,0,0,0-1.535,3.109s-2.33,4.165-2.257,5.155-3.251,7.7-3.251,7.7,1.624-8.333-7.838-11.934c0,0-.069-2.825.637-3.6s1.808-1.152,1.117-5.051a45.784,45.784,0,0,1-.2-9.543c0-.94,2.119-6.8,2.119-6.8Z" transform="translate(-584.394 -291.537)" fill="#fff"/>
    <path id="Path_674" data-name="Path 674" d="M834.92,822.458s3.708-2.33,6.142-.637S834.92,822.458,834.92,822.458Z" transform="translate(-520.256 -513.106)" opacity="0.1"/>
    <path id="Path_675" data-name="Path 675" d="M910,805.667a7.506,7.506,0,0,1,6.038,2.545C918.794,811.179,910,805.667,910,805.667Z" transform="translate(-566.516 -503.52)" opacity="0.1"/>
    <g id="Group_597" data-name="Group 597" transform="translate(315.906 103.91)" opacity="0.1">
      <path id="Path_676" data-name="Path 676" d="M879.335,307.465c-.472.411-1.079.7-1.393,1.24a14.313,14.313,0,0,0-.491,1.535c-.215.5-.841.906-1.278.591-.1-3.455-1.8-6.7-3.892-9.462a9.817,9.817,0,0,0-2.107-2.184,4.126,4.126,0,0,0-2.867-.814c-1.151.157-2.165.94-3.328,1.04-1.535.127-2.913-.937-4.437-.986a4.33,4.33,0,0,0-3.255,1.512,8.889,8.889,0,0,0-1.747,3.236,18.978,18.978,0,0,0-.975,5.589c-.023,1.071-.123,2.407-1.113,2.806a5.33,5.33,0,0,1,0,.856c1-.384,1.1-1.739,1.125-2.814a18.976,18.976,0,0,1,.975-5.589,8.888,8.888,0,0,1,1.746-3.236,4.345,4.345,0,0,1,3.255-1.516c1.535.054,2.917,1.117,4.437.987,1.152-.1,2.173-.879,3.328-1.036a4.126,4.126,0,0,1,2.867.81,9.837,9.837,0,0,1,2.107,2.188c2.092,2.764,3.792,6,3.892,9.462.438.315,1.063-.1,1.278-.591a14.884,14.884,0,0,1,.491-1.535,5.693,5.693,0,0,1,1.393-1.24,5.433,5.433,0,0,0,1.451-4.349v-.146A5.048,5.048,0,0,1,879.335,307.465Z" transform="translate(-846.963 -294.863)"/>
      <path id="Path_677" data-name="Path 677" d="M842.187,312.092c-.879-.971-2.084-1.624-2.894-2.652a5.57,5.57,0,0,1-1.117-3.14,5.915,5.915,0,0,0,1.117,3.988c.81,1.029,2.015,1.677,2.894,2.649a5.758,5.758,0,0,1,1.451,3.424,5.758,5.758,0,0,0-1.451-4.268Z" transform="translate(-838.155 -299.759)"/>
      <path id="Path_678" data-name="Path 678" d="M926.726,290c-.226.94-.63,1.835-.814,2.783a8.882,8.882,0,0,0-.119,1.942,7.447,7.447,0,0,1,.119-1.094c.184-.948.587-1.842.814-2.783a4.819,4.819,0,0,0,.127-1.589,5.332,5.332,0,0,1-.127.741Z" transform="translate(-892.147 -289.26)"/>
    </g>
    <ellipse id="Ellipse_34" data-name="Ellipse 34" cx="37.402" cy="6.007" rx="37.402" ry="6.007" transform="translate(13.848 309.992)" fill="#59d083" opacity="0.1"/>
    <rect id="Rectangle_537" data-name="Rectangle 537" width="2.407" height="54.188" transform="translate(50.049 200.917)" fill="#535461"/>
    <path id="Path_679" data-name="Path 679" d="M138.793,676.827l-.154,2.441-.211,3.455-.088,1.436-.215,3.455-.092,1.436-.211,3.455-2.43,39.18a6.633,6.633,0,0,1-6.621,6.226H116.153a6.629,6.629,0,0,1-6.621-6.253l-2.43-39.18-.211-3.455-.088-1.436-.219-3.455L106.5,682.7l-.211-3.455-.154-2.441a3.455,3.455,0,0,1,3.432-3.65h25.8a3.455,3.455,0,0,1,3.428,3.677Z" transform="translate(-71.21 -421.883)" fill="#3f3d56"/>
    <path id="Path_680" data-name="Path 680" d="M122.939,670.52l-.215,3.447H90.795l-.215-3.447Z" transform="translate(-55.509 -413.138)" fill="#9d9cb5"/>
    <path id="Path_681" data-name="Path 681" d="M123.122,683.24l-.211,3.447H91.585l-.215-3.447Z" transform="translate(-55.996 -420.976)" fill="#9d9cb5"/>
    <path id="Path_682" data-name="Path 682" d="M123.306,695.97l-.211,3.443H92.375l-.215-3.443Z" transform="translate(-56.482 -428.819)" fill="#9d9cb5"/>
    <path id="Path_683" data-name="Path 683" d="M47.363,577.709c14.018,10.141,19.857,26,19.857,26s-16.889-.58-30.912-10.721S16.44,567,16.44,567,33.329,567.568,47.363,577.709Z" transform="translate(-15.95 -356.479)" fill="#59d083"/>
    <path id="Path_684" data-name="Path 684" d="M16.44,567s17.53,9.731,23.154,17.788S67.2,603.719,67.2,603.719" transform="translate(-15.95 -356.479)" fill="none" stroke="#535461" stroke-miterlimit="10" stroke-width="2"/>
    <path id="Path_685" data-name="Path 685" d="M93.524,532.315a33.984,33.984,0,0,1,10.809,14.149,33.959,33.959,0,0,1-16.824-5.831A34.182,34.182,0,0,1,76.7,526.48,33.984,33.984,0,0,1,93.524,532.315Z" transform="translate(-53.079 -331.512)" fill="#59d083"/>
    <path id="Path_686" data-name="Path 686" d="M76.7,526.48s9.543,5.3,12.606,9.681,15.028,10.3,15.028,10.3" transform="translate(-53.079 -331.512)" fill="none" stroke="#535461" stroke-miterlimit="10" stroke-width="2"/>
    <path id="Path_687" data-name="Path 687" d="M160.527,557.067c-8.763,9.631-10.617,22.217-10.617,22.217s12.356-3.032,21.112-12.667S181.639,544.4,181.639,544.4,169.291,547.436,160.527,557.067Z" transform="translate(-98.187 -342.554)" fill="#59d083"/>
    <path id="Path_688" data-name="Path 688" d="M181.647,544.41s-11.416,9.873-14.318,16.674-17.419,18.206-17.419,18.206" transform="translate(-98.187 -342.56)" fill="none" stroke="#535461" stroke-miterlimit="10" stroke-width="2"/>
  </g>
</svg>
