<svg xmlns="http://www.w3.org/2000/svg" width="411.597" height="296.184" viewBox="0 0 411.597 296.184">
  <g id="Group_630" data-name="Group 630" transform="translate(0.001 -0.04)">
    <path id="Path_1025" data-name="Path 1025" d="M549.611,336.649H495.394V324.932a2.8,2.8,0,0,0-2.8-2.8H476.668V309.636a1.766,1.766,0,0,0-1.766-1.766H454.394a1.766,1.766,0,0,0-1.766,1.766v12.491H433.911a2.8,2.8,0,0,0-2.8,2.8v11.718h-51.7a.57.57,0,0,0-.566.57V492.9a.57.57,0,0,0,.566.57h34.36a.57.57,0,0,0,.57-.57V471.954a.575.575,0,0,1,.57-.57H429.42a.574.574,0,0,1,.57.57V492.9a.57.57,0,0,0,.566.57h67.9a.574.574,0,0,0,.57-.57V471.954a.57.57,0,0,1,.566-.57H514.1a.57.57,0,0,1,.57.57V492.9a.574.574,0,0,0,.57.57H549.6a.574.574,0,0,0,.57-.57V337.228a.574.574,0,0,0-.562-.579ZM408.185,464.11a.566.566,0,0,1-.566.566H386.4a.566.566,0,0,1-.57-.566v-7.249a.57.57,0,0,1,.57-.57h21.235a.57.57,0,0,1,.566.57Zm0-18.73a.566.566,0,0,1-.566.57H386.4a.566.566,0,0,1-.57-.57v-7.244a.566.566,0,0,1,.57-.57h21.235a.566.566,0,0,1,.566.57Zm0-18.726a.57.57,0,0,1-.566.57H386.4a.57.57,0,0,1-.57-.57v-7.249a.57.57,0,0,1,.57-.57h21.235a.57.57,0,0,1,.566.57Zm0-18.73a.566.566,0,0,1-.566.57H386.4a.566.566,0,0,1-.57-.57V400.68a.566.566,0,0,1,.57-.57h21.235a.566.566,0,0,1,.566.57Zm0-18.726a.57.57,0,0,1-.566.57H386.4a.57.57,0,0,1-.57-.57V381.95a.566.566,0,0,1,.57-.566h21.235a.566.566,0,0,1,.566.566Zm0-18.726a.566.566,0,0,1-.566.566H386.4a.566.566,0,0,1-.57-.566v-7.249a.57.57,0,0,1,.57-.57h21.235a.57.57,0,0,1,.566.57Zm0-18.73a.566.566,0,0,1-.566.57H386.4a.566.566,0,0,1-.57-.57V344.5a.566.566,0,0,1,.57-.57h21.235a.566.566,0,0,1,.566.57ZM458.5,464.106a.566.566,0,0,1-.57.566H436.707a.57.57,0,0,1-.57-.566v-7.244a.575.575,0,0,1,.57-.57h21.222a.57.57,0,0,1,.57.57Zm0-18.73a.566.566,0,0,1-.57.57H436.707a.57.57,0,0,1-.57-.57v-7.24a.57.57,0,0,1,.57-.57h21.222a.566.566,0,0,1,.57.57Zm0-18.726a.57.57,0,0,1-.57.57H436.707a.575.575,0,0,1-.57-.57v-7.244a.575.575,0,0,1,.57-.57h21.222a.57.57,0,0,1,.57.57Zm0-18.73a.566.566,0,0,1-.57.57H436.707a.57.57,0,0,1-.57-.57v-7.24a.57.57,0,0,1,.57-.57h21.222a.566.566,0,0,1,.57.57Zm0-18.726a.57.57,0,0,1-.57.57H436.707a.575.575,0,0,1-.57-.57V381.95a.57.57,0,0,1,.57-.566h21.222a.566.566,0,0,1,.57.566Zm0-18.726a.566.566,0,0,1-.57.566H436.707a.57.57,0,0,1-.57-.566v-7.244a.574.574,0,0,1,.57-.57h21.222a.57.57,0,0,1,.57.57Zm0-18.73a.566.566,0,0,1-.57.57H436.707a.57.57,0,0,1-.57-.57V344.5a.57.57,0,0,1,.57-.57h21.222a.566.566,0,0,1,.57.57ZM492.88,464.1a.566.566,0,0,1-.57.566H471.088a.57.57,0,0,1-.57-.566v-7.24a.575.575,0,0,1,.57-.57H492.31a.57.57,0,0,1,.57.57Zm0-18.73a.566.566,0,0,1-.57.57H471.088a.57.57,0,0,1-.57-.57v-7.236a.57.57,0,0,1,.57-.57H492.31a.566.566,0,0,1,.57.57Zm0-18.726a.57.57,0,0,1-.57.57H471.088a.575.575,0,0,1-.57-.57v-7.24a.575.575,0,0,1,.57-.57H492.31a.57.57,0,0,1,.57.57Zm0-18.73a.566.566,0,0,1-.57.57H471.088a.57.57,0,0,1-.57-.57V400.68a.57.57,0,0,1,.57-.57H492.31a.566.566,0,0,1,.57.57Zm0-18.726a.57.57,0,0,1-.57.57H471.088a.575.575,0,0,1-.57-.57v-7.24a.57.57,0,0,1,.57-.566H492.31a.566.566,0,0,1,.57.566Zm0-18.726a.566.566,0,0,1-.57.566H471.088a.57.57,0,0,1-.57-.566v-7.24a.574.574,0,0,1,.57-.57H492.31a.57.57,0,0,1,.57.57Zm0-18.73a.566.566,0,0,1-.57.57H471.088a.57.57,0,0,1-.57-.57V344.5a.57.57,0,0,1,.57-.57H492.31a.566.566,0,0,1,.57.57ZM543.195,464.1a.57.57,0,0,1-.57.566H521.4a.566.566,0,0,1-.57-.566v-7.236a.57.57,0,0,1,.57-.57h21.222a.575.575,0,0,1,.57.57Zm0-18.73a.57.57,0,0,1-.57.57H521.4a.566.566,0,0,1-.562-.557v-7.244a.566.566,0,0,1,.57-.57h21.222a.57.57,0,0,1,.57.57Zm0-18.726a.574.574,0,0,1-.57.57H521.4a.57.57,0,0,1-.57-.57v-7.236a.57.57,0,0,1,.57-.57h21.222a.574.574,0,0,1,.57.57Zm0-18.73a.57.57,0,0,1-.57.57H521.4a.566.566,0,0,1-.57-.57V400.68a.566.566,0,0,1,.57-.57h21.222a.57.57,0,0,1,.57.57Zm0-18.726a.574.574,0,0,1-.57.57H521.4a.57.57,0,0,1-.562-.557V381.95a.566.566,0,0,1,.57-.566h21.222a.57.57,0,0,1,.57.566Zm0-18.726a.57.57,0,0,1-.57.566H521.4a.566.566,0,0,1-.57-.566v-7.236a.57.57,0,0,1,.57-.57h21.222a.575.575,0,0,1,.57.57Zm0-18.73a.57.57,0,0,1-.57.57H521.4a.566.566,0,0,1-.57-.57V344.5a.566.566,0,0,1,.57-.57h21.222a.57.57,0,0,1,.57.57Z" transform="translate(-266.465 -219.781)" fill="#f2f2f2"/>
    <path id="Path_1026" data-name="Path 1026" d="M301.809,113.83l-6.556,4.157,3.979-7.24a6.484,6.484,0,0,0-3.962-1.415h-.106a7.641,7.641,0,0,1-1.36-.1l-2.222,1.424.95-1.732a7.882,7.882,0,0,1-3.886-2.957l-3.975,2.535,2.509-4.566a11.628,11.628,0,0,0-8.909-4.5c-4.135,0-7.819,2.458-10.2,6.29a7.6,7.6,0,0,1-6.759,3.633h-.22c-4.566,0-8.267,5.179-8.267,11.566s3.7,11.562,8.267,11.562a6.218,6.218,0,0,0,2.877-.722,11.916,11.916,0,0,1,10.007-.194,10.417,10.417,0,0,0,8.508,0,11.925,11.925,0,0,1,9.914.194,6.218,6.218,0,0,0,2.851.705c4.566,0,8.267-5.179,8.267-11.562A14.662,14.662,0,0,0,301.809,113.83Z" transform="translate(-193.684 -99.39)" fill="#f2f2f2"/>
    <path id="Path_1027" data-name="Path 1027" d="M289.477,151.293a12.2,12.2,0,0,0-7.084.769,10.43,10.43,0,0,1-8.5,0,11.932,11.932,0,0,0-10.007.2,6.218,6.218,0,0,1-2.881.718c-4.055,0-7.43-4.085-8.132-9.475a7.828,7.828,0,0,0,2.028-2.184c2.378-3.857,6.053-6.319,10.2-6.319s7.772,2.429,10.138,6.222a7.806,7.806,0,0,0,6.738,3.7h.106C285.32,144.927,288.117,147.516,289.477,151.293Z" transform="translate(-193.707 -119.935)" opacity="0.03"/>
    <path id="Path_1028" data-name="Path 1028" d="M865.387,295.294l-3.278,2.057,1.985-3.612a3.239,3.239,0,0,0-1.977-.705h-.051a3.634,3.634,0,0,1-.68-.051l-1.107.705.473-.866a3.971,3.971,0,0,1-1.939-1.47l-1.981,1.267,1.267-2.281a5.8,5.8,0,0,0-4.44-2.239,6.05,6.05,0,0,0-5.069,3.139,3.8,3.8,0,0,1-3.379,1.812h-.11c-2.277,0-4.123,2.581-4.123,5.766s1.846,5.766,4.123,5.766a3.092,3.092,0,0,0,1.436-.359,5.948,5.948,0,0,1,4.989-.1,5.208,5.208,0,0,0,4.245,0,5.96,5.96,0,0,1,4.947.1,3.08,3.08,0,0,0,1.419.351c2.277,0,4.123-2.581,4.123-5.766A7.353,7.353,0,0,0,865.387,295.294Z" transform="translate(-533.388 -208.362)" fill="#f2f2f2"/>
    <path id="Path_1029" data-name="Path 1029" d="M859.224,313.993a6.133,6.133,0,0,0-3.536.384,5.187,5.187,0,0,1-2.112.448,5.242,5.242,0,0,1-2.112-.456,5.956,5.956,0,0,0-4.993.1,3.08,3.08,0,0,1-1.436.359c-2.023,0-3.7-2.036-4.055-4.727a3.912,3.912,0,0,0,1.014-1.09,5.676,5.676,0,0,1,10.138-.034,3.9,3.9,0,0,0,3.379,1.846h.055C857.15,310.821,858.544,312.113,859.224,313.993Z" transform="translate(-533.388 -218.626)" opacity="0.03"/>
    <path id="Path_1030" data-name="Path 1030" d="M524.626,753.312v2.112a8.077,8.077,0,0,1-8.833,8.026c-16.538-1.571-33-4.495-49.592-3.988-30.592.934-61.437,13.446-91.048,5.715-8.351-2.18-16.609-5.969-25.2-5.154-7.709.731-14.569,5.09-22.038,7.135-22.713,6.235-45.837-9.521-69.386-8.888-15.52.422-30.38,7.979-45.883,7.139-8.985-.482-17.543-3.768-26.308-5.791-21.822-5.044-44.295-2.222-66.78-.473a5.914,5.914,0,0,1-6.366-5.88v-1.791a5.914,5.914,0,0,1,5.914-5.914l397.462-.321a8.077,8.077,0,0,1,8.06,8.072Z" transform="translate(-113.03 -472.398)" fill="#3f3d56"/>
    <path id="Path_1031" data-name="Path 1031" d="M524.626,753.312v2.112a8.077,8.077,0,0,1-8.833,8.026c-16.538-1.571-33-4.495-49.592-3.988-30.592.934-61.437,13.446-91.048,5.715-8.351-2.18-16.609-5.969-25.2-5.154-7.709.731-14.569,5.09-22.038,7.135-22.713,6.235-45.837-9.521-69.386-8.888-15.52.422-30.38,7.979-45.883,7.139-8.985-.482-17.543-3.768-26.308-5.791-21.822-5.044-44.295-2.222-66.78-.473a5.914,5.914,0,0,1-6.366-5.88v-1.791a5.914,5.914,0,0,1,5.914-5.914l397.462-.321a8.077,8.077,0,0,1,8.06,8.072Z" transform="translate(-113.03 -472.398)" opacity="0.1"/>
    <path id="Path_1032" data-name="Path 1032" d="M524.626,744.162v2.112a8.64,8.64,0,0,1-.046.879,8.072,8.072,0,0,1-8.786,7.181c-16.538-1.576-33-4.5-49.592-3.988-30.592.938-61.437,13.45-91.048,5.715-8.351-2.18-16.609-5.969-25.2-5.154-7.709.731-14.569,5.069-22.038,7.139-22.713,6.2-45.837-9.555-69.386-8.9-15.52.422-30.38,7.979-45.883,7.143-8.985-.486-17.543-3.768-26.308-5.8-21.818-5.039-44.295-2.222-66.78-.473a5.914,5.914,0,0,1-6.277-4.858,5.786,5.786,0,0,1-.089-1.022v-1.808a5.914,5.914,0,0,1,5.914-5.914l99.611-.084,203.526-.169,94.318-.076A8.072,8.072,0,0,1,524.626,744.162Z" transform="translate(-113.03 -467.113)" fill="#3f3d56"/>
    <path id="Path_1033" data-name="Path 1033" d="M994.4,670.682c1.267-2.328-.173-5.179-1.812-7.257s-3.637-4.224-3.595-6.881c.063-3.8,4.1-6.045,7.321-8.06a35.85,35.85,0,0,0,6.573-5.284,9.716,9.716,0,0,0,2.019-2.7,10.973,10.973,0,0,0,.6-4.807q-.207-8.136-.8-16.259" transform="translate(-618.875 -399.732)" fill="none" stroke="#3f3d56" stroke-miterlimit="10" stroke-width="4"/>
    <path id="Path_1034" data-name="Path 1034" d="M1024.542,611a5.914,5.914,0,0,0-2.957-4.858l-1.326,2.627.038-3.181a5.913,5.913,0,1,0,4.25,5.411Z" transform="translate(-632.584 -391.601)" fill="#57b894"/>
    <path id="Path_1035" data-name="Path 1035" d="M1000.4,701.926a5.914,5.914,0,1,1,.287-4.773l-3.7,3.016,4.076-.946a5.913,5.913,0,0,1-.659,2.7Z" transform="translate(-619.013 -442.398)" fill="#57b894"/>
    <path id="Path_1036" data-name="Path 1036" d="M1000.051,670.269a5.914,5.914,0,0,1-1.88-11.633l-.034,2.442,1.343-2.657h0a5.931,5.931,0,0,1,.57,11.849Z" transform="translate(-621.594 -422.248)" fill="#57b894"/>
    <path id="Path_1037" data-name="Path 1037" d="M1034.334,647.618a5.92,5.92,0,1,1,2.619-11.076l-1.048,2.868,2.159-2.066a5.914,5.914,0,0,1,1.914,4.089,5.82,5.82,0,0,1-.148,1.635A5.914,5.914,0,0,1,1034.334,647.618Z" transform="translate(-641.485 -409.178)" fill="#57b894"/>
    <path id="Path_1038" data-name="Path 1038" d="M1023.778,617.023c-1.369.152-2.7.579-4.072.663a4.431,4.431,0,0,1-3.751-1.314,18.332,18.332,0,0,1-1.094-1.93,4.224,4.224,0,0,0-1.5-1.4,5.914,5.914,0,1,0,11.084,3.933C1024.226,616.985,1024,617,1023.778,617.023Z" transform="translate(-632.619 -396.042)" opacity="0.1"/>
    <path id="Path_1039" data-name="Path 1039" d="M1034.314,652.248a5.914,5.914,0,0,1-5.639-8.448,4.338,4.338,0,0,1,1.191,1.2,19.288,19.288,0,0,0,1.174,1.956,4.828,4.828,0,0,0,3.933,1.377c1.432-.068,2.813-.469,4.224-.6.2-.021.4-.034.6-.038A5.914,5.914,0,0,1,1034.314,652.248Z" transform="translate(-641.466 -413.808)" opacity="0.1"/>
    <path id="Path_1040" data-name="Path 1040" d="M1000.239,675.067a5.914,5.914,0,0,1-5.69-8.347,4.646,4.646,0,0,1,1.267,1.2c.46.651.748,1.4,1.267,2a5.488,5.488,0,0,0,4.195,1.47c1.512-.034,2.885-.393,4.342-.5A5.935,5.935,0,0,1,1000.239,675.067Z" transform="translate(-621.782 -427.046)" opacity="0.1"/>
    <path id="Path_1041" data-name="Path 1041" d="M1000.182,707.107a16.8,16.8,0,1,0-9.509-3.675,25.082,25.082,0,0,0,1.588,2.112,7.382,7.382,0,0,0,4.913,1.723A25.314,25.314,0,0,0,1000.182,707.107Z" transform="translate(-618.797 -447.579)" opacity="0.1"/>
    <path id="Path_1042" data-name="Path 1042" d="M980.62,730.961s4.68-.148,6.091-1.149,7.181-2.205,7.544-.6,7.033,8.026,1.749,8.055-12.25-.845-13.682-1.69S980.62,730.961,980.62,730.961Z" transform="translate(-614.042 -462.689)" fill="#656380"/>
    <path id="Path_1043" data-name="Path 1043" d="M996.1,740.116c-5.284.042-12.276-.824-13.682-1.69-1.073-.651-1.5-2.995-1.643-4.076h-.156s.3,3.772,1.69,4.647,8.4,1.724,13.682,1.69c1.525,0,2.053-.558,2.023-1.36C997.817,739.816,997.255,740.116,996.1,740.116Z" transform="translate(-614.042 -466.108)" opacity="0.2"/>
    <path id="Path_1044" data-name="Path 1044" d="M723.79,601.884c0,7.054,3.616,7.468,9.644,12.77s9.64-5.715,9.64-12.77-4.317-12.774-9.64-12.774S723.79,594.83,723.79,601.884Z" transform="translate(-465.701 -382.22)" fill="#915766"/>
    <path id="Path_1045" data-name="Path 1045" d="M577.861,469.31a3.542,3.542,0,0,0,1.4,3.924,13.4,13.4,0,0,0,4.085,1.778,26.7,26.7,0,0,1,15.139,12.428,21.532,21.532,0,0,1,.583,19.313c-1.584,3.2-4.038,5.914-5.492,9.162-2.923,6.463-1.44,14.392,2.758,20.111s12.423,6.822,19.288,8.6c0,0,17.742,13.94,24.078,10.138" transform="translate(-381.306 -313.026)" fill="none" stroke="#3f3d56" stroke-miterlimit="10" stroke-width="1"/>
    <path id="Path_1046" data-name="Path 1046" d="M614.361,722.213s-.845,7.181,2.957,7.6a48.915,48.915,0,0,0,5.576.182,6.087,6.087,0,0,0,5.1-9.293l-.114-.177C624.076,714.609,614.361,722.213,614.361,722.213Z" transform="translate(-402.451 -456.822)" fill="#915766"/>
    <path id="Path_1047" data-name="Path 1047" d="M608.5,693.385s9.293,12.25,23.233,1.267-2.957-16.052-2.957-16.052H611.03l-10.56,4.647Z" transform="translate(-394.474 -433.908)" fill="#b56d7e"/>
    <path id="Path_1048" data-name="Path 1048" d="M699.06,689.6s4.224,5.069,8.026,4.647c3.05-.338,9.09,2.585,8.089,7.9A6.007,6.007,0,0,1,708.155,707a4.811,4.811,0,0,1-3.6-3.033s-13.517.845-13.095-2.957S699.06,689.6,699.06,689.6Z" transform="translate(-447.021 -440.261)" fill="#915766"/>
    <path id="Path_1049" data-name="Path 1049" d="M591.055,629.165s5.491,8.448,0,13.94a22.273,22.273,0,0,1-11.405,6.336s2.112,3.8-5.914,3.379-10.56-2.957-8.026-6.759,8.871-8.026,7.6-10.983-2.957-9.293-.422-13.095a13.975,13.975,0,0,1-2.661-2.932c-2.243-3.413,2.247-7.257,5.352-4.6l2.378,2.04s7.181-5.914,22.811-2.957c0,0,6.336-.422,7.6-5.069,0,0-6.759-14.785,10.983-25.768a21.238,21.238,0,0,1,10.138-1.69c5.914.422,12.25.845,16.474,10.138,0,0,3.451,6.336,7.506,8.778a8.934,8.934,0,0,1,4.11,6.226c1.221,7.278-.325,18.853-25.134,12.875,0,0-1.9,15.418-13.729,21.755,0,0-.845,4.224,0,5.491s5.069,7.181-1.69,6.759c-3.379-.207-5.986-.211-7.781-.156a4.224,4.224,0,0,1-3.7-6.488c.021-.038.046-.076.072-.114a12.725,12.725,0,0,0-2.957-10.56l-.845-5.069Z" transform="translate(-373.852 -377.503)" fill="#9c5e6d"/>
    <ellipse id="Ellipse_173" data-name="Ellipse 173" cx="5.491" cy="2.112" rx="5.491" ry="2.112" transform="translate(271.26 225.054)" fill="#915766"/>
    <path id="Path_1050" data-name="Path 1050" d="M406.782,650.582a20.7,20.7,0,0,1-3.933,1.69c-2.442.667-5.069.422-7.523.993a3.1,3.1,0,0,0-2.429,1.69,3.449,3.449,0,0,0,.266,2.226c2.725,7.992,4.368,16.474,8.719,23.727a35.876,35.876,0,0,0,6.733,8.17,6.43,6.43,0,0,0,3.43,1.905,3.489,3.489,0,0,0,3.548-4.9c-.393-.845-1.115-1.538-1.584-2.366a8.965,8.965,0,0,1-.874-3.379c-.422-3.417-.845-6.991.342-10.231a34.322,34.322,0,0,1,3.464-5.986c1.212-1.964,2.226-4.224,1.956-6.518a11.348,11.348,0,0,0-1.757-4.355c-.807-1.356-2.408-5.01-4.034-5.462S408.256,649.826,406.782,650.582Z" transform="translate(-274.528 -416.079)" fill="#fff"/>
    <path id="Path_1051" data-name="Path 1051" d="M526.708,706.861a6.82,6.82,0,0,1-.317,2.285c-.511,1.343-1.774,2.264-2.425,3.544-.908,1.778-.494,3.933.106,5.838a5.983,5.983,0,0,0,1.88,3.177,6.245,6.245,0,0,0,2.864.917c8.681,1.2,17.492.511,26.249.765a8.945,8.945,0,0,0,4.68-.68c1.394-.781,2.256-2.741,1.305-4.026-.845-1.153-2.535-1.141-3.962-1.212a16.293,16.293,0,0,1-10.062-4.144,7.182,7.182,0,0,1-1.411-1.622,9.749,9.749,0,0,1-.739-1.69,75.709,75.709,0,0,0-4.372-9.678,5.1,5.1,0,0,0-1.88-2.252,4.985,4.985,0,0,0-2.036-.443c-2.184-.144-7.836-.887-9.521.811C525.509,700.014,526.742,704.872,526.708,706.861Z" transform="translate(-349.982 -444.74)" fill="#fff"/>
    <circle id="Ellipse_174" data-name="Ellipse 174" cx="13.94" cy="13.94" r="13.94" transform="translate(176.215 40.457)" fill="#fbbebe"/>
    <path id="Path_1052" data-name="Path 1052" d="M527.319,246.513A10.505,10.505,0,0,1,523.04,252l19.279,3.933a20.348,20.348,0,0,1-.27-8.6,5.017,5.017,0,0,0,.114-2.112c-.363-1.4-1.939-2.074-3.346-2.4-3.519-.8-6.632-1.233-9.9-2.784C527.919,241.761,528.058,244.54,527.319,246.513Z" transform="translate(-349.752 -180.61)" fill="#fbbebe"/>
    <path id="Path_1053" data-name="Path 1053" d="M498.774,254.17a15.089,15.089,0,0,1,13.141.346,29.747,29.747,0,0,1,6.531,5.208c1.854,1.787,3.831,3.836,3.962,6.408a17.845,17.845,0,0,1-.524,3.7,12.4,12.4,0,0,0,6.632,12.732c1.529,2.535,1.846,5.643,1.871,8.622.089,11.274-3.468,22.688-.929,33.675.6,2.577,1.521,5.069,2.036,7.671.667,3.379.634,6.822.984,10.235a45.791,45.791,0,0,0,2.458,10.822,4.494,4.494,0,0,1-4.157,1.736,11.784,11.784,0,0,1-4.448-1.508c-6.792-3.477-13.019-8.06-20.056-11.017-4.647-1.956-9.614-3.172-14.13-5.432s-8.719-5.842-10.1-10.7a25.216,25.216,0,0,1-.667-6.5c-.135-9.2-.262-18.493,1.74-27.457,1.761-7.916,5.166-15.486,5.914-23.562.241-2.632.245-5.445,1.715-7.637C492.818,258.394,497.3,257.6,498.774,254.17Z" transform="translate(-325.651 -187.992)" fill="#3f3d56"/>
    <path id="Path_1054" data-name="Path 1054" d="M523.51,199.518a3.606,3.606,0,0,1,3.721-.9c1.314.317,2.534.993,3.844,1.267a2.264,2.264,0,0,0,1.8-.253,2.629,2.629,0,0,0,.777-1.719,32.792,32.792,0,0,0,.321-8.36,2.5,2.5,0,0,1,.076-1.174c.329-.79,1.331-.98,2.146-1.233a6.4,6.4,0,0,0,4.338-6.556,2.589,2.589,0,0,0-.8-1.8,3.3,3.3,0,0,0-2.087-.5q-5.618-.042-11.241,0a8.032,8.032,0,0,0-4.047.739,19.594,19.594,0,0,0-2.349,1.977c-2.078,1.69-4.9,2.019-7.426,2.881a7.367,7.367,0,0,0-3.257,1.943,3.426,3.426,0,0,0-.718,3.557,12.964,12.964,0,0,0,.908,1.4c1.5,2.387.5,5.491.722,8.292.279,3.506,5.466,9.2,8.985,10.024C524.912,210.429,521.63,201.811,523.51,199.518Z" transform="translate(-341.283 -144.927)" fill="#3f3d56"/>
    <path id="Path_1055" data-name="Path 1055" d="M521.894,559.108a41.624,41.624,0,0,1,.7,7.713c-.173,3.6-1.47,7.08-1.711,10.679-.182,2.691.237,5.411-.139,8.081-.241,1.69-.794,3.354-1.141,5.069a20.876,20.876,0,0,0,3.354,15.976,2.605,2.605,0,0,0,.972.946,2.777,2.777,0,0,0,1.208.161,86.821,86.821,0,0,0,12.111-1.107.845.845,0,0,0,.946-.8c.743-3.8-.951-7.646-1.381-11.511-.46-4.127.528-8.263,1.512-12.3a54.237,54.237,0,0,1,1.669-5.88c.473-1.3,1.048-2.56,1.462-3.882a29.575,29.575,0,0,0,1.06-6.336q.422-5.069.452-10.2a43.985,43.985,0,0,0-.8-9.627,50.972,50.972,0,0,0-4.592-11.405,7.4,7.4,0,0,0-2.7,1.267,60.724,60.724,0,0,1-7.388,4.081c-1.715.794-5.069,1.36-6.15,3.025s-.38,4.976-.3,6.784Q521.252,554.494,521.894,559.108Z" transform="translate(-347.537 -350.782)" fill="#3f3d56"/>
    <path id="Path_1056" data-name="Path 1056" d="M521.894,559.108a41.624,41.624,0,0,1,.7,7.713c-.173,3.6-1.47,7.08-1.711,10.679-.182,2.691.237,5.411-.139,8.081-.241,1.69-.794,3.354-1.141,5.069a20.876,20.876,0,0,0,3.354,15.976,2.605,2.605,0,0,0,.972.946,2.777,2.777,0,0,0,1.208.161,86.821,86.821,0,0,0,12.111-1.107.845.845,0,0,0,.946-.8c.743-3.8-.951-7.646-1.381-11.511-.46-4.127.528-8.263,1.512-12.3a54.237,54.237,0,0,1,1.669-5.88c.473-1.3,1.048-2.56,1.462-3.882a29.575,29.575,0,0,0,1.06-6.336q.422-5.069.452-10.2a43.985,43.985,0,0,0-.8-9.627,50.972,50.972,0,0,0-4.592-11.405,7.4,7.4,0,0,0-2.7,1.267,60.724,60.724,0,0,1-7.388,4.081c-1.715.794-5.069,1.36-6.15,3.025s-.38,4.976-.3,6.784Q521.252,554.494,521.894,559.108Z" transform="translate(-347.537 -350.782)" opacity="0.1"/>
    <path id="Path_1057" data-name="Path 1057" d="M455.943,463.06c-1.85,4.985.87,10.37,3.236,15.131,5.8,11.731,9.859,24.251,13.872,36.717a4.493,4.493,0,0,1,.266,2.872,3.734,3.734,0,0,1-1.356,1.609c-2.775,2.112-6.307,2.86-9.61,3.962a43.532,43.532,0,0,0-9.116,4.271c-2.391,1.483-4.647,3.2-6.873,4.909l-7.126,5.441a4.688,4.688,0,0,0-1.191,1.153c-.689,1.077-.422,2.484-.063,3.717a62.935,62.935,0,0,0,3.489,9.521,3.321,3.321,0,0,0,1.267,1.66c1.115.6,2.475-.194,3.324-1.132s1.584-2.112,2.779-2.5,2.513.085,3.76-.089c2.023-.287,3.379-2.146,4.82-3.574,5.948-5.838,15.879-5.415,22.426-10.56a30.093,30.093,0,0,1,2.995-2.344c1.09-.655,2.361-1.01,3.51-1.588,3.489-1.757,5.686-5.394,6.86-9.12s1.512-7.663,2.357-11.481a53.543,53.543,0,0,0,1.2-5.914,31.97,31.97,0,0,0-.118-5.614l-2.361-29.21c-.194-2.378-.384-4.756-.76-7.114-7.012.249-14.02.532-21.036.617C466.925,464.433,461.223,464.826,455.943,463.06Z" transform="translate(-300.413 -309.416)" fill="#3f3d56"/>
    <path id="Path_1058" data-name="Path 1058" d="M473.933,463.556c.95,1.533,3.265,1.5,4.858.663s2.834-2.251,4.431-3.079c2.15-1.119,4.689-1.077,7.109-1.01a46.738,46.738,0,0,1,11.405,1.267c3.8,1.086,7.523,3.177,11.469,2.758a2.367,2.367,0,0,0,1.808-.845,2.729,2.729,0,0,0,.3-1.364l.127-3.447a3.117,3.117,0,0,0-.275-1.74,2.911,2.911,0,0,0-1.305-1c-5.614-2.716-12.009-3.223-18.24-3.438q-4.752-.156-9.509-.131c-2.687,0-5.914-.372-8.533.346C474.059,453.5,472.15,460.7,473.933,463.556Z" transform="translate(-320.997 -303.081)" fill="#3f3d56"/>
    <path id="Path_1059" data-name="Path 1059" d="M508.1,258.788c-7.354-.063-14.016-4.917-21.366-5.035a5.6,5.6,0,0,0-2.6.448,9.768,9.768,0,0,0-2.475,2.357c-2.171,2.353-5.322,3.612-7.553,5.914a8.711,8.711,0,0,0-2.433,8.25c.828,2.889,3.945,5.1,6.869,4.41a17.7,17.7,0,0,1,6.9-9.369,34.634,34.634,0,0,1,5.39-2.83c3.308-1.5,7-3.025,10.451-1.9a14.706,14.706,0,0,1,3.565,1.943l5.749,3.861A39.953,39.953,0,0,0,508.1,258.788Z" transform="translate(-319.926 -188.517)" fill="#59d083"/>
    <path id="Path_1060" data-name="Path 1060" d="M472.288,280.753c-.976,1.217.422,2.982.215,4.528-.144,1.026-.988,1.812-1.343,2.788a15.314,15.314,0,0,0-.308,3.193,13.839,13.839,0,0,1-.612,2.277,40.908,40.908,0,0,0-1.293,6.759l-1.288,9.614a36.047,36.047,0,0,0-.422,4.364,12.4,12.4,0,0,1-.22,3.265,22.456,22.456,0,0,1-1.339,2.957,3.47,3.47,0,0,0-.046,3.139,5.482,5.482,0,0,0-1.149,6.847,3.751,3.751,0,0,1,.591,1.09,2.779,2.779,0,0,1-.262,1.605l-1.3,3.468c-.334.887-.422,2.239.49,2.442a8.148,8.148,0,0,0-1.757,2.775,3.3,3.3,0,0,0,.469,3.13,4.119,4.119,0,0,1,.815.988,2.609,2.609,0,0,1-.1,1.559,5.724,5.724,0,0,0,.71,4.49,4.021,4.021,0,0,0,4.051,1.736c2.6-.587,4.942-1.512,7.566-1.031a134.628,134.628,0,0,1,16.8,3.827c6.243,1.994,12.292,4.917,18.823,5.529a1.808,1.808,0,0,0,1.267-.194,1.9,1.9,0,0,0,.583-1.2l2.023-9.458a97.065,97.065,0,0,0,1.854-10.6c.232-2.3.3-4.613.363-6.923l.52-18.392a18.318,18.318,0,0,0-1.048-8l-2.991-9.547c-1.69-5.449-5.622-10.282-7.016-15.82-.883-3.506-1.533-7.266-3.9-10-3.379-3.895-9.209-4.5-14.316-3.831a17.382,17.382,0,0,0-6.632,2.023,21.65,21.65,0,0,0-5.656,5.694C475.055,277.61,473.674,279.021,472.288,280.753Z" transform="translate(-314.52 -196.698)" fill="#59d083"/>
    <path id="Path_1061" data-name="Path 1061" d="M513.888,410.076c.422,1.816,1.305,3.489,1.846,5.272.9,2.986.845,6.205,1.732,9.192.38,1.267.934,2.458,1.2,3.738.638,2.991-.291,6.079-1.445,8.909s-2.556,5.618-2.932,8.651c-.262,2.133.118,4.545,1.761,5.914,1.711,1.44,4.19,1.343,6.417,1.149a6.817,6.817,0,0,0,2.332-.482c1.69-.807,2.416-2.822,2.818-4.647,1.331-6.167.95-12.559.562-18.857l-1.005-16.47A39.409,39.409,0,0,0,525.8,403c-.355-1.107-.972-3.346-1.985-4.055s-3.861-.731-5.1-.79C512.879,397.881,512.947,406,513.888,410.076Z" transform="translate(-344.191 -271.922)" fill="#fbbebe"/>
    <path id="Path_1062" data-name="Path 1062" d="M513.873,281.953a3.994,3.994,0,0,0-3.831.342,11.933,11.933,0,0,0-2.877,2.788c-2.568,3.134-5.284,6.733-4.9,10.767a27.132,27.132,0,0,0,1.115,4.414c1.719,6.433-.182,13.243.034,19.9a62.473,62.473,0,0,0,1.8,11.405c.169.765.422,1.652,1.183,1.914a2.532,2.532,0,0,0,1.69-.266,13.653,13.653,0,0,1,12.491,1.571c1.381-.735.845-3.058.553-4.592-.917-4.549.329-9.243,1.842-13.631s3.324-8.769,3.578-13.4c.283-5.255-1.457-10.379-3.177-15.351a6.466,6.466,0,0,0-1.656-2.957,6.59,6.59,0,0,0-2.5-1.141A31.633,31.633,0,0,1,513.873,281.953Z" transform="translate(-337.73 -204.61)" fill="#3f3d56"/>
    <path id="Path_1063" data-name="Path 1063" d="M667.47,647.6s12.673,13.94,24.078,10.138" transform="translate(-433.172 -416.003)" fill="none" stroke="#3f3d56" stroke-miterlimit="10" stroke-width="1"/>
    <path id="Path_1064" data-name="Path 1064" d="M677.429,601.884c0,7.054-3.612,7.468-9.64,12.77s-9.64-5.715-9.64-12.77,4.317-12.774,9.64-12.774S677.429,594.83,677.429,601.884Z" transform="translate(-427.789 -382.22)" fill="#915766"/>
    <path id="Path_1065" data-name="Path 1065" d="M183.781,615.721a10.43,10.43,0,0,0,1.381-5.3c0-4.786-2.957-8.664-6.624-8.664s-6.619,3.878-6.619,8.664a10.43,10.43,0,0,0,1.381,5.3,10.848,10.848,0,0,0,0,10.594,10.848,10.848,0,0,0,0,10.594,10.848,10.848,0,0,0,0,10.594,10.442,10.442,0,0,0-1.381,5.3c0,4.786,2.957,8.668,6.619,8.668s6.624-3.882,6.624-8.668a10.442,10.442,0,0,0-1.381-5.3,10.848,10.848,0,0,0,0-10.582,10.848,10.848,0,0,0,0-10.594,10.848,10.848,0,0,0,0-10.594Z" transform="translate(-146.951 -389.526)" fill="#3f3d56"/>
    <ellipse id="Ellipse_175" data-name="Ellipse 175" cx="6.619" cy="8.668" rx="6.619" ry="8.668" transform="translate(24.952 201.639)" fill="#3f3d56"/>
    <ellipse id="Ellipse_176" data-name="Ellipse 176" cx="6.619" cy="8.668" rx="6.619" ry="8.668" transform="translate(24.952 191.045)" fill="#3f3d56"/>
    <path id="Path_1066" data-name="Path 1066" d="M119.6,330.284a32.254,32.254,0,0,1-2.467-3.629l17.4-2.86-18.819.139a31.774,31.774,0,0,1-.6-25.121l25.24,13.095-23.275-17.121a31.715,31.715,0,1,1,52.38,35.483,31.4,31.4,0,0,1,3.616,5.783l-22.583,11.76,24.078-8.081a31.74,31.74,0,0,1-5.115,29.785,31.715,31.715,0,1,1-49.845,0,31.715,31.715,0,0,1,0-39.217Z" transform="translate(-112.81 -203.066)" fill="#57b894"/>
    <path id="Path_1067" data-name="Path 1067" d="M176.275,446.281a31.6,31.6,0,0,1-6.788,19.609,31.715,31.715,0,1,1-49.845,0C115.371,460.491,176.275,442.72,176.275,446.281Z" transform="translate(-112.833 -299.454)" opacity="0.1"/>
  </g>
</svg>
