<svg id="Group_648" data-name="Group 648" xmlns="http://www.w3.org/2000/svg" width="430.102" height="334.903" viewBox="0 0 430.102 334.903">
  <rect id="Rectangle_663" data-name="Rectangle 663" width="110" height="120" transform="translate(117 13)" fill="#f2f2f2"/>
  <rect id="Rectangle_664" data-name="Rectangle 664" width="109" height="120" transform="translate(128 1)" fill="none" stroke="#3f3d56" stroke-miterlimit="10" stroke-width="2"/>
  <rect id="Rectangle_665" data-name="Rectangle 665" width="5.905" height="5.905" transform="translate(133.358 107.56)" fill="#59d083"/>
  <rect id="Rectangle_666" data-name="Rectangle 666" width="5.905" height="5.905" transform="translate(141.887 107.56)" fill="#3f3d56"/>
  <rect id="Rectangle_667" data-name="Rectangle 667" width="5.905" height="5.905" transform="translate(150.416 107.56)" fill="#575a89"/>
  <rect id="Rectangle_668" data-name="Rectangle 668" width="22.962" height="0.931" transform="translate(199.596 110.125)" fill="#3f3d56"/>
  <rect id="Rectangle_669" data-name="Rectangle 669" width="22.962" height="0.931" transform="translate(199.596 112.917)" fill="#3f3d56"/>
  <rect id="Rectangle_670" data-name="Rectangle 670" width="22.962" height="0.931" transform="translate(199.596 115.71)" fill="#3f3d56"/>
  <path id="Path_1251" data-name="Path 1251" d="M526,119.925v9.715a29.144,29.144,0,0,1,20.608,49.753l6.869,6.869A38.859,38.859,0,0,0,526,119.925Z" transform="translate(-343.626 -97.729)" fill="#3f3d56"/>
  <path id="Path_1252" data-name="Path 1252" d="M523.743,261.463l-6.869-6.869a29.137,29.137,0,0,1-38.241,2.593l-5.88,7.737a38.858,38.858,0,0,0,50.99-3.46Z" transform="translate(-313.892 -172.93)" fill="#575a89"/>
  <path id="Path_1253" data-name="Path 1253" d="M447.712,158.784a29.144,29.144,0,0,1,29.144-29.144v-9.715a38.859,38.859,0,0,0-23.513,69.8l5.88-7.737A29.094,29.094,0,0,1,447.712,158.784Z" transform="translate(-294.482 -97.729)" fill="#59d083"/>
  <path id="Path_1254" data-name="Path 1254" d="M663.133,469.132A22.133,22.133,0,0,1,641,447V421.22a93.4,93.4,0,0,1,93.395-93.395h0A93.4,93.4,0,0,1,827.79,421.22v20.266a27.646,27.646,0,0,1-27.646,27.646" transform="translate(-407.844 -213.824)" fill="#f2f2f2"/>
  <path id="Path_1255" data-name="Path 1255" d="M820.584,489.692v-.883a27.235,27.235,0,0,0,27.206-27.2V408.661a92.953,92.953,0,1,0-185.906,0v58.456a21.716,21.716,0,0,0,21.691,21.691v.883A22.6,22.6,0,0,1,661,467.117V408.661a93.836,93.836,0,1,1,187.673,0V461.6A28.12,28.12,0,0,1,820.584,489.692Z" transform="translate(-419.013 -206.564)" fill="#3f3d56"/>
  <rect id="Rectangle_671" data-name="Rectangle 671" width="188.556" height="77.719" transform="translate(241.546 249.126)" fill="#3f3d56"/>
  <rect id="Rectangle_672" data-name="Rectangle 672" width="22.079" height="22.079" transform="translate(346.642 182.034) rotate(-35.41)" fill="#59d083"/>
  <rect id="Rectangle_673" data-name="Rectangle 673" width="22.079" height="22.079" transform="translate(348.091 177.212) rotate(-35.41)" fill="none" stroke="#3f3d56" stroke-miterlimit="10" stroke-width="2"/>
  <circle id="Ellipse_198" data-name="Ellipse 198" cx="9.273" cy="9.273" r="9.273" transform="translate(321.914 142.262)" fill="#59d083"/>
  <circle id="Ellipse_199" data-name="Ellipse 199" cx="9.273" cy="9.273" r="9.273" transform="translate(319.265 140.938)" fill="none" stroke="#3f3d56" stroke-miterlimit="10" stroke-width="2"/>
  <path id="Path_1256" data-name="Path 1256" d="M687.934,425.82l11.1,6.388,11.1,6.388-11.082,6.418-11.081,6.418-.017-12.806Z" transform="translate(-384.154 -237.227)" fill="#59d083"/>
  <path id="Path_1257" data-name="Path 1257" d="M683.9,436.8l11.1,6.389,11.1,6.388L695.01,456l-11.082,6.417-.017-12.806Z" transform="translate(-381.899 -243.36)" fill="none" stroke="#3f3d56" stroke-miterlimit="10" stroke-width="2"/>
  <path id="Path_1258" data-name="Path 1258" d="M695.136,413.245a38.789,38.789,0,0,1,24.533-26.154c1.6-.551.914-3.111-.7-2.555a41.545,41.545,0,0,0-26.384,28,1.326,1.326,0,0,0,2.555.7Z" transform="translate(-436.618 -245.449)" fill="#fff"/>
  <path id="Path_1259" data-name="Path 1259" d="M685.437,479.066a1.326,1.326,0,0,0,0-2.649A1.326,1.326,0,0,0,685.437,479.066Z" transform="translate(-431.944 -296.8)" fill="#fff"/>
  <rect id="Rectangle_674" data-name="Rectangle 674" width="43.275" height="52.99" transform="translate(102.201 141.818) rotate(17.605)" fill="#f2f2f2"/>
  <rect id="Rectangle_675" data-name="Rectangle 675" width="16.992" height="0.94" transform="translate(108.25 153.417) rotate(17.605)" fill="#3f3d56"/>
  <rect id="Rectangle_676" data-name="Rectangle 676" width="24.729" height="0.94" transform="translate(107.725 155.071) rotate(17.605)" fill="#3f3d56"/>
  <rect id="Rectangle_677" data-name="Rectangle 677" width="16.992" height="0.94" transform="translate(106.456 159.068) rotate(17.605)" fill="#3f3d56"/>
  <rect id="Rectangle_678" data-name="Rectangle 678" width="16.992" height="0.94" transform="translate(104.357 165.685) rotate(17.605)" fill="#3f3d56"/>
  <rect id="Rectangle_679" data-name="Rectangle 679" width="24.729" height="0.94" transform="translate(105.931 160.722) rotate(17.605)" fill="#3f3d56"/>
  <rect id="Rectangle_680" data-name="Rectangle 680" width="24.729" height="0.94" transform="translate(105.406 162.376) rotate(17.605)" fill="#3f3d56"/>
  <rect id="Rectangle_681" data-name="Rectangle 681" width="24.729" height="0.94" transform="translate(104.882 164.031) rotate(17.605)" fill="#3f3d56"/>
  <rect id="Rectangle_682" data-name="Rectangle 682" width="8.894" height="2.458" transform="translate(103.089 169.682) rotate(17.605)" fill="#59d083"/>
  <ellipse id="Ellipse_200" data-name="Ellipse 200" cx="57.847" cy="7.507" rx="57.847" ry="7.507" transform="translate(0 319.889)" fill="#3f3d56"/>
  <path id="Path_1260" data-name="Path 1260" d="M179.693,340.451l-1.922,4.564,2.162,29.544s-1.2,1.681,0,2.882.961,1.681.961,1.681-1.922,0-.961,1.441a4.607,4.607,0,0,1,.961,2.162l-.48,1.441a4.5,4.5,0,0,1,.961,2.162c0,.961,6.245,30.5,6.245,30.5l6-11.77-3.363-46.838Z" transform="translate(-149.17 -220.874)" fill="#59d083"/>
  <path id="Path_1261" data-name="Path 1261" d="M320.812,510.564s13.115-.53,17.3,4.1-16.428,1.279-17.593-.024S320.812,510.564,320.812,510.564Z" transform="translate(-228.628 -315.858)" fill="#ffb9b9"/>
  <path id="Path_1262" data-name="Path 1262" d="M170,774.515l-2.642,8.647s-3.843,8.407,1.441,9.608,10.328-3.363,10.328-3.363v-5.765l1.922-9.127Z" transform="translate(-142.603 -463.263)" fill="#2f2e41"/>
  <path id="Path_1263" data-name="Path 1263" d="M272.617,774.515s-1.2,16.333,1.441,17.294,12.01,1.2,12.25,0,3.123-2.4.961-4.083-3.6-11.529-3.6-11.529Z" transform="translate(-201.981 -463.263)" fill="#2f2e41"/>
  <path id="Path_1264" data-name="Path 1264" d="M190.821,423.359v7.206s-7.926,16.573-10.809,42.755-12.73,105.926-10.328,107.367,28.343,2.4,29.064.48,1.441-58.127,1.441-58.127l8.887-39.632s1.681,14.172,3.123,16.573-2.4,80.465,0,81.666,34.828,3.363,34.348-.48-11.289-108.088-11.289-108.088-5.524-49.24-7.206-49.72S211,422.4,208.6,422.878,190.821,423.359,190.821,423.359Z" transform="translate(-144.444 -266.792)" fill="#2f2e41"/>
  <circle id="Ellipse_201" data-name="Ellipse 201" cx="13.691" cy="13.691" r="13.691" transform="translate(50.94 69.616)" fill="#ffb9b9"/>
  <path id="Path_1265" data-name="Path 1265" d="M236.73,277.411s-6.966,10.809-5.284,13.691-17.774-2.882-17.774-2.882,11.77-14.412,11.529-16.093S236.73,277.411,236.73,277.411Z" transform="translate(-169.217 -182.575)" fill="#ffb9b9"/>
  <path id="Path_1266" data-name="Path 1266" d="M231.095,306.289s-12.73-4.083-14.412-5.765a23.1,23.1,0,0,1-2.882-3.6s-15.372-2.162-15.853-2.162-4.083,4.324-5.044,5.284-13.211,7.446-13.211,9.127-1.922,10.328-1.922,10.328,4.323,8.887,6.966,10.809,3.363,1.441,3.6,4.564,3.6,8.167,3.6,8.167,2.162,5.524,1.681,7.206-2.642,3.123,2.4,2.642,30.024.961,30.024-1.681-4.8-27.863-4.8-27.863Z" transform="translate(-149.169 -195.36)" fill="#59d083"/>
  <path id="Path_1267" data-name="Path 1267" d="M279.686,321.35l4.564-.48s1.681.961,1.922,10.328.24,31.946,1.922,33.867,8.647,31.706,8.647,31.706,1.922.48,1.922,2.162,2.162,3.123,1.2,5.044.961,1.441-.24,2.642-6.966,3.6-7.206,2.162.721-1.681-.24-2.162-.961-.721-1.2-2.4-2.4-3.363-2.162-4.083-10.569-21.617-10.569-22.338-.721-3.363-1.681-3.843-2.4-.961-1.681-2.162-1.922-37.23-1.922-37.23Z" transform="translate(-202.325 -209.94)" fill="#59d083"/>
  <path id="Path_1268" data-name="Path 1268" d="M230.364,231.071c-4.2-4.557-10.792-6.976-16.838-5.621s-11.138,6.724-11.611,12.9a20.653,20.653,0,0,1-.343,3.779c-.55,2.06-2.187,3.692-2.764,5.745-.386,1.375-.272,2.855-.681,4.223-.757,2.528-3.1,4.176-4.885,6.118a6.191,6.191,0,0,0-1.564,2.559,9.649,9.649,0,0,0-.118,2.6,18.13,18.13,0,0,1-4.861,12.648,31.2,31.2,0,0,1,6.049-3.517,9.4,9.4,0,0,0,2.58,9.708,8.208,8.208,0,0,0,9.837.637,15.013,15.013,0,0,0,3.894-4.907l4.03-6.876a10.586,10.586,0,0,1,2.655-3.373c.926-.675,2.05-1.034,2.982-1.7,2.35-1.682,2.981-4.973,2.544-7.829s-1.722-5.509-2.459-8.3c-.583-2.21-.766-4.743.545-6.615,1.74-2.485,5.316-2.8,7.681-4.7a10.67,10.67,0,0,0,1.925-2.483c.589-.827.739-.531,1.651-.568C233.117,235.393,231.292,232.078,230.364,231.071Z" transform="translate(-154.155 -156.446)" fill="#2f2e41"/>
  <ellipse id="Ellipse_202" data-name="Ellipse 202" cx="1.104" cy="2.649" rx="1.104" ry="2.649" transform="translate(63.146 85.409)" fill="#ffb9b9"/>
  <circle id="Ellipse_203" data-name="Ellipse 203" cx="14.131" cy="14.131" r="14.131" transform="translate(171.776 250.892)" fill="#f2f2f2"/>
  <circle id="Ellipse_204" data-name="Ellipse 204" cx="14.131" cy="14.131" r="14.131" transform="translate(30.469 8.021)" fill="#f2f2f2"/>
  <circle id="Ellipse_205" data-name="Ellipse 205" cx="14.131" cy="14.131" r="14.131" transform="translate(326.33 41.14)" fill="#f2f2f2"/>
</svg>
