<svg xmlns="http://www.w3.org/2000/svg" width="522" height="522" viewBox="0 0 55 55">
  <g id="Group_1397" data-name="Group 1397" transform="translate(-673 -848)">
    <ellipse id="Ellipse_212" data-name="Ellipse 212" cx="27.5" cy="27" rx="27.5" ry="27" transform="translate(673 848)" fill="#effaf2"/>
    <g id="Group_1396" data-name="Group 1396">
      <path id="Path_1441" data-name="Path 1441" d="M121.522,201.225A1.225,1.225,0,0,0,120.3,200H107.684a1.225,1.225,0,1,0,0,2.449H120.3A1.225,1.225,0,0,0,121.522,201.225Z" transform="translate(585.067 671.301)" fill="#59d083"/>
      <path id="Path_1442" data-name="Path 1442" d="M107.684,280a1.225,1.225,0,1,0,0,2.449h7.661a1.225,1.225,0,0,0,0-2.449Z" transform="translate(585.067 596.2)" fill="#59d083"/>
      <path id="Path_1443" data-name="Path 1443" d="M35.564,28.9h-4.1a2.452,2.452,0,0,1-2.449-2.449V4.9a2.452,2.452,0,0,1,2.449-2.449H46.524A2.452,2.452,0,0,1,48.973,4.9V12.43a1.225,1.225,0,0,0,2.449,0V4.9a4.9,4.9,0,0,0-4.9-4.9H31.468a4.9,4.9,0,0,0-4.9,4.9V26.451a4.9,4.9,0,0,0,4.9,4.9h4.1a1.225,1.225,0,1,0,0-2.449Z" transform="translate(660.065 859.055)" fill="#59d083"/>
      <path id="Path_1444" data-name="Path 1444" d="M257.2,273.1a3.678,3.678,0,0,0-5.194,0l-6.723,6.708a1.224,1.224,0,0,0-.307.511l-1.464,4.82a1.225,1.225,0,0,0,1.5,1.536l4.943-1.369a1.224,1.224,0,0,0,.538-.313l6.709-6.7A3.678,3.678,0,0,0,257.2,273.1Zm-8.211,9.931-2.487.689.728-2.4,4.536-4.526,1.732,1.732Zm6.48-6.468-.237.237-1.732-1.732.236-.236a1.225,1.225,0,0,1,1.733,1.731Z" transform="translate(456.458 603.687)" fill="#59d083"/>
      <path id="Path_1445" data-name="Path 1445" d="M120.3,120H107.684a1.225,1.225,0,1,0,0,2.449H120.3a1.225,1.225,0,1,0,0-2.449Z" transform="translate(585.067 746.403)" fill="#59d083"/>
    </g>
  </g>
</svg>
