<svg xmlns="http://www.w3.org/2000/svg" xmlns:xlink="http://www.w3.org/1999/xlink" width="158" height="158" viewBox="0 0 158 158">
  <defs>
    <filter id="Rectangle_496" x="0" y="0" width="158" height="158" filterUnits="userSpaceOnUse">
      <feOffset dy="3" input="SourceAlpha"/>
      <feGaussianBlur stdDeviation="10" result="blur"/>
      <feFlood flood-opacity="0.09"/>
      <feComposite operator="in" in2="blur"/>
      <feComposite in="SourceGraphic"/>
    </filter>
  </defs>
  <g id="Group_1283" data-name="Group 1283" transform="translate(-1110 -4323)">
    <g transform="matrix(1, 0, 0, 1, 1110, 4323)" filter="url(#Rectangle_496)">
      <rect id="Rectangle_496-2" data-name="Rectangle 496" width="98" height="98" rx="49" transform="translate(30 27)" fill="#fff"/>
    </g>
    <g id="Rectangle_498" data-name="Rectangle 498" transform="translate(1149 4359)" fill="none" stroke="#59d083" stroke-width="1">
      <rect width="80" height="80" rx="40" stroke="none"/>
      <rect x="0.5" y="0.5" width="79" height="79" rx="39.5" fill="none"/>
    </g>
    <g id="mail" transform="translate(1169.49 4384.17)">
      <g id="Group_4" data-name="Group 4" transform="translate(1.981 0)">
        <g id="Group_3" data-name="Group 3" transform="translate(0 0)">
          <path id="Path_27" data-name="Path 27" d="M59.714,61H27.206a3.426,3.426,0,0,0-1.485.347L43.383,79.009l3.959-3.8h0L61.2,61.348A3.426,3.426,0,0,0,59.714,61Z" transform="translate(-25.721 -61)" fill="#59d083"/>
        </g>
      </g>
      <g id="Group_6" data-name="Group 6" transform="translate(26.054 1.982)">
        <g id="Group_5" data-name="Group 5" transform="translate(0 0)">
          <path id="Path_28" data-name="Path 28" d="M351.253,86.728l-13.04,13.04,13.04,13.04a3.425,3.425,0,0,0,.347-1.485V88.213A3.426,3.426,0,0,0,351.253,86.728Z" transform="translate(-338.213 -86.728)" fill="#59d083"/>
        </g>
      </g>
      <g id="Group_8" data-name="Group 8" transform="translate(0 1.981)">
        <g id="Group_7" data-name="Group 7">
          <path id="Path_29" data-name="Path 29" d="M.347,86.721A3.426,3.426,0,0,0,0,88.206v23.11A3.427,3.427,0,0,0,.347,112.8l13.04-13.04Z" transform="translate(0 -86.721)" fill="#59d083"/>
        </g>
      </g>
      <g id="Group_10" data-name="Group 10" transform="translate(1.981 16.655)">
        <g id="Group_9" data-name="Group 9">
          <path id="Path_30" data-name="Path 30" d="M48.153,277.211l-3.959,3.8a1.155,1.155,0,0,1-1.634,0l-3.805-3.805-13.041,13.04a3.426,3.426,0,0,0,1.486.348H59.708a3.426,3.426,0,0,0,1.485-.347Z" transform="translate(-25.714 -277.211)" fill="#59d083"/>
        </g>
      </g>
    </g>
  </g>
</svg>
