<svg xmlns="http://www.w3.org/2000/svg" width="129" height="129" viewBox="0 0 129 129">
  <g id="Group_1290" data-name="Group 1290" transform="translate(-542 -2479)">
    <circle id="Ellipse_212" data-name="Ellipse 212" cx="64.5" cy="64.5" r="64.5" transform="translate(542 2479)" fill="#effaf2"/>
    <g id="_999786" data-name="999786" transform="translate(568 2480.175)">
      <g id="Group_945" data-name="Group 945" transform="translate(0 37.825)">
        <path id="Path_1457" data-name="Path 1457" d="M69.03,79.96a6.073,6.073,0,0,0-4.042-5.716V53.333l4.173-1.668L34.536,37.825,0,51.665l16.347,6.551v9.618c0,2.965,2.079,5.637,5.853,7.524a28.215,28.215,0,0,0,12.337,2.581,28.215,28.215,0,0,0,12.337-2.581c3.774-1.887,5.853-4.559,5.853-7.524v-9.6l8.219-3.285v19.3a6.062,6.062,0,0,0-.586,11.189L57.007,95.489l3.835,1.278,2.125-6.374,2.125,6.374,3.835-1.278L65.574,85.433A6.071,6.071,0,0,0,69.03,79.96ZM48.684,67.833c0,2.862-6.05,6.063-14.148,6.063s-14.148-3.2-14.148-6.063v-8L34.536,65.5l14.149-5.655v7.984ZM34.538,61.151,10.867,51.665l23.671-9.486L58.27,51.665Zm28.429,20.83a2.021,2.021,0,1,1,2.021-2.021A2.023,2.023,0,0,1,62.967,81.981Z" transform="translate(0 -37.825)" fill="#59d083"/>
      </g>
    </g>
  </g>
</svg>
