<svg xmlns="http://www.w3.org/2000/svg" width="129" height="129" viewBox="0 0 129 129">
  <g id="Group_1296" data-name="Group 1296" transform="translate(-542 -2868)">
    <circle id="Ellipse_212" data-name="Ellipse 212" cx="64.5" cy="64.5" r="64.5" transform="translate(542 2868)" fill="#effaf2"/>
    <g id="_1384286" data-name="1384286" transform="translate(579 2904)">
      <path id="Path_1477" data-name="Path 1477" d="M11.989,208V196.485a8.7,8.7,0,0,1,.342-2.415H4.567A4.573,4.573,0,0,0,0,198.637V207.8a4.589,4.589,0,0,0,2.333,3.978v13.316A1.762,1.762,0,0,0,4.1,226.856H14.921v-12.31A8.845,8.845,0,0,1,11.989,208Zm0,0" transform="translate(0 -171.225)" fill="#59d083"/>
      <path id="Path_1478" data-name="Path 1478" d="M29.1,72.874a6.9,6.9,0,1,0-6.9-6.9A6.912,6.912,0,0,0,29.1,72.874Zm0,0" transform="translate(-19.586 -52.113)" fill="#59d083"/>
      <path id="Path_1479" data-name="Path 1479" d="M149.52,169.668H137.072a5.294,5.294,0,0,0-5.287,5.287v11.514a5.308,5.308,0,0,0,2.931,4.729V208.2a1.763,1.763,0,0,0,1.763,1.763h13.634a1.763,1.763,0,0,0,1.763-1.763V191.2a5.31,5.31,0,0,0,2.931-4.729V174.955a5.295,5.295,0,0,0-5.287-5.287Zm0,0" transform="translate(-116.271 -149.695)" fill="#59d083"/>
      <path id="Path_1480" data-name="Path 1480" d="M167.908,16.449a8.224,8.224,0,1,0-8.224-8.224A8.233,8.233,0,0,0,167.908,16.449Zm0,0" transform="translate(-140.886)" fill="#59d083"/>
      <path id="Path_1481" data-name="Path 1481" d="M346.212,195.409a4.553,4.553,0,0,0-3.228-1.339h-8a8.722,8.722,0,0,1,.342,2.415V208a8.846,8.846,0,0,1-2.931,6.547v12.3a1.8,1.8,0,0,0,.213.013h10.849a1.763,1.763,0,0,0,1.763-1.763V211.777a4.589,4.589,0,0,0,2.333-3.978v-9.162a4.554,4.554,0,0,0-1.34-3.228Zm0,0" transform="translate(-293.266 -171.224)" fill="#59d083"/>
      <path id="Path_1482" data-name="Path 1482" d="M328.518,72.874a6.9,6.9,0,1,0-6.9-6.9A6.912,6.912,0,0,0,328.518,72.874Zm0,0" transform="translate(-283.753 -52.113)" fill="#59d083"/>
    </g>
  </g>
</svg>
