<svg xmlns="http://www.w3.org/2000/svg" width="129" height="129" viewBox="0 0 129 129">
  <g id="Group_1286" data-name="Group 1286" transform="translate(-896 -2090)">
    <circle id="Ellipse_212" data-name="Ellipse 212" cx="64.5" cy="64.5" r="64.5" transform="translate(896 2090)" fill="#effaf2"/>
    <g id="_992686" data-name="992686" transform="translate(929.936 2123)">
      <g id="Group_928" data-name="Group 928" transform="translate(0.064 0)">
        <g id="Group_927" data-name="Group 927" transform="translate(0 0)">
          <path id="Path_1446" data-name="Path 1446" d="M47.888,5.151a30.659,30.659,0,0,0-21.9-4.76,2.634,2.634,0,0,0-.4.038A30.774,30.774,0,0,0,.524,36.012,31.494,31.494,0,0,0,1.493,40,23.025,23.025,0,0,1,.319,56.618a2.563,2.563,0,0,0,3,3.565l11.5-3.139a30.5,30.5,0,0,0,15.974,4.521,30.978,30.978,0,0,0,6.137-.616,30.776,30.776,0,0,0,10.966-55.8ZM52.206,44.98a25.64,25.64,0,0,1-35.554,7.155,2.557,2.557,0,0,0-2.1-.336L6.727,53.936a28.217,28.217,0,0,0-.336-15.456,26.125,26.125,0,0,1-.813-3.344A25.642,25.642,0,0,1,26.125,5.548a2.964,2.964,0,0,0,.367-.038A25.644,25.644,0,0,1,52.206,44.98Z" transform="translate(-0.064 0)" fill="#59d083"/>
        </g>
      </g>
      <g id="Group_930" data-name="Group 930" transform="translate(28.284 15.14)">
        <g id="Group_929" data-name="Group 929">
          <path id="Path_1447" data-name="Path 1447" d="M237.326,125.909a2.562,2.562,0,0,0-2.565,2.565v15.387a2.565,2.565,0,1,0,5.129,0V128.474A2.562,2.562,0,0,0,237.326,125.909Z" transform="translate(-234.761 -125.909)" fill="#59d083"/>
        </g>
      </g>
      <g id="Group_932" data-name="Group 932" transform="translate(28.285 41.037)">
        <g id="Group_931" data-name="Group 931">
          <path id="Path_1448" data-name="Path 1448" d="M239.683,342.876a2.391,2.391,0,0,0-.539-.846,2.445,2.445,0,0,0-.41-.308,2.78,2.78,0,0,0-.923-.385,2.562,2.562,0,0,0-2.306.693,2.394,2.394,0,0,0-.539.846,2.418,2.418,0,0,0,0,1.949,2.312,2.312,0,0,0,1.385,1.385,2.411,2.411,0,0,0,1.946,0,3,3,0,0,0,.846-.539,2.963,2.963,0,0,0,.539-.846,2.418,2.418,0,0,0,0-1.949Z" transform="translate(-234.762 -341.284)" fill="#59d083"/>
        </g>
      </g>
    </g>
  </g>
</svg>
