<svg xmlns="http://www.w3.org/2000/svg" width="129" height="129" viewBox="0 0 129 129">
  <g id="Group_1285" data-name="Group 1285" transform="translate(-542 -2090)">
    <path id="Path_1870" data-name="Path 1870" d="M64.5,0A64.5,64.5,0,1,1,0,64.5,64.5,64.5,0,0,1,64.5,0Z" transform="translate(542 2090)" fill="#effaf2" opacity="1"/>
    <g id="icon_1_" data-name="icon (1)" transform="translate(577.555 2125.843)">
      <path id="Path_578" data-name="Path 578" d="M28.557,0A28.558,28.558,0,1,0,57.116,28.557,28.559,28.559,0,0,0,28.557,0ZM34.5,44.259q-2.2.87-3.518,1.325a9.28,9.28,0,0,1-3.051.457,6.081,6.081,0,0,1-4.151-1.3,4.205,4.205,0,0,1-1.477-3.3,12,12,0,0,1,.109-1.593c.075-.542.193-1.151.355-1.835l1.84-6.5c.162-.624.3-1.216.413-1.767a7.836,7.836,0,0,0,.164-1.53,2.357,2.357,0,0,0-.513-1.733,2.911,2.911,0,0,0-1.966-.486,5.158,5.158,0,0,0-1.463.218c-.5.152-.926.29-1.279.425l.486-2q1.806-.736,3.457-1.26a10.214,10.214,0,0,1,3.119-.527,5.967,5.967,0,0,1,4.091,1.281,4.257,4.257,0,0,1,1.436,3.327q0,.424-.1,1.492a9.981,9.981,0,0,1-.367,1.961l-1.83,6.479c-.15.52-.283,1.115-.4,1.779a9.409,9.409,0,0,0-.176,1.513,2.174,2.174,0,0,0,.578,1.76,3.235,3.235,0,0,0,2,.469,5.8,5.8,0,0,0,1.513-.235,8.6,8.6,0,0,0,1.223-.411Zm-.324-26.3A4.368,4.368,0,0,1,31.1,19.15,4.413,4.413,0,0,1,28,17.96a3.8,3.8,0,0,1-1.289-2.884A3.836,3.836,0,0,1,28,12.185a4.382,4.382,0,0,1,3.095-1.2,4.333,4.333,0,0,1,3.082,1.2,3.895,3.895,0,0,1,0,5.776Z" fill="#59d083"/>
    </g>
  </g>
</svg>
