<svg xmlns="http://www.w3.org/2000/svg" width="412.84" height="229.902" viewBox="0 0 412.84 229.902">
  <g id="Group_627" data-name="Group 627" transform="translate(0)">
    <path id="Path_939" data-name="Path 939" d="M440.84,294.569a65.159,65.159,0,0,1-9.426,33.879c0,12.493-5.825,23.818-15.272,32.071a52.232,52.232,0,0,1-7.607,5.514c-.108.069-.22.134-.332.2-.2.119-.4.238-.61.361l-.191.112h0c-.862.487-1.743.956-2.642,1.4a59.786,59.786,0,0,1-26.618,6.135H106.371q-3.248,0-6.438-.26a76.2,76.2,0,0,1-22.035-5.1q-2.064-.816-4.049-1.754-.945-.444-1.873-.913c-.386-.195-.772-.4-1.155-.6a68.738,68.738,0,0,1-6.734-4.092,66.363,66.363,0,0,1-5.7-4.374C46.1,346.6,38.508,332.021,38.508,315.929A65.138,65.138,0,0,1,28,280.318c0-35.777,28.6-64.78,63.875-64.78,1.083,0,2.165.032,3.248.09a3.3,3.3,0,0,1,.462.022A110.054,110.054,0,0,1,119.041,188c26.07-22.338,64.171-36.419,106.613-36.419,35.662,0,68.259,9.942,93.228,26.369a62.857,62.857,0,0,1,31.017-8.138c35.272,0,63.875,29,63.875,64.78a66.754,66.754,0,0,1-.361,6.777A64.957,64.957,0,0,1,440.84,294.569Z" transform="translate(-28 -144.334)" fill="#59d083" opacity="0.1"/>
    <path id="Path_940" data-name="Path 940" d="M519.021,330.717v-3.872a14.092,14.092,0,1,0-10.6,0v3.872a19.848,19.848,0,0,0-9.217,5.6,19.877,19.877,0,0,0-11.216-8.127v-3.876a14.092,14.092,0,1,0-10.6,0v3.872a19.848,19.848,0,0,0-8.376,4.749,19.877,19.877,0,0,0-10.613-7.275v-3.872a14.092,14.092,0,1,0-10.6,0v3.872a19.848,19.848,0,0,0-9.383,5.8,19.881,19.881,0,0,0-13.2-11.931v-3.872a14.092,14.092,0,1,0-10.6,0v3.872a19.848,19.848,0,0,0-14.435,17.239,19.71,19.71,0,0,0-5.98-2.8v-3.872a14.092,14.092,0,1,0-10.6,0v3.872a19.913,19.913,0,0,0-12.508,10.357,19.7,19.7,0,0,0-5.413-2.418v-3.872a14.092,14.092,0,1,0-10.6,0V341.9a19.592,19.592,0,0,0-5.128,2.245,19.9,19.9,0,0,0-12.418-10.184v-3.872a14.092,14.092,0,1,0-10.6,0v3.872a19.884,19.884,0,0,0-12.945,11.317,19.848,19.848,0,0,0-6.766-3.378v-3.872a14.092,14.092,0,1,0-10.6,0V341.9A19.848,19.848,0,0,0,282.06,361.03v89.5h39.674v-7.939H340.5v7.939h39.7v-7.939h28.509V428.153h24.539v6.135h29.592v2.526h31.035v2.526h39.7v-89.5a19.848,19.848,0,0,0-14.546-19.126Z" transform="translate(-190.377 -231.848)" fill="#59d083" opacity="0.1"/>
    <path id="Path_941" data-name="Path 941" d="M381.95,169h32.995A61.45,61.45,0,0,1,476.4,230.453V313.71H320.5V230.45A61.45,61.45,0,0,1,381.95,169Z" transform="translate(-204.84 -108.012)" fill="#2f2e41"/>
    <path id="Path_942" data-name="Path 942" d="M391.95,178.28h25.777a61.45,61.45,0,0,1,61.453,61.453v76.556H330.5V239.73a61.45,61.45,0,0,1,61.45-61.45Z" transform="translate(-211.231 -113.943)" opacity="0.2"/>
    <path id="Path_943" data-name="Path 943" d="M468.665,684.82v6.3a59.786,59.786,0,0,1-26.618,6.135H170.284q-3.248,0-6.438-.26a76.2,76.2,0,0,1-22.035-5.1q-2.064-.816-4.049-1.754-.945-.444-1.873-.913c-.386-.195-.772-.4-1.155-.6A68.735,68.735,0,0,1,128,684.542V667.429A10.429,10.429,0,0,1,138.429,657H438.4a10.429,10.429,0,0,1,6.857,2.587L465.1,676.982A10.418,10.418,0,0,1,468.665,684.82Z" transform="translate(-91.913 -467.361)" fill="#2f2e41"/>
    <path id="Path_944" data-name="Path 944" d="M363.652,351.73q-11.8.779-23.518,2.526a22.271,22.271,0,0,0-6.5,1.682,19.055,19.055,0,0,0-4.309,3.089,56.8,56.8,0,0,0-13.713,18.6c-2.01,4.385-3.454,9.022-5.348,13.443-6.745,15.788-18.978,28.7-26.1,44.323a38.763,38.763,0,0,0-3.356,10.588c-.534,3.8.072,8.242,3.2,10.465a12.924,12.924,0,0,0,4.915,1.8,592.385,592.385,0,0,0,65.524,10.7c-2.385-2.3-3.183-5.871-2.869-9.17a33.135,33.135,0,0,1,2.887-9.473q-18.7-4.125-37.3-8.661c-1.851-.451-4.074-1.3-4.3-3.19a4.715,4.715,0,0,1,.83-2.739,146.936,146.936,0,0,1,18.91-26.7c0,10.126-.5,21.562-.5,31.692H449.064a89.5,89.5,0,0,1-2.468-17.629c-.545-19.4,5.987-38.653,4.291-58.014a11.757,11.757,0,0,0-1.339-5.157c-1.613-2.642-4.832-3.735-7.791-4.637-11.346-3.45-22.93-6.94-34.788-6.669-3.526.083-7.037.494-10.541.909C385.749,350.763,374.381,351.019,363.652,351.73Z" transform="translate(-189.47 -270.241)" fill="#59d083"/>
    <path id="Path_945" data-name="Path 945" d="M358.813,672.9l8.517,27.257a.852.852,0,0,0,.812.6h36.546L396.026,669l-36.47,2.8a.852.852,0,0,0-.743,1.1Z" transform="translate(-239.407 -475.03)" fill="#656478"/>
    <path id="Path_946" data-name="Path 946" d="M486.111,364.927a15.8,15.8,0,0,1-5.244,1.555L469.222,368.5c-2.266.393-4.652.841-6.4,2.338-3.573,3.057-2.8,8.683-1.718,13.259l2.165,9.181c1.631,6.9,3.3,13.883,6.644,20.133,5.843,10.909,16.56,18.765,28.347,22.551a31.7,31.7,0,0,0,13.056,1.75c8.61-.945,15.976-7.084,20.516-14.464s6.7-15.94,8.683-24.377c1.9-8.076,3.71-16.268,3.587-24.568-.036-2.584-.3-5.283-1.674-7.474-3.021-4.81-9.866-5.171-15.478-4.284a5.742,5.742,0,0,1-2.62.029c-2.526-.787-2.584-4.255-3.667-6.662-2.046-4.54-8.116-5.345-13.078-4.933s-12.688.942-17.012,3.753C486.418,357.424,490.987,362.115,486.111,364.927Z" transform="translate(-304.231 -271.716)" fill="#fbbebe"/>
    <path id="Path_947" data-name="Path 947" d="M486.111,364.927a15.8,15.8,0,0,1-5.244,1.555L469.222,368.5c-2.266.393-4.652.841-6.4,2.338-3.573,3.057-2.8,8.683-1.718,13.259l2.165,9.181c1.631,6.9,3.3,13.883,6.644,20.133,5.843,10.909,16.56,18.765,28.347,22.551a31.7,31.7,0,0,0,13.056,1.75c8.61-.945,15.976-7.084,20.516-14.464s6.7-15.94,8.683-24.377c1.9-8.076,3.71-16.268,3.587-24.568-.036-2.584-.3-5.283-1.674-7.474-3.021-4.81-9.866-5.171-15.478-4.284a5.742,5.742,0,0,1-2.62.029c-2.526-.787-2.584-4.255-3.667-6.662-2.046-4.54-8.116-5.345-13.078-4.933s-12.688.942-17.012,3.753C486.418,357.424,490.987,362.115,486.111,364.927Z" transform="translate(-304.231 -271.716)" opacity="0.1"/>
    <path id="Path_948" data-name="Path 948" d="M465.466,399.35c1.761,3.7,3.082,7.614,5.211,11.111a54.9,54.9,0,0,0,6.019,7.665c5.59,6.323,11.252,12.7,18.17,17.51A80.45,80.45,0,0,1,514.848,396.3c2.981-3.2,6.712-6.355,11.086-6.236,2.714.076,5.218,1.422,7.477,2.919a26.753,26.753,0,0,1,6.73,6.016,24.278,24.278,0,0,1,4.33,13.468,71.46,71.46,0,0,1-1.256,14.28l-3.789,24.435c-.22,1.415-.527,2.977-1.682,3.825a5.294,5.294,0,0,1-2.165.779c-13.775,2.681-27.971.942-42.006.8-15.518-.148-31.465,1.62-46.163-3.316a4.49,4.49,0,0,1-2.086-1.176,4.351,4.351,0,0,1-.722-1.555c-3.425-11.086-.678-23,1.353-34.42a270.066,270.066,0,0,0,3.432-27.347c.061-.826,9.141,1,10.155,1.584C462.3,391.995,464.138,396.564,465.466,399.35Z" transform="translate(-293.225 -295.797)" fill="#59d083"/>
    <g id="Group_623" data-name="Group 623" transform="translate(38.963 96.623)" opacity="0.2">
      <path id="Path_949" data-name="Path 949" d="M182.273,659.116a4.3,4.3,0,0,1-.036.487q-2.064-.816-4.049-1.754a3.284,3.284,0,0,1-1.873-.913c-.386-.195-.772-.4-1.155-.6a4.937,4.937,0,0,1,.292-.527,3.357,3.357,0,0,1,6.11.188A6.088,6.088,0,0,1,182.273,659.116Z" transform="translate(-161.017 -562.025)" fill="#3f3d56"/>
      <path id="Path_950" data-name="Path 950" d="M181.727,642a6.092,6.092,0,0,1-.906,3.06,3.633,3.633,0,0,1-3.118,1.869l-.256-.018a3.284,3.284,0,0,1-1.873-.913,4.523,4.523,0,0,1-.862-1.126,6.333,6.333,0,0,1,.195-6.178,3.357,3.357,0,0,1,6.11.188A6.088,6.088,0,0,1,181.727,642Z" transform="translate(-160.276 -551.083)" fill="#3f3d56"/>
      <ellipse id="Ellipse_120" data-name="Ellipse 120" cx="5.056" cy="3.861" rx="5.056" ry="3.861" transform="translate(13.767 89.554) rotate(-88.19)" fill="#3f3d56"/>
      <ellipse id="Ellipse_121" data-name="Ellipse 121" cx="5.056" cy="3.861" rx="5.056" ry="3.861" transform="translate(13.964 83.376) rotate(-88.19)" fill="#3f3d56"/>
      <ellipse id="Ellipse_122" data-name="Ellipse 122" cx="5.056" cy="3.861" rx="5.056" ry="3.861" transform="translate(14.157 77.198) rotate(-88.19)" fill="#3f3d56"/>
      <path id="Path_951" data-name="Path 951" d="M141.035,428.767a17.921,17.921,0,0,1-1.371-2.165l10.2-1.346L138.87,425a18.542,18.542,0,0,1,.112-14.666l14.478,8.1L140.2,408.021a18.506,18.506,0,1,1,29.895,21.652,18.447,18.447,0,0,1,2,3.439l-13.378,6.438,14.193-4.269a18.527,18.527,0,0,1-3.537,17.286,18.506,18.506,0,1,1-29.061-.927,18.506,18.506,0,0,1,.722-22.872Z" transform="translate(-135.971 -399.247)" fill="#59d083"/>
      <path id="Path_952" data-name="Path 952" d="M173.691,515.088a18.426,18.426,0,0,1-4.33,11.313,18.506,18.506,0,1,1-29.05-.917C137.918,522.259,173.756,513.013,173.691,515.088Z" transform="translate(-135.968 -473.092)" opacity="0.1"/>
    </g>
    <circle id="Ellipse_123" data-name="Ellipse 123" cx="7.806" cy="7.806" r="7.806" transform="translate(16.741 43.142)" fill="#59d083" opacity="0.1"/>
    <circle id="Ellipse_124" data-name="Ellipse 124" cx="7.806" cy="7.806" r="7.806" transform="translate(49.273 0)" fill="#59d083" opacity="0.1"/>
    <circle id="Ellipse_125" data-name="Ellipse 125" cx="13.082" cy="13.082" r="13.082" transform="translate(41.352 24.363)" fill="#59d083" opacity="0.1"/>
    <circle id="Ellipse_126" data-name="Ellipse 126" cx="30.313" cy="30.313" r="30.313" transform="translate(165.641 36.629)" fill="#fbbebe"/>
    <path id="Path_953" data-name="Path 953" d="M466.159,148.531c-8.087,1.025-16.817,2.378-22.533,8.188-3.2,3.248-5.07,7.578-6.611,11.866-2.389,6.676-4.168,13.713-3.609,20.8.5,6.337,2.844,12.818.945,18.888-.873,2.793-2.587,5.233-3.919,7.835a41.5,41.5,0,0,0-4.056,15.658,27.211,27.211,0,0,0,.985,11.075c1.3,3.753,3.843,6.947,5.453,10.577,2.382,5.363,2.62,11.4,2.8,17.261s.339,11.689.476,17.531c.087,3.674.094,7.607-1.938,10.671,7.5-3.006,15.11-6.074,21.53-10.981s11.617-11.985,12.447-20.025c.671-6.517-1.53-12.941-3.428-19.213-4.691-15.518-7.723-32.06-4.309-47.906,1.231-5.705,4.222-12.075,9.964-13.125,3.5-.639,7,.96,10.159,2.613,7.463,3.9,15.157,8.957,17.935,16.907,2.526,7.189.4,15.2-2.887,22.06s-7.762,13.176-10.317,20.35c-3.923,11.007-2.818,23.893,3.7,33.59s18.56,15.662,30.14,14.1c-.906-3.912-3.746-7.073-5.269-10.79-2.768-6.752-.9-14.518,2.075-21.18s7.041-12.872,8.9-19.946a59.671,59.671,0,0,0,1.465-15.334c0-8.105-.4-16.214-1.18-24.283s-1.97-16.239-4.54-24c-2.064-6.225-5.07-12.244-9.567-17.019-4.785-5.085-11.014-8.531-17.131-11.909-3.659-2.014-7.4-4.053-11.5-4.807a62.329,62.329,0,0,0-9.975-1.5A8.437,8.437,0,0,0,466.159,148.531Z" transform="translate(-282.517 -141.071)" fill="#434175"/>
    <rect id="Rectangle_559" data-name="Rectangle 559" width="21.959" height="51.15" rx="2.9" transform="matrix(0.982, 0.19, -0.19, 0.982, 220.165, 42.602)" fill="#656478"/>
    <rect id="Rectangle_560" data-name="Rectangle 560" width="21.959" height="51.15" rx="2.9" transform="matrix(0.982, 0.19, -0.19, 0.982, 221.639, 42.888)" fill="#3f3d56"/>
    <ellipse id="Ellipse_127" data-name="Ellipse 127" cx="3.627" cy="1.498" rx="3.627" ry="1.498" transform="matrix(0.19, -0.982, 0.982, 0.19, 228.125, 59.127)" fill="#59d083"/>
    <path id="Path_954" data-name="Path 954" d="M648.513,317.46a9.509,9.509,0,0,0-6.528-5.832c-3.5-1.223-7.051-2.458-10.75-2.652a2.023,2.023,0,0,0-1.685.462c-.808.949.473,2.241,1.581,2.815l8.813,4.565-8.123-.859c-1.18-.126-2.862.195-2.775,1.379.058.776.909,1.2,1.646,1.443,5.215,1.8,11.241,3.219,14.1,7.939-3.8-.361-7.69-.722-11.418.115a4.831,4.831,0,0,0-2.746,1.393,2.016,2.016,0,0,0,.1,2.8,2.833,2.833,0,0,0,1.869.361c2.645-.126,5.359-.653,7.9.1s4.8,3.417,3.919,5.915a14.26,14.26,0,0,0,7-.971c2.3-1.083,2.241-3.118,2.1-5.572C653.2,326.06,650.819,321.574,648.513,317.46Z" transform="translate(-412.141 -244.924)" fill="#fbbebe"/>
    <path id="Path_955" data-name="Path 955" d="M655.935,434.361a406.076,406.076,0,0,0-8.3-42.193c-1.8-7.217-3.854-14.558-3.338-21.984,7.456.949,14.135,1.653,21.006-1.393.112,3.9,2.941,7.217,3.97,10.989.689,2.526.429,5.2.7,7.8a47.824,47.824,0,0,0,1.779,7.654,93.91,93.91,0,0,1,2.393,38.52C667.768,434.512,662.3,435.346,655.935,434.361Z" transform="translate(-421.84 -283.158)" opacity="0.1"/>
    <path id="Path_956" data-name="Path 956" d="M652.935,434.361a406.076,406.076,0,0,0-8.3-42.193c-1.8-7.217-3.854-14.558-3.338-21.984,7.456.949,14.135,1.653,21.006-1.393.112,3.9,2.941,7.217,3.97,10.989.689,2.526.429,5.2.7,7.8a47.824,47.824,0,0,0,1.779,7.654,93.912,93.912,0,0,1,2.393,38.52C664.768,434.512,659.3,435.346,652.935,434.361Z" transform="translate(-419.922 -283.158)" fill="#59d083"/>
    <path id="Path_957" data-name="Path 957" d="M384.622,580.931l3.533-87.645a5.363,5.363,0,0,1,5.413-5.146l139.485,1.335a5.363,5.363,0,0,1,5.287,5.832l-7.369,83.965a5.363,5.363,0,0,1-5.251,4.893L390.075,586.51a5.366,5.366,0,0,1-5.453-5.579Z" transform="translate(-255.924 -359.437)" fill="#3f3d56"/>
    <ellipse id="Ellipse_128" data-name="Ellipse 128" cx="6.135" cy="7.217" rx="6.135" ry="7.217" transform="translate(200.465 161.311)" fill="#59d083"/>
    <path id="Path_958" data-name="Path 958" d="M905.462,584.76l-.289,2.476-4.691,40.007c-12.23,8.527-21.743.332-21.826,0l-5.911-40.194-.336-2.288Z" transform="translate(-567.685 -421.19)" fill="#3f3d56"/>
    <path id="Path_959" data-name="Path 959" d="M905.462,584.76l-.289,2.476c-13.778,8.011-28.477,1.776-32.428-.188l-.336-2.288Z" transform="translate(-567.685 -421.19)" opacity="0.1"/>
    <path id="Path_960" data-name="Path 960" d="M870.5,578.74v3.609s18.224,10.6,34.644,0V578.74Z" transform="translate(-566.464 -417.343)" fill="#59d083"/>
    <path id="Path_961" data-name="Path 961" d="M872.618,565.53s-.53,2.436-2.118,2.649v3.071h34.644V568.5a2.56,2.56,0,0,1-1.8-2.966Z" transform="translate(-566.464 -408.9)" fill="#59d083"/>
    <ellipse id="Ellipse_129" data-name="Ellipse 129" cx="15.626" cy="4.504" rx="15.626" ry="4.504" transform="translate(305.628 152.39)" fill="#59d083"/>
    <ellipse id="Ellipse_130" data-name="Ellipse 130" cx="15.626" cy="4.504" rx="15.626" ry="4.504" transform="translate(305.628 152.39)" opacity="0.1"/>
    <path id="Path_962" data-name="Path 962" d="M909.315,559.708c0,1.8-5.926,3.284-13.24,3.284h-.39c-4.911-.036-9.155-.722-11.321-1.747-.978-.462-1.534-.985-1.534-1.537,0-.917,1.516-1.747,3.97-2.342a40.954,40.954,0,0,1,9.285-.942C903.389,556.424,909.315,557.893,909.315,559.708Z" transform="translate(-574.344 -403.078)" opacity="0.1"/>
    <path id="Path_963" data-name="Path 963" d="M898.4,564.64c-4.911-.036-9.155-.722-11.321-1.747h0L889.505,559Z" transform="translate(-577.061 -404.726)" opacity="0.1"/>
    <path id="Path_964" data-name="Path 964" d="M879.262,566.21c-.188-.04-.437.025-.473.213a.459.459,0,0,0,.072.271,3.851,3.851,0,0,0,1.725,1.476,1.028,1.028,0,0,0,.393.126.361.361,0,0,0,.361-.188.408.408,0,0,0-.025-.336,1.491,1.491,0,0,0-.448-.491C880.384,566.9,879.89,566.315,879.262,566.21Z" transform="translate(-571.761 -409.327)" opacity="0.1"/>
    <circle id="Ellipse_131" data-name="Ellipse 131" cx="9.321" cy="9.321" r="9.321" transform="translate(312.459 176.814)" fill="#59d083"/>
    <path id="Path_965" data-name="Path 965" d="M172.352,515.85h4.37a9.022,9.022,0,0,1,9.022,9.022v13.406H163.33V524.872A9.022,9.022,0,0,1,172.352,515.85Z" transform="translate(-104.389 -329.693)" fill="#3f3d56"/>
    <path id="Path_966" data-name="Path 966" d="M172.352,515.85h4.37a9.022,9.022,0,0,1,9.022,9.022v13.406H163.33V524.872A9.022,9.022,0,0,1,172.352,515.85Z" transform="translate(-104.389 -329.693)" opacity="0.1"/>
    <circle id="Ellipse_132" data-name="Ellipse 132" cx="1.794" cy="1.794" r="1.794" transform="translate(67.458 187.503)" fill="#3f3d56"/>
    <circle id="Ellipse_133" data-name="Ellipse 133" cx="1.794" cy="1.794" r="1.794" transform="translate(67.458 185.262)" fill="#3f3d56"/>
    <circle id="Ellipse_134" data-name="Ellipse 134" cx="1.794" cy="1.794" r="1.794" transform="translate(67.458 183.017)" fill="#3f3d56"/>
    <circle id="Ellipse_135" data-name="Ellipse 135" cx="1.794" cy="1.794" r="1.794" transform="translate(67.458 180.776)" fill="#3f3d56"/>
    <circle id="Ellipse_136" data-name="Ellipse 136" cx="1.794" cy="1.794" r="1.794" transform="translate(67.458 178.535)" fill="#3f3d56"/>
    <circle id="Ellipse_137" data-name="Ellipse 137" cx="1.794" cy="1.794" r="1.794" transform="translate(67.458 176.294)" fill="#3f3d56"/>
    <circle id="Ellipse_138" data-name="Ellipse 138" cx="1.794" cy="1.794" r="1.794" transform="translate(67.458 174.053)" fill="#3f3d56"/>
    <circle id="Ellipse_139" data-name="Ellipse 139" cx="1.794" cy="1.794" r="1.794" transform="translate(70.15 174.948)" fill="#3f3d56"/>
    <circle id="Ellipse_140" data-name="Ellipse 140" cx="1.794" cy="1.794" r="1.794" transform="translate(71.944 174.053)" fill="#3f3d56"/>
    <circle id="Ellipse_141" data-name="Ellipse 141" cx="1.794" cy="1.794" r="1.794" transform="translate(73.737 173.155)" fill="#3f3d56"/>
    <circle id="Ellipse_142" data-name="Ellipse 142" cx="1.794" cy="1.794" r="1.794" transform="translate(67.458 171.812)" fill="#3f3d56"/>
    <circle id="Ellipse_143" data-name="Ellipse 143" cx="1.794" cy="1.794" r="1.794" transform="translate(67.458 169.571)" fill="#3f3d56"/>
    <circle id="Ellipse_144" data-name="Ellipse 144" cx="1.794" cy="1.794" r="1.794" transform="translate(67.458 167.326)" fill="#3f3d56"/>
    <circle id="Ellipse_145" data-name="Ellipse 145" cx="1.794" cy="1.794" r="1.794" transform="translate(67.458 165.085)" fill="#3f3d56"/>
    <path id="Path_967" data-name="Path 967" d="M213.837,566.7c-.444.065-.891.112-1.339.141a10.305,10.305,0,0,0,1.158-1.191,7.657,7.657,0,0,0-1.083-2.1,3.689,3.689,0,0,1-1.443.455c-.444.065-.891.112-1.339.144a22.361,22.361,0,0,0,1.714-1.8,7.611,7.611,0,1,0,2.385,4.331Z" transform="translate(-137.152 -405.598)" fill="#59d083"/>
    <path id="Path_968" data-name="Path 968" d="M244.461,601.044a3.493,3.493,0,0,1-1.508.5c-.444.065-.891.115-1.339.144a13.138,13.138,0,0,0,1.328-1.379,4.489,4.489,0,1,0,1.519.722Z" transform="translate(-161.781 -431.036)" fill="#59d083"/>
    <circle id="Ellipse_146" data-name="Ellipse 146" cx="1.794" cy="1.794" r="1.794" transform="translate(64.769 174.948)" fill="#3f3d56"/>
    <circle id="Ellipse_147" data-name="Ellipse 147" cx="1.794" cy="1.794" r="1.794" transform="translate(62.976 174.053)" fill="#3f3d56"/>
    <circle id="Ellipse_148" data-name="Ellipse 148" cx="1.794" cy="1.794" r="1.794" transform="translate(61.182 173.155)" fill="#3f3d56"/>
    <path id="Path_969" data-name="Path 969" d="M179.445,601.044a3.479,3.479,0,0,0,1.508.5c.444.065.891.115,1.339.144a12.779,12.779,0,0,1-1.328-1.379,4.489,4.489,0,1,1-1.519.722Z" transform="translate(-123.618 -431.036)" fill="#59d083"/>
    <path id="Path_970" data-name="Path 970" d="M172.352,519.58h4.37a9.022,9.022,0,0,1,9.022,9.022v11.862a1.53,1.53,0,0,1-1.53,1.53H164.86a1.53,1.53,0,0,1-1.53-1.53V528.6A9.022,9.022,0,0,1,172.352,519.58Z" transform="translate(-104.389 -332.077)" fill="#3f3d56"/>
    <g id="Group_624" data-name="Group 624" transform="translate(61.738 154.874)" opacity="0.1">
      <path id="Path_971" data-name="Path 971" d="M239.857,579.27a6.8,6.8,0,0,1-.577.548,5.845,5.845,0,0,0,.613-.054A3.223,3.223,0,0,0,239.857,579.27Z" transform="translate(-224.773 -572.556)"/>
      <path id="Path_972" data-name="Path 972" d="M231.82,570.684c.451-.029.895-.076,1.342-.141a4.33,4.33,0,0,0,1.166-.318,7.676,7.676,0,0,0-.628-1.036,2.716,2.716,0,0,1-.722.307A10.385,10.385,0,0,1,231.82,570.684Z" transform="translate(-220.005 -566.113)"/>
      <path id="Path_973" data-name="Path 973" d="M199.87,569.086a7.607,7.607,0,0,1,11.728-6.409l.115-.123A7.614,7.614,0,1,0,201.674,574,7.578,7.578,0,0,1,199.87,569.086Z" transform="translate(-199.08 -560.665)"/>
    </g>
    <g id="Group_625" data-name="Group 625" transform="translate(75.531 169.124)" opacity="0.1">
      <path id="Path_974" data-name="Path 974" d="M249.22,604.122c.447-.029.895-.076,1.339-.141a3.5,3.5,0,0,0,1.508-.505,4.486,4.486,0,0,1,1.8,3.176,4.11,4.11,0,0,0,.025-.473,4.468,4.468,0,0,0-1.8-3.609,3.493,3.493,0,0,1-1.508.5l-.361.047A9.156,9.156,0,0,1,249.22,604.122Z" transform="translate(-244.918 -601.697)"/>
      <path id="Path_975" data-name="Path 975" d="M241.782,601.045a3.682,3.682,0,0,1,.447.032c.235-.249.466-.516.7-.776a4.475,4.475,0,0,0-5.63,4.331,3.072,3.072,0,0,0,.022.447A4.482,4.482,0,0,1,241.782,601.045Z" transform="translate(-237.3 -600.15)"/>
    </g>
    <g id="Group_626" data-name="Group 626" transform="translate(53.997 169.124)" opacity="0.1">
      <path id="Path_976" data-name="Path 976" d="M182.307,604.122c-.447-.029-.895-.076-1.339-.141a3.481,3.481,0,0,1-1.508-.505,4.486,4.486,0,0,0-1.8,3.176,4.107,4.107,0,0,1-.025-.473,4.468,4.468,0,0,1,1.8-3.609,3.479,3.479,0,0,0,1.508.5l.361.047A8.545,8.545,0,0,0,182.307,604.122Z" transform="translate(-177.63 -601.697)"/>
      <path id="Path_977" data-name="Path 977" d="M188.058,601.045a3.73,3.73,0,0,0-.451.032c-.231-.249-.462-.516-.7-.776a4.475,4.475,0,0,1,5.63,4.331,3.07,3.07,0,0,1-.022.447A4.482,4.482,0,0,0,188.058,601.045Z" transform="translate(-183.561 -600.15)"/>
    </g>
  </g>
</svg>
