<svg xmlns="http://www.w3.org/2000/svg" width="391.052" height="288.118" viewBox="0 0 391.052 288.118">
  <g id="Group_629" data-name="Group 629" transform="translate(0 -0.001)">
    <rect id="Rectangle_573" data-name="Rectangle 573" width="164.373" height="4.822" transform="translate(226.679 106.687)" fill="#e6e6e6"/>
    <rect id="Rectangle_574" data-name="Rectangle 574" width="41.641" height="41.641" transform="translate(240.266 66.36)" fill="#e6e6e6"/>
    <rect id="Rectangle_575" data-name="Rectangle 575" width="24.985" height="24.985" transform="translate(248.595 74.689)" fill="#ccc"/>
    <rect id="Rectangle_576" data-name="Rectangle 576" width="10.52" height="41.641" transform="translate(333.631 66.36)" fill="#e6e6e6"/>
    <rect id="Rectangle_577" data-name="Rectangle 577" width="10.52" height="4.822" transform="translate(333.631 72.935)" fill="#ccc"/>
    <rect id="Rectangle_578" data-name="Rectangle 578" width="10.52" height="4.822" transform="translate(333.631 93.975)" fill="#ccc"/>
    <rect id="Rectangle_579" data-name="Rectangle 579" width="10.52" height="41.641" transform="translate(317.413 66.36)" fill="#e6e6e6"/>
    <rect id="Rectangle_580" data-name="Rectangle 580" width="10.52" height="4.822" transform="translate(317.413 72.935)" fill="#ccc"/>
    <rect id="Rectangle_581" data-name="Rectangle 581" width="10.52" height="4.822" transform="translate(317.413 93.975)" fill="#ccc"/>
    <rect id="Rectangle_582" data-name="Rectangle 582" width="10.52" height="41.641" transform="matrix(0.896, -0.444, 0.444, 0.896, 343.787, 70.856)" fill="#e6e6e6"/>
    <rect id="Rectangle_583" data-name="Rectangle 583" width="10.52" height="4.822" transform="matrix(0.896, -0.444, 0.444, 0.896, 346.704, 76.748)" fill="#ccc"/>
    <rect id="Rectangle_584" data-name="Rectangle 584" width="10.52" height="4.822" transform="matrix(0.896, -0.444, 0.444, 0.896, 356.039, 95.604)" fill="#ccc"/>
    <path id="Path_995" data-name="Path 995" d="M513.553,170.382l5.3,9.176,5.3,9.176H502.958l5.3-9.176Z" transform="translate(-257.726 -87.307)" fill="#e6e6e6"/>
    <path id="Path_996" data-name="Path 996" d="M532.432,173.978l5.3,9.176,5.3,9.176H521.837l5.3-9.176Z" transform="translate(-267.4 -89.15)" fill="#e6e6e6"/>
    <circle id="Ellipse_166" data-name="Ellipse 166" cx="3.068" cy="3.068" r="3.068" transform="translate(265.69 76.003)" fill="#e6e6e6"/>
    <rect id="Rectangle_585" data-name="Rectangle 585" width="164.373" height="4.822" transform="translate(391.052 45.321) rotate(180)" fill="#e6e6e6"/>
    <rect id="Rectangle_586" data-name="Rectangle 586" width="41.641" height="41.641" transform="translate(377.464 41.814) rotate(180)" fill="#e6e6e6"/>
    <rect id="Rectangle_587" data-name="Rectangle 587" width="24.985" height="24.985" transform="translate(369.136 33.486) rotate(180)" fill="#ccc"/>
    <rect id="Rectangle_588" data-name="Rectangle 588" width="10.52" height="41.641" transform="translate(284.1 41.814) rotate(180)" fill="#e6e6e6"/>
    <rect id="Rectangle_589" data-name="Rectangle 589" width="10.52" height="4.822" transform="translate(284.1 11.569) rotate(180)" fill="#ccc"/>
    <rect id="Rectangle_590" data-name="Rectangle 590" width="10.52" height="4.822" transform="translate(284.1 32.609) rotate(180)" fill="#ccc"/>
    <rect id="Rectangle_591" data-name="Rectangle 591" width="10.52" height="41.641" transform="translate(300.318 41.814) rotate(180)" fill="#e6e6e6"/>
    <rect id="Rectangle_592" data-name="Rectangle 592" width="10.52" height="4.822" transform="translate(300.318 11.569) rotate(180)" fill="#ccc"/>
    <rect id="Rectangle_593" data-name="Rectangle 593" width="10.52" height="4.822" transform="translate(300.318 32.609) rotate(180)" fill="#ccc"/>
    <rect id="Rectangle_594" data-name="Rectangle 594" width="10.52" height="41.641" transform="matrix(-0.896, -0.444, 0.444, -0.896, 255.467, 41.986)" fill="#e6e6e6"/>
    <rect id="Rectangle_595" data-name="Rectangle 595" width="10.52" height="4.822" transform="matrix(-0.896, -0.444, 0.444, -0.896, 268.887, 14.882)" fill="#ccc"/>
    <rect id="Rectangle_596" data-name="Rectangle 596" width="10.52" height="4.822" transform="matrix(-0.896, -0.444, 0.444, -0.896, 259.551, 33.737)" fill="#ccc"/>
    <path id="Path_997" data-name="Path 997" d="M731.109,34.634l-5.3,9.176-5.3,9.176H741.7l-5.3-9.176Z" transform="translate(-369.206 -17.747)" fill="#e6e6e6"/>
    <path id="Path_998" data-name="Path 998" d="M712.23,38.23l-5.3,9.176-5.3,9.176h21.191l-5.3-9.176Z" transform="translate(-359.532 -19.589)" fill="#e6e6e6"/>
    <circle id="Ellipse_167" data-name="Ellipse 167" cx="3.068" cy="3.068" r="3.068" transform="translate(345.904 9.816)" fill="#e6e6e6"/>
    <rect id="Rectangle_597" data-name="Rectangle 597" width="164.373" height="4.822" transform="translate(391.052 177.696) rotate(180)" fill="#e6e6e6"/>
    <rect id="Rectangle_598" data-name="Rectangle 598" width="41.641" height="41.641" transform="translate(377.464 174.189) rotate(180)" fill="#e6e6e6"/>
    <rect id="Rectangle_599" data-name="Rectangle 599" width="24.985" height="24.985" transform="translate(369.136 165.861) rotate(180)" fill="#ccc"/>
    <rect id="Rectangle_600" data-name="Rectangle 600" width="10.52" height="41.641" transform="translate(284.1 174.189) rotate(180)" fill="#e6e6e6"/>
    <rect id="Rectangle_601" data-name="Rectangle 601" width="10.52" height="4.822" transform="translate(284.1 143.945) rotate(180)" fill="#ccc"/>
    <rect id="Rectangle_602" data-name="Rectangle 602" width="10.52" height="4.822" transform="translate(284.1 164.984) rotate(180)" fill="#ccc"/>
    <rect id="Rectangle_603" data-name="Rectangle 603" width="10.52" height="41.641" transform="translate(300.318 174.189) rotate(180)" fill="#e6e6e6"/>
    <rect id="Rectangle_604" data-name="Rectangle 604" width="10.52" height="4.822" transform="translate(300.318 143.945) rotate(180)" fill="#ccc"/>
    <rect id="Rectangle_605" data-name="Rectangle 605" width="10.52" height="4.822" transform="translate(300.318 164.984) rotate(180)" fill="#ccc"/>
    <rect id="Rectangle_606" data-name="Rectangle 606" width="10.52" height="41.641" transform="matrix(-0.896, -0.444, 0.444, -0.896, 255.467, 174.362)" fill="#e6e6e6"/>
    <rect id="Rectangle_607" data-name="Rectangle 607" width="10.52" height="4.822" transform="matrix(-0.896, -0.444, 0.444, -0.896, 268.886, 147.257)" fill="#ccc"/>
    <rect id="Rectangle_608" data-name="Rectangle 608" width="10.52" height="4.822" transform="matrix(-0.896, -0.444, 0.444, -0.896, 259.551, 166.112)" fill="#ccc"/>
    <path id="Path_999" data-name="Path 999" d="M731.109,306.129l-5.3,9.176-5.3,9.176H741.7l-5.3-9.176Z" transform="translate(-369.206 -156.866)" fill="#e6e6e6"/>
    <path id="Path_1000" data-name="Path 1000" d="M712.23,309.725l-5.3,9.176-5.3,9.176h21.191l-5.3-9.176Z" transform="translate(-359.532 -158.709)" fill="#e6e6e6"/>
    <circle id="Ellipse_168" data-name="Ellipse 168" cx="3.068" cy="3.068" r="3.068" transform="translate(345.904 142.191)" fill="#e6e6e6"/>
    <ellipse id="Ellipse_169" data-name="Ellipse 169" cx="193.632" cy="13.752" rx="193.632" ry="13.752" transform="translate(0 260.614)" fill="#e6e6e6"/>
    <path id="Path_1001" data-name="Path 1001" d="M798.843,689.111c-31.573-5.62-66.1-4.685-102.317,0,16.507-13.936,30.754-27.871,14.247-41.807,32.2,6.643,36.709,5.97,72.528,0C774.994,661.24,790.535,675.176,798.843,689.111Z" transform="translate(-453.936 -407.043)" fill="#59d083"/>
    <path id="Path_1002" data-name="Path 1002" d="M798.843,689.111c-31.573-5.62-66.1-4.685-102.317,0,16.507-13.936,30.754-27.871,14.247-41.807,32.2,6.643,36.709,5.97,72.528,0C774.994,661.24,790.535,675.176,798.843,689.111Z" transform="translate(-453.936 -407.043)" opacity="0.2"/>
    <path id="Path_1003" data-name="Path 1003" d="M799.235,685.783c-26.82-4.486-56.149-3.74-86.914,0,14.022-11.124,26.125-22.247,12.1-33.371,27.352,5.3,31.183,4.766,61.61,0C778.976,663.536,792.178,674.659,799.235,685.783Z" transform="translate(-462.03 -409.66)" fill="#59d083"/>
    <circle id="Ellipse_170" data-name="Ellipse 170" cx="14.291" cy="14.291" r="14.291" transform="translate(312.7 229.619)" fill="#2f2e41"/>
    <path id="Path_1004" data-name="Path 1004" d="M520.826,466.249l9.9,1.65,4.951,14.3-14.3,8.8-16.5-24.754h15.953Z" transform="translate(-258.707 -238.915)" fill="#a0616a"/>
    <circle id="Ellipse_171" data-name="Ellipse 171" cx="23.104" cy="23.104" r="23.104" transform="translate(267.069 203.13)" fill="#a0616a"/>
    <path id="Path_1005" data-name="Path 1005" d="M443.527,445.919s-56.109,6.051-66.011,4.951a122.6,122.6,0,0,1-14.3-2.2s-6.6,8.8-3.3,12.652a23.8,23.8,0,0,0,6.6,5.5s6.051-1.65,10.452,0,48.958,8.8,56.659,2.2S443.527,445.919,443.527,445.919Z" transform="translate(-280.975 -303.849)" fill="#2f2e41"/>
    <path id="Path_1006" data-name="Path 1006" d="M453.552,590.043s-36.856-10.452-43.457-56.659v-4.4s-7.292,12.793-9.9,15.4c-3.026,3.026-13.752,30.255-13.2,33.005s0,3.851,0,3.851l-15.953-1.65v-4.951s8.526-25.579,9.076-31.63,21.178-48.133,21.178-48.133,7.7-15.953,20.9,0,14.3,26.954,14.3,26.954l17.053,33.005Z" transform="translate(-287.149 -325.303)" fill="#2f2e41"/>
    <path id="Path_1007" data-name="Path 1007" d="M338.629,436.163l-17.6-6.051s-16.5-12.1-12.652,0,21.454,38.506,26.4,35.756,10.9-9.578,9.578-10.565S334.229,447.165,338.629,436.163Z" transform="translate(-254.741 -292.993)" fill="#2f2e41"/>
    <path id="Path_1008" data-name="Path 1008" d="M349.426,659.259l-14.21,6.94s-17.184,2.644-7.6,7.6,36.021,10.244,37.342,5.618.8-12.3-.593-12.1S353.391,668.512,349.426,659.259Z" transform="translate(-263.409 -413.169)" fill="#2f2e41"/>
    <path id="Path_1009" data-name="Path 1009" d="M523.4,607.439s-7.151,30.805,4.951,37.406,96.816,7.7,103.417-4.4,3.3-12.1,3.3-12.1l-17.6-19.8,14.3-1.1a5.134,5.134,0,0,0-4.951-4.951c-4.951-.55-20.353-6.051-33.556-2.2s-20.9-7.7-20.9-7.7Z" transform="translate(-364.147 -379.005)" fill="#575a89"/>
    <path id="Path_1010" data-name="Path 1010" d="M297.609,268.178l-9.352,51.159,64.361-7.7,11.552-46.208Z" transform="translate(-147.709 -136.01)" fill="#3f3d56"/>
    <path id="Path_1011" data-name="Path 1011" d="M303.292,272.128l-7.7,45.657,58.585-6.876,11.277-41.532Z" transform="translate(-151.467 -138.034)" fill="#fff"/>
    <path id="Path_1012" data-name="Path 1012" d="M289.3,376.543l-2.2-.55-1.1,2.2,17.6,48.958,1.655-.633.545-3.218Z" transform="translate(-146.553 -192.666)" fill="#b3b3b3"/>
    <path id="Path_1013" data-name="Path 1013" d="M288.257,367.349l17.6,51.159,66.561-9.9-19.8-48.408Z" transform="translate(-147.709 -184.573)" fill="#d0cde1"/>
    <path id="Path_1014" data-name="Path 1014" d="M306.309,365.7v2.75l48.958-5.5-.55-2.75Z" transform="translate(-156.959 -184.573)" fill="#3f3d56"/>
    <path id="Path_1015" data-name="Path 1015" d="M308.565,377.559l7.7,21.453,50.058-6.051-8.8-20.353Z" transform="translate(-158.115 -190.932)" fill="#3f3d56"/>
    <path id="Path_1016" data-name="Path 1016" d="M612.814,575.619l-1.65-4.4s-12.652-22-19.253-17.6,13.752,25.854,13.752,25.854h6.6Z" transform="translate(-399.654 -358.737)" fill="#a0616a"/>
    <path id="Path_1017" data-name="Path 1017" d="M547.374,578.907l-1.65-6.6s-4.4-20.353,3.3-19.253,9.9,20.353,9.9,20.353l-.55,4.4Z" transform="translate(-376.02 -358.725)" fill="#a0616a"/>
    <path id="Path_1018" data-name="Path 1018" d="M561.269,599.728s-14.3-2.2-14.852,1.1-3.3,52.809,10.452,54.459,81.964,8.8,74.812-8.251-18.153-14.852-18.153-14.852l-46.757,4.951Z" transform="translate(-376.714 -382.296)" fill="#575a89"/>
    <path id="Path_1019" data-name="Path 1019" d="M441.641,448.221l-14.577-10.177-9.627,7.426,12.1,13.2Z" transform="translate(-213.903 -224.462)" fill="#575a89"/>
    <path id="Path_1020" data-name="Path 1020" d="M386.976,479.224l2.2,20.9,37.957-2.2-33.006-.55Z" transform="translate(-198.294 -245.564)" opacity="0.2"/>
    <circle id="Ellipse_172" data-name="Ellipse 172" cx="27.505" cy="27.505" r="27.505" transform="translate(274.074 202.927)" fill="#2f2e41"/>
    <path id="Path_1021" data-name="Path 1021" d="M328.309,293.283l34.106-1.187,3.3-12.565-35.206,1.062Z" transform="translate(-168.232 -143.237)" fill="#59d083"/>
    <path id="Path_1022" data-name="Path 1022" d="M310.258,318.356l51.708-1.65.55-2.2-51.708,1.821Z" transform="translate(-158.983 -161.158)" fill="#e6e6e6"/>
    <path id="Path_1023" data-name="Path 1023" d="M308,329.638l51.709-1.65.55-2.2-51.709,1.821Z" transform="translate(-157.826 -166.94)" fill="#e6e6e6"/>
    <path id="Path_1024" data-name="Path 1024" d="M306.873,338.663l51.708-1.65.55-2.2-51.709,1.82Z" transform="translate(-157.248 -171.565)" fill="#e6e6e6"/>
  </g>
</svg>
