<svg xmlns="http://www.w3.org/2000/svg" width="413.717" height="93.546" viewBox="0 0 413.717 93.546">
  <g id="Group_1006" data-name="Group 1006" transform="translate(-217 -38)">
    <g id="Untitled" transform="translate(-27.619 -695.685)">
      <g id="Group_106" data-name="Group 106" transform="translate(233.619 740.685)">
        <g id="Group_105" data-name="Group 105" transform="translate(97.725 25.583)">
          <g id="Group_88" data-name="Group 88" transform="translate(0 1.143)">
            <path id="Path_81" data-name="Path 81" d="M5.64-51.333l2.9-24.37a2.611,2.611,0,0,1,.694-1.551,2.138,2.138,0,0,1,1.51-.531h2.408A2.431,2.431,0,0,1,15.6-75.867L21.275-56.64c.082.286.2.449.327.449.163,0,.286-.163.367-.449L27.6-75.826a2.369,2.369,0,0,1,2.449-1.959H32.5a2.067,2.067,0,0,1,1.47.571,2.313,2.313,0,0,1,.735,1.47l2.9,24.411a1.81,1.81,0,0,1-.367,1.51,1.642,1.642,0,0,1-1.347.531H33.929a1.974,1.974,0,0,1-1.47-.531,2.134,2.134,0,0,1-.653-1.429L30.745-61.906c-.122-.98-.2-2.776-.327-5.388a42.463,42.463,0,0,1-1.225,5.388L27.48-55.987c-.98,3.306-2.9,4.939-5.837,4.939s-4.9-1.633-5.8-4.939L14.09-62.151c-.367-1.265-.776-3.021-1.225-5.348-.122,2.613-.2,4.449-.327,5.47l-1.1,10.736a2.134,2.134,0,0,1-.653,1.429,1.97,1.97,0,0,1-1.429.571h-2a1.753,1.753,0,0,1-1.388-.571A1.9,1.9,0,0,1,5.64-51.333Z" transform="translate(-5.616 77.785)"/>
          </g>
          <g id="Group_89" data-name="Group 89" transform="translate(35.702 7.838)">
            <path id="Path_82" data-name="Path 82" d="M5.126-46.2v-4.327a8.985,8.985,0,0,1,2.449-6.327,8.428,8.428,0,0,1,6.531-2.653,8.466,8.466,0,0,1,6.572,2.694,9.028,9.028,0,0,1,2.449,6.286v2.939a.984.984,0,0,1-.286.735,1.194,1.194,0,0,1-.776.327H10.841v.327c0,2.817,1.306,4.2,3.96,4.2a18.382,18.382,0,0,0,4.123-.531c1.347-.286,2.163.122,2.449,1.306l.2.776a1.765,1.765,0,0,1-1.347,2.408,18.928,18.928,0,0,1-5.388.857c-3.225,0-5.674-.9-7.266-2.613A9.182,9.182,0,0,1,5.126-46.2Zm5.715-4.245h6.572v-.531c0-2.49-1.1-3.715-3.266-3.715a2.959,2.959,0,0,0-2.531,1.061,4.262,4.262,0,0,0-.776,2.653Z" transform="translate(-5.126 59.509)"/>
          </g>
          <g id="Group_90" data-name="Group 90" transform="translate(57.868 7.838)">
            <path id="Path_83" data-name="Path 83" d="M6.8-39.67V-57.019a1.878,1.878,0,0,1,.531-1.429,1.878,1.878,0,0,1,1.429-.531h.98c1.306,0,2,.531,2.123,1.551l.041.286a7.932,7.932,0,0,1,5.592-2.368,6.623,6.623,0,0,1,5.062,1.878,7.775,7.775,0,0,1,1.755,5.388V-39.67a1.878,1.878,0,0,1-.531,1.429,1.878,1.878,0,0,1-1.429.531h-1.8a1.878,1.878,0,0,1-1.429-.531A1.878,1.878,0,0,1,18.6-39.67V-51.59A4.472,4.472,0,0,0,18.064-54a2.218,2.218,0,0,0-1.8-.694,5.382,5.382,0,0,0-3.756,1.837V-39.67a1.878,1.878,0,0,1-.531,1.429,1.878,1.878,0,0,1-1.429.531h-1.8a1.878,1.878,0,0,1-1.429-.531A1.878,1.878,0,0,1,6.8-39.67Z" transform="translate(-6.798 59.509)"/>
          </g>
          <g id="Group_91" data-name="Group 91" transform="translate(78.115 1.878)">
            <path id="Path_84" data-name="Path 84" d="M4.614-54.1v-11.1l-1.429-.2a3.571,3.571,0,0,1-1.551-.531,1.519,1.519,0,0,1-.408-1.184V-67.7q0-1.592,1.959-1.592H4.614V-73.82a1.878,1.878,0,0,1,.531-1.429,1.878,1.878,0,0,1,1.429-.531h1.8a1.878,1.878,0,0,1,1.429.531,1.878,1.878,0,0,1,.531,1.429v4.531h2.817q1.959,0,1.959,1.714v.653q0,1.714-1.959,1.714H10.329v10.491c0,1.592.735,2.408,2.2,2.408A8.924,8.924,0,0,0,14-52.43c1.143-.2,1.837.2,2.041,1.225l.245,1.225a1.679,1.679,0,0,1-.245,1.429,1.975,1.975,0,0,1-1.306.816,12.978,12.978,0,0,1-2.531.245,8.147,8.147,0,0,1-5.674-1.755A6.3,6.3,0,0,1,4.614-54.1Z" transform="translate(-1.226 75.779)"/>
          </g>
          <g id="Group_92" data-name="Group 92" transform="translate(95.504 7.838)">
            <path id="Path_85" data-name="Path 85" d="M4.458-44.16a5.5,5.5,0,0,1,2.694-5.1,13.607,13.607,0,0,1,7.062-1.592h1.755v-.367a4.3,4.3,0,0,0-.694-2.653,3.093,3.093,0,0,0-2.449-.816,18.346,18.346,0,0,0-3.96.49c-1.265.327-2.041-.082-2.327-1.265l-.245-.9a1.833,1.833,0,0,1,.2-1.551,2.208,2.208,0,0,1,1.265-.857,18.968,18.968,0,0,1,5.062-.735A9.043,9.043,0,0,1,19.4-57.264a7.873,7.873,0,0,1,2.286,5.837V-39.67a2.024,2.024,0,0,1-.49,1.429,1.7,1.7,0,0,1-1.347.531H18.7a2.17,2.17,0,0,1-1.388-.367A1.6,1.6,0,0,1,16.7-39.3l-.041-.327a6.246,6.246,0,0,1-5.1,2.449,7.1,7.1,0,0,1-5.184-1.878A6.8,6.8,0,0,1,4.458-44.16Zm5.8-.041c0,1.47.816,2.2,2.408,2.2a4.06,4.06,0,0,0,3.306-1.592v-3.184H14.663a8.58,8.58,0,0,0-3.266.49A2.071,2.071,0,0,0,10.254-44.2Z" transform="translate(-4.458 59.509)"/>
          </g>
          <g id="Group_93" data-name="Group 93" transform="translate(117.548 0)">
            <path id="Path_86" data-name="Path 86" d="M6.909-56.086v-22.86a1.878,1.878,0,0,1,.531-1.429,1.878,1.878,0,0,1,1.429-.531h1.8a1.878,1.878,0,0,1,1.429.531,1.878,1.878,0,0,1,.531,1.429V-56.7c0,.694.122,1.1.367,1.306a1.5,1.5,0,0,1,.571,1.837L13.2-52.208a1.668,1.668,0,0,1-2.163,1.265A4.782,4.782,0,0,1,6.909-56.086Z" transform="translate(-6.909 80.905)"/>
          </g>
          <g id="Group_94" data-name="Group 94" transform="translate(129.386 0)">
            <path id="Path_87" data-name="Path 87" d="M9.584-52.208V-79.967a.854.854,0,0,1,.98-.939h.857a.841.841,0,0,1,.939.939v9.8c2.286-1.674,4.368-2.531,6.2-2.531a6.692,6.692,0,0,1,5.143,1.878,7.218,7.218,0,0,1,1.755,5.143v13.471a.841.841,0,0,1-.939.939h-.9a.841.841,0,0,1-.939-.939V-65.026a6.441,6.441,0,0,0-.98-3.919A4.231,4.231,0,0,0,18.2-70.21c-1.592,0-3.551.857-5.837,2.572v15.43a.841.841,0,0,1-.939.939h-.857A.854.854,0,0,1,9.584-52.208Z" transform="translate(-9.584 80.905)"/>
          </g>
          <g id="Group_95" data-name="Group 95" transform="translate(151.184 8.205)">
            <path id="Path_88" data-name="Path 88" d="M7.132-44.872v-5.266a8.514,8.514,0,0,1,2.2-5.919,7.7,7.7,0,0,1,5.96-2.449,7.562,7.562,0,0,1,5.919,2.49,8.476,8.476,0,0,1,2.245,5.878v2.286a.975.975,0,0,1-.2.571.806.806,0,0,1-.571.245H9.908v2.163a6.511,6.511,0,0,0,1.347,4.041,5.044,5.044,0,0,0,4.286,1.8,22.158,22.158,0,0,0,5.348-.816c.694-.2,1.1,0,1.225.531l.163.694c.163.531-.082.939-.735,1.143a22.71,22.71,0,0,1-6,.939,7.965,7.965,0,0,1-6.164-2.449A8.336,8.336,0,0,1,7.132-44.872ZM9.908-49.24H20.685V-50.26A6.511,6.511,0,0,0,19.338-54.3,4.825,4.825,0,0,0,15.3-56.016,4.825,4.825,0,0,0,11.255-54.3,6.348,6.348,0,0,0,9.908-50.26Z" transform="translate(-7.132 58.506)"/>
          </g>
          <g id="Group_96" data-name="Group 96" transform="translate(171.962 8.205)">
            <path id="Path_89" data-name="Path 89" d="M5.572-42.627c0-4.041,2.98-6.041,8.94-6.041h3.837v-2a5.9,5.9,0,0,0-1.143-4.041,4.985,4.985,0,0,0-3.878-1.306,18.5,18.5,0,0,0-4.776.694c-.612.2-.98-.041-1.143-.653l-.122-.531c-.2-.612.041-.98.653-1.184a19.406,19.406,0,0,1,5.388-.816,7.854,7.854,0,0,1,5.837,2A7.149,7.149,0,0,1,21.125-51.2v13.185c0,.612-.286.939-.857.939h-.449a.887.887,0,0,1-.98-.816l-.2-1.306a9.42,9.42,0,0,1-6.409,2.653,6.881,6.881,0,0,1-4.858-1.674A5.75,5.75,0,0,1,5.572-42.627Zm2.857,0a3.412,3.412,0,0,0,1.061,2.613,4.2,4.2,0,0,0,3.021.98,8.21,8.21,0,0,0,5.837-2.49v-4.858H14.675a9.975,9.975,0,0,0-4.613.857A3,3,0,0,0,8.429-42.627Z" transform="translate(-5.572 58.506)"/>
          </g>
          <g id="Group_97" data-name="Group 97" transform="translate(194.413 0)">
            <path id="Path_90" data-name="Path 90" d="M9.7-54.617v-25.35a.841.841,0,0,1,.939-.939h.857a.854.854,0,0,1,.98.939V-54.9a1.78,1.78,0,0,0,.571,1.551.873.873,0,0,1,.408,1.061l-.163.653c-.122.612-.449.857-1.061.735C10.553-51.229,9.7-52.453,9.7-54.617Z" transform="translate(-9.695 80.905)"/>
          </g>
          <g id="Group_98" data-name="Group 98" transform="translate(201.312 1.878)">
            <path id="Path_91" data-name="Path 91" d="M4.989-53.614v-13.1L2.458-66.88c-.612-.082-.9-.367-.9-.9v-.286c0-.571.327-.857.939-.857h2.49V-74.84a.841.841,0,0,1,.939-.939h.857a.854.854,0,0,1,.98.939v5.919h4.164c.653,0,.98.286.98.9v.408c0,.612-.327.9-.98.9H7.765v12.736c0,2.653,1.143,4,3.429,4a7.847,7.847,0,0,0,1.837-.163c.612-.082.98.122,1.061.653l.122.694c.122.612-.082.98-.694,1.1a13.6,13.6,0,0,1-2.408.2,6.043,6.043,0,0,1-4.449-1.633A6.036,6.036,0,0,1,4.989-53.614Z" transform="translate(-1.56 75.779)"/>
          </g>
          <g id="Group_99" data-name="Group 99" transform="translate(218.497 0)">
            <path id="Path_92" data-name="Path 92" d="M9.584-52.208V-79.967a.854.854,0,0,1,.98-.939h.857a.841.841,0,0,1,.939.939v9.8c2.286-1.674,4.368-2.531,6.2-2.531a6.692,6.692,0,0,1,5.143,1.878,7.218,7.218,0,0,1,1.755,5.143v13.471a.841.841,0,0,1-.939.939h-.9a.841.841,0,0,1-.939-.939V-65.026a6.441,6.441,0,0,0-.98-3.919A4.231,4.231,0,0,0,18.2-70.21c-1.592,0-3.551.857-5.837,2.572v15.43a.841.841,0,0,1-.939.939h-.857A.854.854,0,0,1,9.584-52.208Z" transform="translate(-9.584 80.905)"/>
          </g>
          <g id="Group_100" data-name="Group 100" transform="translate(239.724 8.205)">
            <path id="Path_93" data-name="Path 93" d="M5.572-42.627c0-4.041,2.98-6.041,8.94-6.041h3.837v-2a5.9,5.9,0,0,0-1.143-4.041,4.985,4.985,0,0,0-3.878-1.306,18.5,18.5,0,0,0-4.776.694c-.612.2-.98-.041-1.143-.653l-.122-.531c-.2-.612.041-.98.653-1.184a19.406,19.406,0,0,1,5.388-.816,7.854,7.854,0,0,1,5.837,2A7.149,7.149,0,0,1,21.125-51.2v13.185c0,.612-.286.939-.857.939h-.449a.887.887,0,0,1-.98-.816l-.2-1.306a9.42,9.42,0,0,1-6.409,2.653,6.881,6.881,0,0,1-4.858-1.674A5.75,5.75,0,0,1,5.572-42.627Zm2.857,0a3.412,3.412,0,0,0,1.061,2.613,4.2,4.2,0,0,0,3.021.98,8.21,8.21,0,0,0,5.837-2.49v-4.858H14.675a9.975,9.975,0,0,0-4.613.857A3,3,0,0,0,8.429-42.627Z" transform="translate(-5.572 58.506)"/>
          </g>
          <g id="Group_101" data-name="Group 101" transform="translate(261.93 8.736)">
            <path id="Path_94" data-name="Path 94" d="M9.027-42.688v-13.43a.854.854,0,0,1,.98-.939h.857a.841.841,0,0,1,.939.939v12.777a6.161,6.161,0,0,0,1.021,3.919,4.243,4.243,0,0,0,3.511,1.306c1.674,0,3.592-.857,5.8-2.613V-56.118a.841.841,0,0,1,.939-.939h.9a.841.841,0,0,1,.939.939V-37.1c0,.612-.286.939-.9.939H23.6c-.612,0-.939-.245-1.021-.776l-.163-1.429a10.364,10.364,0,0,1-6.45,2.735,6.712,6.712,0,0,1-5.143-1.919A7.238,7.238,0,0,1,9.027-42.688Z" transform="translate(-9.027 57.057)"/>
          </g>
          <g id="Group_102" data-name="Group 102" transform="translate(283.933 0)">
            <path id="Path_95" data-name="Path 95" d="M7.132-59.066v-5.307A8.732,8.732,0,0,1,9.173-70.5a7.136,7.136,0,0,1,5.552-2.2,10.159,10.159,0,0,1,6.041,2.49v-9.756a.854.854,0,0,1,.98-.939H22.6a.841.841,0,0,1,.939.939v27.758c0,.612-.286.939-.857.939h-.49c-.612,0-.9-.245-.939-.776l-.2-1.388c-2.286,1.8-4.409,2.694-6.327,2.694a7.026,7.026,0,0,1-5.552-2.245A8.693,8.693,0,0,1,7.132-59.066Zm2.817-.653a8.177,8.177,0,0,0,1.225,4.9,4.6,4.6,0,0,0,3.878,1.592c1.592,0,3.511-.857,5.715-2.572V-67.557c-2.245-1.755-4.123-2.653-5.715-2.653a4.6,4.6,0,0,0-3.878,1.592,8.01,8.01,0,0,0-1.225,4.9Z" transform="translate(-7.132 80.905)"/>
          </g>
          <g id="Group_103" data-name="Group 103" transform="translate(306.996 1.102)">
            <path id="Path_96" data-name="Path 96" d="M11.613-74.835a1.921,1.921,0,0,1-1.347.571A1.612,1.612,0,0,1,9-74.835a1.665,1.665,0,0,1-.531-1.306A1.58,1.58,0,0,1,9-77.407a1.691,1.691,0,0,1,1.265-.49,1.955,1.955,0,0,1,1.347.49,1.58,1.58,0,0,1,.531,1.265A1.665,1.665,0,0,1,11.613-74.835ZM8.878-50.3V-69.324a.854.854,0,0,1,.98-.939h.857a.841.841,0,0,1,.939.939V-50.3a.841.841,0,0,1-.939.939H9.857A.854.854,0,0,1,8.878-50.3Z" transform="translate(-8.469 77.897)"/>
          </g>
          <g id="Group_104" data-name="Group 104" transform="translate(314.303 1.878)">
            <path id="Path_97" data-name="Path 97" d="M4.989-53.614v-13.1L2.458-66.88c-.612-.082-.9-.367-.9-.9v-.286c0-.571.327-.857.939-.857h2.49V-74.84a.841.841,0,0,1,.939-.939h.857a.854.854,0,0,1,.98.939v5.919h4.164c.653,0,.98.286.98.9v.408c0,.612-.327.9-.98.9H7.765v12.736c0,2.653,1.143,4,3.429,4a7.847,7.847,0,0,0,1.837-.163c.612-.082.98.122,1.061.653l.122.694c.122.612-.082.98-.694,1.1a13.6,13.6,0,0,1-2.408.2,6.043,6.043,0,0,1-4.449-1.633A6.036,6.036,0,0,1,4.989-53.614Z" transform="translate(-1.56 75.779)"/>
          </g>
        </g>
      </g>
    </g>
    <g id="jj" transform="translate(-109.406 -185.038)">
      <g id="Group_1005" data-name="Group 1005" transform="translate(326.406 223.038)">
        <path id="Path_1492" data-name="Path 1492" d="M374.673,240.676s9.108,14.2,4.94,26.553a2.781,2.781,0,0,0,.233,3.127c1.1,1.566,9.44,10.674,6.924,13.129a1.642,1.642,0,0,1-1.3.453c-.9-.077-3.368-.227-4.228.445-1.062.829-1.295,1.839.285,4.325s-1.01,2.979-2.486,3.03c0,0,4.791.829,1.4,3.937a16.654,16.654,0,0,0,.61,4.99c.7,1.834.063,6.829-2.466,5.628,0,0-1.8,2.279-3.876.952s-13.375-6.817-15.746.2-1.186,11.362-6.817,16.1c0,0,1.786-12.369-9.985-23.368s3.28-33.963,12.157-40.91c0,0-15.052,6.175-21.227,22.578,0,0-6.368-9.278-5.982-16.893s4.637-11.96,9.578-14.727S359.017,240.9,359.314,230c0,0,15.235,11.946,7.757,29.285a29.8,29.8,0,0,1-6.844,9.82c-3.44,3.3-10.587,10.524-11.409,14.6,0,0,10.275-8.537,17.29-13.477S379.458,251.732,374.673,240.676Z" transform="translate(-327.094 -230)" fill="#59d083" fill-rule="evenodd"/>
      </g>
    </g>
  </g>
</svg>
