<svg xmlns="http://www.w3.org/2000/svg" xmlns:xlink="http://www.w3.org/1999/xlink" width="322.107" height="315.369" viewBox="0 0 322.107 315.369">
  <defs>
    <linearGradient id="linear-gradient" x1="0.5" y1="1" x2="0.5" gradientUnits="objectBoundingBox">
      <stop offset="0" stop-color="gray" stop-opacity="0.251"/>
      <stop offset="0.54" stop-color="gray" stop-opacity="0.122"/>
      <stop offset="1" stop-color="gray" stop-opacity="0.102"/>
    </linearGradient>
  </defs>
  <g id="Group_639" data-name="Group 639" transform="translate(0.03 -0.003)">
    <path id="Path_1126" data-name="Path 1126" d="M509.417,704.53H200.985c-3.776,0-6.835,1.9-6.835,4.244v43.884c0,2.343,3.059,4.244,6.835,4.244H509.417c3.776,0,6.839-1.9,6.839-4.244V708.774C516.257,706.43,513.193,704.53,509.417,704.53Z" transform="translate(-194.18 -441.529)" fill="#59d083"/>
    <path id="Path_1127" data-name="Path 1127" d="M509.417,704.53H200.985c-3.776,0-6.835,1.9-6.835,4.244v43.884c0,2.343,3.059,4.244,6.835,4.244H509.417c3.776,0,6.839-1.9,6.839-4.244V708.774C516.257,706.43,513.193,704.53,509.417,704.53Z" transform="translate(-194.18 -441.529)" opacity="0.2"/>
    <rect id="Rectangle_609" data-name="Rectangle 609" width="322.094" height="49.316" rx="14.09" transform="translate(-0.018 263.002)" fill="#59d083"/>
    <rect id="Rectangle_610" data-name="Rectangle 610" width="322.094" height="4.252" transform="translate(-0.018 269.804)" fill="#fff" opacity="0.05"/>
    <rect id="Rectangle_611" data-name="Rectangle 611" width="322.094" height="4.252" transform="translate(-0.018 279.723)" fill="#fff" opacity="0.05"/>
    <rect id="Rectangle_612" data-name="Rectangle 612" width="322.094" height="4.252" transform="translate(-0.018 289.643)" fill="#fff" opacity="0.05"/>
    <rect id="Rectangle_613" data-name="Rectangle 613" width="322.094" height="4.252" transform="translate(-0.018 299.562)" fill="#fff" opacity="0.05"/>
    <g id="Group_632" data-name="Group 632" transform="translate(266.185 85.702)" opacity="0.5">
      <path id="Path_1128" data-name="Path 1128" d="M844.274,277.133a4.513,4.513,0,0,0-5.883.546,4.608,4.608,0,0,0,.182,6.421l5.622,5.589a.94.94,0,0,0,1.329,0l5.589-5.622a4.608,4.608,0,0,0,.149-6.421,4.5,4.5,0,0,0-5.879-.518.952.952,0,0,1-1.11,0Z" transform="translate(-837.177 -276.274)" fill="#f55f44"/>
      <path id="Path_1129" data-name="Path 1129" d="M854.816,308.15a.828.828,0,0,0,0,.783,4.018,4.018,0,0,1,.219.364c.145.36-.108.754-.364,1.047-.161.186-.339.435-.236.662a.857.857,0,0,0,.19.215,1.383,1.383,0,0,1-.526,2.31" transform="translate(-847.094 -294.953)" fill="none" stroke="#f55f44" stroke-miterlimit="10" stroke-width="1"/>
    </g>
    <g id="Group_633" data-name="Group 633" transform="translate(26.063 116.338)" opacity="0.5">
      <path id="Path_1130" data-name="Path 1130" d="M264.274,351.133a4.513,4.513,0,0,0-5.883.547,4.608,4.608,0,0,0,.182,6.421l5.622,5.589a.94.94,0,0,0,1.329,0l5.589-5.622a4.608,4.608,0,0,0,.149-6.421,4.5,4.5,0,0,0-5.879-.518A.952.952,0,0,1,264.274,351.133Z" transform="translate(-257.177 -350.274)" fill="#f55f44"/>
      <path id="Path_1131" data-name="Path 1131" d="M274.816,382.15a.828.828,0,0,0,0,.783,4.035,4.035,0,0,1,.219.364c.145.36-.108.753-.364,1.047-.161.186-.34.435-.236.662a.857.857,0,0,0,.19.215,1.383,1.383,0,0,1-.526,2.31" transform="translate(-267.094 -368.953)" fill="none" stroke="#f55f44" stroke-miterlimit="10" stroke-width="1"/>
    </g>
    <g id="Group_634" data-name="Group 634" transform="translate(183.385 0.003)" opacity="0.5">
      <path id="Path_1132" data-name="Path 1132" d="M644.274,70.133a4.513,4.513,0,0,0-5.883.546,4.608,4.608,0,0,0,.182,6.421L644.2,82.69a.94.94,0,0,0,1.329,0l5.589-5.622a4.608,4.608,0,0,0,.149-6.421,4.5,4.5,0,0,0-5.879-.518A.952.952,0,0,1,644.274,70.133Z" transform="translate(-637.177 -69.273)" fill="#f55f44"/>
      <path id="Path_1133" data-name="Path 1133" d="M654.816,101.15a.828.828,0,0,0,0,.782,4.065,4.065,0,0,1,.219.364c.145.36-.108.753-.364,1.047-.161.186-.339.414-.236.662a.858.858,0,0,0,.191.215,1.383,1.383,0,0,1-.526,2.31" transform="translate(-647.094 -87.953)" fill="none" stroke="#f55f44" stroke-miterlimit="10" stroke-width="1"/>
    </g>
    <g id="Group_635" data-name="Group 635" transform="translate(225.614 58.451)" opacity="0.5">
      <rect id="Rectangle_614" data-name="Rectangle 614" width="1.242" height="7.038" transform="translate(2.898)" fill="#47e6b1"/>
      <rect id="Rectangle_615" data-name="Rectangle 615" width="1.242" height="7.038" transform="translate(7.038 2.898) rotate(90)" fill="#47e6b1"/>
    </g>
    <g id="Group_636" data-name="Group 636" transform="translate(82.369 166.506)" opacity="0.5">
      <rect id="Rectangle_616" data-name="Rectangle 616" width="1.242" height="7.038" transform="translate(2.898)" fill="#47e6b1"/>
      <rect id="Rectangle_617" data-name="Rectangle 617" width="1.242" height="7.038" transform="translate(7.038 2.898) rotate(90)" fill="#47e6b1"/>
    </g>
    <g id="Group_637" data-name="Group 637" transform="translate(50.077 49.757)" opacity="0.5">
      <rect id="Rectangle_618" data-name="Rectangle 618" width="1.242" height="7.038" transform="translate(2.898)" fill="#47e6b1"/>
      <rect id="Rectangle_619" data-name="Rectangle 619" width="1.242" height="7.038" transform="translate(7.038 2.898) rotate(90)" fill="#47e6b1"/>
    </g>
    <g id="Group_638" data-name="Group 638" transform="translate(270.74 158.64)" opacity="0.5">
      <rect id="Rectangle_620" data-name="Rectangle 620" width="1.242" height="7.038" transform="translate(2.898)" fill="#47e6b1"/>
      <rect id="Rectangle_621" data-name="Rectangle 621" width="1.242" height="7.038" transform="translate(7.038 2.898) rotate(90)" fill="#47e6b1"/>
    </g>
    <path id="Path_1134" data-name="Path 1134" d="M735.075,327.04a1.524,1.524,0,0,1-.828-1.838.491.491,0,0,0,.033-.17h0a.762.762,0,0,0-1.387-.5h0a.864.864,0,0,0-.083.149,1.524,1.524,0,0,1-1.838.828.771.771,0,0,0-.17-.033h0a.762.762,0,0,0-.505,1.37h0a.754.754,0,0,0,.149.083,1.519,1.519,0,0,1,.828,1.838.828.828,0,0,0-.033.17h0a.762.762,0,0,0,1.37.505h0a.656.656,0,0,0,.083-.149,1.528,1.528,0,0,1,1.842-.849.734.734,0,0,0,.166.033h0a.762.762,0,0,0,.505-1.37h0A.654.654,0,0,0,735.075,327.04Z" transform="translate(-508.182 -218.656)" fill="#4d8af0" opacity="0.5"/>
    <path id="Path_1135" data-name="Path 1135" d="M370.075,289.04a1.524,1.524,0,0,1-.828-1.838.493.493,0,0,0,.033-.17h0a.762.762,0,0,0-1.387-.5h0a.861.861,0,0,0-.083.149,1.524,1.524,0,0,1-1.838.828.771.771,0,0,0-.17-.033h0a.762.762,0,0,0-.505,1.37h0a.752.752,0,0,0,.149.083,1.519,1.519,0,0,1,.849,1.838.826.826,0,0,0-.033.17h0a.762.762,0,0,0,1.37.505h0a.655.655,0,0,0,.083-.149,1.528,1.528,0,0,1,1.842-.849.731.731,0,0,0,.166.033h0a.762.762,0,0,0,.505-1.37h0a.652.652,0,0,0-.153-.066Z" transform="translate(-294.293 -196.388)" fill="#4d8af0" opacity="0.5"/>
    <path id="Path_1136" data-name="Path 1136" d="M514.075,94.04a1.523,1.523,0,0,1-.828-1.838.493.493,0,0,0,.033-.17h0a.762.762,0,0,0-1.387-.5h0a.862.862,0,0,0-.083.149,1.524,1.524,0,0,1-1.838.849.769.769,0,0,0-.17-.033h0a.762.762,0,0,0-.505,1.37h0a.752.752,0,0,0,.149.083,1.519,1.519,0,0,1,.849,1.838.831.831,0,0,0-.033.17h0a.762.762,0,0,0,1.37.505h0a.653.653,0,0,0,.083-.149,1.528,1.528,0,0,1,1.842-.849.733.733,0,0,0,.166.033h0a.762.762,0,0,0,.505-1.37h0A.654.654,0,0,0,514.075,94.04Z" transform="translate(-378.676 -82.119)" fill="#4d8af0" opacity="0.5"/>
    <path id="Path_1137" data-name="Path 1137" d="M526.953,484.476l-20.145-15.471s-1.623-6.442-2.273-10.954-1.627-23.847-1.627-23.847a28.04,28.04,0,0,0,.915-5.117c.2-.041.414-.091.6-.145a10.04,10.04,0,0,0,6.786-5.85c2.07-5.15-.6-11.236-3.991-15.318s-7.651-7.361-9.878-12.42c-2.749-6.231-1.809-13.77-3.213-20.592a6.231,6.231,0,0,0-1.035-2.662c-.874-1.081-2.236-1.312-3.449-1.743-3.842-1.366-6.723-5.1-8.971-8.992-3.639-6.314-7.406-15.918-14.9-16.465-2.786-.2-5.693.737-8.512.729a94.371,94.371,0,0,0-13.025.654,8.834,8.834,0,0,0-4.442,1.519c-4.434,3.511-2.426,12.78-6.7,16.56-1.271,1.118-2.9,1.524-4.335,2.294-5.415,2.9-7.82,10.627-7.5,17.579.153,3.262.828,6.653,2.753,9.034,1.528,1.9,3.7,3,5.121,5.009,2.289,3.238,1.979,7.539,1.731,11.911-3.064,1.283-5.523,2.757-6.3,4.343-2.625,5.328-2.285,23.544-2.285,23.544s.973,29.808-6.5,33.534l-27.953,19.334s-19.831-17.239-24.708-7.088c-3.333,6.943,8.839,10.872,16.871,12.66-5.063,3.594-7.866,10.234-5.494,14.73,3.726,7.092,14.142,11.923,14.142,11.923s39.724,1.917,58.085-2.2h.3c7.8,1.412,18.982,2.9,27.953,2,.174.414.294.679.294.679s57.546,4.836,67.942-14.821c5.332-10.085-.232-14.738-6.922-16.883,7.489-.6,16.018-2.691,17-9.063C555.072,471.261,526.953,484.476,526.953,484.476Zm-5.8,6.165a59.086,59.086,0,0,1-23.631,3.763c-2.236-4.877-11.559-26-11.8-40.133a16,16,0,0,1,1.884-7.982c2.708-4.459,3.511-7.957,3.42-10.611v-.58a10.836,10.836,0,0,0-.232-2.414,6.351,6.351,0,0,1,.381,3.453c-.973,4.993,1.627,37.38,1.627,37.38s2.111,7.253,6.5,9.344Zm-103.12-2.3,10.11-6.446a9.942,9.942,0,0,0,5.2-7.734l3.333-26.177a26.687,26.687,0,0,0,.89,3.312,25.441,25.441,0,0,1,.878,7.233c-.128,14.61-5.1,38.85-5.1,38.85h.058a.81.81,0,0,1-.033.174l-.352.021c-8.177-.248-27.233-.961-37.9-2.439ZM400.408,503.6v.05h-2.484Z" transform="translate(-292.86 -230.769)" fill="url(#linear-gradient)"/>
    <path id="Path_1138" data-name="Path 1138" d="M564.683,368.283c2.169,3.8,4.968,7.452,8.694,8.764,1.172.414,2.484.65,3.312,1.706a6.1,6.1,0,0,1,1.006,2.6c1.354,6.649.447,14,3.105,20.079,2.153,4.923,6.272,8.127,9.547,12.1s5.842,9.907,3.859,14.925a9.742,9.742,0,0,1-6.562,5.7,19.164,19.164,0,0,1-8.384-.058c-3.668-.65-7.4-1.656-10.458-4.14-5.287-4.3-7.522-12.006-10.288-18.866-1.3-3.213-3.026-6.579-5.883-7.725-3.271-1.317-6.951.882-9.075,4.107s-3.064,7.278-4.094,11.178c-1.159,4.4-2.625,8.976-5.676,11.857a9.551,9.551,0,0,1-10.2,2.037c-3.395-1.412-6.078-4.993-6.86-9.145-1.2-6.4,1.681-14.076-1.859-19.135-1.374-1.958-3.473-3.026-4.947-4.881-1.842-2.323-2.513-5.63-2.658-8.806-.31-6.781,2.012-14.337,7.249-17.144,1.4-.749,2.96-1.143,4.19-2.236,4.14-3.68,2.186-12.718,6.471-16.146a8.487,8.487,0,0,1,4.3-1.486,89.485,89.485,0,0,1,12.586-.633c2.728,0,5.539-.911,8.23-.712C557.529,352.762,561.169,362.127,564.683,368.283Z" transform="translate(-377.646 -235.059)" fill="#965d7b"/>
    <path id="Path_1139" data-name="Path 1139" d="M264.1,643.3l1.586,18.783,110.907-.662-2.116-20.506-37.5-4.364-65.752,3.97Z" transform="translate(-154.779 -373.014)" fill="#575988"/>
    <path id="Path_1140" data-name="Path 1140" d="M264.1,643.3l1.586,18.783,110.907-.662-2.116-20.506-37.5-4.364-65.752,3.97Z" transform="translate(-154.779 -373.014)" opacity="0.05"/>
    <path id="Path_1141" data-name="Path 1141" d="M582.291,753.82l-36.921,3.457s25.3,6.442,40.063,3.312Z" transform="translate(-399.994 -470.412)" fill="#f7c4a7"/>
    <path id="Path_1142" data-name="Path 1142" d="M582.291,753.82l-36.921,3.457s25.3,6.442,40.063,3.312Z" transform="translate(-399.994 -470.412)" opacity="0.1"/>
    <path id="Path_1143" data-name="Path 1143" d="M554.237,434.29s7.228,19.011-3.457,27.494-1.884,32.209-1.884,32.209l41.164-1.888s4.082-26.707,1.884-32.363c0,0-9.741,2.828-11.94-3.142s-3.772-22.311-3.772-22.311Z" transform="translate(-400.063 -283.169)" fill="#f7c4a7"/>
    <path id="Path_1144" data-name="Path 1144" d="M457.288,706.91s-34.722-.787-44.932-3.312-19.011,9.6-15.4,16.527,13.662,11.625,13.662,11.625,51.692,2.513,62.846-4.554c0,0,4.244-12.1,0-14.453H419.581l39.744-.787Z" transform="translate(-312.541 -440.783)" fill="#575988"/>
    <path id="Path_1145" data-name="Path 1145" d="M649.394,698s11.629,2.513,27.651-3.772c0,0,30.011-.94,19.955,18.216S631.326,726.9,631.326,726.9s-3.312-7.071,0-8.955,32.052-13.985,41.007-13.356l-24.84,4.869Z" transform="translate(-449.502 -435.488)" fill="#575988"/>
    <path id="Path_1146" data-name="Path 1146" d="M590.708,444.883c-.6-4.475-.952-8.123-.952-8.123h-22a42.854,42.854,0,0,1,2.1,8.893A17.285,17.285,0,0,0,590.708,444.883Z" transform="translate(-413.114 -284.616)" opacity="0.1"/>
    <circle id="Ellipse_180" data-name="Ellipse 180" cx="17.28" cy="17.28" r="17.28" transform="translate(148.912 128.579)" fill="#f7c4a7"/>
    <path id="Path_1147" data-name="Path 1147" d="M453.425,491.584s-20.737,3.929-23.25,9.108-2.2,22.94-2.2,22.94.94,29.063-6.285,32.677l-27.026,18.854s-19.164-16.808-23.88-6.914,22.625,13.513,22.625,13.513l30.479-9.108,9.742-6.285a9.68,9.68,0,0,0,5.026-7.543l4.086-32.363,16.341-4.716h26.393l3.536-10.093s6.521,5.225,5.577,10.093,1.573,36.432,1.573,36.432,2.041,7.067,6.285,9.108l24.509,8.8s25.921,2.513,27.651-8.8-25.453,1.61-25.453,1.61l-19.5-15.1s-1.569-6.285-2.2-10.685-1.569-23.25-1.569-23.25,5.97-19.8-11.315-23.25L472.267,489.7Z" transform="translate(-297.368 -315.639)" fill="#f7c4a7"/>
    <path id="Path_1148" data-name="Path 1148" d="M536.365,496.711,539.586,518s-3.312,9.9,0,19.64S535.5,583.68,535.5,583.68s38.809,12.42,62.514-1.888c0,0-17.438-36.763-10.056-49.018s.124-17.049.124-17.049l1.134-22.542-5.341-1.573-3.142,22.311S559.053,529,543.027,515.808l-3.457-24.2Z" transform="translate(-394.21 -316.758)" opacity="0.1"/>
    <path id="Path_1149" data-name="Path 1149" d="M568.407,556.542a12.731,12.731,0,0,0-16.477-4.633A23.946,23.946,0,0,0,568.407,556.542Z" transform="translate(-403.838 -351.306)" fill="#fff" opacity="0.07"/>
    <path id="Path_1150" data-name="Path 1150" d="M613.24,550.892a12.71,12.71,0,0,1,16.461-4.633A24.08,24.08,0,0,1,613.24,550.892Z" transform="translate(-439.766 -347.995)" fill="#fff" opacity="0.07"/>
    <path id="Path_1151" data-name="Path 1151" d="M536.365,495.146l3.221,20.187s-3.312,9.9,0,19.64-4.086,46.033-4.086,46.033,38.809,12.42,62.514-1.884c0,0-17.438-36.763-10.056-49.018s.124-17.049.124-17.049l1.134-22.547-5.341-1.569-3.142,22.311s-21.681,15.082-37.707,1.884L539.57,488.94Z" transform="translate(-394.21 -315.193)" opacity="0.1"/>
    <path id="Path_1152" data-name="Path 1152" d="M536.208,495.434l3.378,20.659s-3.312,9.9,0,19.64-4.086,46.033-4.086,46.033,38.809,12.42,62.514-1.884c0,0-17.438-36.768-10.056-49.022s.124-17.044.124-17.044l1.134-22.547-5.341-1.569-3.142,22.311s-21.681,15.082-37.707,1.884L539.57,489.7Z" transform="translate(-394.21 -315.639)" fill="#fc6681"/>
    <path id="Path_1153" data-name="Path 1153" d="M575.73,720.155l8.168-1.105s9.427-12.1,16.183-2.828c0,0,2.828,5.97,6.285,7.067a46.423,46.423,0,0,0,7.229,1.573l-13.985,3.929s-6.127,3.614-12.569,2.67a24.374,24.374,0,0,0-11.311.944Z" transform="translate(-417.785 -446.331)" fill="#f7c4a7"/>
    <path id="Path_1154" data-name="Path 1154" d="M553.91,604.326s14.768,2.2,17.281-1.726" transform="translate(-404.998 -381.798)" opacity="0.1"/>
    <path id="Path_1155" data-name="Path 1155" d="M621.46,600.7s2.828,2.828,14.138.787" transform="translate(-444.582 -380.684)" opacity="0.1"/>
    <path id="Path_1156" data-name="Path 1156" d="M552,494.82s10.843,1.573,12.884.629" transform="translate(-403.879 -318.639)" opacity="0.1"/>
    <path id="Path_1157" data-name="Path 1157" d="M609.69,494.82s10.843,1.573,12.884.629" transform="translate(-437.685 -318.639)" opacity="0.1"/>
    <path id="Path_1158" data-name="Path 1158" d="M568.344,727.83s2.989,14.076,0,14.573-7.224-2.318-7.224-2.633S563,730.5,563,730.5Z" transform="translate(-409.223 -455.182)" opacity="0.1"/>
    <path id="Path_1159" data-name="Path 1159" d="M567.589,727.83s2.985,14.076,0,14.573-7.229-2.318-7.229-2.633,1.884-9.27,1.884-9.27Z" transform="translate(-408.778 -455.182)" fill="#575988"/>
    <path id="Path_1160" data-name="Path 1160" d="M540.836,473.04c-1.321,3.059-1.789,6.67-.389,9.692,1.068,2.306,3.159,4.173,3.56,6.682.505,3.151-1.83,6.347-.956,9.414a8.64,8.64,0,0,0,1.892,3.1c2.393,2.828,5.573,5.568,9.265,5.349.588-5.7-4.347-11.24-2.732-16.742.58-1.971,1.938-3.61,2.757-5.49,1.362-3.117,1.167-6.678.675-10.044-.716-4.885-2.53-10.872-7.373-13.157-2.223-1.052-5.382-1.13-6.173,1.726-.435,1.523.58,2.956.716,4.446C542.247,469.906,541.568,471.343,540.836,473.04Z" transform="translate(-396.611 -298.921)" opacity="0.1"/>
    <path id="Path_1161" data-name="Path 1161" d="M540.836,471.906c-1.321,3.06-1.789,6.665-.389,9.692,1.068,2.3,3.159,4.173,3.56,6.678.505,3.151-1.83,6.347-.956,9.414a8.656,8.656,0,0,0,1.892,3.1c2.393,2.823,5.573,5.564,9.265,5.345.588-5.7-4.347-11.24-2.732-16.742.58-1.971,1.938-3.61,2.757-5.49,1.362-3.117,1.167-6.678.675-10.044-.716-4.885-2.53-10.872-7.373-13.157-2.223-1.052-5.382-1.126-6.173,1.726-.435,1.524.58,2.956.716,4.446C542.247,468.768,541.568,470.2,540.836,471.906Z" transform="translate(-396.611 -298.255)" fill="#965d7b"/>
    <path id="Path_1162" data-name="Path 1162" d="M545.56,380.736s22.936-3.142,23.565,1.569,20.9,12.42,20.9,12.42l-5.03-12.42-9.27-15.4s-16.974-1.242-17.752,0-9.746,5.341-9.746,5.341Z" transform="translate(-400.105 -243.36)" opacity="0.1"/>
    <path id="Path_1163" data-name="Path 1163" d="M545.56,379.976s22.936-3.142,23.565,1.569,20.9,12.42,20.9,12.42l-5.03-12.42-9.27-15.4s-16.974-1.242-17.752,0-9.746,5.341-9.746,5.341Z" transform="translate(-400.105 -242.915)" fill="#965d7b"/>
    <path id="Path_1164" data-name="Path 1164" d="M639.378,476.66a11.177,11.177,0,0,1,2.3,4.608c.381,1.623.414,3.312.758,4.935.77,3.457,3.059,6.363,5.444,8.98a9.8,9.8,0,0,0,2.786,2.343,3.647,3.647,0,0,0,3.494,0,6.259,6.259,0,0,1-1.826-3.188,16.335,16.335,0,0,1-.638-5.138c.1-2.9.952-5.958-.253-8.6a10.61,10.61,0,0,0-3.312-3.726,17.84,17.84,0,0,0-2.956-1.942,18.375,18.375,0,0,0-6.347-1.615C636.024,473.033,638.479,475.6,639.378,476.66Z" transform="translate(-453.996 -306.027)" opacity="0.1"/>
    <path id="Path_1165" data-name="Path 1165" d="M639.378,475.519a11.116,11.116,0,0,1,2.3,4.6c.381,1.623.414,3.312.758,4.935.77,3.457,3.059,6.363,5.444,8.98a9.8,9.8,0,0,0,2.786,2.343,3.647,3.647,0,0,0,3.494,0,6.242,6.242,0,0,1-1.826-3.188,16.334,16.334,0,0,1-.638-5.138c.1-2.9.952-5.958-.253-8.6a10.682,10.682,0,0,0-3.312-3.726,17.605,17.605,0,0,0-2.956-1.946,18.376,18.376,0,0,0-6.347-1.615C636.024,471.888,638.479,474.455,639.378,475.519Z" transform="translate(-453.996 -305.353)" fill="#965d7b"/>
  </g>
</svg>
