<svg xmlns="http://www.w3.org/2000/svg" width="387.857" height="260.128" viewBox="0 0 387.857 260.128">
  <g id="Group_645" data-name="Group 645" transform="translate(0 0.122)">
    <g id="Group_640" data-name="Group 640" transform="translate(17.99 -0.122)" opacity="0.2">
      <path id="Path_1166" data-name="Path 1166" d="M180.452,724.642a16.826,16.826,0,0,0-.155,2.831q9.417.151,18.907.63c.043-.245.086-.5.122-.753a15.006,15.006,0,0,0-.882-7.826c-1.3-3.18-3.735-5.452-6.778-5.888s-6.011,1.059-8.153,3.731a15.032,15.032,0,0,0-3.061,7.275Z" transform="translate(-155.5 -488.56)" fill="#3f3d56"/>
      <ellipse id="Ellipse_181" data-name="Ellipse 181" cx="12.482" cy="9.536" rx="12.482" ry="9.536" transform="translate(25.247 232.772) rotate(-81.951)" fill="#3f3d56"/>
      <ellipse id="Ellipse_182" data-name="Ellipse 182" cx="12.482" cy="9.536" rx="12.482" ry="9.536" transform="translate(27.521 218.239) rotate(-81.82)" fill="#3f3d56"/>
      <ellipse id="Ellipse_183" data-name="Ellipse 183" cx="12.482" cy="9.536" rx="12.482" ry="9.536" transform="translate(29.69 203.141) rotate(-81.82)" fill="#3f3d56"/>
      <ellipse id="Ellipse_184" data-name="Ellipse 184" cx="12.482" cy="9.536" rx="12.482" ry="9.536" transform="translate(31.859 188.039) rotate(-81.82)" fill="#3f3d56"/>
      <path id="Path_1167" data-name="Path 1167" d="M204.707,167.553a45.884,45.884,0,0,0,4.257-4.682l-24.208-7.624,26.79,4.055a45.765,45.765,0,0,0,6.01-35.7L178.89,137.115l36.69-19.623a45.675,45.675,0,1,0-81.936,39.848,45.943,45.943,0,0,0-6.342,7.505l29.786,21.348-32.667-16.451a45.7,45.7,0,0,0,1.188,43.5,45.671,45.671,0,1,0,71.064,10.21,45.675,45.675,0,0,0,8.034-55.9Z" transform="translate(-111.454 -88.778)" fill="#59d083"/>
      <path id="Path_1168" data-name="Path 1168" d="M119.951,352.09a45.491,45.491,0,0,0,5.658,29.34,45.671,45.671,0,1,0,71.064,10.21C203.843,384.819,120.682,347.016,119.951,352.09Z" transform="translate(-111.454 -256.965)" opacity="0.1"/>
    </g>
    <path id="Path_1169" data-name="Path 1169" d="M61.5,567.4c0,35.429,22.227,64.1,49.7,64.1" transform="translate(-61.5 -395.157)" fill="#3a3768"/>
    <path id="Path_1170" data-name="Path 1170" d="M199.5,630.223c0-35.829,24.806-64.823,55.46-64.823" transform="translate(-149.802 -393.877)" fill="#59d083"/>
    <path id="Path_1171" data-name="Path 1171" d="M111.5,576.32c0,33.654,14.175,60.89,31.691,60.89" transform="translate(-93.494 -400.865)" fill="#59d083"/>
    <path id="Path_1172" data-name="Path 1172" d="M199.5,598.229c0-45.783,28.67-82.829,64.1-82.829" transform="translate(-149.802 -361.884)" fill="#3a3768"/>
    <ellipse id="Ellipse_185" data-name="Ellipse 185" cx="12.356" cy="2.089" rx="12.356" ry="2.089" transform="translate(35.184 244.416)" fill="#59d083" opacity="0.1"/>
    <path id="Path_1173" data-name="Path 1173" d="M170.47,739.886s7.048-.216,9.172-1.729,10.84-3.317,11.366-.893,10.595,12.064,2.636,12.129-18.489-1.239-20.61-2.521S170.47,739.886,170.47,739.886Z" transform="translate(-131.227 -503.091)" fill="#a8a8a8"/>
    <path id="Path_1174" data-name="Path 1174" d="M193.788,755.353c-7.959.061-18.489-1.242-20.61-2.521-1.613-.983-2.258-4.512-2.474-6.122h-.234s.447,5.686,2.564,6.976,12.655,2.6,20.61,2.521c2.3,0,3.09-.835,3.047-2.045C196.37,754.881,195.51,755.339,193.788,755.353Z" transform="translate(-131.227 -509.893)" opacity="0.2"/>
    <ellipse id="Ellipse_186" data-name="Ellipse 186" cx="184.025" cy="6.119" rx="184.025" ry="6.119" transform="translate(17.891 247.769)" fill="#59d083" opacity="0.1"/>
    <rect id="Rectangle_622" data-name="Rectangle 622" width="3.569" height="29.433" rx="1.784" transform="translate(250.418 68.112)" fill="#3a3768"/>
    <rect id="Rectangle_623" data-name="Rectangle 623" width="2.002" height="9.691" rx="1.001" transform="translate(131.731 45.053)" fill="#3a3768"/>
    <rect id="Rectangle_624" data-name="Rectangle 624" width="2.258" height="16.868" rx="1.129" transform="translate(131.659 62.793)" fill="#3a3768"/>
    <rect id="Rectangle_625" data-name="Rectangle 625" width="2.15" height="17.012" rx="1.075" transform="translate(131.695 85.564)" fill="#3a3768"/>
    <rect id="Rectangle_626" data-name="Rectangle 626" width="119.479" height="242.823" rx="13" transform="translate(132.865 13.03)" fill="#3a3768"/>
    <rect id="Rectangle_627" data-name="Rectangle 627" width="16.685" height="3.389" rx="1.694" transform="translate(181.079 20.28)" fill="#e6e8ec"/>
    <circle id="Ellipse_187" data-name="Ellipse 187" cx="1.923" cy="1.923" r="1.923" transform="translate(200.285 20.053)" fill="#e6e8ec"/>
    <path id="Path_1175" data-name="Path 1175" d="M546.162,142.86H532.477v1.646a7.815,7.815,0,0,1-7.815,7.815h-43.6a7.811,7.811,0,0,1-7.815-7.815V142.86H460.419a9.489,9.489,0,0,0-9.489,9.489V363.542a9.489,9.489,0,0,0,9.489,9.489h85.743a9.486,9.486,0,0,0,9.486-9.489V152.349A9.486,9.486,0,0,0,546.162,142.86Z" transform="translate(-310.686 -123.506)" fill="#e6e8ec"/>
    <rect id="Rectangle_628" data-name="Rectangle 628" width="56.18" height="19.447" rx="3.88" transform="translate(164.733 46.576)" fill="#59d083"/>
    <g id="Group_641" data-name="Group 641" transform="translate(156.9 178.383)" opacity="0.3">
      <rect id="Rectangle_629" data-name="Rectangle 629" width="72.025" height="6.482" rx="3.241" fill="#59d083"/>
      <rect id="Rectangle_630" data-name="Rectangle 630" width="72.025" height="6.482" rx="3.241" transform="translate(0 10.084)" fill="#59d083"/>
      <rect id="Rectangle_631" data-name="Rectangle 631" width="72.025" height="6.482" rx="3.241" transform="translate(0 20.167)" fill="#59d083"/>
      <rect id="Rectangle_632" data-name="Rectangle 632" width="72.025" height="6.482" rx="3.241" transform="translate(0 30.251)" fill="#59d083"/>
      <rect id="Rectangle_633" data-name="Rectangle 633" width="27.37" height="6.482" rx="3.241" transform="translate(0 40.334)" fill="#59d083"/>
    </g>
    <rect id="Rectangle_634" data-name="Rectangle 634" width="97.955" height="74.186" rx="5.71" transform="translate(143.936 85.11)" fill="#59d083" opacity="0.3"/>
    <path id="Path_1176" data-name="Path 1176" d="M879.521,523.45c.108,1.44.511,3.148,1.873,3.644a3.482,3.482,0,0,0,2-.032,8.481,8.481,0,0,0,4.444-2.546,5.367,5.367,0,0,0,1.221-4.847c-.454-1.592-1.739-2.78-2.643-4.167-1.055-1.617-1.394-3.446-2.128-5.182C878.477,510.878,879.2,519.121,879.521,523.45Z" transform="translate(-584.793 -358.633)" fill="#fbbebe"/>
    <path id="Path_1177" data-name="Path 1177" d="M862.579,354c-.774,2.521,1.97,5.265,2.856,7.743s2.078,4.862,2.557,7.455a49.239,49.239,0,0,1,.439,5.42,60.382,60.382,0,0,0,1.8,10.051q1.711,7.174,3.662,14.286a53.219,53.219,0,0,1,1.523,6.565,25.231,25.231,0,0,1-.029,7.235,9.241,9.241,0,0,0-6.871.63,20.423,20.423,0,0,1-2.611-8.5,44.417,44.417,0,0,1,.05-5.319c.231-5.009-1.941-10.026-2.013-15.039a28.333,28.333,0,0,0-.411-5.186c-.238-1.178-.216-3.382-.472-4.556-.407-1.865,1.343-2.726,1.246-4.638l-.533-10.444C863.663,357.879,861.826,355.635,862.579,354Z" transform="translate(-573.973 -258.608)" fill="#3f3d56"/>
    <path id="Path_1178" data-name="Path 1178" d="M862.579,354c-.774,2.521,1.97,5.265,2.856,7.743s2.078,4.862,2.557,7.455a49.239,49.239,0,0,1,.439,5.42,60.382,60.382,0,0,0,1.8,10.051q1.711,7.174,3.662,14.286a53.219,53.219,0,0,1,1.523,6.565,25.231,25.231,0,0,1-.029,7.235,9.241,9.241,0,0,0-6.871.63,20.423,20.423,0,0,1-2.611-8.5,44.417,44.417,0,0,1,.05-5.319c.231-5.009-1.941-10.026-2.013-15.039a28.333,28.333,0,0,0-.411-5.186c-.238-1.178-.216-3.382-.472-4.556-.407-1.865,1.343-2.726,1.246-4.638l-.533-10.444C863.663,357.879,861.826,355.635,862.579,354Z" transform="translate(-573.973 -258.608)" opacity="0.1"/>
    <path id="Path_1179" data-name="Path 1179" d="M789.838,315.679a4,4,0,0,0,.825,1.664,92.531,92.531,0,0,0,12.4,14.045,6.6,6.6,0,0,0,1.163-1.639,24.8,24.8,0,0,0,3.029-12.46c-2.085-.67-4.444-1.606-5.114-3.688-.526-1.642.184-3.6-.749-5.063-1.318-2.06-6.929-2.326-8.733-.828-1.178.98-.756,1.894-1.131,3.22C791.116,312.373,789.607,314.134,789.838,315.679Z" transform="translate(-527.528 -228.379)" fill="#fbbebe"/>
    <path id="Path_1180" data-name="Path 1180" d="M789.838,315.679a4,4,0,0,0,.825,1.664,92.531,92.531,0,0,0,12.4,14.045,6.6,6.6,0,0,0,1.163-1.639,24.8,24.8,0,0,0,3.029-12.46c-2.085-.67-4.444-1.606-5.114-3.688-.526-1.642.184-3.6-.749-5.063-1.318-2.06-6.929-2.326-8.733-.828-1.178.98-.756,1.894-1.131,3.22C791.116,312.373,789.607,314.134,789.838,315.679Z" transform="translate(-527.528 -228.379)" opacity="0.1"/>
    <path id="Path_1181" data-name="Path 1181" d="M793.235,779.649a4.812,4.812,0,0,0,1.974.828,66.119,66.119,0,0,0,20.959,1.725c.936-.072,2.19-.576,1.959-1.487s-1.441-.8-2.269-1.055a5.1,5.1,0,0,1-1.948-1.441,42.689,42.689,0,0,0-7.354-5.431,5.057,5.057,0,0,0-4.79-.861c-2.269.429-6.6.36-8.391,2.038C791.939,775.3,791.726,778.331,793.235,779.649Z" transform="translate(-529.053 -525.88)" fill="#3f3d56"/>
    <path id="Path_1182" data-name="Path 1182" d="M867.461,767.974a1.956,1.956,0,0,0,.49,1.545,1.8,1.8,0,0,0,1.163.313,8.11,8.11,0,0,0,7.116-4.322l10.084-1.178a14.106,14.106,0,0,0,10.933-5.438,2.113,2.113,0,0,0,.62-.893,1.424,1.424,0,0,0-.926-1.556,3.713,3.713,0,0,0-1.948-.1c-4.923.677-9.864,2.881-14.679,1.653a11.53,11.53,0,0,0-3.562-.72,7.39,7.39,0,0,0-1.905.511c-1.567.576-6.248,1.39-7.285,2.719S867.461,766.389,867.461,767.974Z" transform="translate(-576.964 -516.003)" fill="#3f3d56"/>
    <path id="Path_1183" data-name="Path 1183" d="M778.393,467.873c-1.44,2.247-4.473,2.733-6.594,4.343-3.241,2.474-3.814,7.084-4,11.164a31.58,31.58,0,0,0,.421,8.449c.436,1.923,1.206,3.749,1.8,5.636a50.615,50.615,0,0,1,1.8,12.687c.5,10.8.058,21.672,1.441,32.411.4,3.068.944,6.122,1.242,9.2.994,10.2-.688,20.715,2.042,30.589a15.9,15.9,0,0,1,11.434-5.121,6.588,6.588,0,0,0,2.672-.31,1.819,1.819,0,0,0,1.138-2.161,6.853,6.853,0,0,0-.72-1.019c-1.188-1.8.836-4.35-.032-6.335-.331-.76-1.059-1.325-1.268-2.132a7.018,7.018,0,0,1,.335-2.658c.241-1.8-.792-3.475-1.329-5.2-.81-2.611-.486-5.4-.205-8.135a231.2,231.2,0,0,0,1.224-26.887c-.079-6.075-.382-12.28,1.368-18.1a46.066,46.066,0,0,1,8.326,10.537,23.016,23.016,0,0,1,3.068,7.649,28.669,28.669,0,0,1,.205,6.065l-1.037,31.079c-.212,6.263-.393,12.713,1.783,18.593,5.517-2.942,11.164-5.762,16.685-8.719-.094-2.038-2.827-2.78-3.839-4.552a5.659,5.659,0,0,1-.573-2.373c-.7-8.42,1.019-16.832,2.607-25.13a51.1,51.1,0,0,0,1.192-9.565c0-5.107-1.5-10.084-3.039-14.945-1.635-5.157-3.346-10.289-5.042-15.421-1.1-3.3-2.2-6.594-3.569-9.785-1.3-3.014-2.841-5.931-3.961-9.021-1.775-4.963-2.38-10.253-2.978-15.485C793.49,464.714,785.877,466.382,778.393,467.873Z" transform="translate(-513.386 -328.495)" fill="#3a3768"/>
    <circle id="Ellipse_188" data-name="Ellipse 188" cx="10.523" cy="10.523" r="10.523" transform="translate(258.258 62.768)" fill="#fbbebe"/>
    <path id="Path_1184" data-name="Path 1184" d="M796.832,337.382l-.763-5.7a4.6,4.6,0,0,0-.5-1.822,4.681,4.681,0,0,0-1.318-1.26l-7.332-5.355c-.36-.274-.857-.562-1.271-.36a1.21,1.21,0,0,0-.511.745c-1.156,3.425-.443,7.152-.036,10.743.339,2.993.454,6.007.569,9a67.208,67.208,0,0,1,0,8.168c-.4,4.71-1.8,9.453-.861,14.085.616,3.065,1.711,5.913,1.966,9.032a26.757,26.757,0,0,0,.8,6.407c2.521-1.08,5.373-.965,8.117-.818l6.648.36a12.091,12.091,0,0,0,2.773-.065,9.309,9.309,0,0,0,2.9-1.138,19.913,19.913,0,0,0,6.072-5.294c-1.124-5.427-.036-11.031-.781-16.523-.432-3.166-1.5-6.212-2.006-9.363-.623-3.889-.36-7.923-1.495-11.7a33.688,33.688,0,0,0-2.388-5.535,10.242,10.242,0,0,0-4.581-4.664,2.485,2.485,0,0,0-1.2-.306c-1.062.058-1.718,1.181-2.01,2.2-.36,1.228-.465,2.521-.742,3.749A16.489,16.489,0,0,1,796.832,337.382Z" transform="translate(-524.119 -238.652)" fill="#59d083"/>
    <path id="Path_1185" data-name="Path 1185" d="M741.6,406.764c1.4,1.48,3.961,1.116,5.589-.1,3.547-2.651,3.875-7.732,4.069-12.154a10.707,10.707,0,0,1,.922-4.631c1.141-2.161,3.5-3.277,5.456-4.71,4.646-3.4,7.375-9,8.189-14.69s-.119-11.524-1.689-17.059c-2.715-9.569-7.289-18.489-11.931-27.283a1.988,1.988,0,0,0-.648-.825c-.943-.587-1.966.569-2.611,1.473-2.186,3.065-5.787,4.7-9.086,6.515s-6.673,4.224-7.671,7.851c-.67,2.434-.148,5.017.36,7.483s2.283,4.426,3.626,6.5a63.491,63.491,0,0,1,4.206,7.163,13.516,13.516,0,0,1,1.08,2.906,17.338,17.338,0,0,1,.284,3.6,169.7,169.7,0,0,1-.749,22.36c-.508,4.188-1.329,8.395-.954,12.6A5.187,5.187,0,0,0,741.6,406.764Z" transform="translate(-490.451 -240.146)" fill="#3f3d56"/>
    <path id="Path_1186" data-name="Path 1186" d="M776.26,498.81a19.067,19.067,0,0,0,4.638,1.631,6.056,6.056,0,0,0,4.682-.951,3.711,3.711,0,0,0,1.228-4.379,22.185,22.185,0,0,0,3.457-.162c.655-.086,1.441-.339,1.556-.99.119-.767-.807-1.224-1.552-1.441l-4.015-1.109a14.465,14.465,0,0,0-3.63-.67,14.641,14.641,0,0,0-2.28.227l-6.093.947a1.116,1.116,0,0,0-.461.144,1.081,1.081,0,0,0-.36.605c-.3.936-1.66,3.544-1.192,4.469C772.623,497.914,775.421,498.4,776.26,498.81Z" transform="translate(-516.22 -346.105)" fill="#fbbebe"/>
    <path id="Path_1187" data-name="Path 1187" d="M853.5,402.8a6.226,6.226,0,0,1-3.911,3.425,2.139,2.139,0,0,1-1.163.076c-.72-.2-1.116-.951-1.415-1.635-7.134-16.238-6.734-34.716-11.268-51.858-1.347-5.089-3.148-10.2-2.823-15.457a3.139,3.139,0,0,1,1.041-2.521,2.553,2.553,0,0,1,2.417,0c.767.342,1.422.9,2.161,1.282,1.192.609,2.578.781,3.724,1.469,1.7,1.023,2.568,2.967,3.328,4.8,1.624,3.907,3.241,7.923,3.371,12.158.274,8.225-3.374,16.13-1.473,24.129a47.934,47.934,0,0,0,1.469,4.66,141.689,141.689,0,0,1,4.682,16.858A3.858,3.858,0,0,1,853.5,402.8Z" transform="translate(-555.087 -246.144)" fill="#3f3d56"/>
    <path id="Path_1188" data-name="Path 1188" d="M779.059,264.342a13.892,13.892,0,0,0,1.844-3.068c.241-.814.191-1.7.479-2.5.72-1.973,3.223-2.7,5.29-2.359s3.936,1.441,5.956,1.992c1.12.306,2.679.212,3-.9a2.528,2.528,0,0,0-.771-2.089l-5.964-7.638a3.279,3.279,0,0,1-2.377,0c-.414-.223-.72-.627-1.181-.753-1.242-.36-2.283,1.552-3.529,1.217-.36-.094-.645-.36-1-.389-1-.083-1.383,1.581-2.388,1.664-.418.036-.817-.23-1.235-.191a1.581,1.581,0,0,0-.933.58,11.188,11.188,0,0,0-2.7,8.078c.108,2.913-.393,5.73.72,8.42.493,1.17,1.484,2.553,2.694,2.161,0-1.585,1.477-3.166,1.495-4.746" transform="translate(-517.102 -190.125)" fill="#3a3768"/>
    <g id="Group_642" data-name="Group 642" transform="translate(261.921 171.119)" opacity="0.1">
      <path id="Path_1189" data-name="Path 1189" d="M809.169,573.9a45.733,45.733,0,0,0-7.772-9.623c-1.75,5.82-1.44,12.025-1.368,18.1a231.169,231.169,0,0,1-1.224,26.887c-.281,2.719-.605,5.524.205,8.135.537,1.729,1.57,3.41,1.329,5.2a7.052,7.052,0,0,0-.335,2.658c.209.807.936,1.372,1.268,2.132.868,1.984-1.156,4.523.032,6.335a6.867,6.867,0,0,1,.72,1.019,1.8,1.8,0,0,1-1.138,2.161,6.779,6.779,0,0,1-2.672.31A15.921,15.921,0,0,0,788.8,640.5a42.5,42.5,0,0,0,1.228,6.518,15.9,15.9,0,0,1,11.448-5.121,6.588,6.588,0,0,0,2.672-.31,1.819,1.819,0,0,0,1.138-2.161,6.868,6.868,0,0,0-.72-1.019c-1.188-1.8.835-4.35-.032-6.335-.331-.76-1.059-1.325-1.268-2.132a7.016,7.016,0,0,1,.335-2.658c.241-1.8-.792-3.475-1.329-5.2-.81-2.611-.486-5.4-.205-8.135a231.184,231.184,0,0,0,1.224-26.887c-.079-6.075-.382-12.28,1.369-18.1a44.486,44.486,0,0,1,4.509,4.945Z" transform="translate(-788.8 -564.28)"/>
    </g>
    <g id="Group_643" data-name="Group 643" transform="translate(256.421 64.765)" opacity="0.1">
      <path id="Path_1190" data-name="Path 1190" d="M773.574,275.821V274.33a11.218,11.218,0,0,0,0,1.156C773.57,275.6,773.574,275.709,773.574,275.821Z" transform="translate(-773.547 -272.395)"/>
      <path id="Path_1191" data-name="Path 1191" d="M792.633,271.029c-2.02-.555-3.886-1.653-5.956-1.991s-4.577.385-5.29,2.359c-.288.8-.238,1.689-.479,2.5a13.893,13.893,0,0,1-1.844,3.068l-.594-.526c0,1.581-1.477,3.162-1.495,4.746-1.21.393-2.2-.99-2.694-2.161a10.886,10.886,0,0,1-.745-4.055,13.2,13.2,0,0,0,.745,5.5c.493,1.174,1.484,2.557,2.694,2.161,0-1.585,1.477-3.165,1.495-4.746l.594.526a13.894,13.894,0,0,0,1.844-3.068c.241-.814.191-1.7.479-2.5.72-1.974,3.223-2.7,5.29-2.359s3.936,1.441,5.956,1.992c1.12.306,2.679.212,3-.9a1.592,1.592,0,0,0-.144-1.124C794.985,271.256,793.638,271.3,792.633,271.029Z" transform="translate(-773.528 -268.957)"/>
    </g>
    <path id="Path_1192" data-name="Path 1192" d="M724.434,373.35a53.232,53.232,0,0,1-1.325,6.529l-2.521,10.274a9.641,9.641,0,0,0-.421,3.338,9.193,9.193,0,0,0,1.891,4.091,81.615,81.615,0,0,0,17.837,18.525c-.4-2.049,1.023-3.961,2.362-5.575a17.88,17.88,0,0,1,4.383-4.2q-6.547-6.176-12.684-12.767a6.668,6.668,0,0,1-1.1-1.423c-.987-1.905,0-4.181.861-6.151,2.712-6.263,3.99-13.368,2.251-19.969a11.41,11.41,0,0,0-3.886-6.482,3.172,3.172,0,0,0-3.155-.612,3.5,3.5,0,0,0-1.08.969C724.614,363.825,725,368.561,724.434,373.35Z" transform="translate(-482.943 -261.623)" fill="#3f3d56"/>
    <g id="Group_644" data-name="Group 644" transform="translate(286.355 19.513)" opacity="0.2">
      <path id="Path_1193" data-name="Path 1193" d="M1022.724,699.356a15.552,15.552,0,0,0,.63,2.395q7.681-2.474,15.511-4.682c-.032-.216-.061-.439-.1-.663a13.218,13.218,0,0,0-2.805-6.252c-1.905-2.28-4.484-3.5-7.069-3.018s-4.6,2.521-5.622,5.344A13.48,13.48,0,0,0,1022.724,699.356Z" transform="translate(-962.777 -491.22)" fill="#3f3d56"/>
      <ellipse id="Ellipse_189" data-name="Ellipse 189" cx="8.153" cy="10.908" rx="8.153" ry="10.908" transform="translate(55.959 183.997) rotate(-8.99)" fill="#3f3d56"/>
      <ellipse id="Ellipse_190" data-name="Ellipse 190" cx="8.153" cy="10.908" rx="8.153" ry="10.908" transform="translate(53.69 170.864) rotate(-8.99)" fill="#3f3d56"/>
      <ellipse id="Ellipse_191" data-name="Ellipse 191" cx="8.153" cy="10.908" rx="8.153" ry="10.908" transform="translate(51.42 157.727) rotate(-8.99)" fill="#3f3d56"/>
      <ellipse id="Ellipse_192" data-name="Ellipse 192" cx="8.153" cy="10.908" rx="8.153" ry="10.908" transform="translate(49.151 144.594) rotate(-8.99)" fill="#3f3d56"/>
      <path id="Path_1194" data-name="Path 1194" d="M930.051,202a40.49,40.49,0,0,0,2.211-5.042l-21.683.339,22.818-4.023a40.714,40.714,0,0,0,.677-17.092,40.252,40.252,0,0,0-5.323-14.2l-27.77,21.863,24.532-26.408a38.391,38.391,0,0,0-36.639-13.5c-21.212,3.907-35.372,24.68-31.623,46.4a39.9,39.9,0,0,0,12.417,22.8,40.83,40.83,0,0,0-3.14,7.977l29.862,9.5-30.9-4.649a40.875,40.875,0,0,0,.151,12.986,39.9,39.9,0,0,0,12.417,22.8,40.673,40.673,0,0,0-4.023,25.825c3.749,21.719,23.984,36.157,45.2,32.253s35.372-24.68,31.623-46.4a39.9,39.9,0,0,0-12.417-22.8,40.673,40.673,0,0,0,4.041-25.825A39.863,39.863,0,0,0,930.051,202Z" transform="translate(-856.649 -143.3)" fill="#59d083"/>
      <path id="Path_1195" data-name="Path 1195" d="M881.62,406.731a39.9,39.9,0,0,0,12.417,22.8,40.672,40.672,0,0,0-4.023,25.825c3.749,21.719,23.984,36.157,45.2,32.253s35.372-24.679,31.623-46.4a39.9,39.9,0,0,0-12.417-22.8C958.414,410.776,880.86,402.32,881.62,406.731Z" transform="translate(-872.624 -311.085)" opacity="0.1"/>
    </g>
    <path id="Path_1196" data-name="Path 1196" d="M970.5,637.9c0,18.838,11.816,34.082,26.423,34.082" transform="translate(-643.144 -440.268)" fill="#3a3768"/>
    <path id="Path_1197" data-name="Path 1197" d="M1043.87,671.3c0-19.051,13.188-34.464,29.484-34.464" transform="translate(-690.092 -439.59)" fill="#59d083"/>
    <path id="Path_1198" data-name="Path 1198" d="M997.08,642.65c0,17.891,7.537,32.372,16.85,32.372" transform="translate(-660.152 -443.308)" fill="#59d083"/>
    <path id="Path_1199" data-name="Path 1199" d="M1043.87,654.3c0-24.341,15.24-44.036,34.079-44.036" transform="translate(-690.092 -422.582)" fill="#3a3768"/>
    <ellipse id="Ellipse_193" data-name="Ellipse 193" cx="6.727" cy="1.138" rx="6.727" ry="1.138" transform="translate(343.997 234.271)" fill="#59d083" opacity="0.1"/>
    <path id="Path_1200" data-name="Path 1200" d="M1022.85,724.447s3.835-.119,4.991-.944,5.9-1.8,6.191-.486,5.762,6.569,1.44,6.6-10.083-.677-11.218-1.379S1022.85,724.447,1022.85,724.447Z" transform="translate(-676.642 -494.321)" fill="#a8a8a8"/>
    <path id="Path_1201" data-name="Path 1201" d="M1035.541,732.831c-4.322.036-10.062-.674-11.218-1.379-.879-.533-1.228-2.456-1.347-3.342h-.126s.241,3.094,1.4,3.8,6.885,1.412,11.218,1.379c1.25,0,1.682-.457,1.656-1.116C1036.949,732.576,1036.474,732.824,1035.541,732.831Z" transform="translate(-676.642 -497.991)" opacity="0.2"/>
  </g>
</svg>
