<svg xmlns="http://www.w3.org/2000/svg" width="345.693" height="276.971" viewBox="0 0 345.693 276.971">
  <g id="Group_1203" data-name="Group 1203" transform="translate(-0.067 -0.054)">
    <ellipse id="Ellipse_253" data-name="Ellipse 253" cx="80.019" cy="6.703" rx="80.019" ry="6.703" transform="translate(177.637 263.619)" fill="#3f3d56"/>
    <path id="Path_1756" data-name="Path 1756" d="M871.323,482.086c0,32.848-19.528,44.317-43.616,44.317s-43.616-11.469-43.616-44.317,43.616-74.636,43.616-74.636S871.323,449.238,871.323,482.086Z" transform="translate(-534.067 -286.748)" fill="#f2f2f2"/>
    <path id="Path_1757" data-name="Path 1757" d="M672.7,401.96l.447-27.491,18.59-34.01-18.52,29.7.2-12.361,12.812-24.606L673.47,354.525h0l.361-22.232,13.72-19.589L673.888,328.8l.225-40.765L672.7,342l.116-2.226L658.863,318.42l13.725,25.625-1.3,24.829-.039-.659-16.081-22.469,16.032,24.8-.163,3.1-.029.047.013.255-3.3,62.994h4.406l.529-32.537,15.992-24.736Z" transform="translate(-380.648 -167.33)" fill="#3f3d56"/>
    <path id="Path_1758" data-name="Path 1758" d="M925.111,697.029c0,9.413-5.6,12.7-12.5,12.7q-.24,0-.479-.005c-.32-.007-.637-.022-.95-.043-6.23-.441-11.07-3.9-11.07-12.651,0-9.06,11.577-20.492,12.447-21.338l0,0,.05-.049S925.111,687.616,925.111,697.029Z" transform="translate(-601.482 -442.581)" fill="#59d083"/>
    <path id="Path_1759" data-name="Path 1759" d="M921.893,708.289l4.572-6.388-4.583,7.089-.012.733c-.32-.007-.637-.022-.95-.043l.493-9.418,0-.073.008-.014.046-.889-4.594-7.106,4.609,6.439.011.189.372-7.116-3.933-7.343,3.981,6.094.388-14.752,0-.05v.049l-.065,11.633,3.916-4.612-3.932,5.614-.1,6.371,3.656-6.114-3.671,7.052-.058,3.542,5.308-8.51-5.328,9.746Z" transform="translate(-611.218 -442.581)" fill="#3f3d56"/>
    <circle id="Ellipse_254" data-name="Ellipse 254" cx="20.069" cy="20.069" r="20.069" transform="translate(74.32 67.609)" fill="#f2f2f2"/>
    <circle id="Ellipse_255" data-name="Ellipse 255" cx="20.069" cy="20.069" r="20.069" transform="translate(78.472 61.611)" fill="none" stroke="#3f3d56" stroke-miterlimit="10" stroke-width="2"/>
    <path id="Path_1760" data-name="Path 1760" d="M301.52,172.365,285.362,145.3a12.9,12.9,0,1,0-5.306,3.981Z" transform="translate(-230.891 -122.288)" fill="#3f3d56"/>
    <circle id="Ellipse_256" data-name="Ellipse 256" cx="5.998" cy="5.998" r="5.998" transform="translate(38.334 9.016)" fill="#59d083"/>
    <path id="Path_1761" data-name="Path 1761" d="M479.588,166.37l22.352-22.225a12.9,12.9,0,1,0-5.146-4.185Z" transform="translate(-357.135 -119.418)" fill="#3f3d56"/>
    <circle id="Ellipse_257" data-name="Ellipse 257" cx="5.998" cy="5.998" r="5.998" transform="translate(144.115 6.955)" fill="#59d083"/>
    <path id="Path_1762" data-name="Path 1762" d="M516.753,349.635l26.973,16.311a12.9,12.9,0,1,0,2.816-6.006Z" transform="translate(-378.73 -253.155)" fill="#3f3d56"/>
    <circle id="Ellipse_258" data-name="Ellipse 258" cx="5.998" cy="5.998" r="5.998" transform="translate(171.706 109.096)" fill="#59d083"/>
    <path id="Path_1763" data-name="Path 1763" d="M381.414,414.3l-9.3,30.117a12.9,12.9,0,1,0,6.509,1.279Z" transform="translate(-287.681 -290.725)" fill="#3f3d56"/>
    <circle id="Ellipse_259" data-name="Ellipse 259" cx="5.998" cy="5.998" r="5.998" transform="translate(79.274 160.577)" fill="#59d083"/>
    <path id="Path_1764" data-name="Path 1764" d="M244.127,312.512l-31.473-1.739a12.9,12.9,0,1,0,.333,6.625Z" transform="translate(-187.394 -225.363)" fill="#3f3d56"/>
    <circle id="Ellipse_260" data-name="Ellipse 260" cx="5.998" cy="5.998" r="5.998" transform="translate(6.96 83.345)" fill="#59d083"/>
    <circle id="Ellipse_261" data-name="Ellipse 261" cx="6.182" cy="6.182" r="6.182" transform="translate(333.396 14.175)" fill="#f2f2f2"/>
    <circle id="Ellipse_262" data-name="Ellipse 262" cx="6.182" cy="6.182" r="6.182" transform="translate(330.883 12.08)" fill="none" stroke="#3f3d56" stroke-miterlimit="10" stroke-width="2"/>
    <rect id="Rectangle_878" data-name="Rectangle 878" width="13.965" height="13.965" transform="translate(286.564 21.745)" fill="#59d083"/>
    <rect id="Rectangle_879" data-name="Rectangle 879" width="13.965" height="13.965" transform="translate(289.357 18.952)" fill="none" stroke="#3f3d56" stroke-miterlimit="10" stroke-width="2"/>
    <path id="Path_1765" data-name="Path 1765" d="M789.842,706.082s-1.257,7.96-3.352,9.217,10.893,4.19,10.893,4.19l2.095-12.568Z" transform="translate(-535.328 -460.268)" fill="#fbbebe"/>
    <path id="Path_1766" data-name="Path 1766" d="M801.593,489.082l4.608,5.446-2.095,18.853-1.676,37.286s3.352,32.259,0,33.1-18.434.419-18.015-1.676.838-3.771,1.676-6.7-.838-13.406-.838-13.406l2.095-11.731-7.541-50.693Z" transform="translate(-531.578 -334.18)" fill="#2f2e41"/>
    <path id="Path_1767" data-name="Path 1767" d="M768.283,724.565s-4.608-.838-5.027,0-8.379,9.636-9.636,9.636-10.474,8.379-.838,8.8,25.556-7.122,25.556-7.122-2.343-10.661-2.219-10.148S768.283,726.66,768.283,724.565Z" transform="translate(-513.35 -470.792)" fill="#2f2e41"/>
    <path id="Path_1768" data-name="Path 1768" d="M783.808,669.785s11.731,12.987,12.15,14.244,6.7,0,6.7,0l2.514-8.379-2.095-2.933-11.731-9.636Z" transform="translate(-533.902 -435.283)" fill="#fbbebe"/>
    <path id="Path_1769" data-name="Path 1769" d="M815.383,689.767l-6.075,5.718s7.751,11.878,7.751,13.135.419,11.731,4.608,10.055,4.608-18.434,4.608-18.434-.419-17.177-2.933-18.434-8.023-.86-8.023-.86S818.734,689.348,815.383,689.767Z" transform="translate(-548.719 -445.629)" fill="#2f2e41"/>
    <path id="Path_1770" data-name="Path 1770" d="M719.581,397.678s-2.095,6.7-2.514,8.379-2.933,6.284-2.933,13.406.838,15.5,0,16.339-14.244,47.76-8.379,52.788,25.137,21.785,26.394,23.88,1.676,7.122,4.189,6.284,12.15-9.217,12.568-10.893-5.446-4.608-5.446-4.608S731.73,486.076,728.8,486.495s-2.514-2.095-2.095-3.352,1.257-2.095,0-2.095-.419-3.352,0-5.027,10.055-24.3,10.055-24.3l25.556-11.312s-1.257-30.583-10.474-38.962l-2.095-5.027S726.284,394.745,719.581,397.678Z" transform="translate(-487.69 -280.063)" fill="#2f2e41"/>
    <path id="Path_1771" data-name="Path 1771" d="M748.958,242.082s2.095,14.663-2.933,15.5-9.217.419-9.217.838,12.568,13.406,12.568,13.406l11.731-.838,10.474-11.312s-9.636-1.676-9.636-7.541-.419-10.055-.419-10.055Z" transform="translate(-506.593 -190.661)" fill="#fbbebe"/>
    <path id="Path_1772" data-name="Path 1772" d="M748.958,242.082s2.095,14.663-2.933,15.5-9.217.419-9.217.838,12.568,13.406,12.568,13.406l11.731-.838,10.474-11.312s-9.636-1.676-9.636-7.541-.419-10.055-.419-10.055Z" transform="translate(-506.593 -190.661)" opacity="0.1"/>
    <circle id="Ellipse_263" data-name="Ellipse 263" cx="12.987" cy="12.987" r="12.987" transform="translate(235.871 31.521)" fill="#fbbebe"/>
    <path id="Path_1773" data-name="Path 1773" d="M729.247,276.082s-16.339,2.095-17.6,7.541,8.379,39.381,9.636,42.314a9.266,9.266,0,0,1,.838,5.027,16.576,16.576,0,0,1,13.406-2.933c7.96,1.676,19.272.838,19.272.838s3.771-15.5,4.608-17.177,4.19-10.893,4.19-13.406,5.027-12.987,5.027-12.987-2.514-7.541-11.731-7.122c0,0-4.02-1.8-5.152-.481s-7.416,7.184-15.376,4.67S729.247,276.082,729.247,276.082Z" transform="translate(-491.91 -210.416)" fill="#3f3d56"/>
    <path id="Path_1774" data-name="Path 1774" d="M712.93,293.082h-4.609l-2.514,33.1s9.217,2.514,10.474.838S712.93,293.082,712.93,293.082Z" transform="translate(-488.58 -220.294)" fill="#3f3d56"/>
    <path id="Path_1775" data-name="Path 1775" d="M706.992,364l-1.257,3.352s-.838,10.893,4.19,10.474,7.96-6.7,7.96-6.7-2.933-7.96-6.284-7.122S706.992,364,706.992,364Z" transform="translate(-488.508 -261.463)" fill="#3f3d56"/>
    <path id="Path_1776" data-name="Path 1776" d="M828.808,293.082l7.96,2.095s5.865,21.366,6.284,21.785a10.658,10.658,0,0,1,.838,2.933s0,.419.838,1.676,2.095.419,1.257,2.095-2.095.838-1.257,2.514.419,6.284.419,6.284-2.095-7.96-9.636-5.865l-5.027-22.623Z" transform="translate(-560.05 -220.294)" fill="#3f3d56"/>
    <path id="Path_1777" data-name="Path 1777" d="M730.626,188.477c-2.641,4.64-3.236,10.136-3.6,15.463a18.7,18.7,0,0,0,.4,6.817c.714,2.306,2.3,4.65,1.489,6.922-.788,2.2-3.425,3.078-4.9,4.89a8.149,8.149,0,0,0-1.453,5.617c.108,1.976.587,3.916.728,5.89a17.448,17.448,0,0,1-3.753,12.026c6.31-.243,13.057-3.042,15.718-8.768.8-1.712,1.183-3.586,1.9-5.332.812-1.975,2.038-3.763,2.807-5.755,1.16-3.006,1.223-6.307,1.271-9.529a15.775,15.775,0,0,0-.618-5.718c-1.469-3.984-6.038-6.558-6.492-10.779a2.133,2.133,0,0,1,.189-1.312,3.482,3.482,0,0,1,.766-.775c2.853-2.518,2.383-7.849,5.779-9.566a6.851,6.851,0,0,1,5-.012,9.434,9.434,0,0,1,4.813,2.863c2.381,2.985,1.441,7.3.7,11.044a65.925,65.925,0,0,0-1.127,16.512,10.683,10.683,0,0,0,.388,2.615,21.783,21.783,0,0,0,2.074,3.813,12.6,12.6,0,0,1,1.314,8.554c-.52,2.539-1.811,5.242-.674,7.571a6.837,6.837,0,0,0,2.038,2.267c3.713,2.91,8.426,4.713,11.186,8.538.475-3.125-.432-6.269-1.1-9.358s-1.077-6.451.3-9.3c.6-1.248,1.526-2.334,2.02-3.63,1.14-2.992-.219-6.275-1.044-9.369a55.79,55.79,0,0,1-1.274-7.383l-.851-6.712c-.7-5.549-1.439-11.211-3.876-16.246-4.592-9.488-14.983-13.012-24.288-7.755A15.732,15.732,0,0,0,730.626,188.477Z" transform="translate(-496.561 -154.67)" fill="#ff6584"/>
    <path id="Path_1778" data-name="Path 1778" d="M717.417,344.569s-2.514,7.541.419,7.541,8.379-4.608,8.8-8.379,7.96-18.015,2.514-16.758-7.96,11.731-7.96,11.731Z" transform="translate(-494.743 -239.942)" fill="#fbbebe"/>
    <path id="Path_1779" data-name="Path 1779" d="M613.238,173.663l-13.825,44.828,18.853,4.189,13.825-43.571Z" transform="translate(-348.251 -100.876)" fill="#59d083"/>
    <path id="Path_1780" data-name="Path 1780" d="M813.331,360.462l2.617,4.374s1.153,8.195-4.712,8.195-14.244-7.96-14.244-7.96-4.19-1.676-6.7-1.257-16.339,0-10.474-7.122,15.92,0,15.92,0l10.474,5.027,5.446-2.933Z" transform="translate(-530.748 -255.416)" fill="#fbbebe"/>
    <path id="Path_1781" data-name="Path 1781" d="M847.5,355.42l-4.19,6.7s9.636,1.257,10.474,3.352-3.771-10.893-3.771-10.893Z" transform="translate(-568.475 -256.029)" fill="#3f3d56"/>
  </g>
</svg>
