<svg id="Group_646" data-name="Group 646" xmlns="http://www.w3.org/2000/svg" width="464.342" height="296.665" viewBox="0 0 464.342 296.665">
  <rect id="Rectangle_635" data-name="Rectangle 635" width="219.621" height="287.599" transform="translate(50.817)" fill="#e6e6e6"/>
  <rect id="Rectangle_636" data-name="Rectangle 636" width="193.476" height="52.291" transform="translate(63.89 14.903)" fill="#fff"/>
  <rect id="Rectangle_637" data-name="Rectangle 637" width="120.269" height="188.247" transform="translate(136.574 84.972)" fill="#fff"/>
  <rect id="Rectangle_638" data-name="Rectangle 638" width="48.852" height="3.672" transform="translate(146.069 34.442)" fill="#e6e6e6"/>
  <rect id="Rectangle_639" data-name="Rectangle 639" width="61.48" height="3.672" transform="translate(139.533 43.983)" fill="#e6e6e6"/>
  <rect id="Rectangle_640" data-name="Rectangle 640" width="48.852" height="3.672" transform="translate(170.123 128.413)" fill="#e6e6e6"/>
  <rect id="Rectangle_641" data-name="Rectangle 641" width="75.438" height="3.672" transform="translate(170.123 139.192)" fill="#59d083"/>
  <rect id="Rectangle_642" data-name="Rectangle 642" width="61.48" height="3.672" transform="translate(170.907 149.458)" fill="#e6e6e6"/>
  <rect id="Rectangle_643" data-name="Rectangle 643" width="35.891" height="3.672" transform="translate(170.123 160.722)" fill="#e6e6e6"/>
  <rect id="Rectangle_644" data-name="Rectangle 644" width="54.169" height="3.672" transform="translate(170.123 171.724)" fill="#59d083"/>
  <rect id="Rectangle_645" data-name="Rectangle 645" width="5.982" height="5.982" transform="translate(147.857 127.258)" fill="#e6e6e6"/>
  <rect id="Rectangle_646" data-name="Rectangle 646" width="5.982" height="5.982" transform="translate(147.857 138.037)" fill="#59d083"/>
  <rect id="Rectangle_647" data-name="Rectangle 647" width="5.982" height="5.982" transform="translate(147.857 148.303)" fill="#e6e6e6"/>
  <rect id="Rectangle_648" data-name="Rectangle 648" width="5.982" height="5.982" transform="translate(147.857 159.567)" fill="#e6e6e6"/>
  <rect id="Rectangle_649" data-name="Rectangle 649" width="5.982" height="5.982" transform="translate(147.857 170.569)" fill="#59d083"/>
  <rect id="Rectangle_650" data-name="Rectangle 650" width="48.852" height="3.672" transform="translate(170.123 182.795)" fill="#e6e6e6"/>
  <rect id="Rectangle_651" data-name="Rectangle 651" width="75.438" height="3.672" transform="translate(170.123 193.575)" fill="#59d083"/>
  <rect id="Rectangle_652" data-name="Rectangle 652" width="61.48" height="3.672" transform="translate(170.907 203.84)" fill="#e6e6e6"/>
  <rect id="Rectangle_653" data-name="Rectangle 653" width="35.891" height="3.672" transform="translate(170.123 215.104)" fill="#e6e6e6"/>
  <rect id="Rectangle_654" data-name="Rectangle 654" width="54.169" height="3.672" transform="translate(170.123 226.107)" fill="#e6e6e6"/>
  <rect id="Rectangle_655" data-name="Rectangle 655" width="5.982" height="5.982" transform="translate(147.857 181.64)" fill="#e6e6e6"/>
  <rect id="Rectangle_656" data-name="Rectangle 656" width="5.982" height="5.982" transform="translate(147.857 192.419)" fill="#59d083"/>
  <rect id="Rectangle_657" data-name="Rectangle 657" width="5.982" height="5.982" transform="translate(147.857 202.685)" fill="#e6e6e6"/>
  <rect id="Rectangle_658" data-name="Rectangle 658" width="5.982" height="5.982" transform="translate(147.857 213.949)" fill="#e6e6e6"/>
  <rect id="Rectangle_659" data-name="Rectangle 659" width="5.982" height="5.982" transform="translate(147.857 224.952)" fill="#e6e6e6"/>
  <path id="Path_1202" data-name="Path 1202" d="M324.882,215.1a15.546,15.546,0,1,0,15.546,15.546A15.546,15.546,0,0,0,324.882,215.1Zm0,4.664a4.664,4.664,0,1,1-4.664,4.664,4.664,4.664,0,0,1,4.664-4.664Zm0,22.451a11.325,11.325,0,0,1-9.327-4.978c.075-3.109,6.218-4.821,9.327-4.821s9.253,1.712,9.327,4.821a11.344,11.344,0,0,1-9.327,4.978Z" transform="translate(-229.155 -189.599)" fill="#59d083"/>
  <rect id="Rectangle_660" data-name="Rectangle 660" width="464.342" height="1.172" transform="translate(0 286.973)" fill="#3f3d56"/>
  <path id="Path_1203" data-name="Path 1203" d="M863.086,335.176s5.307,11.2,8.846,12.385l-10.026,15.333-8.256-10.025s.59-7.077-1.18-10.025S863.086,335.176,863.086,335.176Z" transform="translate(-488.199 -246.886)" fill="#fbbebe"/>
  <circle id="Ellipse_194" data-name="Ellipse 194" cx="11.205" cy="11.205" r="11.205" transform="translate(355.426 75.906)" fill="#fbbebe"/>
  <path id="Path_1204" data-name="Path 1204" d="M671.817,315.156l2.949,8.256,3.539-4.128-2.97-9.4Z" transform="translate(-320.519 -147.841)" fill="#fbbebe"/>
  <path id="Path_1205" data-name="Path 1205" d="M841.54,477.33s-3.538,14.743-1.769,21.82,7.077,55.435,7.077,55.435l3.538,38.333,14.154,1.18-1.769-44.82,1.769-38.922L874.565,548.1v46l17.1.59L889.9,535.125s1.179-46-6.487-51.9-8.846-7.077-8.846-7.077Z" transform="translate(-481.986 -314.144)" fill="#2f2e41"/>
  <path id="Path_1206" data-name="Path 1206" d="M862.031,698.327l-1.179,4.128-1.769,5.308s-5.308,10.615,3.538,8.846,7.667-5.9,7.667-5.9,2.949-1.769,2.359-2.359-.59-9.436-.59-9.436Z" transform="translate(-490.682 -420.143)" fill="#2f2e41"/>
  <path id="Path_1207" data-name="Path 1207" d="M921.818,698.327l1.18,4.128,1.769,5.308s5.308,10.615-3.538,8.846-7.667-5.9-7.667-5.9-2.949-1.769-2.359-2.359.59-9.436.59-9.436Z" transform="translate(-516.264 -420.143)" fill="#2f2e41"/>
  <path id="Path_1208" data-name="Path 1208" d="M855.607,364.964l7.213-10.615,13.428,7.077,1.769,61.332s-7.667-4.718-19.461,1.179-19.461,1.769-19.461,1.769l7.077-26.538-2.949-35.384,4.217-3.828Z" transform="translate(-481.9 -256.033)" fill="#e6e6e6"/>
  <path id="Path_1209" data-name="Path 1209" d="M838.3,362.923l-2.45,2s-15.333,7.667-15.923,12.974l10.615,28.9s2.949,6.487.59,8.846-4.718,8.256-4.128,11.2-3.538,15.333,1.179,15.333,15.923-28.307,15.333-39.512S842.514,362.107,838.3,362.923Z" transform="translate(-472.753 -260.116)" fill="#2f2e41"/>
  <path id="Path_1210" data-name="Path 1210" d="M822.906,384.8l-3.635.389s-3.442,2.56-3.442,8.457-.59,23.589-.59,23.589-1.18,8.846,2.359,15.333a69.027,69.027,0,0,1,4.128,8.256l5.9-7.077V419l2.359-9.436Z" transform="translate(-470.428 -270.561)" fill="#2f2e41"/>
  <path id="Path_1211" data-name="Path 1211" d="M880.91,349.709l5.765,2.426s20.051,5.308,23,14.154l-8.256,20.641s5.9,37.743,4.128,37.743h-1.769s4.718,3.538,1.769,4.718-10.025,10.615-11.795,6.487-12.384-53.076-11.2-63.691S879.862,350.821,880.91,349.709Z" transform="translate(-501.762 -253.819)" fill="#2f2e41"/>
  <path id="Path_1212" data-name="Path 1212" d="M847.842,303.163v-1.179h-2.949s-4.718-2.949-8.846.59-5.9,5.308-5.9,5.308l-1.769,2.359,1.769.59-1.769,1.769h1.769l-1.179,1.769,3.306,4.423s-.357-4.423,3.181-4.423,7.667-4.718,7.667-4.718l8.846,6.487s-.59-3.522,1.474-3.53C853.444,312.607,854.329,303.752,847.842,303.163Z" transform="translate(-476.788 -230.5)" fill="#2f2e41"/>
  <path id="Path_1213" data-name="Path 1213" d="M934.043,486.3l-1.179,12.384s0,18.282-6.487,16.513-1.18-17.1-1.18-17.1l.9-11.09Z" transform="translate(-522.003 -318.986)" fill="#fbbebe"/>
  <path id="Path_1214" data-name="Path 1214" d="M918.093,375.347s7.667-2.949,10.025,5.9,5.308,26.538,5.308,26.538a26.539,26.539,0,0,1,0,19.461l-1.769,8.846-10.025-1.18-2.359-20.051L916.913,389.5Z" transform="translate(-519.026 -265.826)" fill="#2f2e41"/>
</svg>
