<svg xmlns="http://www.w3.org/2000/svg" xmlns:xlink="http://www.w3.org/1999/xlink" width="350.792" height="292.398" viewBox="0 0 350.792 292.398">
  <defs>
    <linearGradient id="linear-gradient" x1="0.5" y1="1" x2="0.5" gradientUnits="objectBoundingBox">
      <stop offset="0" stop-color="gray" stop-opacity="0.251"/>
      <stop offset="0.54" stop-color="gray" stop-opacity="0.122"/>
      <stop offset="1" stop-color="gray" stop-opacity="0.102"/>
    </linearGradient>
  </defs>
  <g id="Group_609" data-name="Group 609" transform="translate(-0.004 0)">
    <ellipse id="Ellipse_99" data-name="Ellipse 99" cx="35.838" cy="3.533" rx="35.838" ry="3.533" transform="translate(213.487 285.332)" fill="#59d083" opacity="0.1"/>
    <path id="Path_806" data-name="Path 806" d="M251.63,39.071c15.784-5.867,35-.821,51.409,6.538,51.538,23.119,89.085,67,118.917,111.715,10.8,16.189,21.061,33.092,25.121,51.164,8.268,36.785-13.3,74.867-49.969,88.212-12.471,4.543-26.173,6.405-39.9,7.443-24.4,1.849-49.665,1.115-73.871-5.731-17.262-4.892-33.591-12.761-49.253-21.455-43.739-24.293-83.683-55.84-112.445-94.376-12.615-16.9-23.286-35.957-23.594-55.459s12.4-39.1,33.312-42.415c8.645-1.37,17.79.056,26.711,1.524,13.135,2.163,26.449,4.438,39.434,3.494,13.415-.982,30.862-6.223,33.308-19.03C233.4,56.945,235.867,44.931,251.63,39.071Z" transform="translate(-98.04 -34.794)" fill="#59d083" opacity="0.1"/>
    <path id="Path_807" data-name="Path 807" d="M341.465,800.379s16.864-1.017,14.876,10.8a2.878,2.878,0,0,1-1.5,3.037s-.028-.877-1.73-.58a7.622,7.622,0,0,1-1.831.091,3.819,3.819,0,0,1-2.24-.926h0s-4.742-1.957-6.583-9.707c0,0-1.366-1.688-1.31-2.125l2.844,1.216a5.108,5.108,0,0,0-.206,3.76s.091-3.683.639-3.6c.108.017,1.478.7,1.478.7s-1.674,3.575-.412,6.174c0,0-.479-4.406.933-5.916l2.006,1.171s-1.957,3.693-.629,6.706c0,0-.349-4.623,1.048-6.423l1.817,1.4s-1.838,3.641-.716,6.143c0,0,.143-5.385,1.108-5.79a10.9,10.9,0,0,1,1.831,1.978s-1.258,2.642-.479,4.036c0,0,.479-3.585.874-3.6a11.982,11.982,0,0,1,1.747,4,8.647,8.647,0,0,0-1.366-4.232,4.77,4.77,0,0,1,2.425,1.255s-.248-1.681-2.813-1.828a11,11,0,0,0-1.66-1.911,10.385,10.385,0,0,1,4.1.475s-1.363-1.586-4.571-.867l-1.793-1.461s3.365-.461,4.787.049c0,0-1.639-1.4-5.269-.381l-1.95-1.167a17.646,17.646,0,0,1,4.574-.395s-1.8-.971-5.147.08l-1.4-.625s2.1-.412,2.715-.479.646-.234.646-.234a7.275,7.275,0,0,0-3.945.437A16.191,16.191,0,0,1,341.465,800.379Z" transform="translate(-256.193 -531.729)" fill="#59d083"/>
    <ellipse id="Ellipse_100" data-name="Ellipse 100" cx="11.937" cy="2.016" rx="11.937" ry="2.016" transform="translate(84.951 281.502)" fill="#59d083" opacity="0.1"/>
    <path id="Path_808" data-name="Path 808" d="M277.064,777.647s9.508-.573,8.386,6.091a1.618,1.618,0,0,1-.842,1.712s-.017-.493-.975-.325a4.241,4.241,0,0,1-1.031.049,2.118,2.118,0,0,1-1.265-.521h0s-2.67-1.108-3.718-5.476c0,0-.769-.954-.741-1.2l1.607.7a2.887,2.887,0,0,0-.119,2.121s.052-2.079.349-2.03c.063,0,.835.4.835.4s-.944,2.016-.231,3.494c0,0-.273-2.484.524-3.337l1.129.66s-1.1,2.1-.349,3.781c0,0-.192-2.607.591-3.62l1.024.8s-1.048,2.051-.4,3.463c0,0,.08-3.037.625-3.264a6.224,6.224,0,0,1,1.031,1.115s-.7,1.489-.269,2.275c0,0,.269-2.02.493-2.03a6.682,6.682,0,0,1,.982,2.257,4.892,4.892,0,0,0-.769-2.387,2.666,2.666,0,0,1,1.366.7s-.136-.947-1.586-1.031a6.177,6.177,0,0,0-.933-1.076,5.843,5.843,0,0,1,2.313.266,2.6,2.6,0,0,0-2.579-.489l-1.01-.825a8.364,8.364,0,0,1,2.7.028s-.926-.79-2.974-.213l-1.1-.661a9.986,9.986,0,0,1,2.575-.22,3.945,3.945,0,0,0-2.9.045l-.786-.349s1.185-.234,1.531-.269.367-.133.367-.133a4.119,4.119,0,0,0-2.226.248A9.206,9.206,0,0,1,277.064,777.647Z" transform="translate(-214.383 -516.947)" fill="#59d083"/>
    <ellipse id="Ellipse_101" data-name="Ellipse 101" cx="6.73" cy="1.139" rx="6.73" ry="1.139" transform="translate(62.499 267.94)" fill="#59d083" opacity="0.1"/>
    <path id="Path_809" data-name="Path 809" d="M946.427,795.971s11.479-.7,10.134,7.338a1.971,1.971,0,0,1-1.02,2.069s-.021-.6-1.178-.395a5.176,5.176,0,0,1-1.247.059,2.568,2.568,0,0,1-1.524-.629h0s-3.229-1.331-4.483-6.608c0,0-.93-1.15-.891-1.443l1.936.825a3.483,3.483,0,0,0-.14,2.561s.063-2.509.433-2.446c.077,0,1.006.482,1.006.482s-1.139,2.446-.28,4.193c0,0-.325-3,.636-4.026l1.363.793s-1.331,2.516-.426,4.567c0,0-.234-3.145.7-4.372l1.237.964s-1.251,2.478-.489,4.193c0,0,.1-3.662.758-3.942A7.531,7.531,0,0,1,954.2,801.5s-.856,1.8-.325,2.75c0,0,.325-2.446.594-2.446a8.117,8.117,0,0,1,1.188,2.726,5.874,5.874,0,0,0-.926-2.879,3.247,3.247,0,0,1,1.649.853s-.168-1.143-1.918-1.244a7.444,7.444,0,0,0-1.125-1.3,7.067,7.067,0,0,1,2.8.322s-.929-1.076-3.113-.587l-1.219-1a10.069,10.069,0,0,1,3.26.031s-1.118-.954-3.589-.259l-1.328-.793a12.1,12.1,0,0,1,3.113-.269,4.76,4.76,0,0,0-3.494.056l-.95-.426s1.429-.283,1.849-.325.44-.161.44-.161a4.962,4.962,0,0,0-2.684.3A11.623,11.623,0,0,1,946.427,795.971Z" transform="translate(-649.83 -528.866)" fill="#59d083"/>
    <ellipse id="Ellipse_102" data-name="Ellipse 102" cx="8.124" cy="1.373" rx="8.124" ry="1.373" transform="translate(296.377 275.855)" fill="#59d083" opacity="0.1"/>
    <path id="Path_810" data-name="Path 810" d="M759.407,450.3a24.927,24.927,0,0,1-.381-3.725c0-1.5-2.037-2.827-2.037-2.827s-1.258-2.911-2.1-3.341-3.428-4.239-3.428-4.239a3.463,3.463,0,0,0-.779-2.055,29.53,29.53,0,0,1-2.121-3.2h0c-.349-.426-.175-.727-.7-3.211-.028-.129-.059-.255-.1-.374a.49.49,0,0,0-.056-.161,4.193,4.193,0,0,0,.989-4.344,1.748,1.748,0,0,0-.5-.769c-.59-.482-1.534-.283-2.142-.741l.646-2.858c.154-.7.234-1.583-.377-1.96a3.176,3.176,0,0,0-.72-.241,3.393,3.393,0,0,1-1.929-2.523,8.645,8.645,0,0,1-.21-3.145c.119-1.013.416-2,.524-3.016a8.282,8.282,0,0,0-1.282-5.36,4.127,4.127,0,0,0-1.695-1.6c-.646-.29-1.4-.349-2-.7-1.3-.828-1.233-2.8-2.271-3.924s-2.876-1.125-4.389-.737-3.019,1.048-4.571.884c-1-.112-1.936-.566-2.939-.671a3.1,3.1,0,0,0-.86.038v-.031a1.864,1.864,0,0,0-1.6,1.247,1.905,1.905,0,0,0-.049.51c0,.409.1.835.1,1.227a1.167,1.167,0,0,1-.283.863c-.2.213-.493.325-.7.545a.873.873,0,0,0-.255.643c0,.622.776,1.171,1.3,1.422h.021c-.14.14-.28.287-.409.437a9.2,9.2,0,0,0-2.313,6.112A9.33,9.33,0,0,0,725.48,417l-.073.227a13.035,13.035,0,0,1-.514,1.321,2.617,2.617,0,0,0-2.194.245,5.542,5.542,0,0,1-3.473.514,47.177,47.177,0,0,0-6.377-.643c-.437.171-1.3-.6-1.863.43s-.825,1.583-1.4,1.841-1.562,1.069-1.429,1.241-1.433,1.2-1.433,1.2a7.124,7.124,0,0,1-2.125,1.583,12.477,12.477,0,0,0-2.429,1.244l-1.911,1.5s-1.429.217-1-.769-.783-2.226-.783-2.226-2.429-4.924-2.429-5.94-2-5.353-2-5.353l-.245-.024-.112-.318c-.367-1.031-.842-2.3-1.206-3.037-.7-1.415-1.129-1.562-1.129-1.562s-8.414-6.318-13.88-4.392,9.976,7.663,11.364,8.264a2.62,2.62,0,0,1,1.08,1.681,7.191,7.191,0,0,0-2.988,2.687s3.341,7.4,3.428,9.246,2.3,6.989,2.3,6.989a4.874,4.874,0,0,0,5.29,3.6s6.161,1.132,7.506,0a10.648,10.648,0,0,1,3.211-2.149,2.533,2.533,0,0,0,1.213-.856s-2.037,12.842-3.037,13.956-9.83,15.532-6.66,18.111a63.316,63.316,0,0,0,7.936,5.242c.269.133,1.076-1.213,2.229-2.167v.744c.021,5.13.7,12.929,1.635,14.676,1.4,2.568.825,7.534.825,7.534a5.941,5.941,0,0,0,2.345.563c.042.168.091.349.136.524a69.793,69.793,0,0,0,2.638,8.547c.954,1.8,1.646,7.5,1.646,7.5a52.051,52.051,0,0,1,.349,6.377,37.526,37.526,0,0,0,.86,5.591h0c-.349,4.015-1.013,11.755-1.125,14.554h0v.2a.868.868,0,0,1,0,.094v.171h0a2.617,2.617,0,0,0,.021.528,1.713,1.713,0,0,1-.059.8,13.92,13.92,0,0,1-.94,2.243,10.7,10.7,0,0,0-.419,1.083,1.958,1.958,0,0,0-1.013,1.44c-.433,1.67-1.083,6.29-1.083,6.29s-.262,2.827-.779,3.47-1.048,4.665,2.645,5.179a5.342,5.342,0,0,0,5.29-1.957l-.129-11.21v-.021a1.7,1.7,0,0,0,.192-.3v-.028c.024-.052.052-.108.077-.171L723.5,543l.056-.136a.2.2,0,0,1,0-.049,7.408,7.408,0,0,0,.315-3.337v-.472a1.333,1.333,0,0,1,.021-.231v-.042l.021-.136v-.059a.257.257,0,0,1,.028-.14.156.156,0,0,1,0-.035c.035-.161.077-.349.122-.5v-.038l.052-.168h0c.052-.178.112-.349.175-.538v-.035a.49.49,0,0,1,.059-.164V536.9c.063-.171.129-.349.192-.5l.017-.045.056-.14.017-.042.133-.311h0l1.024,3.162s.566,2.355.262,2.911.349,2.869.779,2.911l-.4,2.911a44.514,44.514,0,0,0-.388,4.84c-.028.185-.056.349-.077.461a10.5,10.5,0,0,0,.391,3.805c3.424,4.05,7.506.315,7.506.315s.475-2.142,0-2.568-.262-1.971-.262-1.971.217-3.812.259-6.594-2.275-5.242-2.275-5.242l-.129.115a8.236,8.236,0,0,1-.8-2.932c.175-.985-.479-11.388-.479-11.388a61.687,61.687,0,0,0,.154-8.386h0c.056-.472.108-.936.161-1.4.262-2.236.475-4.148.559-5.151h0v-.119c.021-.269.031-.461.028-.552,0-.349,0-.748.035-1.185.08-1.2.269-2.54.269-2.54l.909-5.525a17.27,17.27,0,0,1,1.695-4.193l.119-.189h0c.038-.066.077-.14.119-.217l.017-.031c.039-.073.08-.15.119-.231l.018-.031c.14-.276.29-.594.447-.944,0-.028.024-.052.035-.08l.119-.266a.274.274,0,0,1,.045-.1c.017-.035.073-.178.112-.266a.989.989,0,0,0,.045-.108c.045-.1.094-.213.14-.325l.066-.161c.031-.08.066-.161.1-.241l.084-.213c.025-.052.045-.1.066-.157l.094-.241c0-.035.031-.073.045-.108.248-.619.486-1.23.7-1.786h0c.066-.175.133-.349.192-.5,2.222.136,3.732.259,3.732.259a51.213,51.213,0,0,0,.475-8.3,30.846,30.846,0,0,1,.549-6.639c.031-.171.059-.325.087-.465l.059.049c1.087.856,1.866-1.971,1.866-1.971s-.294-2.638-.7-5.836l-.042-.318a16.422,16.422,0,0,0,1.9.29s.349-.031.828-.091a22.925,22.925,0,0,0,4.172,1.887l2.31-4.263a17.348,17.348,0,0,1,1.52-2.526c.7-.856,3.166-3.6,3.124-4.109a14.465,14.465,0,0,1,1.691-4.8A10.6,10.6,0,0,0,759.407,450.3Zm-9.63,3.253c-.912.384-1.779,2.526-1.821,3.169s-1,3.466-2,3.809a13.306,13.306,0,0,0-2.953,2.188c-.287.024-.612.063-.95.119a33.294,33.294,0,0,0-1-5.388c-.7-1.286.765-5.4.765-5.4s.143-4.151,1.048-5.137.7-3.47.7-3.47.217-1.027.3-1.5,1.289,0,1.3,0h0s2.341,1.282,2.691,3.208,2.907,5.266,2.907,5.266-.391,1.157,0,1.747S750.689,453.172,749.777,453.556Z" transform="translate(-474.247 -268.03)" fill="url(#linear-gradient)"/>
    <path id="Path_811" data-name="Path 811" d="M707,451.564a6.989,6.989,0,0,1,6.989-3.292v5h-3.037l-2.376-.6Z" transform="translate(-494.205 -302.627)" fill="#4c4981"/>
    <path id="Path_812" data-name="Path 812" d="M707,451.564a6.989,6.989,0,0,1,6.989-3.292v5h-3.037l-2.376-.6Z" transform="translate(-494.205 -302.627)" opacity="0.1"/>
    <path id="Path_813" data-name="Path 813" d="M694.731,431.71l-3.721,2.607s-.031-.521-.126-1.234c-.185-1.349-.6-3.372-1.5-3.763-1.366-.6-16.577-6.325-11.182-8.25s13.673,4.385,13.673,4.385.426.147,1.108,1.555c.349.741.828,2,1.188,3.033C694.5,430.973,694.731,431.71,694.731,431.71Z" transform="translate(-474.72 -284.741)" fill="#ae6e79"/>
    <path id="Path_814" data-name="Path 814" d="M712.8,431.709l.423-.2,1.188,1.356-.971,2.072-1.656-.664.384-1.656Z" transform="translate(-463.056 -280.725)" fill="#4c4981"/>
    <path id="Path_815" data-name="Path 815" d="M789.742,811s-1.069-.126-1.5,1.541-1.069,6.29-1.069,6.29-.255,2.82-.769,3.463-1.024,4.658,2.607,5.168a5.257,5.257,0,0,0,5.214-1.953L794.1,814.3Z" transform="translate(-545.63 -538.649)" fill="#444053"/>
    <path id="Path_816" data-name="Path 816" d="M822.452,812.44s2.285,2.446,2.243,5.221-.259,6.58-.259,6.58-.21,1.541.259,1.967,0,2.565,0,2.565-4.019,3.729-7.394-.314a10.689,10.689,0,0,1-.384-3.8c.273-1.489,1.034-8.18,1.034-8.18Z" transform="translate(-565.669 -539.59)" fill="#444053"/>
    <path id="Path_817" data-name="Path 817" d="M809.715,661.832s-2.306,6.451-3.292,7.946a17.107,17.107,0,0,0-1.663,4.193l-.9,5.511a30.767,30.767,0,0,0-.3,3.718c.042,1.24-2.222,19.313-2.222,19.313l-3.589,4.574s-1.579,3.2-1.324,4.543a6.6,6.6,0,0,1-.7,4.1s-.084,4.193-.213,5.126.472,3.592,0,4.06-6.751.259-6.922-.514.769-4.487.769-4.487l.556-3.589s1.111-1.964.856-2.607.468-2.135.51-2.264,1.2-2.222.985-3.033,1.345-18.052,1.345-18.052l4.4-30.894Z" transform="translate(-547.271 -440.08)" fill="#ae6e79"/>
    <path id="Path_818" data-name="Path 818" d="M809.715,661.845s-.349.971-.828,2.247a43.478,43.478,0,0,1-2.464,5.7,17.332,17.332,0,0,0-1.667,4.193l-.9,5.514a30.991,30.991,0,0,0-.3,3.718c0,.489-.328,3.61-.748,7.205-.647,5.5-1.475,12.108-1.475,12.108L797.75,707.1s-.182.349-.409.9a8.384,8.384,0,0,0-.915,3.627,6.623,6.623,0,0,1-.7,4.1s-.087,4.193-.213,5.126.472,3.589,0,4.06-6.751.259-6.922-.51.769-4.487.769-4.487l.556-3.592s1.111-1.964.853-2.607.472-2.135.514-2.264,1.2-2.222.985-3.033c-.164-.618.7-10.742,1.1-15.543.136-1.51.224-2.491.224-2.491l3.784-26.578.308-2.142.307-2.173Z" transform="translate(-547.271 -440.093)" opacity="0.1"/>
    <path id="Path_819" data-name="Path 819" d="M803.535,730.05c.039.472-6.028,1.157-6.894.643s0-6.88,0-6.88l.395-2.9c-.423-.045-1.066-2.352-.769-2.907s-.255-2.9-.255-2.9l-1.006-3.145-.615-1.925c-1-2.2-2.446-8.495-3.344-13.191a38.207,38.207,0,0,1-.846-5.57,52.775,52.775,0,0,0-.349-6.367s-.7-5.685-1.621-7.478a70.435,70.435,0,0,1-2.6-8.53c-.384-1.478-.65-2.54-.65-2.54s6.458-.542,10.375-.73c1.8-.087,3.065-.1,2.918.049a5.314,5.314,0,0,0-.178,2.062,53.858,53.858,0,0,0,.86,9.477c.6,1.922,1.2,7.688.94,8.247a26,26,0,0,0-.171,4.274,19.218,19.218,0,0,1,.755,4.637,62.7,62.7,0,0,1-.147,8.348s.639,10.385.468,11.367,1.366,4.06,1.366,4.658.426,4.658.426,4.658S803.507,729.582,803.535,730.05Z" transform="translate(-544.936 -444.033)" fill="#ae6e79"/>
    <path id="Path_820" data-name="Path 820" d="M817.9,459.243l-.734.793-.479.517-2.8,3.005-7.223.814-3.844-1.027-.951-.255s0-1.929.171-4.242c.245-2.967.828-6.569,2.222-7.551a5.553,5.553,0,0,0,1.625-2.058,11.587,11.587,0,0,0,.7-1.726c.028-.077.049-.15.073-.227a19.293,19.293,0,0,0,.678-3.169s.923-.51,2.2-1.1c3.344-1.562,9.12-3.718,7.111,1.1a18.881,18.881,0,0,0-.755,2.167c-.031.108-.059.217-.084.321-.671,2.684-.227,4.312.272,5.21h0a3.265,3.265,0,0,0,.29.444,2.33,2.33,0,0,0,.486.493l.832,5.28.07.437Z" transform="translate(-555.924 -298.044)" fill="#ae6e79"/>
    <path id="Path_821" data-name="Path 821" d="M825.447,444.853c-.381.916.185-.748,0,0-1.524,1.083-5.112,4.169-7.128,4.169a5.6,5.6,0,0,1-2.939-.776,19.07,19.07,0,0,0,.751-3.393S828.225,438.186,825.447,444.853Z" transform="translate(-564.713 -298.523)" opacity="0.1"/>
    <path id="Path_822" data-name="Path 822" d="M818.312,416.956a9.323,9.323,0,0,1-8.341,9.264c-.322.031-.646.052-.975.052a9.316,9.316,0,1,1,9.316-9.316Z" transform="translate(-554.499 -276.242)" fill="#ae6e79"/>
    <path id="Path_823" data-name="Path 823" d="M813.852,509.582l-1.328,3.463s-1.08.045-2.764.1c-5.685.182-18.213.412-18.772-1.048a3.715,3.715,0,0,1-.2-1.15,22.529,22.529,0,0,1,.964-5.643s.6-6.838.6-7.135-.514-5.088-.514-5.088l1.027-3.844,2.862-2.009s1.282,1.967,2.051,2.135a5.33,5.33,0,0,1,1.8,1.115s2.519,1.538,3.334.681,7.135-4.616,7.135-4.616l3.334,3.676Z" transform="translate(-548.715 -327.571)" opacity="0.1"/>
    <path id="Path_824" data-name="Path 824" d="M813.872,511.1l-1.328,3.459s-1.08.049-2.764.1h-.164c-.727.024-1.558.049-2.446.066a105.256,105.256,0,0,1-13.995-.349c-1.223-.175-2.023-.426-2.156-.769a3.083,3.083,0,0,1-.154-.636c-.021-.161-.035-.349-.042-.514a22.528,22.528,0,0,1,.964-5.643s.6-6.838.6-7.135-.514-5.088-.514-5.088l1.027-3.844,1.967-1.377.895-.629a13.415,13.415,0,0,0,.982,1.293,2.614,2.614,0,0,0,1.069.842,5.348,5.348,0,0,1,1.8,1.115s2.519,1.537,3.334.681a64.769,64.769,0,0,1,6.237-4.078c.545-.332.9-.538.9-.538l.447.5,2.886,3.18Z" transform="translate(-548.734 -328.56)" fill="#fff"/>
    <path id="Path_825" data-name="Path 825" d="M720.487,449.1l-3.721,2.607s-.031-.521-.126-1.234a7.532,7.532,0,0,0,3.278-3.04C720.26,448.359,720.487,449.1,720.487,449.1Z" transform="translate(-500.476 -302.128)" opacity="0.1"/>
    <path id="Path_826" data-name="Path 826" d="M727.253,458.582l-.811-.217a7.046,7.046,0,0,1-2.1,1.583,12.235,12.235,0,0,0-2.39,1.237l-1.883,1.5s-1.4.217-.982-.769-.769-2.222-.769-2.222-2.394-4.913-2.394-5.94-1.978-5.339-1.978-5.339-2.481,4.829-7.01,3.292c0,0,3.292,7.391,3.375,9.229s2.264,6.964,2.264,6.964a4.824,4.824,0,0,0,5.214,3.592s6.07,1.129,7.394,0a10.715,10.715,0,0,1,3.145-2.146,2.594,2.594,0,0,0,1.2-.853v-5.081Z" transform="translate(-494.166 -302.765)" fill="#4c4981"/>
    <path id="Path_827" data-name="Path 827" d="M743.3,491.33s1.069,3.977.384,4.4Z" transform="translate(-517.82 -330.687)" opacity="0.1"/>
    <path id="Path_828" data-name="Path 828" d="M809.767,560.048c-5.685.182-18.213.409-18.772-1.048a3.711,3.711,0,0,1-.2-1.15l18.572.978Z" transform="translate(-548.722 -373.963)" opacity="0.1"/>
    <path id="Path_829" data-name="Path 829" d="M807.392,661.832s-.349.971-.828,2.247c-2.359-.143-5.483-.294-8.449-.315-1.048,0-2.076,0-3.047.035a22.955,22.955,0,0,0-4.979.552,13.206,13.206,0,0,1-4.438.573c-.384-1.478-.65-2.54-.65-2.54s6.458-.542,10.375-.73l.307-2.173Z" transform="translate(-544.949 -440.08)" opacity="0.1"/>
    <path id="Path_830" data-name="Path 830" d="M804.54,580.939l-.727,1.538s-.1.458-.231,1.185a30.293,30.293,0,0,0-.538,6.639,52.523,52.523,0,0,1-.472,8.289s-15.725-1.324-20.337,0-6.884,0-6.884,0,.559-4.955-.811-7.52c-.933-1.747-1.59-9.547-1.611-14.676,0-2.366.119-4.158.416-4.522.94-1.153,4.955-12.691,4.955-12.691l.916.049,2.446.129,13.908.734,2.184.115.231.7Z" transform="translate(-537.096 -374.828)" fill="#444053"/>
    <path id="Path_831" data-name="Path 831" d="M871.245,595.437l.129,1.37s-6.887-2.243-6.538-5,0-2.446,0-2.446l5.535.468Z" transform="translate(-596.879 -394.456)" fill="#4c4981"/>
    <path id="Path_832" data-name="Path 832" d="M871.245,595.437l.129,1.37s-6.887-2.243-6.538-5,0-2.446,0-2.446l5.535.468Z" transform="translate(-596.879 -394.456)" opacity="0.1"/>
    <path id="Path_833" data-name="Path 833" d="M754.5,492.421a6.136,6.136,0,0,0,2.425,1.261,1.579,1.579,0,0,1-.7-.349c-.493-.349-.961-.73-1.436-1.1a4.506,4.506,0,0,0-1.335-.923A7.353,7.353,0,0,0,754.5,492.421Z" transform="translate(-524.43 -330.674)" opacity="0.1"/>
    <path id="Path_834" data-name="Path 834" d="M753.219,496.461a3.087,3.087,0,0,1,.531.842,5.091,5.091,0,0,1-.038,2.645l-1.1-2.663c-.192-.454-.384-.909-.615-1.342-.1-.185-.737-.957-.664-1.118C751.525,494.372,753.013,496.206,753.219,496.461Z" transform="translate(-523.04 -332.915)" opacity="0.1"/>
    <path id="Path_835" data-name="Path 835" d="M836.684,540.09a3.557,3.557,0,0,0,2.009-.94c-1.136.143-2.212.591-3.33.825a4.948,4.948,0,0,1-3.1-.287A7.63,7.63,0,0,0,836.684,540.09Z" transform="translate(-575.694 -361.797)" opacity="0.1"/>
    <path id="Path_836" data-name="Path 836" d="M825.36,513.159a.78.78,0,0,1-.577-.143q-1.279-.734-2.523-1.53a16.755,16.755,0,0,1-2.471-1.705A12.569,12.569,0,0,0,825.36,513.159Z" transform="translate(-567.582 -342.69)" opacity="0.1"/>
    <path id="Path_837" data-name="Path 837" d="M838.184,543.818a5.319,5.319,0,0,0,1.335-.108,1.789,1.789,0,0,0,1.1-.72.629.629,0,0,0-.465.073,7.841,7.841,0,0,1-4.291.514A6.2,6.2,0,0,0,838.184,543.818Z" transform="translate(-578.036 -364.285)" opacity="0.1"/>
    <path id="Path_838" data-name="Path 838" d="M799.1,601.48a14.018,14.018,0,0,1-2.729.535,16.5,16.5,0,0,1-2.16-.042l-3.494-.22-1.747-.112c-.206,0-1.048,0-.633-.416.21-.2,1.377-.073,1.677-.084q.87-.028,1.747-.031c1.157,0,2.317,0,3.473.07C796.532,601.243,797.808,601.341,799.1,601.48Z" transform="translate(-547.046 -402.106)" opacity="0.1"/>
    <path id="Path_839" data-name="Path 839" d="M792.856,606.515a14.1,14.1,0,0,0-1.971.405,13.108,13.108,0,0,1-2.062.08,11.5,11.5,0,0,1-3.973-.811C787.516,606.326,790.189,606.407,792.856,606.515Z" transform="translate(-544.851 -405.411)" opacity="0.1"/>
    <path id="Path_840" data-name="Path 840" d="M784.075,612.152a5.715,5.715,0,0,1,.762.21,8.941,8.941,0,0,0,4.543-.321,2.665,2.665,0,0,1-1.723.957,7.989,7.989,0,0,1-3.355.122c-.349-.07-1.227-.2-1.4-.559C782.617,612.026,783.746,612.1,784.075,612.152Z" transform="translate(-543.555 -409.217)" opacity="0.1"/>
    <path id="Path_841" data-name="Path 841" d="M805.908,618.819a11.41,11.41,0,0,1,1.307.349c1.66.412,3.383-.154,5.049-.535a23.506,23.506,0,0,1,6.112-.566,6.056,6.056,0,0,0-1.31.43c-.472.143-.95.276-1.429.395-.94.231-1.894.419-2.855.556a29.349,29.349,0,0,1-5.86.255c-.895-.049-2.446.042-3.211-.409a3.54,3.54,0,0,1,2.2-.475Z" transform="translate(-557.121 -413.127)" opacity="0.1"/>
    <path id="Path_842" data-name="Path 842" d="M786.509,465.728a22.571,22.571,0,0,1-.556,5.731c-.2.559-.517,1.59-.86,2.747-.374,1.282-.783,2.719-1.1,3.844s-.524,1.88-.524,1.88-1.443,11.755-1.817,17.356a1.366,1.366,0,0,1-.021.294c-.021.315-.056.643-.108.982-.832,5.563-5.629,14.142-7.24,14.827a4.794,4.794,0,0,0-1.356.933c0-2.366.119-4.158.416-4.522.94-1.153,4.955-12.691,4.955-12.691l.916.049c-.021-.161-.035-.349-.042-.514a22.529,22.529,0,0,1,.964-5.643s.6-6.838.6-7.135-.514-5.088-.514-5.088l1.027-3.844,1.967-1.377c.245-2.967.828-6.569,2.222-7.551a5.553,5.553,0,0,0,1.625-2.058c.276.038-.227-.206-.227-.206Z" transform="translate(-537.096 -312.738)" opacity="0.1"/>
    <path id="Path_843" data-name="Path 843" d="M767.4,462.865a2.544,2.544,0,0,0-2.163.245,5.408,5.408,0,0,1-3.421.514,46.362,46.362,0,0,0-6.29-.643c-.437.171-1.282-.6-1.838.43s-.811,1.579-1.366,1.835-1.541,1.069-1.4,1.24-1.4,1.2-1.4,1.2l3.117,10.134s-2.009,12.817-2.991,13.929-9.7,15.511-6.58,18.076a62.106,62.106,0,0,0,7.82,5.242c.349.171,1.579-2.135,3.288-2.862s7.01-10.343,7.338-15.812,1.838-17.647,1.838-17.647,1.838-6.667,2.478-8.463a22.568,22.568,0,0,0,.556-5.731Z" transform="translate(-517.234 -312.08)" fill="#4c4981"/>
    <path id="Path_844" data-name="Path 844" d="M846.469,524.529l-.727,1.538s-.1.458-.231,1.185a.653.653,0,0,1-.349-.157c-1.069-.856-7.338-7.307-7.649-13.034-.22-4.225-.115-7.866-.045-9.487.021-.51.042-.818.042-.884h0s4.871-5.9,4.316-7.988-1.838-13.279-1.838-13.279l-.189-1.468-.325-2.481-.776-6,.8.189a2.332,2.332,0,0,0,.486.493l.832,5.28,2.886,3.18.472,19.359-1.328,3.459s-1.08.049-2.764.1h-.164Z" transform="translate(-579.025 -318.418)" opacity="0.1"/>
    <path id="Path_845" data-name="Path 845" d="M850.031,492.1s-1.2-.472-1.279,0-.3,1.492-.3,1.492.213,2.481-.7,3.463-1.048,5.126-1.048,5.126-1.44,4.1-.758,5.385a34.541,34.541,0,0,1,1.017,5.591c.245,1.747.486,3.666.7,5.42.388,3.187.678,5.825.678,5.825s-.772,2.82-1.842,1.964-7.338-7.307-7.646-13.034c-.21-4.022-.126-7.516-.056-9.239.028-.73.056-1.143.056-1.143s4.871-5.9,4.316-7.992-1.838-13.279-1.838-13.279l-.224-1.73-.241-1.859-.056-.409-.772-5.94h0c.136.031,4.931,1.115,5.563,1.747s4.543,1.538,4.543,1.538a3.417,3.417,0,0,1,2.425,2.488c.038.119.066.245.094.374.514,2.481.349,2.778.7,3.208S850.031,492.1,850.031,492.1Z" transform="translate(-579.896 -317.943)" fill="#4c4981"/>
    <path id="Path_846" data-name="Path 846" d="M856.419,595.67c-1.747-.349-4.34-1.157-4.281-2.939.052-1.667,2.058-2.268,3.578-2.481C855.961,591.99,856.2,593.916,856.419,595.67Z" transform="translate(-588.626 -395.041)" opacity="0.1"/>
    <path id="Path_847" data-name="Path 847" d="M862.314,594.079c-.07.15-.349.28-.748.395a20.161,20.161,0,0,1-2.841.465s-5.94-.472-5.857-3.166c.063-1.932,2.747-2.446,4.253-2.561a9.789,9.789,0,0,1,1-.042S862.569,593.527,862.314,594.079Z" transform="translate(-589.101 -394.338)" fill="#ae6e79"/>
    <path id="Path_848" data-name="Path 848" d="M869.634,594.079c-.07.15-.349.28-.748.395-1.548-2.072-3.708-4.731-4.766-4.965l.321-.3a9.79,9.79,0,0,1,1-.042S869.889,593.527,869.634,594.079Z" transform="translate(-596.421 -394.338)" opacity="0.1"/>
    <path id="Path_849" data-name="Path 849" d="M868.62,497.69l1.747.259a30.381,30.381,0,0,0,2.1,3.2,3.494,3.494,0,0,1,.769,2.051s2.565,3.8,3.376,4.228,2.051,3.334,2.051,3.334,2.009,1.324,2.009,2.82a25.108,25.108,0,0,0,.384,3.718A10.544,10.544,0,0,1,879.9,521.5a14.322,14.322,0,0,0-1.667,4.78c.045.524-2.394,3.25-3.075,4.1a17.367,17.367,0,0,0-1.5,2.523l-2.264,4.274s-4.787-7.052-6.538-7.436a13.759,13.759,0,0,1,2.946-2.222c.982-.342,1.925-3.145,1.967-3.8s.9-2.778,1.793-3.145,1.37-.769.985-1.37a2.553,2.553,0,0,1,0-1.747s-2.523-3.334-2.865-5.242-2.649-3.2-2.649-3.2l-1.324-3.25Z" transform="translate(-596.903 -334.825)" fill="#4c4981"/>
    <path id="Path_850" data-name="Path 850" d="M890.837,540.907a5.546,5.546,0,0,1,3.449-1.307,4.2,4.2,0,0,0-2.257.884,5.323,5.323,0,0,0-.625.8c-.2.29-1.852,2.387-2.1,2.055C888.9,542.85,890.505,541.19,890.837,540.907Z" transform="translate(-612.764 -362.09)" opacity="0.1"/>
    <path id="Path_851" data-name="Path 851" d="M882.73,524.89a1.478,1.478,0,0,0,1.22-.863,4.84,4.84,0,0,0,.381-1.517,22.622,22.622,0,0,1,.528-2.6,1.2,1.2,0,0,0-.073-1.048,3.546,3.546,0,0,0-.377-.776,4.649,4.649,0,0,0-.535,1.632c-.161.58-.308,1.164-.447,1.747C883.352,521.749,882.772,524.89,882.73,524.89Z" transform="translate(-608.528 -348.096)" opacity="0.1"/>
    <path id="Path_852" data-name="Path 852" d="M831.364,435.794a3.6,3.6,0,0,1-.591.608c-.7.556-1.625,1.024-1.712,1.9a2.044,2.044,0,0,1-.1.842c-.224.384-.772.349-1.209.276a2.1,2.1,0,0,1-1.024-.377c-.458-.391-.5-1.09-.849-1.583a2.156,2.156,0,0,0-1.747-.772c-.653-.021-1.3.126-1.957.154a5.379,5.379,0,0,1-1.254-.084,3.984,3.984,0,0,1-.405-.084,5.217,5.217,0,0,1-.853-.29,3.76,3.76,0,0,1-.416-.2,5.518,5.518,0,0,1-1.206-.839,3,3,0,0,1-1.118-2.268c.031-.535.272-1.027.349-1.555.262-1.51-.741-2.935-1.828-4.015-.433-.43-.895-.846-1.328-1.282A6.391,6.391,0,0,1,812.551,424a6.639,6.639,0,0,1-.28-2.8,19.3,19.3,0,0,0,.08-2.872c-.322-3.4-3.222-6-6.122-7.415l-.129-.066a9.312,9.312,0,1,1,12.527,13.628c-.031.108-.059.217-.084.321-.671,2.684-.227,4.312.273,5.21h0c.136.031,4.93,1.115,5.563,1.747s4.543,1.538,4.543,1.538a3.417,3.417,0,0,1,2.443,2.5Z" transform="translate(-558.675 -276.253)" opacity="0.1"/>
    <path id="Path_853" data-name="Path 853" d="M803.869,400.678c.192-.22.482-.332.678-.545.6-.657,0-1.73.22-2.6a2.156,2.156,0,0,1,2.4-1.279c.985.1,1.908.556,2.893.667,1.531.171,3.012-.493,4.5-.881s3.3-.409,4.323.734.957,3.089,2.236,3.917a12.72,12.72,0,0,0,1.974.7,4.057,4.057,0,0,1,1.67,1.6,8.366,8.366,0,0,1,1.265,5.35c-.108,1.013-.4,2-.521,3.012a8.771,8.771,0,0,0,.21,3.145,3.352,3.352,0,0,0,1.9,2.516,3.2,3.2,0,0,1,.7.241c.6.377.524,1.265.37,1.957l-.622,2.869c.6.454,1.527.259,2.1.737a1.747,1.747,0,0,1,.489.769,4.193,4.193,0,0,1-1.255,4.592c-.7.556-1.625,1.024-1.712,1.9a1.972,1.972,0,0,1-.1.842c-.22.384-.772.349-1.209.276a2.1,2.1,0,0,1-1.02-.377c-.461-.391-.5-1.09-.849-1.583a2.163,2.163,0,0,0-1.747-.772c-.657-.021-1.3.126-1.96.157a5.794,5.794,0,0,1-4.12-1.489,3.008,3.008,0,0,1-1.122-2.271c.031-.531.272-1.027.349-1.555.259-1.506-.741-2.935-1.828-4.015s-2.362-2.076-2.893-3.512c-.664-1.779-.021-3.763-.2-5.65-.321-3.4-3.218-6-6.122-7.419C804.219,402.376,803.118,401.534,803.869,400.678Z" transform="translate(-557.06 -268.542)" fill="#444053"/>
    <path id="Path_854" data-name="Path 854" d="M826.671,430.872c-.461-.395-.5-1.09-.849-1.583a2.17,2.17,0,0,0-1.747-.776c-.657-.021-1.307.126-1.96.157a5.776,5.776,0,0,1-4.134-1.492,3,3,0,0,1-1.118-2.268c.031-.535.273-1.031.349-1.555.262-1.51-.741-2.939-1.828-4.018s-2.359-2.076-2.893-3.512c-.661-1.775,0-3.76-.2-5.65-.325-3.4-3.222-6-6.122-7.419-.678-.332-1.779-1.174-1.027-2.03.189-.22.479-.332.674-.545.6-.653,0-1.73.224-2.593a1.424,1.424,0,0,1,.22-.479,1.864,1.864,0,0,0-1.576,1.247c-.213.867.384,1.939-.22,2.6-.2.213-.486.325-.678.542-.751.856.349,1.7,1.027,2.03,2.9,1.419,5.8,4.022,6.122,7.419.178,1.89-.465,3.875.2,5.654.531,1.433,1.807,2.446,2.893,3.512s2.1,2.505,1.828,4.015a13.385,13.385,0,0,0-.349,1.555,3,3,0,0,0,1.122,2.268,5.762,5.762,0,0,0,4.13,1.492c.657-.031,1.3-.175,1.96-.157a2.173,2.173,0,0,1,1.747.776c.349.493.388,1.192.849,1.583a2.1,2.1,0,0,0,1.02.374c.437.08.989.108,1.209-.273a.943.943,0,0,0,.1-.5,2.009,2.009,0,0,1-.975-.367Z" transform="translate(-557.009 -269.391)" opacity="0.1"/>
    <path id="Path_855" data-name="Path 855" d="M614.329,172.324H590.158V148.507h24.188Zm-.349-35.912H590.508c0-37.012,35.181-34.849,35.181-58.265a23.335,23.335,0,0,0-23.454-23.231c-12.9,0-23.451,11.14-23.451,23.6H555.33a46.906,46.906,0,0,1,93.81-.367c0,29.279-35.178,32.613-35.178,58.265Z" transform="translate(-395.533 -31.61)" fill="#59d083"/>
    <path id="Path_856" data-name="Path 856" d="M350.893,346.345h-6.234v-6.157h6.234Zm-.094-9.26h-6.045c0-9.54,9.068-8.984,9.068-15.026a6.017,6.017,0,0,0-6.045-5.993,6.175,6.175,0,0,0-6.031,6.08H335.7a12.093,12.093,0,1,1,24.186-.094c-.019,7.548-9.087,8.407-9.087,15.019Z" transform="translate(-252.65 -212.724)" fill="#59d083" opacity="0.1"/>
    <path id="Path_857" data-name="Path 857" d="M485.921,468.781h-6.234v-6.14h6.234Zm-.091-9.257h-6.045c0-9.543,9.068-8.984,9.068-15.026a6.014,6.014,0,0,0-6.045-5.989,6.175,6.175,0,0,0-6.063,6.087H470.7a12.093,12.093,0,1,1,24.186-.094C494.895,452.05,485.83,452.913,485.83,459.524Z" transform="translate(-340.476 -292.385)" fill="#59d083" opacity="0.1"/>
    <path id="Path_858" data-name="Path 858" d="M575.881,270.7h-4.518v-4.441h4.518Zm-.066-6.713h-4.382c0-6.912,6.573-6.51,6.573-10.885a4.361,4.361,0,0,0-4.382-4.34,4.473,4.473,0,0,0-4.382,4.41H564.86a8.764,8.764,0,1,1,17.528-.07C582.381,258.567,575.815,259.193,575.815,263.984Z" transform="translate(-401.733 -170.024)" fill="#59d083" opacity="0.1"/>
    <path id="Path_859" data-name="Path 859" d="M805.614,310.2H803.06v-2.516h2.554Zm-.038-3.791h-2.491c0-3.907,3.714-3.68,3.714-6.154a2.446,2.446,0,0,0-2.474-2.446,2.53,2.53,0,0,0-2.478,2.491H799.37a4.955,4.955,0,0,1,9.906-.038C809.29,303.335,805.576,303.7,805.576,306.41Z" transform="translate(-554.297 -203.26)" fill="#59d083" opacity="0.1"/>
    <path id="Path_860" data-name="Path 860" d="M917.4,637.672h-2.554v-2.516H917.4Zm-.038-3.791h-2.478c0-3.91,3.718-3.68,3.718-6.154a2.463,2.463,0,0,0-2.477-2.446,2.526,2.526,0,0,0-2.478,2.491H911.17a4.955,4.955,0,0,1,9.907-.038c.014,3.086-3.7,3.438-3.7,6.147Z" transform="translate(-627.03 -416.301)" fill="#59d083" opacity="0.1"/>
  </g>
</svg>
