<svg xmlns="http://www.w3.org/2000/svg" width="129" height="129" viewBox="0 0 129 129">
  <g id="Group_1287" data-name="Group 1287" transform="translate(-1250 -2090)">
    <circle id="Ellipse_212" data-name="Ellipse 212" cx="64.5" cy="64.5" r="64.5" transform="translate(1250 2090)" fill="#effaf2"/>
    <g id="report" transform="translate(1281 2118)">
      <path id="Path_1449" data-name="Path 1449" d="M36.823,31.057a5.8,5.8,0,0,0,4.038-1.634l5.713,2.856a5.822,5.822,0,1,0,11.031-1.791l7.765-7.765a5.823,5.823,0,0,0,8.066-7l6.746-5.059a5.815,5.815,0,1,0-2.331-3.1l-6.746,5.059a5.821,5.821,0,0,0-8.479,7.355l-7.765,7.765a5.811,5.811,0,0,0-6.547,1.065L42.6,25.952a5.822,5.822,0,1,0-5.777,5.1ZM83.408,3.882a1.941,1.941,0,1,1-1.941,1.941A1.943,1.943,0,0,1,83.408,3.882ZM67.88,15.528a1.941,1.941,0,1,1-1.941,1.941A1.943,1.943,0,0,1,67.88,15.528ZM52.351,31.057A1.941,1.941,0,1,1,50.41,33,1.943,1.943,0,0,1,52.351,31.057ZM36.823,23.292a1.941,1.941,0,1,1-1.941,1.941A1.943,1.943,0,0,1,36.823,23.292Zm0,0" transform="translate(-26.989)" fill="#59d083"/>
      <path id="Path_1450" data-name="Path 1450" d="M64.313,192.962h-2.07v-41.02A1.941,1.941,0,0,0,60.3,150H52.537a1.941,1.941,0,0,0-1.941,1.941v41.02H46.714V163.587a1.941,1.941,0,0,0-1.941-1.941H37.009a1.941,1.941,0,0,0-1.941,1.941v29.374H31.186V179.115a1.941,1.941,0,0,0-1.941-1.941H21.481a1.941,1.941,0,0,0-1.941,1.941v13.846H15.658v-21.61a1.941,1.941,0,0,0-1.941-1.941H5.952a1.941,1.941,0,0,0-1.941,1.941v21.61H1.941a1.941,1.941,0,1,0,0,3.882H64.313a1.941,1.941,0,1,0,0-3.882Zm-9.835-39.079H58.36v39.079H54.478ZM38.95,165.528h3.882v27.433H38.95ZM23.422,181.057H27.3v11.9H23.422ZM7.894,173.292h3.882v19.669H7.894Zm0,0" transform="translate(0 -130.59)" fill="#59d083"/>
    </g>
  </g>
</svg>
