<svg xmlns="http://www.w3.org/2000/svg" width="129" height="129" viewBox="0 0 129 129">
  <g id="Group_1291" data-name="Group 1291" transform="translate(-896 -2479)">
    <circle id="Ellipse_212" data-name="Ellipse 212" cx="64.5" cy="64.5" r="64.5" transform="translate(896 2479)" fill="#effaf2"/>
    <g id="_747402" data-name="747402" transform="translate(925 2508)">
      <g id="Group_947" data-name="Group 947">
        <g id="Group_946" data-name="Group 946">
          <path id="Path_1458" data-name="Path 1458" d="M59.989,10.292a35.141,35.141,0,0,0-49.7,49.7,35.141,35.141,0,0,0,49.7-49.7Zm-24.848,54.5a29.65,29.65,0,1,1,29.65-29.65A29.683,29.683,0,0,1,35.141,64.791Z" fill="#59d083"/>
        </g>
      </g>
      <g id="Group_949" data-name="Group 949" transform="translate(14.449 39.122)">
        <g id="Group_948" data-name="Group 948">
          <path id="Path_1459" data-name="Path 1459" d="M141.464,285.112a19.643,19.643,0,0,1-3.434,5.819,14.855,14.855,0,0,1-11.746,5.467,15.806,15.806,0,0,1-12.125-5.532,21.137,21.137,0,0,1-3.752-5.86l-5.144,1.92a26.3,26.3,0,0,0,4.669,7.45,21.382,21.382,0,0,0,16.352,7.513,20.4,20.4,0,0,0,16.074-7.573,24.851,24.851,0,0,0,4.328-7.506Z" transform="translate(-105.262 -285.006)" fill="#59d083"/>
        </g>
      </g>
      <g id="Group_951" data-name="Group 951" transform="translate(18.668 20.332)">
        <g id="Group_950" data-name="Group 950">
          <circle id="Ellipse_213" data-name="Ellipse 213" cx="4.393" cy="4.393" r="4.393" fill="#59d083"/>
        </g>
      </g>
      <g id="Group_953" data-name="Group 953" transform="translate(42.828 20.332)">
        <g id="Group_952" data-name="Group 952">
          <circle id="Ellipse_214" data-name="Ellipse 214" cx="4.393" cy="4.393" r="4.393" fill="#59d083"/>
        </g>
      </g>
    </g>
  </g>
</svg>
