<svg xmlns="http://www.w3.org/2000/svg" width="129" height="129" viewBox="0 0 129 129">
  <g id="Group_1292" data-name="Group 1292" transform="translate(-1250 -2479)">
    <circle id="Ellipse_212" data-name="Ellipse 212" cx="64.5" cy="64.5" r="64.5" transform="translate(1250 2479)" fill="#effaf2"/>
    <g id="_405894" data-name="405894" transform="translate(1279 2508)">
      <g id="Group_955" data-name="Group 955" transform="translate(0 33.607)">
        <g id="Group_954" data-name="Group 954">
          <path id="Path_1460" data-name="Path 1460" d="M7.034,239.3H2.345a2.345,2.345,0,1,0,0,4.689H7.034a2.345,2.345,0,1,0,0-4.689Z" transform="translate(0 -239.304)" fill="#59d083"/>
        </g>
      </g>
      <g id="Group_957" data-name="Group 957" transform="translate(62.525 33.607)">
        <g id="Group_956" data-name="Group 956">
          <path id="Path_1461" data-name="Path 1461" d="M452.251,239.3h-4.689a2.345,2.345,0,1,0,0,4.689h4.689a2.345,2.345,0,1,0,0-4.689Z" transform="translate(-445.217 -239.304)" fill="#59d083"/>
        </g>
      </g>
      <g id="Group_959" data-name="Group 959" transform="translate(33.607 62.525)">
        <g id="Group_958" data-name="Group 958">
          <path id="Path_1462" data-name="Path 1462" d="M241.649,445.217a2.345,2.345,0,0,0-2.345,2.345v4.689a2.345,2.345,0,1,0,4.689,0v-4.689A2.345,2.345,0,0,0,241.649,445.217Z" transform="translate(-239.304 -445.217)" fill="#59d083"/>
        </g>
      </g>
      <g id="Group_961" data-name="Group 961" transform="translate(33.607)">
        <g id="Group_960" data-name="Group 960">
          <path id="Path_1463" data-name="Path 1463" d="M241.649,0A2.345,2.345,0,0,0,239.3,2.345V7.034a2.345,2.345,0,1,0,4.689,0V2.345A2.345,2.345,0,0,0,241.649,0Z" transform="translate(-239.304)" fill="#59d083"/>
        </g>
      </g>
      <g id="Group_963" data-name="Group 963" transform="translate(48.066 58.65)">
        <g id="Group_962" data-name="Group 962">
          <path id="Path_1464" data-name="Path 1464" d="M348.979,422.861l-2.345-4.061a2.345,2.345,0,1,0-4.061,2.345l2.345,4.061a2.345,2.345,0,0,0,4.061-2.345Z" transform="translate(-342.259 -417.627)" fill="#59d083"/>
        </g>
      </g>
      <g id="Group_965" data-name="Group 965" transform="translate(16.803 4.502)">
        <g id="Group_964" data-name="Group 964">
          <path id="Path_1465" data-name="Path 1465" d="M126.37,37.292l-2.345-4.061a2.345,2.345,0,1,0-4.061,2.345l2.345,4.061a2.345,2.345,0,1,0,4.061-2.345Z" transform="translate(-119.65 -32.058)" fill="#59d083"/>
        </g>
      </g>
      <g id="Group_967" data-name="Group 967" transform="translate(58.65 48.066)">
        <g id="Group_966" data-name="Group 966">
          <path id="Path_1466" data-name="Path 1466" d="M425.207,344.917l-4.061-2.345a2.345,2.345,0,1,0-2.345,4.061l4.061,2.345a2.345,2.345,0,0,0,2.345-4.061Z" transform="translate(-417.629 -342.258)" fill="#59d083"/>
        </g>
      </g>
      <g id="Group_969" data-name="Group 969" transform="translate(4.502 16.803)">
        <g id="Group_968" data-name="Group 968">
          <path id="Path_1467" data-name="Path 1467" d="M39.638,122.308l-4.061-2.345a2.345,2.345,0,0,0-2.345,4.061l4.061,2.345a2.345,2.345,0,1,0,2.345-4.061Z" transform="translate(-32.06 -119.649)" fill="#59d083"/>
        </g>
      </g>
      <g id="Group_971" data-name="Group 971" transform="translate(58.65 16.803)">
        <g id="Group_970" data-name="Group 970">
          <path id="Path_1468" data-name="Path 1468" d="M426.065,120.822a2.345,2.345,0,0,0-3.2-.858l-4.061,2.345a2.345,2.345,0,0,0,2.345,4.061l4.061-2.345A2.345,2.345,0,0,0,426.065,120.822Z" transform="translate(-417.629 -119.649)" fill="#59d083"/>
        </g>
      </g>
      <g id="Group_973" data-name="Group 973" transform="translate(4.502 48.066)">
        <g id="Group_972" data-name="Group 972">
          <path id="Path_1469" data-name="Path 1469" d="M40.5,343.431a2.345,2.345,0,0,0-3.2-.858l-4.061,2.345a2.345,2.345,0,0,0,2.345,4.061l4.061-2.345A2.345,2.345,0,0,0,40.5,343.431Z" transform="translate(-32.059 -342.259)" fill="#59d083"/>
        </g>
      </g>
      <g id="Group_975" data-name="Group 975" transform="translate(48.066 4.502)">
        <g id="Group_974" data-name="Group 974">
          <path id="Path_1470" data-name="Path 1470" d="M348.121,32.372a2.344,2.344,0,0,0-3.2.858l-2.345,4.061a2.345,2.345,0,1,0,4.061,2.345l2.345-4.061A2.345,2.345,0,0,0,348.121,32.372Z" transform="translate(-342.259 -32.058)" fill="#59d083"/>
        </g>
      </g>
      <g id="Group_977" data-name="Group 977" transform="translate(16.803 58.65)">
        <g id="Group_976" data-name="Group 976">
          <path id="Path_1471" data-name="Path 1471" d="M125.512,417.942a2.344,2.344,0,0,0-3.2.858l-2.345,4.061a2.345,2.345,0,1,0,4.061,2.345l2.345-4.061A2.345,2.345,0,0,0,125.512,417.942Z" transform="translate(-119.65 -417.628)" fill="#59d083"/>
        </g>
      </g>
      <g id="Group_979" data-name="Group 979" transform="translate(14.068 14.068)">
        <g id="Group_978" data-name="Group 978">
          <path id="Path_1472" data-name="Path 1472" d="M122.058,100.174a21.884,21.884,0,1,0,21.884,21.884A21.909,21.909,0,0,0,122.058,100.174Zm0,39.078a17.194,17.194,0,1,1,17.194-17.194A17.214,17.214,0,0,1,122.058,139.252Z" transform="translate(-100.174 -100.174)" fill="#59d083"/>
        </g>
      </g>
      <g id="Group_981" data-name="Group 981" transform="translate(23.447 23.447)">
        <g id="Group_980" data-name="Group 980">
          <path id="Path_1473" data-name="Path 1473" d="M179.462,166.957a12.519,12.519,0,0,0-12.5,12.5,2.345,2.345,0,1,0,4.689,0,7.824,7.824,0,0,1,7.816-7.816,2.345,2.345,0,1,0,0-4.689Z" transform="translate(-166.957 -166.957)" fill="#59d083"/>
        </g>
      </g>
    </g>
  </g>
</svg>
