<svg xmlns="http://www.w3.org/2000/svg" xmlns:xlink="http://www.w3.org/1999/xlink" width="795.755" height="554.859" viewBox="0 0 795.755 554.859">
  <defs>
    <linearGradient id="linear-gradient" x1="0.5" y1="1" x2="0.5" gradientUnits="objectBoundingBox">
      <stop offset="0" stop-color="gray" stop-opacity="0.251"/>
      <stop offset="0.54" stop-color="gray" stop-opacity="0.122"/>
      <stop offset="1" stop-color="gray" stop-opacity="0.102"/>
    </linearGradient>
  </defs>
  <g id="Group_368" data-name="Group 368" transform="translate(0 0.005)">
    <path id="Path_280" data-name="Path 280" d="M498.37,144.411c-51-1.77-99.568-18.238-145.952-36.25S260.094,70.19,210.31,60.648c-32.011-6.143-68.628-7.01-94.426,10.156C91.059,87.321,83.04,115.834,78.724,142.3c-3.244,19.909-5.148,40.855,3.738,59.5,6.171,12.934,17.131,23.809,24.684,36.2,26.369,43.126,7.758,96.3-20.847,138.406C72.9,396.144,57.341,414.988,47,436.012s-15.107,45.115-6.016,66.6c8.971,21.256,30.326,37.223,53.507,48.458,47,22.773,102.424,29.3,156.467,33,119.639,8.181,239.92,4.641,359.876,1.093,44.389-1.319,88.982-2.645,132.651-9.514,24.254-3.808,49.29-9.874,66.9-24.465,22.349-18.541,27.893-49.939,12.913-73.191-25.121-39-94.581-48.662-112.135-90.54-9.669-23.034.261-48.7,14.31-70.06,30.128-45.841,80.632-86.041,83.29-138.434,1.834-35.968-22.448-72.02-59.989-89.045-39.353-17.843-93.911-15.6-122.947,13.943C595.935,134.27,543.4,145.97,498.37,144.411Z" transform="translate(-35.936 -56.63)" fill="#f4f7fc"/>
    <path id="Path_281" data-name="Path 281" d="M933.729,738.1a21.734,21.734,0,0,0-8.879-.945c-3.646.395-3.131,5.945.529,5.684a26.222,26.222,0,0,0,5.4-.994Z" transform="translate(-297.14 -257.182)" fill="#59d083"/>
    <path id="Path_282" data-name="Path 282" d="M938.553,738.61a21.7,21.7,0,0,1,2.172,8.668c.12,3.667-5.452,3.928-5.706.268a26.534,26.534,0,0,1,.24-5.487Z" transform="translate(-300.857 -257.644)" fill="#59d083"/>
    <path id="Path_283" data-name="Path 283" d="M944.985,720.128s-1.784-5.6-12.695-3.427a4.471,4.471,0,0,0,.141,8.809h.212C939.844,726.511,942.348,723.655,944.985,720.128Z" transform="translate(-298.995 -251.038)" fill="#59d083"/>
    <path id="Path_284" data-name="Path 284" d="M951.914,721.3s5.861.458,6.227,11.566c.169,5-6.749,6.517-8.6,1.876a.609.609,0,0,0-.078-.2C946.872,727.76,949.079,724.671,951.914,721.3Z" transform="translate(-304.789 -252.542)" fill="#59d083"/>
    <path id="Path_285" data-name="Path 285" d="M957.929,697.194a11.658,11.658,0,0,0-7.871-8.787c-7.384-2.327-11.284,8.717-4.069,11.524a23.047,23.047,0,0,0,9.338,1.354Z" transform="translate(-302.976 -242.752)" fill="#59d083"/>
    <path id="Path_286" data-name="Path 286" d="M969.654,671.26s-2.983-7.052-10.72-8.463c-8.2-1.5-10.685,10.819-2.581,12.786a27.047,27.047,0,0,0,11.044.092Z" transform="translate(-305.695 -235.261)" fill="#59d083"/>
    <path id="Path_287" data-name="Path 287" d="M977.5,645.81a17.5,17.5,0,0,0-11.284-7.758c-7.052-1.326-9.429,9.232-2.5,11.037a26.333,26.333,0,0,0,13.216-.183Z" transform="translate(-308.107 -227.971)" fill="#59d083"/>
    <path id="Path_288" data-name="Path 288" d="M985.071,620.6a18.2,18.2,0,0,0-9.874-7.849c-7.052-2.165-10.536,8.527-3.526,10.854a20.078,20.078,0,0,0,12.793-.049Z" transform="translate(-310.547 -220.462)" fill="#59d083"/>
    <path id="Path_289" data-name="Path 289" d="M988.028,596.52s-2.821-6.615-8.569-10.113c-6.4-3.9-12.5,5.642-6.347,9.937a17.867,17.867,0,0,0,14.331,3.265Z" transform="translate(-311.346 -212.512)" fill="#59d083"/>
    <path id="Path_290" data-name="Path 290" d="M989.333,569.558s-3.11-6.679-9.077-9.874c-6.672-3.526-12.476,6.22-6.192,10.424,4.112,2.743,9.246,4.521,14.7,2.377Z" transform="translate(-311.585 -204.683)" fill="#59d083"/>
    <path id="Path_291" data-name="Path 291" d="M989.138,544.771a43.264,43.264,0,0,0-8.463-9.627c-4.669-3.815-10.579,3.054-6.157,7.13,4.083,3.745,9.168,6.89,14.422,6.636Z" transform="translate(-312.053 -197.344)" fill="#59d083"/>
    <path id="Path_292" data-name="Path 292" d="M986.582,519.876a63.4,63.4,0,0,0-9.563-12.356c-3.653-3.526-9.056,1.848-5.642,5.565,3.942,4.232,9.26,8.618,15.65,10.536Z" transform="translate(-311.267 -189.192)" fill="#59d083"/>
    <path id="Path_293" data-name="Path 293" d="M982.494,493.152a56.532,56.532,0,0,0-7.638-9.457c-3.682-3.6-9.232,1.82-5.7,5.564,3.752,3.985,8.6,7.715,14.3,8.985Z" transform="translate(-310.6 -182.159)" fill="#59d083"/>
    <path id="Path_294" data-name="Path 294" d="M978.839,467.469a90.146,90.146,0,0,0-7.342-8.724c-2.948-3.04-7.659,1.234-4.88,4.436,3.265,3.766,7.455,7.1,12.271,7.638Z" transform="translate(-309.935 -174.847)" fill="#59d083"/>
    <path id="Path_295" data-name="Path 295" d="M974.757,442.037a91.893,91.893,0,0,0-7.052-11.6c-2.207-3.018-6.806.212-4.725,3.315,2.722,4.069,6.5,8.1,11.467,10.036Z" transform="translate(-308.957 -166.455)" fill="#59d083"/>
    <path id="Path_296" data-name="Path 296" d="M972.182,412.072s-1.742-2.955-4.232-6.39c-2.3-3.167-7.151.106-5.021,3.385,2.4,3.674,5.4,6.806,8.9,7.426Z" transform="translate(-308.942 -159.134)" fill="#59d083"/>
    <path id="Path_297" data-name="Path 297" d="M971.693,388.605l-2.207-11.037a2.321,2.321,0,0,0-4.584.705c.79,5.9,2.821,11.827,7.243,15.72Z" transform="translate(-309.673 -150.676)" fill="#59d083"/>
    <path id="Path_298" data-name="Path 298" d="M974.661,348.966h0a2.165,2.165,0,0,0-4.133,1.185,55.879,55.879,0,0,0,2.229,9.027Z" transform="translate(-311.329 -142.407)" fill="#59d083"/>
    <path id="Path_299" data-name="Path 299" d="M964.271,700.444a11.658,11.658,0,0,1,11.538,2.483c5.642,5.268-1.989,14.105-8,9.246a23.177,23.177,0,0,1-5.8-7.44Z" transform="translate(-308.824 -246.221)" fill="#59d083"/>
    <path id="Path_300" data-name="Path 300" d="M977.069,673.78s7.419-1.791,13.16,3.583c6.086,5.7-2.327,15.029-8.738,9.69a27.006,27.006,0,0,1-6.651-8.823Z" transform="translate(-312.608 -238.451)" fill="#59d083"/>
    <path id="Path_301" data-name="Path 301" d="M985.442,649.492a17.512,17.512,0,0,1,13.4-2.976c7.052,1.411,5.3,12.081-1.806,11.171a26.383,26.383,0,0,1-12.187-5.113Z" transform="translate(-315.559 -230.412)" fill="#59d083"/>
    <path id="Path_302" data-name="Path 302" d="M992.531,622.618a18.182,18.182,0,0,1,12.074-3.6c7.377.642,6.587,11.848-.8,11.383a20.036,20.036,0,0,1-11.848-4.831Z" transform="translate(-317.654 -222.382)" fill="#59d083"/>
    <path id="Path_303" data-name="Path 303" d="M995.2,598.035s3.914-6.037,10.163-8.505c6.933-2.743,11.383,7.645,4.648,10.84-4.232,2-9.33,3-14.747.811Z" transform="translate(-318.609 -213.568)" fill="#59d083"/>
    <path id="Path_304" data-name="Path 304" d="M995.55,569.828s3.956-6.206,10.283-8.576c7.053-2.645,11.559,7.793,4.782,11.143-4.436,2.186-9.761,3.272-14.881.437Z" transform="translate(-318.712 -205.243)" fill="#59d083"/>
    <path id="Path_305" data-name="Path 305" d="M993.67,543.553a43.244,43.244,0,0,1,6.206-11.214c3.738-4.732,11.009.705,7.539,5.642-3.188,4.535-7.447,8.689-12.695,9.57Z" transform="translate(-318.158 -196.31)" fill="#59d083"/>
    <path id="Path_306" data-name="Path 306" d="M992.9,518.562a63.139,63.139,0,0,1,5.727-14.571c2.532-4.387,9.211-.755,6.94,3.773-2.6,5.184-6.488,10.861-12.088,14.493Z" transform="translate(-317.931 -187.907)" fill="#59d083"/>
    <path id="Path_307" data-name="Path 307" d="M987.1,490.913a56.574,56.574,0,0,1,5.825-11.122c2.906-4.231,9.345-.085,6.686,4.288-2.892,4.768-6.968,9.563-12.434,11.989Z" transform="translate(-316.222 -180.837)" fill="#59d083"/>
    <path id="Path_308" data-name="Path 308" d="M982.48,465.9a90.641,90.641,0,0,1,3.054-10.981c1.411-4,7.483-2.066,6.284,2-1.41,4.782-3.829,9.556-7.983,12.046Z" transform="translate(-314.86 -173.379)" fill="#59d083"/>
    <path id="Path_309" data-name="Path 309" d="M979.27,440.789a91.57,91.57,0,0,1,4.232-12.913c1.467-3.442,6.686-1.347,5.36,2.151-1.721,4.584-4.485,9.366-8.872,12.384Z" transform="translate(-313.914 -165.537)" fill="#59d083"/>
    <path id="Path_310" data-name="Path 310" d="M974.46,413.462s.663-3.364,1.869-7.433c1.114-3.752,6.785-2.278,5.861,1.523-1.03,4.232-2.821,8.216-5.924,9.965Z" transform="translate(-312.496 -158.974)" fill="#59d083"/>
    <path id="Path_311" data-name="Path 311" d="M975.058,387.871l3.837-10.579a2.322,2.322,0,0,1,4.422,1.41c-1.657,5.713-4.535,11.284-9.507,14.458Z" transform="translate(-312.305 -150.69)" fill="#59d083"/>
    <path id="Path_312" data-name="Path 312" d="M979.7,350.381s.6-.48,1.516-1.234a1.9,1.9,0,0,1,2.546,2.821,35.968,35.968,0,0,1-10.431,6.615Z" transform="translate(-312.163 -142.714)" fill="#59d083"/>
    <path id="Path_313" data-name="Path 313" d="M981.673,335.84a138.911,138.911,0,0,1,7.652-13.626,1.411,1.411,0,0,0-2.285-1.615c-2.257,3.089-4.471,7.61-6.15,14.253Z" transform="translate(-314.391 -134.301)" fill="#59d083"/>
    <path id="Path_314" data-name="Path 314" d="M975.014,397.619l.818-.085c-3.526-32.872-2.038-53.141,4.126-57.069l-.444-.705C972.982,343.942,971.431,363.943,975.014,397.619Z" transform="translate(-312.105 -140.084)" fill="#444053"/>
    <path id="Path_315" data-name="Path 315" d="M987.827,498.511l1.22-.183c-.458-3.04-.987-6.129-1.58-9.168-5.134-26.68-9.126-51.342-11.122-70.074l-.9-.705c2,18.767,5.642,44.283,10.812,71C986.84,492.4,987.369,495.478,987.827,498.511Z" transform="translate(-312.788 -163.257)" fill="#444053"/>
    <path id="Path_316" data-name="Path 316" d="M911.584,697.047c.183-.148,18.971-14.521,35.467-42.089a177.721,177.721,0,0,0,20.875-52.041c5.212-22.928,5.36-49.629,1.6-74.637l-1.1.882c8.463,56.124-7.68,99.7-22.744,124.893-16.334,27.314-34.9,41.539-35.093,41.68Z" transform="translate(-293.671 -195.649)" fill="#444053"/>
    <ellipse id="Ellipse_1" data-name="Ellipse 1" cx="46.935" cy="9.027" rx="46.935" ry="9.027" transform="translate(89.898 483.216)" fill="#59d083"/>
    <ellipse id="Ellipse_2" data-name="Ellipse 2" cx="5.466" cy="7.151" rx="5.466" ry="7.151" transform="translate(130.577 481.255)" fill="#3f3d56"/>
    <ellipse id="Ellipse_3" data-name="Ellipse 3" cx="5.466" cy="7.151" rx="5.466" ry="7.151" transform="translate(130.577 472.51)" fill="#3f3d56"/>
    <ellipse id="Ellipse_4" data-name="Ellipse 4" cx="5.466" cy="7.151" rx="5.466" ry="7.151" transform="translate(130.577 463.772)" fill="#3f3d56"/>
    <ellipse id="Ellipse_5" data-name="Ellipse 5" cx="5.466" cy="7.151" rx="5.466" ry="7.151" transform="translate(130.577 455.027)" fill="#3f3d56"/>
    <ellipse id="Ellipse_6" data-name="Ellipse 6" cx="5.466" cy="7.151" rx="5.466" ry="7.151" transform="translate(130.577 446.282)" fill="#3f3d56"/>
    <ellipse id="Ellipse_7" data-name="Ellipse 7" cx="5.466" cy="7.151" rx="5.466" ry="7.151" transform="translate(130.577 437.544)" fill="#3f3d56"/>
    <ellipse id="Ellipse_8" data-name="Ellipse 8" cx="5.466" cy="7.151" rx="5.466" ry="7.151" transform="translate(130.577 428.799)" fill="#3f3d56"/>
    <path id="Path_317" data-name="Path 317" d="M238.185,572.226a25.753,25.753,0,0,0,2.038-3l-14.359-2.356,15.516.113a26.193,26.193,0,0,0,.5-20.734l-20.833,10.8,19.211-14.1a26.179,26.179,0,1,0-43.232,29.289,26.438,26.438,0,0,0-2.983,4.775l18.64,9.683-19.86-6.672a26.186,26.186,0,0,0,4.232,24.578,26.179,26.179,0,1,0,41.144,0,26.158,26.158,0,0,0,0-32.364Z" transform="translate(-81.69 -196.109)" fill="#59d083"/>
    <path id="Path_318" data-name="Path 318" d="M191.457,612.729a26.094,26.094,0,0,0,5.6,16.178,26.179,26.179,0,1,0,41.144,0C241.713,624.457,191.457,609.788,191.457,612.729Z" transform="translate(-81.706 -220.426)" opacity="0.1"/>
    <path id="Path_319" data-name="Path 319" d="M267.81,317.87V629.387a10.875,10.875,0,0,0,10.875,10.875H725.723A10.875,10.875,0,0,0,736.6,629.387V317.87Z" transform="translate(-104.213 -133.631)" fill="#fff"/>
    <rect id="Rectangle_92" data-name="Rectangle 92" width="112.065" height="65.779" rx="8.65" transform="translate(200.694 212.124)" opacity="0.1"/>
    <rect id="Rectangle_93" data-name="Rectangle 93" width="112.065" height="65.779" rx="8.65" transform="translate(341.963 212.124)" opacity="0.1"/>
    <rect id="Rectangle_94" data-name="Rectangle 94" width="108.912" height="63.924" rx="8.65" transform="translate(202.266 213.048)" fill="#59d083"/>
    <rect id="Rectangle_95" data-name="Rectangle 95" width="108.912" height="63.924" rx="8.65" transform="translate(593.717 276.972) rotate(180)" fill="#444053" opacity="0.1"/>
    <rect id="Rectangle_96" data-name="Rectangle 96" width="108.912" height="63.924" rx="8.65" transform="translate(452.447 276.972) rotate(180)" fill="#59d083"/>
    <rect id="Rectangle_97" data-name="Rectangle 97" width="108.912" height="63.924" rx="8.65" transform="translate(202.266 305.387)" fill="#444053" opacity="0.1"/>
    <rect id="Rectangle_98" data-name="Rectangle 98" width="108.912" height="63.924" rx="8.65" transform="translate(593.717 369.311) rotate(180)" fill="#444053" opacity="0.1"/>
    <rect id="Rectangle_99" data-name="Rectangle 99" width="108.912" height="63.924" rx="8.65" transform="translate(452.447 369.311) rotate(180)" fill="#444053" opacity="0.1"/>
    <rect id="Rectangle_100" data-name="Rectangle 100" width="108.912" height="63.924" rx="8.65" transform="translate(202.266 397.725)" fill="#444053" opacity="0.1"/>
    <rect id="Rectangle_101" data-name="Rectangle 101" width="108.912" height="63.924" rx="8.65" transform="translate(593.717 461.657) rotate(180)" fill="#444053" opacity="0.1"/>
    <rect id="Rectangle_102" data-name="Rectangle 102" width="108.912" height="63.924" rx="8.65" transform="translate(452.447 461.657) rotate(180)" fill="#444053" opacity="0.1"/>
    <path id="Path_320" data-name="Path 320" d="M267.81,235.312v56.6H736.6v-56.6a10.875,10.875,0,0,0-10.875-10.882H278.685a10.875,10.875,0,0,0-10.875,10.882Zm116.014,16.743a8.682,8.682,0,1,1,8.682-8.682A8.682,8.682,0,0,1,383.824,252.055Zm236.76,0a8.7,8.7,0,1,0-.014,0Z" transform="translate(-104.213 -106.09)" fill="#59d083"/>
    <path id="Path_321" data-name="Path 321" d="M428.018,236.74A10.261,10.261,0,1,0,438.273,247a10.261,10.261,0,0,0-10.254-10.259Zm0,18.943A8.682,8.682,0,1,1,436.7,247a8.682,8.682,0,0,1-8.682,8.682Z" transform="translate(-148.407 -109.719)" opacity="0.1"/>
    <path id="Path_322" data-name="Path 322" d="M763.711,236.74A10.261,10.261,0,1,0,773.973,247,10.261,10.261,0,0,0,763.711,236.74Zm0,18.943A8.682,8.682,0,1,1,772.393,247a8.682,8.682,0,0,1-8.682,8.682Z" transform="translate(-247.354 -109.719)" opacity="0.1"/>
    <circle id="Ellipse_9" data-name="Ellipse 9" cx="10.769" cy="10.769" r="10.769" transform="translate(717.827 285.393)" fill="#59d083" opacity="0.1"/>
    <circle id="Ellipse_10" data-name="Ellipse 10" cx="18.054" cy="18.054" r="18.054" transform="translate(749.07 230.08)" fill="#59d083" opacity="0.1"/>
    <circle id="Ellipse_11" data-name="Ellipse 11" cx="18.054" cy="18.054" r="18.054" transform="translate(725.169 317.686)" fill="#59d083" opacity="0.1"/>
    <circle id="Ellipse_12" data-name="Ellipse 12" cx="25.565" cy="25.565" r="25.565" transform="translate(0 218.14)" fill="#59d083" opacity="0.1"/>
    <path id="Path_323" data-name="Path 323" d="M908.7,679.661a22.569,22.569,0,0,0-5.233-2.941,1.078,1.078,0,0,0-.458-.12,80.511,80.511,0,0,1-10.79-9.3c.705-.564,1.354-1.114,2.045-1.657-4.232-2.017-6.58-6.636-8.865-10.8a106.592,106.592,0,0,0-23.513-29.3c-.233-.9-1.594-.705-2.32-1.284a1.862,1.862,0,0,1-.515-1.8c.113-.649.409-1.248.571-1.883A12.714,12.714,0,0,0,859.5,616a5.616,5.616,0,0,1,.917-4.38c.324-.374.741-.663,1.058-1.044a3.978,3.978,0,0,0,.705-3.167,11.242,11.242,0,0,0-.705-3.209q5.184-14.1,10.36-28.259c2.419-6.587,4.859-13.315,5.106-20.339.2-5.642-1.255-11.5-4.669-15.812.621-.148,1.241-.3,1.855-.48-4.034-5.346-4.471-12.427-4.577-19.162q-.085-5.036-.346-10.078c1.171.515,2.356.973,3.569,1.368l1.128.346a38.891,38.891,0,0,0,5.593,1.2c.832.12,1.678.212,2.518.268h0q-1.82-4.556-3.632-9.126a12.472,12.472,0,0,1-1.128-4.281h0v-.282a2.464,2.464,0,0,1,.035-.508,5.574,5.574,0,0,1,.275-1.185,5.364,5.364,0,0,1,.219-.557,9.883,9.883,0,0,1,.9-1.587c.254-.388.536-.762.818-1.143a15.594,15.594,0,0,0,2.532-4.1,7.757,7.757,0,0,0,.388-2.334,11.5,11.5,0,0,0-.212-2.4c-.1-.522-.226-1.051-.367-1.559h0c-.092-.317-.19-.635-.289-.945l-.085-.254c-.078-.24-.155-.473-.24-.705l-.085-.24c-.092-.254-.183-.5-.282-.755l-.056-.148c-1.347-3.463-3.138-6.763-4.232-10.325a27.218,27.218,0,0,1-.705-2.885c-.049-.247-.085-.5-.127-.748s-.063-.423-.092-.635-.063-.494-.092-.741l-.064-.705c0-.226-.035-.451-.049-.705,0-.43-.042-.86-.049-1.291v-1.961c0-.324.049-.649.078-.966a1.431,1.431,0,0,1,.049-.458q.07-.705.19-1.41h0c.071-.416.148-.839.233-1.262a16.845,16.845,0,0,0,.395-3.526,3.5,3.5,0,0,0-.049-.705c-.049-.247-.056-.381-.092-.564a1.423,1.423,0,0,1,0-.169,1.871,1.871,0,0,0-.092-.381.713.713,0,0,0-.056-.176c-.021-.056-.078-.247-.12-.367s-.035-.106-.056-.162-.1-.254-.155-.374l-.049-.127c-.07-.155-.148-.3-.226-.451h0a10.391,10.391,0,0,0-.945-1.467h0c-2.32-3.047-6.178-5.367-8.3-8.724a19.422,19.422,0,0,1-2.377-7.053c-.106-.564-.2-1.128-.3-1.686s-.183-1.107-.282-1.657c-.063-.339-.127-.705-.2-1.016l-.042-.219c-.056-.268-.113-.543-.176-.811l-.042-.19c-.063-.282-.127-.564-.2-.846l-.042-.148c-.07-.3-.148-.592-.226-.889a.594.594,0,0,1,0-.106c-.085-.31-.176-.621-.268-.931v-.063c-.1-.324-.2-.642-.3-.959h0c-.106-.324-.219-.656-.339-.98h0c-.127-.331-.247-.663-.381-.987h0a26.092,26.092,0,0,0-3.569-6.347c-3.23-4.147-8.223-7.123-13.4-6.926A26.545,26.545,0,0,0,836,410.092l-6.792,2.5,1.9-.875a16.229,16.229,0,0,0-5.776,1.234,5.61,5.61,0,0,0-3.35,4.591c-.035,1.164.423,2.32.275,3.477-.247,1.911-2,3.209-2.913,4.9a6.3,6.3,0,0,0-.705,3.315v.451a.611.611,0,0,0,0,.113v.226c-2.821-1.227-5.642-2.5-8.463-3.872-4.662-2.292-9.38-4.986-12.285-9.331-.931-1.41-1.65-2.934-2.574-4.33a34.268,34.268,0,0,0-3.526-4.231l-8.653-9.366c-.663,1.248.19,2.722.86,3.964A17.017,17.017,0,0,1,785.6,407a1.96,1.96,0,0,1-.042,1.446,2.821,2.821,0,0,1-1.185.839,4.232,4.232,0,0,0-1.784,4.845,5.36,5.36,0,0,0,4,3.484,7.256,7.256,0,0,1,1.784.437c1.044.515,1.537,1.714,2.285,2.609,1.361,1.636,3.526,2.25,5.593,2.786,3.2,3.7,6.531,7.236,9.732,10.931,4.845,5.593,9.8,11.284,16.122,15.064.656.395,1.326.762,2,1.1a1.107,1.107,0,0,1-.035.339,3.822,3.822,0,0,0,.3,2.468,3.877,3.877,0,0,0,2.765,1.347l4.782.853a16.327,16.327,0,0,1-.233,1.848c-.064.374-.141.741-.212,1.114h0l-.085.48v.071a1.4,1.4,0,0,1-.049.388c-.049.134,0,.092,0,.134v.938c.162,1.876,1.411,3.428,2.659,4.859l.67.811a11.283,11.283,0,0,0-2.179,4.57,15.518,15.518,0,0,0-.31,3.181,5.522,5.522,0,0,0-1.41,2.2,10.057,10.057,0,0,0-.367,3.562v1.41a11.848,11.848,0,0,0,.818,4.937c.063.127.134.24.2.36-1.058,2.073-2.821,3.688-4.083,5.642a12.243,12.243,0,0,0,1.121,14.02c.966,1.114,2.208,2.186,2.32,3.667a13.76,13.76,0,0,1-.2,2c-.113,1.594.621,3.1,1.016,4.648a4.8,4.8,0,0,1-.388,3.851,5.642,5.642,0,0,0-.966,3.7c.36,2-.465,3.992-.607,6.016-.063.867,0,1.749-.078,2.617a14.743,14.743,0,0,1-.515,2.454,1.006,1.006,0,0,1-.07.268c-1.742.769-3.47,1.566-5.134,2.49a4.506,4.506,0,0,0-2.116,1.946,4.993,4.993,0,0,0-.113,2.68l1.5,10.452-.261-.113q.176,2.567.367,5.155a6.953,6.953,0,0,0,.987,3.731,9.719,9.719,0,0,1,1.065,1.361c.592,1.2-.113,2.6-.635,3.822s-.705,2.969.444,3.632a9.373,9.373,0,0,0,1.925,1.03c-1.411,5.882-.113,12.046,1.2,17.949q1.5,6.77,3.011,13.527a32.821,32.821,0,0,1,.663,5.811q0,.423,0,.846a32.552,32.552,0,0,0,1.411,7.913c1.566,5.275.063,11.608.557,17.356a51.485,51.485,0,0,0,1.65,8.174c3.406,13.513,6.446,26.757,7.617,40.651a10.212,10.212,0,0,0,4.88,3.406c-.141,1.707.049,3.66,0,4.655a8.04,8.04,0,0,1-.381,2.426,5.83,5.83,0,0,1-3.688,3.138c-.494.169-.994.3-1.5.423l.564-.48a12.6,12.6,0,0,0-9.387,1.65,3.717,3.717,0,0,0-1.855,2.186,3.526,3.526,0,0,0,.649,2.532,11.545,11.545,0,0,0,6.523,4.633,34.22,34.22,0,0,0,8.04,1.121l4.979.289a1.368,1.368,0,0,0,.324,1.77,3.483,3.483,0,0,0,1.827.663,23.27,23.27,0,0,0,6.143.092,2.4,2.4,0,0,0,1.41-.508.91.91,0,0,0,0-1.347,1.488,1.488,0,0,0,1.354-.987,4.006,4.006,0,0,0,.183-1.784c-.134-2.32-.338-5.691-1.544-7.758a1.968,1.968,0,0,0-2.179-.959,84.638,84.638,0,0,1-1.41-12.511,30.573,30.573,0,0,0,3.625-1.636c-3.463-5.593-3.526-12.695-2.468-19.2a58.139,58.139,0,0,0,.924-6.213c.233-4.161-.395-8.872-2.7-12.314a44.058,44.058,0,0,1,11,9.958c4.873,6.347,7.842,14.035,13.816,19.324q1.178-1.15,2.384-2.285,1.89,3.2,3.576,6.538a24.869,24.869,0,0,1,2.073,5.155,23.846,23.846,0,0,1,.19,8.315q-.247,2.2-.6,4.38a11.92,11.92,0,0,1-.43,1.834,1.27,1.27,0,0,0-.134-.55c-.374-.656-1.411-.36-1.975.092a8.718,8.718,0,0,0-2.433,2.821,3.04,3.04,0,0,0-.437,1.8,2.658,2.658,0,0,0,1.41,1.763c2.617,1.53,5.9.423,8.71-.705a10.219,10.219,0,0,0,2.2-1.107c1.411-1.016,2.179-2.687,3.583-3.674a20.743,20.743,0,0,0,2.165-1.368c1.3-1.192,1.411-3.2,2.363-4.711,1.58-2.6,5.113-3.272,6.5-6.03C912.983,685.493,911.114,681.65,908.7,679.661Z" transform="translate(-255.886 -157.515)" fill="url(#linear-gradient)"/>
    <path id="Path_324" data-name="Path 324" d="M870.478,811.328a7.863,7.863,0,0,1-.388,2.4,5.8,5.8,0,0,1-3.681,3.1c-1.566.543-3.23.705-4.824,1.178a4.232,4.232,0,0,0-1.883.973c-1.411,1.41-.564,3.949,1.086,5s3.752,1.016,5.713.881a75.228,75.228,0,0,0,12.356-1.756c1.467-.346,3.181-1.023,3.413-2.511a4.118,4.118,0,0,0-.113-1.41,83.373,83.373,0,0,1-1.587-15.325c0-.339-8.181-.557-8.943-.064C869.921,804.911,870.57,809.594,870.478,811.328Z" transform="translate(-278.461 -276.77)" fill="#a1616a"/>
    <path id="Path_325" data-name="Path 325" d="M926.346,786.121q2.031,3.364,3.815,6.862a24.3,24.3,0,0,1,2.073,5.085,23.372,23.372,0,0,1,.19,8.2q-.247,2.165-.607,4.323c-.233,1.411-.607,3.011-1.812,3.822a4.174,4.174,0,0,0,3.6.318,10.362,10.362,0,0,0,3.167-1.94c6.044-4.986,10.579-12.229,10.8-20.064a3.182,3.182,0,0,0-.332-1.777,3.526,3.526,0,0,0-1.058-.945,81.274,81.274,0,0,1-12.5-10.5,1.531,1.531,0,0,0-.917-.585,1.587,1.587,0,0,0-.818.233c-2.32,1.164-6.2,2.821-7.165,5.466a3.7,3.7,0,0,1,1.566,1.5Z" transform="translate(-297.853 -269.525)" fill="#a1616a"/>
    <path id="Path_326" data-name="Path 326" d="M876.783,824.945c-5.078,2.116-10.579,2.877-16.073,3.6a2.2,2.2,0,0,1-1.925-.353,1.467,1.467,0,0,1-.127-1.65,4.3,4.3,0,0,1,1.178-1.3l3.646-3.054a12.7,12.7,0,0,0-9.267,1.594,3.689,3.689,0,0,0-1.848,2.116,3.441,3.441,0,0,0,.649,2.5,11.523,11.523,0,0,0,6.516,4.57,34.841,34.841,0,0,0,8.033,1.107l4.937.282a1.333,1.333,0,0,0,.331,1.749,3.527,3.527,0,0,0,1.834.67,23.512,23.512,0,0,0,6.136.085,2.348,2.348,0,0,0,1.41-.5.889.889,0,0,0,0-1.326,1.488,1.488,0,0,0,1.354-.98,4.084,4.084,0,0,0,.183-1.756c-.134-2.285-.339-5.642-1.544-7.638S878.49,824.24,876.783,824.945Z" transform="translate(-276.501 -282.198)" fill="#3f3d56"/>
    <path id="Path_327" data-name="Path 327" d="M951.216,796.355a22.689,22.689,0,0,0-5.233-2.9.621.621,0,0,0-.945.24,53.692,53.692,0,0,0-7.708,14.86c-1.009,3.033-1.805,6.263-3.851,8.717-.268.324-.705.656-1.072.465-.529-.268-.2-1.121-.5-1.636-.367-.649-1.368-.353-1.968.092a8.462,8.462,0,0,0-2.426,2.821,2.821,2.821,0,0,0-.437,1.77,2.609,2.609,0,0,0,1.375,1.735c2.616,1.516,5.9.423,8.7-.705a9.955,9.955,0,0,0,2.193-1.093c1.411-.994,2.179-2.652,3.583-3.618a20.642,20.642,0,0,0,2.165-1.354c1.3-1.178,1.411-3.16,2.356-4.655,1.58-2.56,5.113-3.223,6.5-5.945C955.49,802.11,953.628,798.316,951.216,796.355Z" transform="translate(-298.527 -273.772)" fill="#3f3d56"/>
    <path id="Path_328" data-name="Path 328" d="M886.094,596.363c5.543,4.161,7.871,11.559,7.624,18.485s-2.68,13.569-5.092,20.064q-5.184,13.943-10.353,27.879a11.5,11.5,0,0,1,.705,3.174,3.9,3.9,0,0,1-.705,3.117c-.324.374-.705.663-1.058,1.03a5.523,5.523,0,0,0-.917,4.323,12.519,12.519,0,0,1,.12,4.521c-.162.628-.458,1.22-.571,1.855a1.841,1.841,0,0,0,.515,1.777c.705.564,2.116.381,2.32,1.269a105.408,105.408,0,0,1,23.485,28.915c2.285,4.112,4.591,8.668,8.858,10.656a154.658,154.658,0,0,0-11.94,10.5c-5.959-5.219-8.929-12.814-13.795-19.042a43.726,43.726,0,0,0-10.988-9.824c2.306,3.392,2.934,8.047,2.7,12.144a56.355,56.355,0,0,1-.924,6.129c-1.093,6.418-.994,13.4,2.468,18.943-3.7,1.918-7.941,3.343-12.067,2.772a10.268,10.268,0,0,1-6.573-3.752c-1.171-13.71-4.232-26.8-7.61-40.108a49.3,49.3,0,0,1-1.643-8.117c-.494-5.642,1.009-11.919-.564-17.124a31.928,31.928,0,0,1-1.411-7.8c0-.282,0-.557,0-.839a31.97,31.97,0,0,0-.663-5.727l-3-13.343c-1.312-5.833-2.624-11.912-1.206-17.716a9.413,9.413,0,0,1-1.918-1.009c-1.15-.656-.966-2.37-.444-3.583s1.22-2.588.635-3.773a9.212,9.212,0,0,0-1.065-1.347,6.777,6.777,0,0,1-.987-3.674l-.367-5.092a9.965,9.965,0,0,1,5.021,4.394c-2.779-4.3-1.411-10.438.642-15.135a6.9,6.9,0,0,1,6.474-5.127C863.1,594.247,876.911,589.459,886.094,596.363Z" transform="translate(-272.764 -214.654)" fill="#3f3d56"/>
    <path id="Path_329" data-name="Path 329" d="M895.106,638.93s-5.557,3.71-5.557,6.488-1.411,27.787-1.411,27.787v17.631s.924,9.267,0,11.58,0,12.97,0,14.359,1.411-14.359,1.411-14.359v-16.7l1.41-37.985Z" transform="translate(-286.932 -228.263)" opacity="0.1"/>
    <path id="Path_330" data-name="Path 330" d="M833.076,441.5l-3.237-1.262c-6.615-2.652-13.238-5.311-19.641-8.421-4.655-2.264-9.373-4.937-12.271-9.2-.931-1.411-1.65-2.892-2.574-4.281a34.146,34.146,0,0,0-3.526-4.182l-8.646-9.239c-.663,1.234.183,2.687.86,3.907a16.926,16.926,0,0,1,1.6,4.083,1.891,1.891,0,0,1-.049,1.41,2.743,2.743,0,0,1-1.178.832,4.14,4.14,0,0,0-1.784,4.775,5.325,5.325,0,0,0,3.992,3.442,7.58,7.58,0,0,1,1.784.43c1.044.515,1.537,1.693,2.285,2.574,1.361,1.615,3.526,2.229,5.586,2.75,3.2,3.646,6.524,7.137,9.725,10.783,4.838,5.515,9.789,11.129,16.108,14.867a23.59,23.59,0,0,0,7.271,2.92A117.839,117.839,0,0,1,833.076,441.5Z" transform="translate(-255.898 -159.286)" fill="#a1616a"/>
    <path id="Path_331" data-name="Path 331" d="M833.076,441.5l-3.237-1.262c-6.615-2.652-13.238-5.311-19.641-8.421-4.655-2.264-9.373-4.937-12.271-9.2-.931-1.411-1.65-2.892-2.574-4.281a34.146,34.146,0,0,0-3.526-4.182l-8.646-9.239c-.663,1.234.183,2.687.86,3.907a16.926,16.926,0,0,1,1.6,4.083,1.891,1.891,0,0,1-.049,1.41,2.743,2.743,0,0,1-1.178.832,4.14,4.14,0,0,0-1.784,4.775,5.325,5.325,0,0,0,3.992,3.442,7.58,7.58,0,0,1,1.784.43c1.044.515,1.537,1.693,2.285,2.574,1.361,1.615,3.526,2.229,5.586,2.75,3.2,3.646,6.524,7.137,9.725,10.783,4.838,5.515,9.789,11.129,16.108,14.867a23.59,23.59,0,0,0,7.271,2.92A117.839,117.839,0,0,1,833.076,441.5Z" transform="translate(-255.898 -159.286)" opacity="0.15"/>
    <path id="Path_332" data-name="Path 332" d="M844.523,474.815a3.884,3.884,0,0,1-2.765-1.326,3.716,3.716,0,0,1-.3-2.433,68.233,68.233,0,0,1,3.526-15.586c1.573,2.913,4.669,4.612,7.6,6.143a56.43,56.43,0,0,0,8.167,3.724c-.705-.226-2.433,10.621-3.406,11.284-1.227.86-4.189-.3-5.55-.536Z" transform="translate(-273.269 -174.189)" fill="#59d083"/>
    <circle id="Ellipse_13" data-name="Ellipse 13" cx="14.824" cy="14.824" r="14.824" transform="translate(563.941 267.776)" fill="#a1616a"/>
    <path id="Path_333" data-name="Path 333" d="M852.22,470.454s9.725,8.336,5.557,13.893-6.488,9.267-.931,9.732,24.084-9.267,24.084-9.267-17.138-13.893-14.359-22.229S852.22,470.454,852.22,470.454Z" transform="translate(-276.466 -175.583)" fill="#fbbebe"/>
    <path id="Path_334" data-name="Path 334" d="M859.019,488.882a11.5,11.5,0,0,0-8.512,8.562c-1.093,4.993,1.227,10.579-.959,15.177-1.03,2.186-2.941,3.822-4.231,5.875a11.989,11.989,0,0,0,1.114,13.83c.966,1.1,2.207,2.165,2.32,3.618a13.3,13.3,0,0,1-.2,1.975c-.113,1.573.621,3.068,1.016,4.591a4.672,4.672,0,0,1-.388,3.794,5.493,5.493,0,0,0-.959,3.646c.353,1.975-.473,3.942-.614,5.938-.063.86,0,1.721-.078,2.581a15.048,15.048,0,0,1-.508,2.419l-1.241,4.577a50.873,50.873,0,0,0,21.158,3.78c6.516-.127,12.941-1.474,19.317-2.821,1.939-.409,3.879-.818,5.79-1.347-4.034-5.275-4.464-12.264-4.577-18.9a282.125,282.125,0,0,0-2.475-33.076c1.954-3.688,2.821-7.8,3.625-11.9a20.121,20.121,0,0,0,.451-5.028c-.2-3.526-1.82-6.876-3.406-10.071-1.453-2.92-3.026-5.995-6.263-7.257a4.979,4.979,0,0,0-4.817.529c-2.447,1.848-1.721,5.035-2.349,7.758-.825,3.526-4.076,6.058-7.539,7.053a24.506,24.506,0,0,1-7.927.741,1.411,1.411,0,0,1-1-2.313C856.9,491.358,858.045,490.081,859.019,488.882Z" transform="translate(-273.934 -180.964)" fill="#59d083"/>
    <path id="Path_335" data-name="Path 335" d="M868.766,574.49c-5.487,4.485-11.037,9.013-17.37,12.187-3.717,1.862-7.666,3.237-11.284,5.24A4.506,4.506,0,0,0,838,593.835a4.74,4.74,0,0,0-.113,2.645l1.608,11.087c.444,3,3.329,4.937,5.642,6.855a4.059,4.059,0,0,1,.148-2.687,9.009,9.009,0,0,1,.543-.811,7.609,7.609,0,0,0,.783-5.212,28.941,28.941,0,0,1-.614-5.346,1.749,1.749,0,0,1,.748-1.552c7.878-3.787,16.362-6.693,24.324-10.29a25.773,25.773,0,0,0,5.9-3.35,9.083,9.083,0,0,0,3.427-5.691,1.114,1.114,0,0,0-.141-.867,1.178,1.178,0,0,0-.6-.353C876.087,576.965,872.321,575.774,868.766,574.49Z" transform="translate(-272.2 -209.27)" fill="#a1616a"/>
    <path id="Path_336" data-name="Path 336" d="M857.234,508.514c-2.722.458-5.586,1.869-6.509,4.478a9.949,9.949,0,0,0-.367,3.526,11.466,11.466,0,0,0,.825,4.887,13.8,13.8,0,0,0,1.65,2.4c6.516,8.35,9.789,18.837,16.136,27.321.564.748,1.594,1.721,1.276,2.6a6.27,6.27,0,0,0-.3.705,1.411,1.411,0,0,0,.465,1.234,3.011,3.011,0,0,1,.769,1.121c.12.444-.176,1.023-.635.987.762,2.356,3.1,3.731,5.311,4.845,3.681,1.855,7.758,3.315,11.855,2.913.769-3.082,1.841-6.566,1.411-9.7a25.189,25.189,0,0,0-2.363-6.883L884,542.924c-2.349-5.141-4.718-10.318-7.99-14.923a22.565,22.565,0,0,1-2.955-4.76c-.839-2.179-3.145-3.71-4.542-5.579a34.564,34.564,0,0,0-7.01-7.68A6.334,6.334,0,0,0,857.234,508.514Z" transform="translate(-275.909 -189.812)" opacity="0.1"/>
    <path id="Path_337" data-name="Path 337" d="M857.235,506.544c-2.722.458-5.586,1.869-6.509,4.471a10.007,10.007,0,0,0-.367,3.526,11.466,11.466,0,0,0,.825,4.887,13.8,13.8,0,0,0,1.65,2.4c6.516,8.35,9.789,18.837,16.136,27.321.564.748,1.594,1.721,1.276,2.6a6.308,6.308,0,0,0-.3.705,1.411,1.411,0,0,0,.465,1.234,3.012,3.012,0,0,1,.769,1.121c.12.444-.176,1.023-.635.987.762,2.356,3.1,3.731,5.311,4.845,3.681,1.855,7.758,3.315,11.855,2.913.769-3.082,1.841-6.566,1.411-9.7a25.191,25.191,0,0,0-2.363-6.883L884,540.947c-2.349-5.141-4.718-10.318-7.99-14.923a22.45,22.45,0,0,1-2.955-4.768c-.839-2.172-3.145-3.7-4.542-5.572A34.566,34.566,0,0,0,861.5,508,6.362,6.362,0,0,0,857.235,506.544Z" transform="translate(-275.909 -189.232)" fill="#59d083"/>
    <path id="Path_338" data-name="Path 338" d="M846.1,421.278a16.323,16.323,0,0,0-5.769,1.213,5.55,5.55,0,0,0-3.35,4.528,26.935,26.935,0,0,1,.275,3.428c-.247,1.89-2,3.167-2.906,4.838-1.58,2.906-.353,6.6,1.693,9.168s4.817,4.542,6.919,7.095a18.337,18.337,0,0,1,3.823,14.754,11.7,11.7,0,0,0-.374,3.082c.162,1.848,1.411,3.378,2.652,4.789a221.215,221.215,0,0,1,16.729,22.258,60.144,60.144,0,0,1,4.119,7.053c1.2,2.525,2.116,5.219,3.78,7.454a19.684,19.684,0,0,0,5.55,4.761,39.2,39.2,0,0,0,17.772,5.734l-3.632-9.006a10.34,10.34,0,0,1-1.093-5c.4-3.244,3.674-5.374,4.739-8.463a10.265,10.265,0,0,0-.19-6.206c-1.284-4.563-3.851-8.668-5.233-13.2a26.8,26.8,0,0,1-.79-12.278,18.965,18.965,0,0,0,.571-5.43c-.67-5.515-7.137-8.153-10.127-12.829-1.932-3-2.306-6.707-2.955-10.219-.938-5.127-2.609-10.247-5.84-14.338s-8.209-7.053-13.4-6.834a27.081,27.081,0,0,0-8.054,2.017l-6.8,2.475" transform="translate(-270.987 -163.031)" fill="#3f3d56"/>
    <g id="Group_367" data-name="Group 367" transform="translate(562.663 267.705)" opacity="0.1">
      <path id="Path_339" data-name="Path 339" d="M894.166,438.279c.585,3.167.952,6.488,2.433,9.316-.2-1.1-.374-2.207-.578-3.294a41.071,41.071,0,0,0-2.271-8.082C893.926,436.9,894.046,437.588,894.166,438.279Z" transform="translate(-851.37 -436.22)"/>
      <path id="Path_340" data-name="Path 340" d="M911.925,478a26.933,26.933,0,0,0,.79,12.286,31.723,31.723,0,0,0,1.157,3.174,26.845,26.845,0,0,1-.092-9.436,18.97,18.97,0,0,0,.571-5.43,8.463,8.463,0,0,0-1.834-4.232C912.411,475.587,912.129,476.793,911.925,478Z" transform="translate(-856.617 -447.462)"/>
      <path id="Path_341" data-name="Path 341" d="M920.551,522.563a34.073,34.073,0,0,0-1.41-3.893,8.654,8.654,0,0,1-.268,4.076c-1.065,3.082-4.344,5.219-4.739,8.463a10.258,10.258,0,0,0,1.093,5c.24.6.479,1.206.705,1.805a5.817,5.817,0,0,1,0-.783c.4-3.244,3.674-5.374,4.739-8.463A9.842,9.842,0,0,0,920.551,522.563Z" transform="translate(-857.366 -460.522)"/>
      <path id="Path_342" data-name="Path 342" d="M882.727,530.5a19.747,19.747,0,0,1-5.55-4.768c-1.671-2.236-2.588-4.937-3.787-7.455a59.486,59.486,0,0,0-4.119-7.053,221.512,221.512,0,0,0-16.722-22.265c-.219-.247-.43-.5-.642-.755a7.247,7.247,0,0,0-.162,1.989c.162,1.848,1.41,3.378,2.652,4.789a221.229,221.229,0,0,1,16.729,22.258,60.14,60.14,0,0,1,4.119,7.052c1.2,2.525,2.116,5.219,3.78,7.455a19.685,19.685,0,0,0,5.55,4.76,39.2,39.2,0,0,0,17.772,5.734l-2.468-6.065A39.241,39.241,0,0,1,882.727,530.5Z" transform="translate(-838.986 -451.544)"/>
      <path id="Path_343" data-name="Path 343" d="M841.114,453.955c-2.116-2.553-4.873-4.492-6.919-7.088-.183-.24-.36-.487-.536-.748a10.268,10.268,0,0,0,2.391,6.763c2.045,2.6,4.817,4.542,6.919,7.095a17.631,17.631,0,0,1,2.116,3.216,18.336,18.336,0,0,0-3.971-9.239Z" transform="translate(-833.658 -439.138)"/>
    </g>
    <path id="Path_344" data-name="Path 344" d="M426.942,352.1l-5.113-5.141a2.715,2.715,0,0,0-3.858,0l-32.11,31.814-13.583-13.682a2.708,2.708,0,0,0-3.83,0l-5.169,5.113a2.744,2.744,0,0,0,0,3.858l20.629,20.784a2.736,2.736,0,0,0,3.851,0l39.184-38.888a2.715,2.715,0,0,0,0-3.858Z" transform="translate(-132.118 -141.967)" fill="#3acc6c"/>
    <path id="Path_345" data-name="Path 345" d="M627.942,352.1l-5.113-5.141a2.715,2.715,0,0,0-3.858,0l-32.11,31.814-13.583-13.682a2.708,2.708,0,0,0-3.829,0l-5.17,5.113a2.743,2.743,0,0,0,0,3.858l20.629,20.784a2.736,2.736,0,0,0,3.851,0l39.184-38.888a2.715,2.715,0,0,0,0-3.858Z" transform="translate(-191.363 -141.967)" fill="#3acc6c"/>
  </g>
</svg>
