<svg xmlns="http://www.w3.org/2000/svg" width="333.64" height="279.988" viewBox="0 0 333.64 279.988">
  <g id="Group_607" data-name="Group 607" transform="translate(0 -0.345)">
    <circle id="Ellipse_75" data-name="Ellipse 75" cx="4.798" cy="4.798" r="4.798" transform="translate(32.481 145.346)" fill="#59d083"/>
    <circle id="Ellipse_76" data-name="Ellipse 76" cx="4.798" cy="4.798" r="4.798" transform="translate(53.52 184.84)" fill="#59d083"/>
    <circle id="Ellipse_77" data-name="Ellipse 77" cx="4.798" cy="4.798" r="4.798" transform="translate(37.279 174.874)" fill="#59d083"/>
    <path id="Path_778" data-name="Path 778" d="M642.367,731H560.694s-1.656-24.281,8.14-24.557,8.692,10.761,20.97-4.415,27.178-14.348,29.11-5.38-3.725,16.141,6.622,13.934S650.782,714.166,642.367,731Z" transform="translate(-408.249 -461.265)" fill="#59d083"/>
    <path id="Path_779" data-name="Path 779" d="M667.306,730.759l-.276-.011c.643-15.986,3.991-26.258,6.686-32.059,2.927-6.3,5.747-8.849,5.775-8.875l.183.206c-.028.025-2.815,2.55-5.718,8.806C671.276,704.6,667.946,714.833,667.306,730.759Z" transform="translate(-475.403 -461.02)" fill="#f2f2f2"/>
    <path id="Path_780" data-name="Path 780" d="M747.409,770.059l-.265-.077a42.8,42.8,0,0,1,10.776-17.928l.185.2a42.51,42.51,0,0,0-10.7,17.8Z" transform="translate(-525.947 -500.287)" fill="#f2f2f2"/>
    <path id="Path_781" data-name="Path 781" d="M583.348,759.713l-.273-.038a30.051,30.051,0,0,0-2.7-17.565,24.186,24.186,0,0,0-4.266-6.225l.191-.2a24.492,24.492,0,0,1,4.322,6.3A30.326,30.326,0,0,1,583.348,759.713Z" transform="translate(-418.039 -489.961)" fill="#f2f2f2"/>
    <path id="Path_782" data-name="Path 782" d="M638.293,714.266H536.727l-.023-.344c-.058-.856-1.354-21.045,5.187-28.248a7.164,7.164,0,0,1,5.236-2.512,15.581,15.581,0,0,1,9.1,2.758c4.074,2.417,6.765,4.013,16.549-8.08,10.6-13.1,22.037-15.92,28.611-14.352a10.205,10.205,0,0,1,8.033,7.854,34.853,34.853,0,0,1,.345,10.151c-.222,3.043-.4,5.447.852,6.536,1.043.909,3.126.992,6.553.26,6.972-1.487,16.7-.215,21.582,6.094,2.627,3.394,4.7,9.563-.362,19.68Zm-100.873-.738H637.836c3.769-7.648,3.887-14.108.337-18.694-4.479-5.787-13.876-7.31-20.844-5.824-3.724.795-5.943.663-7.192-.425-1.528-1.332-1.341-3.9-1.1-7.146a34.24,34.24,0,0,0-.331-9.942,9.491,9.491,0,0,0-7.482-7.291c-6.365-1.519-17.482,1.264-27.866,14.1-10.186,12.589-13.254,10.77-17.5,8.251a14.8,14.8,0,0,0-8.707-2.655,6.453,6.453,0,0,0-4.71,2.271C536.558,692.644,537.276,710.8,537.42,713.528Z" transform="translate(-393.091 -444.164)" fill="#cfcce0"/>
    <rect id="Rectangle_543" data-name="Rectangle 543" width="145.699" height="0.738" transform="translate(119.462 269.639)" fill="#cfcce0"/>
    <path id="Path_783" data-name="Path 783" d="M432.419,574.072a9.869,9.869,0,0,1,.015,2.707c-.025.2-.056.4-.092.6h0a16.036,16.036,0,0,1-2.514,5.931c-.08.116-.126.176-.126.176l-.172-.132a16.563,16.563,0,0,1-3.512-3.855c-.084-.133-.168-.267-.248-.4a10.566,10.566,0,0,1-1.416-3.8l0-.019c-.021-.143-.04-.287-.054-.43a10.858,10.858,0,0,1,.32-3.749c.038-.152.079-.3.122-.451a16.566,16.566,0,0,1,2.2-4.612c.08-.116.126-.176.126-.176s.062.044.172.132a16.564,16.564,0,0,1,3.43,3.731c.083.127.165.255.246.386a11.291,11.291,0,0,1,1.267,2.861c.049.176.093.356.131.536S432.39,573.881,432.419,574.072Z" transform="translate(-322.236 -382.818)" fill="#cfcce0"/>
    <path id="Path_784" data-name="Path 784" d="M552.429,631.558a9.872,9.872,0,0,1,1.433,2.3c.086.186.164.373.237.56h0a16.036,16.036,0,0,1,.972,6.368c-.008.141-.015.216-.015.216l-.216-.022a16.564,16.564,0,0,1-5.012-1.439c-.141-.069-.283-.139-.423-.214a10.566,10.566,0,0,1-3.2-2.494l-.013-.015c-.094-.111-.185-.224-.271-.338a10.857,10.857,0,0,1-1.695-3.359c-.047-.15-.091-.3-.132-.448a16.571,16.571,0,0,1-.545-5.082c.008-.141.015-.216.015-.216s.076.005.216.022a16.563,16.563,0,0,1,4.878,1.376c.137.064.274.13.412.2a11.291,11.291,0,0,1,2.58,1.77c.134.124.266.254.393.388S552.3,631.41,552.429,631.558Z" transform="translate(-397.487 -421.628)" fill="#cfcce0"/>
    <path id="Path_785" data-name="Path 785" d="M578.681,404.9l-1.853,30.873s-6.175,17.289,1.852,17.289,3.087-18.524,3.087-18.524l7.409-30.255Z" transform="translate(-417.064 -280.88)" fill="#ffb9b9"/>
    <path id="Path_786" data-name="Path 786" d="M730.05,394.865l1.852,30.873s6.175,17.289-1.852,17.289-3.087-18.524-3.087-18.524l-7.41-30.255Z" transform="translate(-508.54 -274.548)" fill="#ffb9b9"/>
    <path id="Path_787" data-name="Path 787" d="M647.161,748.693l1.235,15.436s-4.94,12.349,3.087,13.584l.238.035a6.369,6.369,0,0,0,7.138-7.429l-1.2-6.808s.618-12.349-3.087-14.819A6.97,6.97,0,0,0,647.161,748.693Z" transform="translate(-462.698 -497.474)" fill="#2f2e41"/>
    <path id="Path_788" data-name="Path 788" d="M678.053,713.766a17.5,17.5,0,0,0-.617,7.409c.617,3.7,1.235,14.2,1.235,14.2s0,11.114,4.322,11.114c1.544,0,2.851-1.339,3.894-3.06a15.669,15.669,0,0,0,1.589-12.235l-2.4-8.785v-6.792Z" transform="translate(-481.859 -476.132)" fill="#2f2e41"/>
    <path id="Path_789" data-name="Path 789" d="M603.174,407.631S589.59,425.537,597,452.088s8.027,33.96,8.027,33.96l4.322,50.631s7.409,2.47,13.584-1.235l-1.852-48.779V457.027l3.7,32.725v32.725s8.644,8.644,14.819.617l1.235-36.43s3.7-50.632,1.235-55.571-8.027-22.229-8.027-22.229Z" transform="translate(-429.825 -282.992)" fill="#2f2e41"/>
    <path id="Path_790" data-name="Path 790" d="M615.556,179.275s-6.279-2.243-10.316,6.728a176.9,176.9,0,0,1-10.316,18.838l3.588.9s.9-6.279,3.14-7.177l-.9,8.074s26.912,9.419,39.022-.9l-.448-3.14s1.794.449,1.794,3.14l1.346-1.346a24.106,24.106,0,0,0-5.382-6.279c-2.65-2.355-3.56-6.836-3.873-9.637a11.663,11.663,0,0,0-2.685-6.351C627.846,179.016,622.957,175.712,615.556,179.275Z" transform="translate(-429.911 -137.948)" fill="#2f2e41"/>
    <circle id="Ellipse_78" data-name="Ellipse 78" cx="11.732" cy="11.732" r="11.732" transform="translate(177.053 47.457)" fill="#ffb9b9"/>
    <path id="Path_791" data-name="Path 791" d="M644.633,250.381,640.928,265.2l11.114,32.108,8.644-33.96s-8.027-5.557-6.174-12.967Z" transform="translate(-458.935 -183.783)" fill="#ffb9b9"/>
    <path id="Path_792" data-name="Path 792" d="M641.115,353.59s-17.906,6.792-21.611-3.7a49.8,49.8,0,0,1-3.087-18.524s-5.557,21.611-14.819,21.611-14.2-3.087-14.2-3.087,6.792-21.611,12.967-25.316l.086-.21c.346-.864,1.568-4.291.71-7.3a6.268,6.268,0,0,0-.8-1.747c-2.47-3.7-4.94-4.94-4.322-14.2l-4.94-17.289,17.036-3.927,8.9,28.008,8.1-27.421,14.745,2.106s1.235,22.229-4.94,30.255a13.33,13.33,0,0,0-2.173,4.217,20.032,20.032,0,0,0-.241,9.861h.006a27.271,27.271,0,0,0,1.791,5.681Z" transform="translate(-425.162 -202.4)" fill="#cfcce0"/>
    <path id="Path_793" data-name="Path 793" d="M719.553,287.776l3.7-.617s1.544-.309,4.322,1.852c3.548,2.76,3.7,40.135,3.7,40.135l-11.732.617Z" transform="translate(-508.54 -206.976)" fill="#cfcce0"/>
    <path id="Path_794" data-name="Path 794" d="M591.022,291.7l-3.087-1.235s-1.235-.617-1.852,3.087-3.7,41.987-3.7,41.987l12.967-.617V307.135Z" transform="translate(-421.996 -209.046)" fill="#cfcce0"/>
    <path id="Path_795" data-name="Path 795" d="M621.8,209.634s3.588-4.934,6.728-5.831,3.588-5.382,3.588-5.382,8.074,8.971,13.007,9.419.449-10.765.449-10.765l-8.971-2.243-8.522.9-6.728,4.485Z" transform="translate(-446.584 -148.737)" fill="#2f2e41"/>
    <circle id="Ellipse_79" data-name="Ellipse 79" cx="3.705" cy="3.705" r="3.705" transform="translate(188.476 114.451)" fill="#2f2e41"/>
    <path id="Path_796" data-name="Path 796" d="M824.242,156.441a39.974,39.974,0,1,1,14.266,19.032,12.93,12.93,0,1,1-14.266-19.032Z" transform="translate(-568.368 -90.858)" fill="#59d083"/>
    <circle id="Ellipse_80" data-name="Ellipse 80" cx="4.626" cy="4.626" r="4.626" transform="translate(273.885 45.94)" fill="#cfcce0"/>
    <circle id="Ellipse_81" data-name="Ellipse 81" cx="4.626" cy="4.626" r="4.626" transform="translate(289.667 45.94)" fill="#cfcce0"/>
    <circle id="Ellipse_82" data-name="Ellipse 82" cx="4.626" cy="4.626" r="4.626" transform="translate(305.45 45.94)" fill="#cfcce0"/>
    <path id="Path_797" data-name="Path 797" d="M812.552,153.551a13.877,13.877,0,0,1-.243-26.819A42.129,42.129,0,1,1,827.8,147.4,13.921,13.921,0,0,1,812.552,153.551ZM862.5,72.8a41.466,41.466,0,0,0-49.363,54.066l.137.385-.4.1a13.139,13.139,0,1,0,14.495,19.339l.2-.354.332.24A41.465,41.465,0,1,0,862.5,72.8Z" transform="translate(-560.633 -70.537)" fill="#cfcce0"/>
    <path id="Path_798" data-name="Path 798" d="M260.879,580.358c-.085-.138-2.082-3.473-2.774-10.4-.635-6.353-.227-17.062,5.327-32,10.522-28.3-2.425-51.133-2.557-51.36l.639-.371a56.678,56.678,0,0,1,5.348,15.149,66.091,66.091,0,0,1-2.737,36.839c-10.5,28.251-2.695,41.625-2.615,41.757Z" transform="translate(-217.271 -332.579)" fill="#cfcce0"/>
    <path id="Path_799" data-name="Path 799" d="M246.025,466.066a5.167,5.167,0,1,1,5.167-5.167A5.167,5.167,0,0,1,246.025,466.066Zm0-9.6a4.429,4.429,0,1,0,4.429,4.429A4.429,4.429,0,0,0,246.025,456.469Z" transform="translate(-206.532 -313.338)" fill="#cfcce0"/>
    <circle id="Ellipse_83" data-name="Ellipse 83" cx="4.798" cy="4.798" r="4.798" transform="translate(49.829 160.479)" fill="#cfcce0"/>
    <path id="Path_800" data-name="Path 800" d="M259.025,546.066a5.167,5.167,0,1,1,5.167-5.167,5.167,5.167,0,0,1-5.167,5.167Zm0-9.6a4.429,4.429,0,1,0,4.429,4.429A4.429,4.429,0,0,0,259.025,536.469Z" transform="translate(-214.733 -363.81)" fill="#cfcce0"/>
    <path id="Path_801" data-name="Path 801" d="M293.025,573.066a5.167,5.167,0,1,1,5.167-5.167A5.167,5.167,0,0,1,293.025,573.066Zm0-9.6a4.429,4.429,0,1,0,4.429,4.429A4.429,4.429,0,0,0,293.025,563.469Z" transform="translate(-236.184 -380.844)" fill="#cfcce0"/>
    <circle id="Ellipse_84" data-name="Ellipse 84" cx="4.798" cy="4.798" r="4.798" transform="translate(233.272 221.381)" fill="#59d083"/>
    <path id="Path_802" data-name="Path 802" d="M780.025,672.066a5.167,5.167,0,1,1,5.167-5.167A5.167,5.167,0,0,1,780.025,672.066Zm0-9.6a4.429,4.429,0,1,0,4.429,4.429A4.429,4.429,0,0,0,780.025,662.469Z" transform="translate(-543.432 -443.303)" fill="#cfcce0"/>
    <circle id="Ellipse_85" data-name="Ellipse 85" cx="4.798" cy="4.798" r="4.798" transform="translate(96.335 248.325)" fill="#59d083"/>
    <path id="Path_803" data-name="Path 803" d="M409.025,745.065a5.167,5.167,0,1,1,5.167-5.167,5.167,5.167,0,0,1-5.167,5.167Zm0-9.6a4.429,4.429,0,1,0,4.429,4.429A4.429,4.429,0,0,0,409.025,735.468Z" transform="translate(-309.368 -489.358)" fill="#cfcce0"/>
    <circle id="Ellipse_86" data-name="Ellipse 86" cx="4.798" cy="4.798" r="4.798" transform="translate(35.803 197.758)" fill="#cfcce0"/>
    <path id="Path_804" data-name="Path 804" d="M272.546,706.4s-4.8-11.811,9.6-20.67Z" transform="translate(-226.039 -458.445)" fill="#cfcce0"/>
    <path id="Path_805" data-name="Path 805" d="M225.247,719.864s-2.184-12.56-19.086-12.453Z" transform="translate(-184.642 -472.122)" fill="#cfcce0"/>
    <rect id="Rectangle_544" data-name="Rectangle 544" width="77.511" height="0.738" transform="translate(0 247.218)" fill="#cfcce0"/>
  </g>
</svg>
