<svg xmlns="http://www.w3.org/2000/svg" xmlns:xlink="http://www.w3.org/1999/xlink" width="369.676" height="275.014" viewBox="0 0 369.676 275.014">
  <defs>
    <linearGradient id="linear-gradient" x1="0.5" y1="1" x2="0.5" gradientUnits="objectBoundingBox">
      <stop offset="0" stop-color="gray" stop-opacity="0.251"/>
      <stop offset="0.54" stop-color="gray" stop-opacity="0.122"/>
      <stop offset="1" stop-color="gray" stop-opacity="0.102"/>
    </linearGradient>
    <linearGradient id="linear-gradient-2" y2="0" xlink:href="#linear-gradient"/>
  </defs>
  <g id="Group_622" data-name="Group 622" transform="translate(-0.007 -0.005)">
    <path id="Path_889" data-name="Path 889" d="M118.261,91.4c-2.3.954-4.661,2.179-5.925,4.327-1.339,2.268-1.179,5.085-.929,7.709,2.172,22.762,7.895,46.969-1.987,67.587-4.8,10-12.819,18.018-19.2,27.1s-11.2,20.426-8.237,31.112C85.6,242.3,99.1,249.535,108.2,259.584c5.957,6.57,10.134,14.554,15.693,21.465s13.176,13,22.049,13.407c12.762.588,23.146-10.434,35.659-12.987,12.819-2.614,25.728,4.038,36.122,12s19.849,17.609,31.96,22.58c13.375,5.495,28.452,4.654,42.532,7.955,12.82,3.009,24.621,9.408,37.347,12.819s27.644,3.2,37.5-5.509c12.852-11.4,11.84-31.693,20.048-46.766,7.624-14.005,22.548-22.366,32.593-34.748,18.076-22.285,17.484-56.345,2.137-80.581S378.7,130.31,350.276,126.49c-12.819-1.72-26.02-1.485-38.344-5.4-32.989-10.469-52.62-47.98-86.3-55.786-21.409-4.953-42.229,3.625-60.465,14.183C149.338,88.654,134.734,84.566,118.261,91.4Z" transform="translate(-81.08 -63.86)" fill="#59d083" opacity="0.1"/>
    <path id="Path_890" data-name="Path 890" d="M192.716,347.69s-12.154,11.47-25.2,11.812a25.315,25.315,0,0,0-15.088,5.366,42.576,42.576,0,0,0-5.641,5.366" transform="translate(-123.386 -246.616)" fill="none" stroke="#535461" stroke-miterlimit="10" stroke-width="2"/>
    <path id="Path_891" data-name="Path 891" d="M119.788,410.9c1.752-.89,8.439-.3,8.439-.3s-3.468,5.751-5.22,6.641a3.561,3.561,0,1,1-3.2-6.342Z" transform="translate(-104.611 -287.002)" fill="#59d083"/>
    <path id="Path_892" data-name="Path 892" d="M136.637,383.228c1.955.207,7.247,4.337,7.247,4.337s-6.054,2.941-7.991,2.738a3.561,3.561,0,0,1,.744-7.076Z" transform="translate(-114.419 -269.495)" fill="#59d083"/>
    <path id="Path_893" data-name="Path 893" d="M180.33,359.149c1.581,1.164,4.067,7.4,4.067,7.4s-6.7-.509-8.279-1.67a3.561,3.561,0,0,1,4.213-5.733Z" transform="translate(-141.418 -253.61)" fill="#59d083"/>
    <path id="Path_894" data-name="Path 894" d="M220.111,349.98c1.756.88,5.26,6.609,5.26,6.609s-6.687.63-8.443-.249a3.561,3.561,0,1,1,3.184-6.36Z" transform="translate(-167.173 -247.792)" fill="#59d083"/>
    <path id="Path_895" data-name="Path 895" d="M161.587,398.492c.584-1.877-1.125-8.372-1.125-8.372s-5.085,4.387-5.669,6.264a3.561,3.561,0,1,0,6.794,2.108Z" transform="translate(-128.402 -273.937)" fill="#59d083"/>
    <path id="Path_896" data-name="Path 896" d="M207.325,388.169c0-1.966-3.579-7.649-3.579-7.649s-3.54,5.7-3.536,7.67a3.561,3.561,0,1,0,7.122-.021Z" transform="translate(-157.784 -267.756)" fill="#59d083"/>
    <path id="Path_897" data-name="Path 897" d="M250.548,369.914c.328-1.937-2.236-8.144-2.236-8.144s-4.455,5.028-4.779,6.965a3.561,3.561,0,0,0,7.015,1.182Z" transform="translate(-185.663 -255.683)" fill="#59d083"/>
    <path id="Path_898" data-name="Path 898" d="M255.758,195.9s-14.639-8.041-18.991-20.358a25.315,25.315,0,0,0-9.746-12.709,42.58,42.58,0,0,0-6.851-3.7" transform="translate(-170.636 -125.202)" fill="none" stroke="#535461" stroke-miterlimit="10" stroke-width="2"/>
    <path id="Path_899" data-name="Path 899" d="M201.592,135.7c1.385,1.392,2.877,7.941,2.877,7.941s-6.538-1.531-7.923-2.927a3.561,3.561,0,0,1,5.046-5.014Z" transform="translate(-154.835 -109.515)" fill="#59d083"/>
    <path id="Path_900" data-name="Path 900" d="M232.833,142.005c.406,1.923-1.9,8.229-1.9,8.229s-4.654-4.839-5.06-6.766A3.561,3.561,0,1,1,232.836,142Z" transform="translate(-174.236 -112.25)" fill="#59d083"/>
    <path id="Path_901" data-name="Path 901" d="M269.457,176.521c-.62,1.862-5.794,6.146-5.794,6.146s-1.574-6.527-.954-8.393a3.565,3.565,0,0,1,6.766,2.247Z" transform="translate(-197.934 -133.381)" fill="#59d083"/>
    <path id="Path_902" data-name="Path 902" d="M290.241,211.83c-.3,1.941-4.672,7.036-4.672,7.036s-2.656-6.168-2.361-8.108a3.561,3.561,0,1,1,7.033,1.068Z" transform="translate(-211.212 -156.387)" fill="#59d083"/>
    <path id="Path_903" data-name="Path 903" d="M219.646,173.2c1.966-.021,7.62-3.646,7.62-3.646s-5.737-3.49-7.7-3.468a3.561,3.561,0,0,0,.082,7.122Z" transform="translate(-167.979 -129.683)" fill="#59d083"/>
    <path id="Path_904" data-name="Path 904" d="M242.656,213.734c1.866-.609,6.178-5.758,6.178-5.758s-6.52-1.613-8.386-1a3.561,3.561,0,1,0,2.208,6.766Z" transform="translate(-182.029 -155.919)" fill="#59d083"/>
    <path id="Path_905" data-name="Path 905" d="M273.48,249.108c1.944-.285,7.065-4.629,7.065-4.629s-6.153-2.692-8.094-2.407a3.561,3.561,0,1,0,1.033,7.04Z" transform="translate(-202.242 -178.595)" fill="#59d083"/>
    <circle id="Ellipse_114" data-name="Ellipse 114" cx="128.907" cy="128.907" r="128.907" transform="translate(56.959 7.983)" fill="url(#linear-gradient)"/>
    <circle id="Ellipse_115" data-name="Ellipse 115" cx="126.77" cy="126.77" r="126.77" transform="translate(59.095 10.12)" fill="#59d083"/>
    <circle id="Ellipse_116" data-name="Ellipse 116" cx="100.775" cy="100.775" r="100.775" transform="translate(85.09 36.115)" fill="#dde1ec"/>
    <rect id="Rectangle_554" data-name="Rectangle 554" width="5.698" height="89.024" transform="translate(183.017 53.919)" fill="#535461" opacity="0.3"/>
    <g id="Group_611" data-name="Group 611" transform="translate(131.796 108.107)" opacity="0.1">
      <rect id="Rectangle_555" data-name="Rectangle 555" width="80.478" height="7.122" transform="translate(60.123 26.646)"/>
      <rect id="Rectangle_556" data-name="Rectangle 556" width="7.122" height="57.161" transform="translate(0 6.309) rotate(-62.36)"/>
      <circle id="Ellipse_117" data-name="Ellipse 117" cx="10.683" cy="10.683" r="10.683" transform="translate(43.386 19.524)"/>
    </g>
    <rect id="Rectangle_557" data-name="Rectangle 557" width="80.478" height="7.122" transform="translate(191.919 133.329)" fill="#535461"/>
    <rect id="Rectangle_558" data-name="Rectangle 558" width="57.161" height="7.122" transform="translate(135.125 106.691) rotate(27.64)" fill="#535461"/>
    <circle id="Ellipse_118" data-name="Ellipse 118" cx="10.683" cy="10.683" r="10.683" transform="translate(175.183 126.207)" fill="#535461"/>
    <g id="Group_612" data-name="Group 612" transform="translate(85.083 36.115)" opacity="0.1">
      <path id="Path_906" data-name="Path 906" d="M327.834,278.153a100.782,100.782,0,0,1,181.31-60.593A100.786,100.786,0,1,0,340.251,326.639,100.316,100.316,0,0,1,327.834,278.153Z" transform="translate(-320 -165.27)"/>
    </g>
    <path id="Path_907" data-name="Path 907" d="M714.749,200.922c-1.2-1.15-11.267,6.41-11.267,6.41s-3.586.655-2.731,3.116-3.757,16.242-3.757,16.242l-1.877-2.624a11.266,11.266,0,0,0-1.492-6.623c-.068-.11-.135-.217-.2-.317l.328-.114c-.125-1.681-2.813-4.241-4.241-5.495v-.541c.089-2.008.894-4.127,0-5.947-1.011-2.076-3.97-3.119-4.22-5.4-.15-1.36.769-2.589,1.175-3.9.969-3.134-1.043-6.331-2.966-9.031a12.63,12.63,0,0,0-2.354-2.713,11.423,11.423,0,0,0-2.827-1.51,72.305,72.305,0,0,0-8.6-2.493,13.7,13.7,0,0,0-8.19-.164,4.028,4.028,0,0,0-1.78,1.022c-.673.755-.762,1.83-1.2,2.731-.712,1.449-2.247,2.315-3.6,3.244s-2.717,2.2-2.724,3.807c0,2.275,2.6,3.707,3.468,5.826.812,1.973,0,4.17-.452,6.249a4.2,4.2,0,0,0-.053,2.062,4.428,4.428,0,0,0,.8,1.389c.538.712,1.115,1.375,1.688,2.051l-.264.1c-4.779-.491-7.852,5.576-7.852,5.576.221.046.431.1.637.16l-.2.264a25.9,25.9,0,0,0-3.508,6.136l-3.917,5.249s-.855-13.126,1.2-16.078-1.877-4.757-1.877-4.757-8.546-9.515-9.732-8.7,2.9,11.156,6.488,12.8a15.761,15.761,0,0,1-.356,5.413c-.431,1.35-2.731,15.586-2.731,15.586s-2.048,11.976,7.343,6.054c6.1-3.839,10.042-10.448,12.05-14.6q.21-.438.4-.837a10.018,10.018,0,0,1,.189,1.335l.356,13.72a20.825,20.825,0,0,1-2.158,9.8l-4.184,8.486.466.142-.281.406c-2.756,4.056-7.442,13.176,2.2,17.823l12.82,1.642-.684,3.28s-5.292,10.006-6.83,16.9a50.631,50.631,0,0,1-4.44,12.139l.4.21c-.082.093-.167.189-.249.288a6.188,6.188,0,0,0-1.481,3.105l-1.738,2.464s-.684,10.17.684,12.634c.748,1.346,3.23,2.2,5.341,2.7a3.517,3.517,0,0,0,4-5.16l-.021-.036h-.032c-.356-1.656-1.446-6.794-1.09-8.746.1-.556.192-1.107.239-1.67a5.9,5.9,0,0,1,.662-2.112c.057-.11.117-.217.178-.324l.185.078c.573.246,1.139.477,1.677.68-.833.758-1.424,2.329-.712,5.559,0,0,.068,8.08.684,9.351s7.51,2.952,8.707,1.642-.769-5.826-.769-5.826l-.06.043c-.4-2.617-.883-7.3.317-9.148.484-.744.954-1.513,1.375-2.233l.26-.445h0c2.229,1.111,4.586,1.948,5.876,1.367,0,0,5.633-13.126,5.292-14.764s8.707-20.18,8.707-20.18,7.681-8.546-1.706-14.436c-2.981-1.877-5.153-3.137-6.73-3.988l-1.321-6.908a25.256,25.256,0,0,1,.356-10.918l1.424-5.434h0l.117-.463s3.586-7.382,3.415-10.829a2.491,2.491,0,0,1,.089-.794q.059.246.128.513a66.189,66.189,0,0,0,3.711,10.455c2.724,6.146,6.766,5.658,8.981,4.786a3.066,3.066,0,0,0,1.891-2.215c.8-3.824,2.988-14.539,3.127-17.5a49.772,49.772,0,0,1,.855-6.89C711.167,207.812,715.946,202.072,714.749,200.922Z" transform="translate(-435.772 -138.164)" fill="url(#linear-gradient-2)"/>
    <path id="Path_908" data-name="Path 908" d="M727.464,532.071s-.751,1.506-1.78,3.315c-.4.712-.851,1.478-1.31,2.215-1.627,2.6,0,10.9,0,10.9l-3.561.488-3.561-1.78-.652-6.018v-4.4l4.06-4.54,1.78-1.966Z" transform="translate(-490.289 -364.187)" fill="#f8bdc5"/>
    <g id="Group_613" data-name="Group 613" transform="translate(230.363 166.093)" opacity="0.1">
      <path id="Path_909" data-name="Path 909" d="M734.792,532.071s-.751,1.506-1.78,3.315a44.118,44.118,0,0,1-4.551-2.8l-.313-.221-.167-.121,1.78-1.966Z" transform="translate(-727.98 -530.28)"/>
    </g>
    <path id="Path_910" data-name="Path 910" d="M743.638,408.107s-8.621,18.378-8.293,20.005-5.042,14.639-5.042,14.639c-1.225.577-3.476-.253-5.6-1.353a43.884,43.884,0,0,1-4.629-2.849l-.313-.221-.189-.135,14.151-39.2-12.52-9.184-.926-.68L714.68,385l17.093,3.091s.595-.075,3.739,1.684c1.51.844,3.607,2.108,6.506,4.01C750.952,399.65,743.638,408.107,743.638,408.107Z" transform="translate(-489.053 -270.64)" fill="#5e52ad"/>
    <g id="Group_614" data-name="Group 614" transform="translate(225.627 114.36)" opacity="0.03">
      <path id="Path_911" data-name="Path 911" d="M743.638,408.107s-8.621,18.378-8.293,20.005-5.042,14.639-5.042,14.639c-1.225.577-3.476-.253-5.6-1.353a43.884,43.884,0,0,1-4.629-2.849l-.313-.221-.189-.135,14.151-39.2-12.52-9.184-.926-.68L714.68,385l17.093,3.091s.595-.075,3.739,1.684c1.51.844,3.607,2.108,6.506,4.01C750.952,399.65,743.638,408.107,743.638,408.107Z" transform="translate(-714.68 -385)"/>
    </g>
    <path id="Path_912" data-name="Path 912" d="M716.894,544.41s-4.23-.652-2.763,6.182c0,0,.064,8.012.652,9.259s7.157,2.927,8.293,1.627-.734-5.772-.734-5.772-4.8,3.5-6.1-.246S716.894,544.41,716.894,544.41Z" transform="translate(-488.5 -373.274)" fill="#5d3e53"/>
    <path id="Path_913" data-name="Path 913" d="M696.577,534.918a5.128,5.128,0,0,0-1.107,1.538,6.027,6.027,0,0,0-.63,2.094c-.043.556-.132,1.107-.224,1.656-.406,2.318,1.15,9.187,1.15,9.187l-6.182.976-2.275-2.439-.488-5.366a19.446,19.446,0,0,0,.976-5.7,5.97,5.97,0,0,1,1.424-3.561,9.793,9.793,0,0,1,1.649-1.635S697.88,533.778,696.577,534.918Z" transform="translate(-471.114 -365.082)" fill="#f8bdc5"/>
    <g id="Group_615" data-name="Group 615" transform="translate(218.121 166.581)" opacity="0.1">
      <path id="Path_914" data-name="Path 914" d="M700.943,534.9a5.128,5.128,0,0,0-1.107,1.538c-2.532-1.143-5.192-2.585-6.16-3.119l-.075-.039a9.791,9.791,0,0,1,1.649-1.635S702.246,533.765,700.943,534.9Z" transform="translate(-693.6 -531.65)"/>
    </g>
    <path id="Path_915" data-name="Path 915" d="M709.244,403.229s-4.063,7.645-6.67,13.987c-1.709,4.166-5.242,14.087-7.478,20.4l-.328.933c-.983,2.8-1.638,4.686-1.638,4.686a4.236,4.236,0,0,1-1.278-.189c-.385-.1-.815-.242-1.275-.413l-.516-.2c-.513-.2-1.068-.431-1.6-.673-2.585-1.154-5.341-2.656-6.342-3.2l-.377-.21a51.45,51.45,0,0,0,4.241-12.047c1.464-6.83,6.506-16.737,6.506-16.737l.652-3.255-12.2-1.627c-9.191-4.594-4.725-13.649-2.1-17.669A23.736,23.736,0,0,1,680.29,385l9.761,2.137s1.538.491,4.957,2l1.57.712c1.916.88,4.273,2.012,7.122,3.465C713.307,398.176,709.244,403.229,709.244,403.229Z" transform="translate(-463.772 -270.64)" fill="#5e52ad"/>
    <path id="Path_916" data-name="Path 916" d="M694.228,557.269a3.454,3.454,0,0,1-3.81,5.114c-2-.495-4.366-1.342-5.078-2.678-1.3-2.439-.652-12.524-.652-12.524l1.709-2.521s-.894,11.142,1.221,12.107,6.588.452,6.588.452Z" transform="translate(-469.637 -373.446)" fill="#5d3e53"/>
    <path id="Path_917" data-name="Path 917" d="M700.565,181.857a3.8,3.8,0,0,0-1.709,1.015c-.641.748-.712,1.816-1.147,2.71-.677,1.424-2.137,2.3-3.433,3.2s-2.589,2.186-2.6,3.775c0,2.258,2.493,3.675,3.3,5.772.773,1.959,0,4.134-.431,6.2a4.326,4.326,0,0,0-.05,2.044,4.441,4.441,0,0,0,.762,1.378c1.57,2.137,3.522,4.031,4.572,6.463a20.009,20.009,0,0,1,1.229,5.893,29.612,29.612,0,0,1,.057,8.671.877.877,0,0,0,0,.523.812.812,0,0,0,.417.356,8.546,8.546,0,0,0,11.57-4.273c.712-1.613.986-3.561,2.4-4.608a1.2,1.2,0,0,1,.573-.26,1.677,1.677,0,0,1,.926.31,9.119,9.119,0,0,0,6.089.612,5.66,5.66,0,0,0,3.308-1.645c1.606-1.909.712-4.761.819-7.25.086-1.991.851-4.092,0-5.893-.961-2.058-3.785-3.091-4.02-5.341-.142-1.346.734-2.567,1.122-3.864.922-3.109-.994-6.278-2.824-8.952a12.4,12.4,0,0,0-2.24-2.689,10.751,10.751,0,0,0-2.692-1.5,65.794,65.794,0,0,0-8.19-2.468A12.4,12.4,0,0,0,700.565,181.857Z" transform="translate(-474.243 -139.479)" fill="#85555c"/>
    <path id="Path_918" data-name="Path 918" d="M735.354,261.791h-9.437V246.5a28.491,28.491,0,0,0,.491-4.451c0-.5,0-1.015,0-1.531a7.872,7.872,0,0,0-1.456-4.754c-2.6-2.927,8.457-2.439,8.457-2.439a27.532,27.532,0,0,0,1.318,3.938,23.945,23.945,0,0,0,3.169,5.58,12.912,12.912,0,0,0,4.3,3.657C748.69,249.755,735.354,261.791,735.354,261.791Z" transform="translate(-495.412 -172.957)" fill="#f8bdc5"/>
    <g id="Group_616" data-name="Group 616" transform="translate(229.133 60.338)" opacity="0.1">
      <path id="Path_919" data-name="Path 919" d="M734.7,237.263a8.635,8.635,0,0,1-8.318,3.255,7.872,7.872,0,0,0-1.456-4.754c-2.6-2.927,8.457-2.439,8.457-2.439a27.54,27.54,0,0,0,1.318,3.938Z" transform="translate(-724.526 -233.294)"/>
    </g>
    <circle id="Ellipse_119" data-name="Ellipse 119" cx="8.621" cy="8.621" r="8.621" transform="translate(223.836 49.963)" fill="#f8bdc5"/>
    <path id="Path_920" data-name="Path 920" d="M801.1,251.482a51.235,51.235,0,0,0-.812,6.83c-.132,2.931-2.219,13.557-2.981,17.349a3.009,3.009,0,0,1-1.8,2.2c-2.115.865-5.961,1.35-8.546-4.743a67.432,67.432,0,0,1-3.536-10.362,28.03,28.03,0,0,1-.712-3.625l5.7-3.091a7.017,7.017,0,0,1,1.346,1.727,11.551,11.551,0,0,1,1.424,6.566l1.78,2.6s4.391-13.663,3.561-16.1,2.6-3.091,2.6-3.091,9.6-7.478,10.736-6.342S806.465,248.228,801.1,251.482Z" transform="translate(-532.858 -178.099)" fill="#f8bdc5"/>
    <path id="Path_921" data-name="Path 921" d="M660.837,249.585a38.453,38.453,0,0,1-1.531,3.739c-1.916,4.12-5.669,10.683-11.481,14.479-8.945,5.854-6.994-6.018-6.994-6.018s2.19-14.116,2.6-15.451a16.882,16.882,0,0,0,.324-5.366c-3.415-1.627-7.318-11.872-6.182-12.688s9.258,8.621,9.258,8.621,3.743,1.78,1.781,4.718-1.14,15.939-1.14,15.939l3.764-5.2a25.961,25.961,0,0,1,3.344-6.082c.712-.972,1.211-1.56,1.211-1.56Z" transform="translate(-439.277 -169.695)" fill="#f8bdc5"/>
    <g id="Group_617" data-name="Group 617" transform="translate(249.845 77.935)" opacity="0.1">
      <path id="Path_922" data-name="Path 922" d="M789.744,284.441c-1.2.442-5.829,2.311-6.342,4.985a28.02,28.02,0,0,1-.712-3.625l5.7-3.091A7.019,7.019,0,0,1,789.744,284.441Z" transform="translate(-782.69 -282.71)"/>
    </g>
    <g id="Group_618" data-name="Group 618" transform="translate(215.308 75.015)" opacity="0.1">
      <path id="Path_923" data-name="Path 923" d="M691.953,279.385a38.438,38.438,0,0,1-1.531,3.739c-.221-1.61-1.129-5.726-4.722-7.054.712-.972,1.211-1.56,1.211-1.56Z" transform="translate(-685.7 -274.51)"/>
    </g>
    <g id="Group_619" data-name="Group 619" transform="translate(230.506 69.093)" opacity="0.1">
      <path id="Path_924" data-name="Path 924" d="M737.817,277.622H728.38V262.331a28.475,28.475,0,0,0,.491-4.451,5.868,5.868,0,0,1,1.46,4.775l5.042,11.4,2.443-10.074-.812-1.3,3.347-3.981a12.912,12.912,0,0,0,4.3,3.657C751.152,265.586,737.817,277.622,737.817,277.622Z" transform="translate(-728.38 -257.88)"/>
    </g>
    <g id="Group_620" data-name="Group 620" transform="translate(215.065 114.36)" opacity="0.1">
      <path id="Path_925" data-name="Path 925" d="M716.563,390.7s-7.393-.588-13.806-.865l-.645-.028c-.912-.036-1.78-.064-2.631-.085a58.945,58.945,0,0,1-14.461-2.706A23.733,23.733,0,0,1,686.473,385l9.761,2.137s1.538.491,4.957,2L695.582,385l17.093,3.091s.595-.075,3.739,1.684Z" transform="translate(-685.02 -385)"/>
    </g>
    <path id="Path_926" data-name="Path 926" d="M709.581,264.584l-.812-1.3,3.611-4.319s7.446,3.65,9.4,2.849c0,0,4.718,3.917,4.879,6.182,0,0-6.83,2.275-6.67,5.7s-3.241,10.733-3.241,10.733l-1.424,5.847a26.028,26.028,0,0,0-.356,10.825l1.3,7.239s-10.248-.812-17.093-.976a59.277,59.277,0,0,1-14.639-2.763l3.992-8.4a21.367,21.367,0,0,0,2.058-9.714l-.356-13.6s-.324-6.83-5.7-7.969c0,0,2.927-6.018,7.478-5.53,0,0,6.63-2.767,8.6-.9a5.859,5.859,0,0,1,1.485,4.8l5.042,11.4Z" transform="translate(-469.639 -188.761)" fill="#ed677b"/>
    <g id="Group_621" data-name="Group 621" transform="translate(223.823 46.167)" opacity="0.1">
      <path id="Path_927" data-name="Path 927" d="M712.026,204.14c1.307,0,2.332-1.385,3.639-1.314a3.707,3.707,0,0,1,1.816.855,22.166,22.166,0,0,0,6.947,3.2,6.061,6.061,0,0,0,2.956.214,2.52,2.52,0,0,0,1.987-1.991,3.393,3.393,0,0,0-.171-1.293,15.978,15.978,0,0,0-6.958-9.184,5.478,5.478,0,0,0-4.5-.944c-1.353.466-2.226,1.734-3.2,2.778a12.178,12.178,0,0,1-2.493,2.023c-.712.431-1.78.712-2.19,1.5C709.078,201.466,710.292,204.126,712.026,204.14Z" transform="translate(-709.613 -193.5)"/>
    </g>
    <path id="Path_928" data-name="Path 928" d="M712.026,203.23c1.307,0,2.332-1.385,3.639-1.314a3.707,3.707,0,0,1,1.816.855,22.166,22.166,0,0,0,6.947,3.2,6.061,6.061,0,0,0,2.956.214,2.52,2.52,0,0,0,1.987-1.991,3.394,3.394,0,0,0-.171-1.293,15.978,15.978,0,0,0-6.958-9.184,5.478,5.478,0,0,0-4.5-.944c-1.353.466-2.226,1.734-3.2,2.778a12.178,12.178,0,0,1-2.493,2.023c-.712.431-1.78.712-2.19,1.5C709.078,200.57,710.292,203.213,712.026,203.23Z" transform="translate(-485.79 -146.747)" fill="#85555c"/>
    <path id="Path_929" data-name="Path 929" d="M705.32,326.79s7.969,2.927,13.176.652l2.6.164s4.327,3.034,8.9,1.677" transform="translate(-483.026 -233.159)" opacity="0.05"/>
    <path id="Path_930" data-name="Path 930" d="M809.784,313.09s-1.3,3.091-.652,4.067" transform="translate(-549.755 -224.337)" opacity="0.05"/>
    <path id="Path_931" data-name="Path 931" d="M665.58,310.35s.652,3.091,0,4.067" transform="translate(-457.437 -222.573)" opacity="0.05"/>
    <path id="Path_932" data-name="Path 932" d="M1006.6,508.14a35.574,35.574,0,0,0-6.488,37.006c8.411,22.106-14.415,58.87-14.415,58.87s.246-.036.712-.114c30.6-5.4,45.8-40.4,28.787-66.394C1008.857,527.839,1003.665,516.5,1006.6,508.14Z" transform="translate(-663.564 -349.931)" fill="#59d083"/>
    <path id="Path_933" data-name="Path 933" d="M1006.6,508.84a35.574,35.574,0,0,0-6.488,37.005c8.411,22.107-14.415,58.866-14.415,58.866s.246-.036.712-.114c30.6-5.4,45.8-40.4,28.787-66.394C1008.857,528.539,1003.665,517.2,1006.6,508.84Z" transform="translate(-663.564 -350.381)" opacity="0.1"/>
    <path id="Path_934" data-name="Path 934" d="M1006.6,508.14s-8.411,18.261,0,33.16,1.424,56.708-20.906,62.716" transform="translate(-663.557 -349.931)" fill="none" stroke="#535461" stroke-miterlimit="10" stroke-width="1"/>
    <path id="Path_935" data-name="Path 935" d="M1026.25,677.024s-17-2.706-18.549,12.528S975,706.9,975,706.9l.584.388c25.71,16.879,50.291,10.751,46.584-11.662C1020.8,687.294,1020.915,678.925,1026.25,677.024Z" transform="translate(-656.674 -458.556)" fill="#59d083"/>
    <path id="Path_936" data-name="Path 936" d="M1026.275,677.36s-13.2,2.9-12.107,14.9-19.585,26.383-39.128,14.981" transform="translate(-656.7 -458.892)" fill="none" stroke="#535461" stroke-miterlimit="10" stroke-width="1"/>
    <path id="Path_937" data-name="Path 937" d="M981.865,739.037s-13.389-2.678-16.961-6.249-19.639-9.818-21.423-5.341-24.1,19.639-8.927,22.317,35.706,3.561,40.168,1.78S981.865,739.037,981.865,739.037Z" transform="translate(-627.245 -490.141)" fill="#a8a8a8"/>
    <path id="Path_938" data-name="Path 938" d="M934.56,771.692c15.177,2.678,35.706,3.561,40.168,1.78,3.4-1.36,5.762-7.891,6.695-10.932l.445.093s-2.678,10.711-7.14,12.5-24.994.894-40.168-1.78c-4.38-.773-5.633-2.589-5.16-4.886C929.77,769.961,931.3,771.115,934.56,771.692Z" transform="translate(-627.251 -513.74)" opacity="0.2"/>
  </g>
</svg>
