<svg xmlns="http://www.w3.org/2000/svg" xmlns:xlink="http://www.w3.org/1999/xlink" width="158" height="158" viewBox="0 0 158 158">
  <defs>
    <filter id="Rectangle_493" x="0" y="0" width="158" height="158" filterUnits="userSpaceOnUse">
      <feOffset dy="3" input="SourceAlpha"/>
      <feGaussianBlur stdDeviation="10" result="blur"/>
      <feFlood flood-opacity="0.09"/>
      <feComposite operator="in" in2="blur"/>
      <feComposite in="SourceGraphic"/>
    </filter>
  </defs>
  <g id="Group_1281" data-name="Group 1281" transform="translate(-805 -4323)">
    <g transform="matrix(1, 0, 0, 1, 805, 4323)" filter="url(#Rectangle_493)">
      <rect id="Rectangle_493-2" data-name="Rectangle 493" width="98" height="98" rx="49" transform="translate(30 27)" fill="#fff"/>
    </g>
    <g id="Group_579" data-name="Group 579" transform="translate(863.223 4382.176)">
      <path id="Path_556" data-name="Path 556" d="M859.821,2493.047a17.078,17.078,0,0,1-4.192,1.2c.675-.114,1.67-1.337,2.068-1.831a7.727,7.727,0,0,0,1.4-2.542c.036-.072.063-.163-.009-.219a.24.24,0,0,0-.222.02,21.5,21.5,0,0,1-4.978,1.905.334.334,0,0,1-.344-.091,4.136,4.136,0,0,0-.435-.446,8.822,8.822,0,0,0-2.413-1.478,8.406,8.406,0,0,0-3.7-.6,8.868,8.868,0,0,0-3.511.992,9.055,9.055,0,0,0-2.832,2.313,8.719,8.719,0,0,0-1.69,3.388,9.164,9.164,0,0,0-.091,3.575c.027.2.01.227-.17.2-6.84-1.018-12.51-3.466-17.112-8.71-.2-.228-.308-.228-.472.019-2.013,3.019-1.036,7.868,1.48,10.251.334.318.68.636,1.051.926a8.708,8.708,0,0,1-3.3-.926c-.2-.127-.3-.053-.318.174a5.421,5.421,0,0,0,.053.979,8.779,8.779,0,0,0,5.408,7,5.176,5.176,0,0,0,1.1.334,9.793,9.793,0,0,1-3.24.1c-.236-.046-.326.073-.236.3,1.425,3.885,4.5,5.041,6.8,5.7.308.055.619.055.927.127-.019.027-.037.027-.055.056-.764,1.164-3.413,2.032-4.648,2.462a16.634,16.634,0,0,1-7.056.9c-.38-.056-.459-.051-.563,0s-.012.155.109.253c.481.318.972.6,1.47.871a23.327,23.327,0,0,0,4.717,1.887c8.478,2.34,18.028.622,24.393-5.7,5-4.967,6.75-11.816,6.75-18.674,0-.269.317-.417.507-.558a16.468,16.468,0,0,0,3.3-3.452,1,1,0,0,0,.2-.661v-.038C859.977,2492.939,859.99,2492.971,859.821,2493.047Z" transform="translate(-818.476 -2488.95)" fill="#59d083"/>
    </g>
    <g id="Rectangle_494" data-name="Rectangle 494" transform="translate(844 4359)" fill="none" stroke="#59d083" stroke-width="1">
      <rect width="79" height="80" rx="39.5" stroke="none"/>
      <rect x="0.5" y="0.5" width="78" height="79" rx="39" fill="none"/>
    </g>
  </g>
</svg>
